<svg id="gris" xmlns="http://www.w3.org/2000/svg" viewBox="0 0 792 612"><defs><style>.cls-1{fill:#515151;}</style></defs><title>Tema</title><g id="kSbs8E"><path class="cls-1" d="M391.52,195.25V127.74c-3.8,0-7.49,0-11.17,0-6.2,0-9.5-3.25-9.52-9.34q0-16.79,0-33.55c0-5.67,3.34-9.06,9-9.1q17-.1,33.92,0c5.6,0,9,3.43,9.06,9.08q.09,17,0,33.91c0,5.69-3.38,8.94-9.06,9-3.72,0-7.45.07-11.17.11-.1,0-.2.15-.52.39V195h6.32c7.42,0,12.45,4.72,12.83,12.13a102.4,102.4,0,0,1,.05,10.8c-.12,2.2.84,3,2.71,3.65,4.19,1.53,8.34,3.18,12.39,5,1.78.83,2.87.64,4.14-.75q3.64-4,7.5-7.77c5.11-5,12.16-5.17,17.35-.25,2.33,2.21,4.3,4.82,7.25,8.18,3.06-3.47,5.36-6.35,7.94-9,9.33-9.46,18.8-18.8,28.12-28.27a6.78,6.78,0,0,0,2.05-4.06c.13-18.39.09-36.77.07-55.16a13.46,13.46,0,0,0-.29-1.83c-3.89,0-7.71,0-11.52,0-5.76-.08-9-3.27-9-9q-.07-17,0-33.92c0-5.72,3.27-9,9-9q17-.1,33.91,0c5.44,0,8.88,3.34,8.93,8.79q.17,17.15,0,34.29c0,5.65-3.48,8.85-9.23,8.92-3.82,0-7.65,0-11.94,0v4.32c0,18-.08,36,.06,54a10.81,10.81,0,0,1-3.55,8.52c-11.71,11.47-23.24,23.13-34.82,34.73-.78.77-1.48,1.62-3,3.27a41,41,0,0,1,4.75,3.7c4.85,5.05,4.94,12,.06,17-3.12,3.18-6.64,6-9.54,8.56,2.62,6.42,4.7,11.71,7,16.92a3.29,3.29,0,0,0,2.47,1.43c3.6.12,7.2-.12,10.8-.05,8.27.18,12.87,4.86,12.95,13.06s.17,16.4.16,24.6c0,8-4.67,12.71-12.65,12.87-3.47.06-7-.08-10.42.25a4.46,4.46,0,0,0-3.1,2.18q-2.94,6.42-5.25,13.11a4.47,4.47,0,0,0,.8,3.65c2.18,2.54,4.69,4.78,7.05,7.16,5.86,5.91,5.93,12.83.11,18.64-1.57,1.57-3.39,2.88-5.64,4.77,6.34,6.18,12,11.58,17.51,17.06,7,6.89,13.81,13.94,20.9,20.72a10.69,10.69,0,0,1,3.4,8.56c-.13,16.4-.06,32.8-.06,49.2v5.1h13.81c7.47,0,10.66,3.18,10.66,10.6,0,13,0,26.09,0,39.13,0,6.7-3.35,10-10.11,10q-19.93.06-39.87,0c-6.28,0-9.7-3.43-9.72-9.66q-.07-20.13,0-40.25c0-6.43,3.46-9.78,9.94-9.84,4.72-.05,9.44,0,14.16-.07a4.22,4.22,0,0,0,1-.38c.07-1.05.19-2.25.19-3.45,0-16,.07-32.05,0-48.07a7.23,7.23,0,0,0-1.57-4.64c-11.66-11.87-23.48-23.59-35.26-35.35a20.9,20.9,0,0,0-1.78-1.3c-1.63,1.86-3.13,3.83-4.88,5.55-5.35,5.28-12.12,5.39-17.6.32a78.86,78.86,0,0,1-7.34-7.4c-1.55-1.87-2.94-1.79-4.83-.93-4.28,1.93-8.64,3.69-12.86,5.74a3.71,3.71,0,0,0-1.68,2.71c-.17,3.84,0,7.7,0,11.55-.14,7-4.95,11.86-12,12.13-2.83.1-5.68,0-8.8,0v63.57c4.81,0,9.62,0,14.42,0,6.68,0,10.09,3.39,10.11,10.05q0,19.94,0,39.88c0,6.41-3.44,9.79-9.95,9.82q-20.13.06-40.25,0c-6,0-9.51-3.47-9.54-9.49q-.11-20.49,0-41c0-5.71,3.65-9.17,9.41-9.26,4.84-.08,9.68-.08,14.53-.12.1,0,.21-.1.61-.3v-63c-2.28,0-4.48,0-6.68,0-7.36-.12-12.28-5.05-12.43-12.47-.06-3.47-.21-7,0-10.43.12-2.2-.83-3-2.73-3.65a131.63,131.63,0,0,1-12.41-5c-1.87-.88-2.91-.51-4.16.81-2.3,2.45-4.68,4.81-7,7.18-5.74,5.74-12.56,5.87-18.39.18-2.12-2.07-3.9-4.49-6.64-7.69-3,3.41-5.1,6.13-7.51,8.57-9.6,9.72-19.31,19.34-28.91,29.06a5.6,5.6,0,0,0-1.67,3.45c-.1,17.27-.07,34.54-.05,51.8a9.13,9.13,0,0,0,.35,1.56c4.22,0,8.52.14,12.81-.05,2.88-.12,5,.5,6.43,3.27a14.56,14.56,0,0,0,3.17,4.11c3.38,3.06,2.58,6.81,2.41,11.64-1.66-2-2.77-3.15-3.6-4.45a9.7,9.7,0,0,0-8.51-4.48c-12-.16-24.09-.06-36.14,0a5.19,5.19,0,0,0-1.26.39v39.21H298V513.43l10-6.15c0,8.2.22,17.32-.1,26.43-.14,3.87-4,7.07-7.94,7.1q-21.79.15-43.6-.06a7.89,7.89,0,0,1-7.87-7.89q-.23-21.79,0-43.6c.06-4.77,3.9-8,9-8.11s9.89,0,15.32,0v-4.68c0-16.65.05-33.3,0-49.95a10.48,10.48,0,0,1,3.43-8.19c11.88-11.66,23.59-23.49,35.35-35.26.68-.69,1.32-1.42,2.38-2.58-1.52-1.31-3-2.44-4.32-3.75a12,12,0,0,1-.27-17.37c2.54-2.72,5.34-5.21,7.76-8a4.41,4.41,0,0,0,.58-3.68c-1.6-4.3-3.66-8.42-5.25-12.71-.69-1.85-1.55-2.52-3.46-2.44-3.35.15-6.71.08-10.06.13-7.87.11-13-4.67-13.17-12.44q-.26-12.3-.32-24.59c0-8.72,4.59-13.4,13.19-13.54,4-.07,8.78,1.13,11.65-.69,2.63-1.67,3.14-6.65,4.64-10.15,2.92-6.81,3.2-7.11-1.92-11.51-11.8-10.13-10.32-18.38-.37-26.43a17.65,17.65,0,0,0,1.41-1.69c-3.32-3.1-6.64-6.06-9.79-9.18-9.35-9.28-18.55-18.7-28-27.87A10.86,10.86,0,0,1,272.7,186c.12-18,.08-36,.08-54,0-1.23-.11-2.45-.19-4.2-3.81,0-7.48,0-11.15,0-5.9-.07-9.16-3.32-9.18-9.28q-.07-16.77,0-33.54c0-5.86,3.34-9.15,9.3-9.18q16.77-.09,33.55,0c5.66,0,9.08,3.35,9.12,9q.13,17,0,33.91c0,5.71-3.34,9-9.06,9.08-3.95.08-7.91,0-12.15,0-.11,1.31-.27,2.38-.27,3.45,0,17.39-.08,34.78.1,52.17a9.13,9.13,0,0,0,2.4,5.75c11.64,11.89,23.47,23.6,36.13,36.25a73,73,0,0,1,4.94-6c5.35-5.29,12.14-5.37,17.59-.32,3.18,2.94,5.93,7.66,9.56,8.44,3.34.73,7.55-2.82,11.45-4.33,5.76-2.23,5.78-2.17,5.76-8.56,0-2.36-.08-4.72,0-7.08.15-7.14,4.62-11.82,11.83-12.23C385.41,195.11,388.37,195.25,391.52,195.25Zm4.64,9.85v.14c-4,0-8,.1-11.92,0-2.73-.09-3.83,1-3.74,3.73.15,5,.1,9.93.2,14.9.07,3.3-1.4,5.06-4.59,6.25-6.71,2.5-13.34,5.29-19.81,8.38-3.19,1.52-5.55,1.4-8-1.09-3.47-3.55-7.13-6.91-10.6-10.46-1.8-1.84-3.15-1.8-4.94.07q-8.08,8.49-16.44,16.74c-2,2-1.85,3.4.13,5.23,3.46,3.2,6.66,6.69,10.16,9.85,2.88,2.61,3,5.18,1.42,8.62-2.9,6.42-5.56,13-7.89,19.6-1.19,3.37-3,4.83-6.51,4.79-4.84-.07-9.68.09-14.53.06-2.63,0-3.8,1-3.74,3.77.17,7.69.22,15.4.15,23.09,0,3,1.24,3.9,4.06,3.8,4.84-.18,9.69,0,14.53-.16,3.36-.1,5.13,1.44,6.34,4.54,2.64,6.8,5.44,13.54,8.53,20.14,1.44,3.07,1.25,5.37-1.11,7.7-3.44,3.4-6.71,7-10.22,10.31-2.08,2-2.23,3.48-.08,5.51,5.58,5.3,11.1,10.67,16.47,16.18,2.15,2.2,3.59,1.83,5.49-.21,3.37-3.64,7-7.09,10.41-10.65,2.22-2.29,4.46-2.34,7.38-1,6.65,3,13.43,5.7,20.27,8.21,3,1.09,4.59,2.68,4.62,5.86,0,4.85.36,9.7.15,14.53-.16,3.57,1.26,4.48,4.58,4.36,7.32-.28,14.65-.36,22-.28,3.11,0,4.23-1.15,4.1-4.17-.19-4.84-.17-9.68-.25-14.53,0-2.72.9-4.72,3.63-5.84,7.32-3,14.58-6.11,21.85-9.24,2.12-.91,3.85-1.07,5.71.79,3.84,3.87,7.95,7.47,11.86,11.27,1.81,1.76,3.2,1.79,5-.08q8.11-8.46,16.46-16.72c2-2,1.73-3.43-.2-5.23-3.54-3.3-6.9-6.79-10.41-10.13-2.5-2.37-2.81-4.74-1.32-8,3-6.51,5.71-13.16,8.1-19.92,1.19-3.34,2.94-4.92,6.44-4.88,5,.06,9.93-.06,14.9-.05,2,0,3.42-.65,3.4-2.93-.07-8.19-.17-16.39-.25-24.58,0-2.35-1.21-3.22-3.55-3.15-4.84.14-9.7-.08-14.53.17-3.95.21-5.65-1.67-6.95-5.19-2.41-6.48-5.15-12.87-8.18-19.08-1.62-3.33-1.43-5.76,1.2-8.31,3.56-3.45,6.89-7.15,10.43-10.63,1.7-1.68,1.69-2.93-.07-4.61-5.64-5.41-11.23-10.9-16.71-16.48-2.05-2.09-3.53-2-5.49.13-3.35,3.66-6.94,7.1-10.4,10.66-2.21,2.26-4.49,2.38-7.4,1.07-6.54-2.93-13.16-5.74-19.93-8.09-3.52-1.22-5.12-3.08-5.1-6.68,0-4.47-.24-8.95,0-13.41.15-3.48-.88-5-4.61-4.7C403.14,205.34,399.64,205.1,396.16,205.1ZM534.71,530.86c.27-.58.46-.8.46-1,.05-12.16,0-24.32.13-36.47,0-2.51-1.51-2.36-3.2-2.36q-13.59,0-27.18,0h-9.28v39.81Zm-118,.13c0-13.06,0-25.67-.1-38.28,0-.57-1.47-1.61-2.26-1.62-11.77-.08-23.55-.08-35.32.07a3.08,3.08,0,0,0-2.13,2.11q-.21,17.67,0,35.33a3.33,3.33,0,0,0,2.3,2.29C391.45,531,403.71,531,416.69,531Zm115-444.91H500.08v31.5h31.56ZM262.48,86v31.51H294V86ZM381.1,117.54h31.49V86.08H380.88c0,9.84,0,19.37,0,28.91C380.88,115.72,381,116.44,381.1,117.54Z"/><path class="cls-1" d="M297,506c2.33-2.68,3.81-4.55,5.51-6.2a2.33,2.33,0,0,1,2.14.49c.62,1.48,1.58,3.42,1.07,4.6a9,9,0,0,1-4.19,4.16C300.85,509.38,299.08,507.43,297,506Z"/><path class="cls-1" d="M298.5,499.69v-6.35c1.56,1.7,3.09,2.67,3,3.45-.13,1.16-1.41,2.19-2.2,3.28Z"/><path class="cls-1" d="M338.62,306.22c0-31.9,26.14-58.18,57.67-58.06C429,248.29,455,274.09,455,306.38a58.19,58.19,0,0,1-58.65,58.25C364.4,364.53,338.58,338.39,338.62,306.22Zm106.39.31c.4-25.61-21.21-47.92-46.81-48.34-27.06-.45-49.21,20.63-49.73,47.32a48.38,48.38,0,0,0,47.24,49C422.87,355,444.59,333.86,445,306.53Z"/><path class="cls-1" d="M397.08,276.67A29.76,29.76,0,1,1,367,305.8,29.73,29.73,0,0,1,397.08,276.67Zm19.39,29.86a19.79,19.79,0,0,0-19.74-19.95,19.78,19.78,0,1,0,.06,39.55A19.7,19.7,0,0,0,416.47,306.53Z"/></g></svg>