<svg id="gris" xmlns="http://www.w3.org/2000/svg" viewBox="0 0 792 612"><defs><style>.cls-1{fill:#515151;}</style></defs><title>Tema</title><g id="MxLzaE.tif"><path class="cls-1" d="M337.54,508.73c-3.84-2.75-5.3-6.43-4.77-11.14a80.5,80.5,0,0,0,.05-8.55c-7.67,0-15,0-22.29,0-5.81,0-9.14-2.87-9.21-7.84s3.31-7.89,9.11-7.89h22.39c0-3.93,0-7.56,0-11.2.06-5.47,3-8.44,8.56-8.46,12.71,0,25.42,0,38.39,0V437.87H279.12c-6.58,0-9.32-2.77-9.31-9.3l0-146.8c0-7.45,2.49-10,9.81-10,8.13,0,16.27.08,24.4-.07a10.65,10.65,0,0,0,5.11-1.43q34.13-20.65,68.12-41.55c1.16-.72,2.64-2.19,2.65-3.33.17-18.74.12-37.48.12-56.76h-4.38q-20.85,0-41.71,0c-6.27,0-9-2.88-9-9.17q0-22.25,0-44.48c0-6.55,2.76-9.29,9.31-9.31,5.9,0,11.81,0,17.71,0,5.1,0,8.39,3.18,8.39,7.86s-3.3,7.77-8.41,7.85c-1.84,0-3.67,0-5.51,0H341v31.22H435V121.4c-3.65,0-7.26,0-10.87,0-5.36,0-8.69-3.2-8.6-8,.08-4.64,3.39-7.63,8.57-7.66,6.17,0,12.34-.06,18.5,0,5.26,0,8.33,3.06,8.34,8.3q.08,23.22,0,46.44c0,5.17-3.15,8.19-8.44,8.2-15.34,0-30.68,0-46.33,0v23.63h4.56l111,0c7.63,0,10.1,2.47,10.1,10.11V376.7c0,7.54-2.51,10-10.2,10H443.06c0,3.88,0,7.5,0,11.12-.05,5.52-3,8.58-8.46,8.59q-46.63,0-93.27,0c-5.48,0-8.47-3-8.49-8.54q-.06-18.9,0-37.79c0-5.78,2.93-8.72,8.67-8.74,11.28,0,22.57,0,33.85,0H380c0-6.16.09-12-.1-17.87,0-.87-1.17-1.95-2.07-2.5q-34.51-21.17-69.1-42.19a6.29,6.29,0,0,0-2.84-1.16c-6.65-.1-13.31-.05-20.16-.05V422.14H386c7.14,0,9.78,2.6,9.79,9.62s0,14.16,0,21.86h37c7.72,0,10.18,2.4,10.22,10,0,3,0,6,0,9.71h21.62c6.5,0,9.91,2.77,9.86,8-.06,5-3.45,7.76-9.68,7.76H443c0,3.26-.22,6.37,0,9.43.41,4.74-1.23,8.18-5.55,10.26Zm58.25-300.66c0,5.54.11,10.76-.05,16a4.6,4.6,0,0,0,2.65,4.63q35.1,21.29,70.08,42.76c8.38,5.12,8.38,11.32.06,16.4q-34.87,21.29-69.73,42.59c-1.14.7-2.8,1.82-2.85,2.81-.26,5.95-.13,11.93-.13,18.06,13.28,0,26,0,38.71,0,5.47,0,8.43,3,8.49,8.54,0,3.62,0,7.24,0,10.84H505.7V208.07Zm55.34,71.71c-.81-.62-1.09-.88-1.41-1.07-19.9-12.15-39.78-24.33-59.76-36.35a5.16,5.16,0,0,0-4.4.21q-28.95,17.4-57.75,35.07c-.95.57-1.81,1.28-3,2.17,20.86,12.69,41.3,25.16,61.81,37.51.8.48,2.47.16,3.41-.37,4.11-2.31,8.1-4.83,12.12-7.28C418.32,299.8,434.51,289.92,451.13,279.78ZM348.74,390.37H427V367.22H348.74Zm78.35,79.25h-78.2v23.14h78.2Z"/><path class="cls-1" d="M395.78,113.51a7.87,7.87,0,1,1-8-7.84A7.72,7.72,0,0,1,395.78,113.51Z"/></g></svg>