<svg id="gris" xmlns="http://www.w3.org/2000/svg" viewBox="0 0 792 612"><defs><style>.cls-1{fill:#595959;}</style></defs><title>Tema</title><path class="cls-1" d="M566.37,75.61H181.28a50.28,50.28,0,0,0-50.23,50.23V382.57a50.28,50.28,0,0,0,50.23,50.22H383.69V417.88h-4.3v0H181.28a35.39,35.39,0,0,1-35.35-35.35V125.84a35.39,35.39,0,0,1,35.35-35.35H566.37a35.39,35.39,0,0,1,35.35,35.35V267.3l.66.07v2.05h14.21V125.84A50.28,50.28,0,0,0,566.37,75.61Z"/><path class="cls-1" d="M609.16,149H138.49a7.44,7.44,0,1,1,0-14.87H609.16a7.44,7.44,0,0,1,0,14.87Z"/><g id="fZylnd"><path class="cls-1" d="M662,284.93c0-.8-.18-1-1-1q-126.66,0-253.31,0c-.8,0-1,.17-1,1q0,126.66,0,253.32c0,.79.18,1,1,1q63.33,0,126.65,0t126.66,0c.8,0,1-.18,1-1Q661.94,411.59,662,284.93ZM545.73,482.17a51.24,51.24,0,0,1-1.6,13.78c-3.37,12.18-11.38,19.48-23.6,22.13a46.31,46.31,0,0,1-25.86-1.42c-9.39-3.36-16-9.84-20.41-18.66-.3-.58-.19-.84.35-1.17q9.06-5.44,18.08-10.95c.62-.38.9-.25,1.22.34a47.27,47.27,0,0,0,3.78,5.9c3.53,4.64,8.25,6.28,13.88,5.5,6-.82,8.93-3.88,9.79-9.86a43.59,43.59,0,0,0,.38-6.15q0-39.44,0-78.88c0-1.56,0-1.56,1.53-1.56h20.83c1.61,0,1.62-.35,1.62,1.58v42Q545.73,463.46,545.73,482.17Zm94.59,15c-3.05,8.75-9.16,14.59-17.52,18.2-7.91,3.43-16.24,4.27-24.76,3.74a51.89,51.89,0,0,1-18.78-4.56,42.86,42.86,0,0,1-20.06-18.77c-.42-.78-.41-1.16.43-1.64q8.8-5,17.55-10.2c.82-.48,1.15-.33,1.63.43a30.16,30.16,0,0,0,9.71,10.1,25.32,25.32,0,0,0,15.62,3.37,18.46,18.46,0,0,0,9.27-3,10.82,10.82,0,0,0,1.1-17,27.78,27.78,0,0,0-6.31-4.1c-5.3-2.64-10.83-4.77-16.21-7.22-6.12-2.79-12-6-16.79-10.82A31.33,31.33,0,0,1,566,435.14a33.1,33.1,0,0,1,2.49-16.52c4-9,11.14-14.44,20.45-17.21A47.91,47.91,0,0,1,618.32,403c7.29,3.17,12.43,8.64,16.4,15.36.29.5.25.77-.26,1.1q-8.7,5.55-17.35,11.14c-.58.38-.82.26-1.14-.29a20.79,20.79,0,0,0-5.2-6.4A14.93,14.93,0,0,0,596,421.65c-8.17,2.91-8.17,13.56-2.65,17.94A43.63,43.63,0,0,0,603,445c6,2.66,12.16,5.07,18,8.24a51.73,51.73,0,0,1,12.28,8.85,30.62,30.62,0,0,1,8.75,19.35A36.94,36.94,0,0,1,640.32,497.14Z"/></g></svg>