<svg id="gris" xmlns="http://www.w3.org/2000/svg" viewBox="0 0 792 612"><defs><style>.cls-1{fill:#515151;}.cls-2{fill:#ececec;}</style></defs><title>Tema</title><g id="xzyhba"><path class="cls-1" d="M354.88,496.51c3.37,10.05,6.84,20.46,10.33,30.87.92,2.77,1.8,5.57,2.81,8.31,1.47,3.95,4.32,5.57,7.7,4.52s4.84-4.05,3.53-8.11c-3.95-12.19-7.85-24.4-12.16-36.47-1.54-4.32-1.32-7,2.38-10.43,9.73-9,18.92-18.55,28.11-28.09,1.56-1.62,3-4.42,2.77-6.47-.55-4.95-6.4-6.39-10.28-2.64-6.92,6.68-13.67,13.55-20.49,20.35-3,2.95-5.92,5.92-8.89,8.86a32.42,32.42,0,0,1-23.64,9.89c-16.74,0-33.49.06-50.23,0-19.58-.12-35.45-13.72-39.19-32.95-3.51-18-7.42-36-11.1-54a40.73,40.73,0,0,1-1.18-8.24c.05-6.54-7.21-9-12.09-8.55-5.66.52-11.53,1.39-17,.48-9.93-1.63-17.12-9.12-11.2-20.73,7.6-14.9,15.61-29.6,23.4-44.41,4.16-7.89,9.11-15.52,12.08-23.85,3.24-9.08,4.78-18.8,6.77-28.31,14.18-67.82,54.09-113,120.1-133.78,67.44-21.22,143.56,5.29,185.08,62.7,17.54,24.24,28.48,51.08,31.9,80.74a167.58,167.58,0,0,1-17.27,96.95c-3.37,6.64-7.58,12.85-11.07,19.43-9.14,17.27-13.34,35.58-11.24,55.18,1.94,18.11,9.7,34.52,15.11,51.61,3.74,11.82,8,23.47,12,35.18,1.76,5.08,4.39,6.86,8.12,5.7s4.8-4.49,3-9.74q-10.86-31.85-21.75-63.67c-8.58-25-6.6-49,7-71.89,11.47-19.21,20.89-39.27,25.13-61.45,11.15-58.29-2-110.51-40.25-155.83-28.19-33.41-64.42-53.9-107.52-61.21-76.32-12.94-151.7,22.9-190,91-12,21.3-18.69,44.23-22.14,68.37-1,7-3.75,14-7,20.37-10.12,20-20.54,39.93-31.44,59.55-9.37,16.85-.48,32.43,14.65,38.32,5.11,2,11.52,1.15,17.29.83,5.94-.32,6.47-.41,7.62,5.29q5.81,28.65,11.53,57.3a51.51,51.51,0,0,0,50.26,41.62c16.89.11,33.77.24,50.65-.09C342.92,498.91,348.65,497.43,354.88,496.51Z"/><g id="EjvxpH"><path class="cls-2" d="M592.84,91.8c-10.42-3.28-20.08-.9-27.63,7-8.4,8.79-9.89,19.23-5.08,30.44a2.69,2.69,0,0,1-.62,3.51c-2.08,2.06-4.15,4.14-6.22,6.21l0,0-6.53,6.54-4.09,4.07h0l-27.59,27.61-4.66,4.63-4.31,4.31-.79.79h0c-4.28,4.27-8.56,8.54-12.79,12.86-1.2,1.22-2,1.5-3.47.3-15.74-12.61-39.32-12.6-55.16-.06-2.94,2.33-2.94,2.32-6.11.25l-70.51-46c-4.58-3-9.14-6-14.13-9.26h0l-2.05-1.34s.05,0,.07,0l-.23-.08-26.57-17.38c-4.39-2.89-8.8-5.76-13.26-8.56-2-1.26-2.13-2.31-1.34-4.33,4.31-10.94,2.17-20.85-5.7-29.32-7.49-8-20.82-10.22-30.47-5.78a27.4,27.4,0,0,0-16,27.55c1.76,17.48,18.47,28.9,35.09,23.25,4.89-1.66,8.15-1.23,12.06,1.66,4.31,3.19,8.86,6,13.53,9l33.26,21.68h0l27.36,17.87q25.56,16.69,51.13,33.36c1.44.94,1.7,1.64.94,3.19a45.55,45.55,0,0,0-4,27.65c.16,1,.46,2,.67,3s.34,1.83.55,2.93c-6.33,2.77-12.59,5.53-18.85,8.28-7,3.07-14,6.09-21,9.25-1.58.72-2.45.53-3.51-.88a27.1,27.1,0,0,0-31-8.87c-17.36,6.41-23.43,28.11-11.85,42.41,7.54,9.32,17.42,12.4,28.8,9.33,10.48-2.83,16.84-10.11,19.27-20.71a15.45,15.45,0,0,0,.38-4.23,2.78,2.78,0,0,1,2-3.06c13.6-5.89,27.18-11.85,40.81-17.71a2.9,2.9,0,0,1,2.59.35c10.11,10.1,10.1,10.11,22.45,15.72-.7,2.41-1.4,4.87-2.14,7.33q-7.14,23.7-14.26,47.39c-.48,1.61-1.42,2.15-3,2.4-11.61,1.83-19.43,8.23-22.88,19.57a26.89,26.89,0,0,0,8.66,28.19c16.31,13.21,39.66,5.15,44.26-15.1,1.19-5.25.38-10.38-1.52-15.44a25,25,0,0,0-10.6-13.18,2,2,0,0,1-1-2.75q6.06-19.82,12-39.64c1.48-4.91,3-9.82,4.36-14.75a3,3,0,0,1,3.24-2.6,41.72,41.72,0,0,0,23.5-9c1.46-1.14,2.33-1.25,3.7.17,4.48,4.67,9.08,9.24,13.74,13.73,1.25,1.21,1.38,2.1.55,3.64-5.42,10.11-5.09,20.07,1.62,29.43s16.41,12.69,27.7,10.77c19-3.24,25.78-24.25,18.59-39.4-6.16-12.95-21.29-17.28-33.18-13a3.47,3.47,0,0,1-4.3-1q-7.69-7.89-15.56-15.59c-1.08-1.06-1.2-1.83-.48-3.24,7.17-14,7.35-28.16.21-42.25-.87-1.72-.75-2.69.63-4.05,6.57-6.5,13.09-13,19.79-19.79l31.36-31.31h0l5.55-5.56,5.46-5.46h0l5.62-5.63c1.15-1.15,2-1.48,3.59-.68a26.92,26.92,0,0,0,34.45-10.07C617.28,116.9,610.18,97.26,592.84,91.8ZM274.56,116a13.09,13.09,0,0,1-12.74-13,12.86,12.86,0,0,1,12.83-12.55,12.72,12.72,0,0,1,12.7,12.64A13,13,0,0,1,274.56,116Zm78.51,179.38a12.71,12.71,0,1,1,13-12.66A12.81,12.81,0,0,1,353.07,295.35Zm78.54,80.84c-6.3.22-12.44-6.45-12.38-13.08a13,13,0,0,1,13-12.56c7.5.19,12.54,6,12.61,11.73C445,371,439.8,375.92,431.61,376.19Zm29.83-109.75c-16.65,0-31-14-30.78-30.49.21-17.38,13.44-30.9,30.84-30.88a30.69,30.69,0,0,1-.06,61.37Zm69,23.41c7.36,0,12.53,5.23,12.63,12.7s-5.27,12.95-12.65,12.92a12.81,12.81,0,0,1,0-25.62Zm54.25-159.29c-6.7,0-12.79-5.92-12.78-12.39A13.2,13.2,0,0,1,584.69,105a12.78,12.78,0,0,1,0,25.55Z"/></g></g></svg>