<svg id="gris" xmlns="http://www.w3.org/2000/svg" viewBox="0 0 792 612"><defs><style>.cls-1{fill:#515151;}.cls-2{fill:#ececec;}</style></defs><title>Tema</title><g id="xzyhba"><path class="cls-1" d="M363.8,493.06C367.45,504,371.23,515.3,375,526.6c1,3,2,6,3.06,9,1.59,4.3,4.68,6.06,8.36,4.91s5.26-4.39,3.83-8.8c-4.28-13.25-8.53-26.52-13.21-39.63-1.67-4.7-1.43-7.63,2.58-11.34,10.58-9.75,20.57-20.15,30.55-30.52,1.7-1.76,3.26-4.79,3-7-.59-5.38-6.95-6.94-11.16-2.87-7.53,7.26-14.86,14.73-22.27,22.11q-4.83,4.82-9.66,9.63a35.24,35.24,0,0,1-25.69,10.75c-18.19,0-36.39.07-54.58,0-21.27-.12-38.52-14.9-42.58-35.8-3.81-19.6-8.06-39.12-12.06-58.68a44.2,44.2,0,0,1-1.28-8.95c.05-7.11-7.83-9.77-13.13-9.29-6.16.56-12.53,1.51-18.52.52-10.79-1.77-18.6-9.91-12.17-22.52,8.25-16.2,17-32.17,25.43-48.26,4.51-8.58,9.89-16.86,13.12-25.91,3.53-9.87,5.19-20.44,7.35-30.76,15.41-73.7,58.78-122.8,130.5-145.37,73.27-23,156,5.75,201.11,68.13,19,26.34,30.94,55.5,34.65,87.73,4.25,36.89-1.9,72.15-18.76,105.34-3.67,7.22-8.24,14-12,21.12-9.93,18.75-14.5,38.66-12.22,59.95,2.11,19.68,10.55,37.51,16.43,56.08,4.06,12.84,8.66,25.5,13.08,38.23,1.91,5.51,4.77,7.45,8.82,6.19s5.21-4.88,3.26-10.59q-11.79-34.59-23.63-69.18c-9.33-27.2-7.18-53.27,7.65-78.11,12.46-20.88,22.7-42.67,27.31-66.76,12.11-63.34-2.19-120.09-43.74-169.33C537.8,110.27,498.44,88,451.6,80.07,368.67,66,286.77,105,245.19,179c-13,23.15-20.31,48.07-24.06,74.29-1.09,7.6-4.08,15.22-7.57,22.14-11,21.76-22.32,43.38-34.17,64.7-10.17,18.31-.51,35.23,15.92,41.64,5.56,2.16,12.52,1.24,18.79.9,6.46-.35,7-.44,8.28,5.75q6.3,31.13,12.52,62.26a56,56,0,0,0,54.62,45.22c18.35.12,36.7.26,55-.09C350.81,495.67,357,494.07,363.8,493.06Z"/><path class="cls-2" d="M447.63,258.35H399.74V221.83h47.89Zm-39.8-8.09h31.71V229.93H407.83Z"/><path class="cls-2" d="M504.49,258.35H456.6V221.83h47.89Zm-39.8-8.09H496.4V229.93H464.69Z"/><path class="cls-2" d="M447.63,301H399.74V264.47h47.89Zm-39.8-8.1h31.71V272.57H407.83Z"/><path class="cls-2" d="M390.78,301H342.89V264.47h47.89ZM351,292.9h31.71V272.57H351Z"/><path class="cls-2" d="M504.49,301H456.6V264.47h47.89Zm-39.8-8.1H496.4V272.57H464.69Z"/><path class="cls-2" d="M447.63,343.64H399.74V307.12h47.89Zm-39.8-8.1h31.71V315.21H407.83Z"/><path class="cls-2" d="M390.78,343.64H342.89V307.12h47.89Zm-39.8-8.1h31.71V315.21H351Z"/><path class="cls-2" d="M333.92,343.64H286V307.12h47.89Zm-39.8-8.1h31.71V315.21H294.12Z"/><path class="cls-2" d="M504.49,343.64H456.6V307.12h47.89Zm-39.8-8.1H496.4V315.21H464.69Z"/><path class="cls-2" d="M504.49,212.87H456.6V176.35h47.89Zm-39.8-8.09H496.4V184.44H464.69Z"/></g></svg>