<svg id="gris" xmlns="http://www.w3.org/2000/svg" viewBox="0 0 792 612"><defs><style>.cls-1{fill:#515151;}.cls-2{fill:#ececec;}</style></defs><title>Tema</title><g id="xzyhba"><path class="cls-1" d="M363.8,493.06C367.45,504,371.23,515.3,375,526.6c1,3,2,6,3.06,9,1.59,4.3,4.68,6.06,8.36,4.91s5.26-4.39,3.83-8.8c-4.28-13.25-8.53-26.52-13.21-39.63-1.67-4.7-1.43-7.63,2.58-11.34,10.58-9.75,20.57-20.15,30.55-30.52,1.7-1.76,3.26-4.79,3-7-.59-5.38-6.95-6.94-11.16-2.87-7.53,7.26-14.86,14.73-22.27,22.11q-4.83,4.82-9.66,9.63a35.24,35.24,0,0,1-25.69,10.75c-18.19,0-36.39.07-54.58,0-21.27-.12-38.52-14.9-42.58-35.8-3.81-19.6-8.06-39.12-12.06-58.68a44.2,44.2,0,0,1-1.28-8.95c.05-7.11-7.83-9.77-13.13-9.29-6.16.56-12.53,1.51-18.52.52-10.79-1.77-18.6-9.91-12.17-22.52,8.25-16.2,17-32.17,25.43-48.26,4.51-8.58,9.89-16.86,13.12-25.91,3.53-9.87,5.19-20.44,7.35-30.76,15.41-73.7,58.78-122.8,130.5-145.37,73.27-23,156,5.75,201.11,68.13,19,26.34,30.94,55.5,34.65,87.73,4.25,36.89-1.9,72.15-18.76,105.34-3.67,7.22-8.24,14-12,21.12-9.93,18.75-14.5,38.66-12.22,59.95,2.11,19.68,10.55,37.51,16.43,56.08,4.06,12.84,8.66,25.5,13.08,38.23,1.91,5.51,4.77,7.45,8.82,6.19s5.21-4.88,3.26-10.59q-11.79-34.59-23.63-69.18c-9.33-27.2-7.18-53.27,7.65-78.11,12.46-20.88,22.7-42.67,27.31-66.76,12.11-63.34-2.19-120.09-43.74-169.33C537.8,110.27,498.44,88,451.6,80.07,368.67,66,286.77,105,245.19,179c-13,23.15-20.31,48.07-24.06,74.29-1.09,7.6-4.08,15.22-7.57,22.14-11,21.76-22.32,43.38-34.17,64.7-10.17,18.31-.51,35.23,15.92,41.64,5.56,2.16,12.52,1.24,18.79.9,6.46-.35,7-.44,8.28,5.75q6.3,31.13,12.52,62.26a56,56,0,0,0,54.62,45.22c18.35.12,36.7.26,55-.09C350.81,495.67,357,494.07,363.8,493.06Z"/><path class="cls-1" d="M352.24,255.8c1.47-.07,2.93-.19,4.39-.2q73.67-.36,147.34-.68c1.21,0,2.43,0,3.64,0,4.38-.17,6.89-2.3,7.11-6,.23-3.91-2.16-6.64-6.74-6.9-5.29-.29-10.61-.11-15.91-.09q-79.81.29-159.62.61c-4.21,0-8.9-.77-10.43,4.81-1.44,5.22,2.62,7.19,6,9.45q39.71,26.48,79.47,52.89c3,2,4.31,4.08,4.17,7.74-.29,7.42-.12,14.85-.06,22.28a19,19,0,0,0,.6,4.93c1,3.34,3.38,5.1,6.81,4.7,3.19-.36,5.49-2.41,5.53-5.67.16-11.82.33-23.66-.19-35.46-.1-2.18-3-4.73-5.26-6.23-21-14.19-42-28.18-63.09-42.23-1.36-.91-2.68-1.89-4-2.83C352.07,256.52,352.16,256.16,352.24,255.8Z"/><path class="cls-1" d="M451,163.77,431.57,129.4l-20.06,34c3.89,0,6.65.06,9.41,0s4,1.23,4,4.12c0,5,.3,10,.27,15,0,3.48,1.93,5.13,4.84,6.33,8.9,3.65,17.76,7.38,26.62,11.12q20.87,8.82,41.71,17.69c7.25,3.07,14.49,6.16,21.78,9.12,5,2,8.41,1,10-2.74s-.06-7-5-9.06q-28.2-12-56.45-23.94c-9.13-3.86-18.32-7.61-27.46-11.47-3.94-1.67-5.92-12.3-2.76-15.07.67-.59,2-.62,3-.65C444.2,163.72,446.9,163.77,451,163.77Z"/><path class="cls-2" d="M418.18,355.37c13.83,0,25.39,11.31,25.45,25a25.43,25.43,0,0,1-25.42,25.47,25.23,25.23,0,0,1,0-50.45Zm.26,37.19a12,12,0,0,0,11.92-11.79,11.83,11.83,0,0,0-12-12.17c-7-.05-12,4.94-12,12S411.47,392.66,418.44,392.56Z"/><path class="cls-2" d="M260.46,247.83a25.6,25.6,0,0,1,25.31-25.11A25.22,25.22,0,0,1,311,248.27a24.87,24.87,0,0,1-25.18,24.92A25.13,25.13,0,0,1,260.46,247.83ZM285.7,236.1a11.82,11.82,0,0,0-11.94,12.15,12.2,12.2,0,0,0,11.86,11.94c6.75.07,12.07-5.48,12-12.54A11.53,11.53,0,0,0,285.7,236.1Z"/><path class="cls-2" d="M550.78,222.88a25.13,25.13,0,0,1,.08,50.26,25.13,25.13,0,0,1-.08-50.26Zm.1,13.07a12,12,0,0,0-12.12,12.11,12.53,12.53,0,0,0,12.08,12.33c6.25,0,12.26-6,12.25-12.27A12.47,12.47,0,0,0,550.88,236Z"/><path class="cls-2" d="M338.17,324.21c4.87-4.28,9.9-8.41,14.57-12.91,2.78-2.68,2.79-6.12,0-8.9s-6-2.47-9-.17a30.19,30.19,0,0,0-3,2.82c-2.89,2.89-5.86,5.7-8.62,8.71-1.87,2-3.31,2.07-5.22,0-3.42-3.63-7-7.13-10.58-10.6-3.36-3.26-7.38-3.59-10.07-1-3,2.91-2.85,6.25.63,9.94,3.33,3.52,6.7,7,10.26,10.29,2.39,2.22,2.71,3.87.09,6.23-3.71,3.33-7.17,7-10.59,10.6-3.25,3.46-3.31,6.78-.44,9.59,2.63,2.58,6.54,2.45,9.72-.57,3.63-3.44,7.19-6.94,10.59-10.6,2.18-2.34,3.84-2.22,6,.07,3.3,3.55,6.77,6.93,10.26,10.29s7.4,3.46,10.06.72,2.53-6.39-.74-9.61c-4.41-4.33-9.12-8.33-13.7-12.48C338.32,325.87,338.24,325,338.17,324.21Z"/><path class="cls-2" d="M476.09,314.39c-5.14,4.86-9.49,8.84-13.68,13-3.59,3.55-3.86,7.49-.94,10.32s6.25,2.39,10-1.13c3.39-3.24,6.86-6.44,9.92-10,2.5-2.88,4.24-2.38,6.55.11,3.28,3.56,6.75,7,10.28,10.28s6.87,3.31,9.6.58,2.4-6.55-.62-9.7c-3.35-3.49-6.69-7-10.29-10.25-2.73-2.45-2.53-4.25.08-6.61,3.48-3.14,6.71-6.56,10-9.91s3.49-7.3.74-10c-2.94-2.88-5.93-2.77-9.54.64s-7.4,7.15-10.94,10.9c-1.91,2-3.37,2-5.25,0-3.57-3.72-7.2-7.37-10.93-10.91s-7-3.55-9.9-.43c-2.53,2.72-2.26,6.35,1,9.63C466.39,305.21,470.81,309.32,476.09,314.39Z"/><path class="cls-2" d="M364.66,160.54c-4.62-5.25-8.49-9.91-12.65-14.28-3.5-3.66-7-3.84-9.87-1s-2.53,6.75,1,10.34,7.19,7,10.52,10.68c.77.87,1.09,3.31.47,4.06a162.27,162.27,0,0,1-11.08,11.93c-2.84,2.77-3.34,5.69-.85,8.54,2.22,2.55,6.62,3.22,8.92.95,3.11-3,5.81-6.52,8.83-9.68,4.57-4.79,5.73-4.82,10.31-.28,2.36,2.34,4.31,5.1,6.77,7.31,1.73,1.57,3.89,3.26,6.05,3.56,2,.28,5.32-.65,6.08-2.09.91-1.71.46-5.08-.75-6.77-2.86-4-6.45-7.49-9.86-11.08-4-4.24-4.09-4.18.2-8.47,3.1-3.1,6.26-6.15,9.27-9.35s3.13-7,.42-9.66-6.33-2.56-9.61.68C374.43,150.25,370.22,154.77,364.66,160.54Z"/></g></svg>