<svg xmlns="http://www.w3.org/2000/svg" viewBox="0 0 792 612"><defs><style>.cls-1{fill:#515151;}</style></defs><title>Temas</title><g id="gris"><g id="MxLzaE.tif"><path class="cls-1" d="M198.5,171.34h-4.37q-20.87,0-41.72,0c-6.27,0-9-2.88-9-9.17,0-14.83,0-41.65,0-56.48,0-6.54,2.77-9.29,9.31-9.31,5.91,0,11.81,0,17.71,0,5.1.05,8.39,3.19,8.39,7.86s-3.3,7.77-8.41,7.86c-1.84,0-3.67,0-5.51,0h-5.43v43.22h115V112.1c-3.65,0-7.26,0-10.87,0-5.36-.06-8.69-3.2-8.6-8,.08-4.64,3.39-7.64,8.58-7.67,6.16,0,12.33-.06,18.49,0,5.26.06,8.33,3.06,8.34,8.3,0,15.48,0,43,0,58.44,0,5.17-3.15,8.19-8.43,8.2-15.34,0-45.68,0-61.34,0"/><path class="cls-1" d="M224.75,104.22a7.88,7.88,0,1,1-8-7.85A7.72,7.72,0,0,1,224.75,104.22Z"/></g><rect class="cls-1" x="237.94" y="204.54" width="141.72" height="15.83" rx="4.23" ry="4.23"/><rect class="cls-1" x="404.81" y="204.54" width="221.22" height="15.83" rx="4.23" ry="4.23"/><path class="cls-1" d="M224.75,212.43a7.88,7.88,0,1,1-8-7.84A7.71,7.71,0,0,1,224.75,212.43Z"/><rect class="cls-1" x="237.94" y="253.56" width="91.36" height="15.83" rx="4.23" ry="4.23"/><rect class="cls-1" x="404.81" y="253.56" width="221.22" height="15.83" rx="4.23" ry="4.23"/><path class="cls-1" d="M224.75,261.45a7.88,7.88,0,1,1-8-7.84A7.72,7.72,0,0,1,224.75,261.45Z"/><rect class="cls-1" x="237.94" y="302.58" width="80.23" height="15.83" rx="4.23" ry="4.23"/><rect class="cls-1" x="329.3" y="302.58" width="221.22" height="15.83" rx="4.23" ry="4.23"/><path class="cls-1" d="M224.75,310.47a7.88,7.88,0,1,1-8-7.84A7.72,7.72,0,0,1,224.75,310.47Z"/><rect class="cls-1" x="341.43" y="253.56" width="50.79" height="15.83" rx="4.23" ry="4.23"/><rect class="cls-1" x="557.64" y="302.58" width="94.37" height="15.83" rx="4.23" ry="4.23"/><rect class="cls-1" x="237.94" y="351.59" width="141.72" height="15.83" rx="4.23" ry="4.23"/><rect class="cls-1" x="404.81" y="351.59" width="221.22" height="15.83" rx="4.23" ry="4.23"/><path class="cls-1" d="M224.75,359.49a7.88,7.88,0,1,1-8-7.84A7.72,7.72,0,0,1,224.75,359.49Z"/><rect class="cls-1" x="237.94" y="400.61" width="91.36" height="15.83" rx="4.23" ry="4.23"/><rect class="cls-1" x="404.81" y="400.61" width="221.22" height="15.83" rx="4.23" ry="4.23"/><path class="cls-1" d="M224.75,408.51a7.88,7.88,0,1,1-8-7.84A7.72,7.72,0,0,1,224.75,408.51Z"/><rect class="cls-1" x="341.43" y="400.61" width="50.79" height="15.83" rx="4.23" ry="4.23"/><g id="MxLzaE.tif-2" data-name="MxLzaE.tif"><path class="cls-1" d="M198.5,519.8h-4.37q-20.87,0-41.72,0c-6.27,0-9-2.88-9-9.17,0-14.82,0-41.65,0-56.47,0-6.55,2.77-9.3,9.31-9.32,5.91,0,11.81,0,17.71,0,5.1.05,8.39,3.19,8.39,7.86s-3.3,7.77-8.41,7.86c-1.84,0-3.67,0-5.51,0h-5.43v43.21h115V460.56c-3.65,0-7.26,0-10.87,0-5.36-.06-8.69-3.2-8.6-8.05.08-4.64,3.39-7.64,8.58-7.67,6.16,0,12.33-.06,18.49,0,5.26.06,8.33,3.06,8.34,8.3,0,15.48,0,43,0,58.44,0,5.17-3.15,8.19-8.43,8.2-15.34,0-45.68,0-61.34,0"/><path class="cls-1" d="M224.75,452.68a7.88,7.88,0,1,1-8-7.84A7.72,7.72,0,0,1,224.75,452.68Z"/></g></g><g id="color"><path class="cls-1" d="M211.2,475.14v2.8h-5.83v3h4.36v2.71h-4.36v5.8h-3.49V475.14Z"/><path class="cls-1" d="M216.53,475.14v14.33H213V475.14Z"/><path class="cls-1" d="M231.87,489.47h-3.49l-5.83-8.84v8.84h-3.49V475.14h3.49l5.83,8.88v-8.88h3.49Z"/><path class="cls-1" d="M186.93,124.59v14.33h-3.49V124.59Z"/><path class="cls-1" d="M202.27,138.92h-3.48L193,130.08v8.84h-3.49V124.59H193l5.84,8.88v-8.88h3.48Z"/><path class="cls-1" d="M208.29,124.59v14.33H204.8V124.59Z"/><path class="cls-1" d="M211.15,128a6.51,6.51,0,0,1,2.56-2.59,7.39,7.39,0,0,1,3.72-.93,7.12,7.12,0,0,1,4.37,1.35,6.45,6.45,0,0,1,2.43,3.67h-3.84a3.12,3.12,0,0,0-1.21-1.37,3.47,3.47,0,0,0-1.79-.47,3.37,3.37,0,0,0-2.61,1.12,5,5,0,0,0,0,6,3.33,3.33,0,0,0,2.61,1.12,3.46,3.46,0,0,0,1.79-.46,3.18,3.18,0,0,0,1.21-1.37h3.84a6.43,6.43,0,0,1-2.43,3.66,7.18,7.18,0,0,1-4.37,1.34,7.39,7.39,0,0,1-3.72-.93,6.55,6.55,0,0,1-2.56-2.58,8.23,8.23,0,0,1,0-7.56Z"/><path class="cls-1" d="M229.86,124.59v14.33h-3.49V124.59Z"/><path class="cls-1" d="M235.46,138.12a7,7,0,0,1-2.68-2.62,7.34,7.34,0,0,1-1-3.79,7.24,7.24,0,0,1,1-3.77,6.93,6.93,0,0,1,2.68-2.61,7.75,7.75,0,0,1,7.4,0,6.78,6.78,0,0,1,2.65,2.61,7.81,7.81,0,0,1,0,7.56,7,7,0,0,1-2.65,2.62,7.73,7.73,0,0,1-7.39,0Zm6.44-3.39a5,5,0,0,0,0-6,3.53,3.53,0,0,0-2.74-1.13,3.61,3.61,0,0,0-2.77,1.12,5,5,0,0,0,0,6.07,3.55,3.55,0,0,0,2.77,1.14A3.51,3.51,0,0,0,241.9,134.73Z"/></g></svg>