<svg id="gris" xmlns="http://www.w3.org/2000/svg" viewBox="0 0 792 612"><defs><style>.cls-1{fill:#595959;}.cls-2{fill:#676767;}.cls-3{fill:#ececec;}</style></defs><title>Certificaciones</title><g id="VDEge9.tif"><path class="cls-1" d="M632.69,113.41c3.46,1.11,7.1,1,10.65,1.62a127.21,127.21,0,0,1,25.57,6.57,58.72,58.72,0,0,1,6.14,3c5.52,2.94,8.22,7.48,7.85,13.83-.19,3.36.11,6.76-.25,10.09-.48,4.49-2.84,5.93-7.2,4.87-3.21-.78-6.09-2.38-9.14-3.56a100.28,100.28,0,0,0-56-5.19,34.76,34.76,0,0,0-7.5,2.49c-7.7,3.41-12.36,9.14-13.24,17.62-.93,8.91,2.09,16.08,9.65,21.17,6.64,4.48,14.09,7.1,21.61,9.61,13.2,4.39,26.73,7.78,39.59,13.15,14,5.85,25.14,14.84,30.21,29.68,7.75,22.67,1.16,49.93-24.42,65.68-10.89,6.7-22.95,10.17-35.54,11.59-21.73,2.43-42.83-.76-63.36-8.08A45.67,45.67,0,0,1,556.35,302a11.47,11.47,0,0,1-5-9.52c-.14-4.09-.14-8.2,0-12.3.17-5.06,2.91-7.12,7.83-5.66,3.47,1,6.78,2.59,10.18,3.9,19.83,7.68,40.26,10.46,61.35,7.24a38.68,38.68,0,0,0,18.67-7.84c11-8.74,12.12-28.78-2.35-37.32-7.45-4.4-15.62-6.87-23.76-9.49-11.67-3.76-23.64-6.66-35-11.51-16.48-7.06-28.11-18.7-33-36.21-5.57-19.81,1.56-40.53,17.88-53.49,12-9.55,25.87-14.2,40.94-15.76.76-.08,1.67.3,2.24-.59H619a47.92,47.92,0,0,0,11.48,0Z"/><path class="cls-2" d="M630.5,113.41a25.15,25.15,0,0,1-11.48,0Z"/><path class="cls-1" d="M460.25,272.65c1.11-.5,1-1.56,1.22-2.36q17.83-68.94,35.62-137.88a47,47,0,0,1,2.65-7.73,8.22,8.22,0,0,1,7.15-5.18,216.55,216.55,0,0,1,24.57-.18c3.08.09,4.43,1.89,4.51,5.06a22.79,22.79,0,0,1-1.25,7.23q-26.18,83.87-52.37,167.72c-3.12,10-5.14,11.45-15.63,11.45-5.38,0-10.75,0-16.13,0-7.75-.07-10.61-2.35-12.43-9.91q-6.06-25.2-12.09-50.4L405.28,164c-.15-.61-.12-1.28-1-1.83-2.07,8.61-4.13,17.11-6.17,25.63q-13.22,55.32-26.44,110.65c-2.54,10.61-4.64,12.22-15.62,12.2-6,0-12-.08-18-.17-4.76-.07-7.79-2.53-9.44-6.92-2.85-7.58-4.93-15.41-7.28-23.15q-22.71-74.5-45.29-149a36.91,36.91,0,0,1-1.36-5.84c-.52-3.94,1.33-6.25,5.25-6.28,7.92-.07,15.85,0,23.77.14,4.09,0,6.83,2.09,8.37,5.87,2.66,6.52,3.91,13.44,5.63,20.21q16,62.77,31.93,125.62c1.07-.85,1.16-2.09,1.42-3.21q16.17-68.51,32.31-137c2.31-9.78,4.61-11.64,14.65-11.66,5.74,0,11.48-.08,17.21.14,6.52.25,9.13,2.4,10.74,8.76,2.09,8.29,4,16.63,6,25q14,59.47,28,119A3.7,3.7,0,0,0,460.25,272.65Z"/><path class="cls-3" d="M399.18,501.45c-77.21.2-149.92-15.93-218.5-49.91A470,470,0,0,1,74.8,379.49a11.27,11.27,0,0,1-2.28-2.69c-1.24-2.11-1.46-4.36.09-6.42s3.72-2.47,6.13-1.92a16.32,16.32,0,0,1,4.46,2c53.47,30.7,110.37,52.69,170.32,66.88A657.07,657.07,0,0,0,342.68,452a618.14,618.14,0,0,0,81.63,2.45,635.73,635.73,0,0,0,148.88-23.58,628.53,628.53,0,0,0,74-25.81c3.77-1.58,7.53-2.2,11.31-.17a8.54,8.54,0,0,1,3.08,12.83,19.29,19.29,0,0,1-4.76,4.47C623,446.66,585.66,464.1,546.09,477A500.65,500.65,0,0,1,441.5,499C427.16,500.46,412.79,501.13,399.18,501.45Z"/><path class="cls-3" d="M673.17,355.47c13-.05,24.26.8,35.21,4,9.83,2.85,11.74,5.25,11.9,15.44.28,17.22-4,33.56-10.1,49.46-6.34,16.49-15.07,31.53-27.79,44a35.06,35.06,0,0,1-6.44,5.47c-2,1.19-4.29,2.07-6.36.38s-1.31-4-.49-6.06c5.53-13.87,11-27.76,15.33-42.07a137.25,137.25,0,0,0,5.39-23.94,37.55,37.55,0,0,0,0-9c-.59-4.63-3.15-7.59-7.47-9.21-6.33-2.37-13-2.92-19.6-3.13-18.35-.57-36.55,1.42-54.73,3.53a30.37,30.37,0,0,1-5.71.29c-3-.23-4.22-2.51-3.06-5.29a11.4,11.4,0,0,1,4.59-4.91c13.15-8.87,27.81-13.82,43.29-16.59A141.78,141.78,0,0,1,673.17,355.47Z"/><path class="cls-1" d="M263.26,288.33c-3.61-7.15-7.25-14.33-8.13-22.45-.53-4.88-1.08-9.78-1.15-14.67-.16-12.39,0-24.78,0-37.18v-27.6a143.09,143.09,0,0,0-1.24-19.62c-3.77-27.14-19.38-44.3-46.19-50.07-21-4.51-42-3.59-62.74,1.86a118.31,118.31,0,0,0-26.51,9.93c-3.38,1.83-6,4.24-6.09,8.39-.1,5.1-.19,10.21,0,15.3.14,4,2.58,5.7,6.51,4.65a73.82,73.82,0,0,0,8-2.74c19.73-7.75,39.85-12.54,61.31-9.65,17.27,2.33,26.27,10,29.94,26.64,2.26,10.25,1.35,20.68,1.52,31,0,1.72-1,1.3-2,1.08a260.29,260.29,0,0,0-32-5.32c-13.43-1.23-26.77-1-39.86,2.52-17.22,4.69-31.19,14-39.82,30-6.64,12.37-7.7,25.75-5.58,39.34,2.93,18.8,12.93,32.66,30.49,40.43,13.68,6.06,28.09,6.41,42.62,4,18.74-3,34.08-12.26,46.61-26.31,1.65-1.85,2.27-1.88,3.36.44,3.3,7,7.08,13.77,12.46,19.48,4.06,4.31,7.94,4.87,12.89,1.7,4.14-2.65,8.21-5.41,12.29-8.16C265.67,297.55,266.39,294.55,263.26,288.33Zm-45.69-36.15c-2.38,13.29-10.55,22.2-22,28.18a59.45,59.45,0,0,1-36,6.3c-13.86-1.88-22.63-12.05-23.33-26.66a44.8,44.8,0,0,1,.74-12.23c3.22-14,13-20.6,26.16-23.37A87.61,87.61,0,0,1,180.25,223a175.58,175.58,0,0,1,36,4.23c2.07.44,2.73,1.27,2.71,3.42C218.85,237.88,218.85,245.06,217.57,252.18Z"/></g></svg>