<svg width="88" height="112" viewBox="0 0 88 112" fill="none" xmlns="http://www.w3.org/2000/svg">
<path d="M77 37.1629V40.5209C76.9955 48.3918 74.4468 56.0504 69.734 62.3545C66.5068 66.6715 62.3832 70.1948 57.6805 72.7038M55.3555 7.15989C48.166 3.95642 40.1335 3.16281 32.4561 4.89742C24.7787 6.63204 17.8676 10.8019 12.7537 16.7852C7.6398 22.7685 4.597 30.2445 4.07912 38.0984C3.56124 45.9523 5.59602 53.7632 9.88 60.3662C14.164 66.9691 20.4676 72.0104 27.8508 74.7381C35.234 77.4658 43.3011 77.7338 50.849 75.5021C53.2283 74.7986 55.5157 73.8587 57.6805 72.7038M57.6805 72.7038L84.3 108.025" stroke="#FBFBFB" stroke-width="7" stroke-linecap="round" stroke-linejoin="round"/>
<path d="M77.0003 11.3203L40.5003 47.8568L29.5503 36.9068" stroke="#828282" stroke-width="7" stroke-linecap="round" stroke-linejoin="round"/>
</svg>
