<svg id="gris" xmlns="http://www.w3.org/2000/svg" viewBox="0 0 792 612"><defs><style>.cls-1{fill:#595959;}</style></defs><title>Certificaciones</title><g id="AigyDn.tif"><path class="cls-1" d="M633.05,294.87v35.64c-1.07,7.07-2,14.17-3.23,21.2C617.6,419.58,582.47,472.51,525.46,511,508.28,522.6,489.4,530.83,470,537.86H463.5c-6.49-2.93-8.86-7.88-8.74-15,.34-19.25.1-38.51.12-57.77,0-17.57-1.87-34.52-15.59-48.15a31,31,0,0,1,3-.92c10.05-1.88,20.36-2.87,30.1-5.77,27.06-8,50.08-21.66,62.5-48.72A133.28,133.28,0,0,0,546,319.57c3.16-29.61-.45-57.41-20.94-80.93a6.84,6.84,0,0,1-1.15-5.59c5.55-17.05,4.67-34-.51-50.87-3.12-10.17-4.33-10.9-14.86-9.26-.7.11-1.39.34-2.09.52-16.17,4.13-31,11.28-44.91,20.34-4.42,2.88-8.35,3.22-13.45,2.31-13.75-2.45-27.6-4.84-41.51-5.84-22-1.57-43.77.86-65.23,6.12-2.53.61-5.83-.28-8.31-1.44-13.12-6.17-25.89-13.13-39.22-18.78-5.75-2.43-12.53-2.56-18.9-3.26-1.36-.15-3.8,1.45-4.29,2.78-6.77,18.46-9.49,37.23-2.67,56.31,1.16,3.24.49,5.27-1.62,7.64a82,82,0,0,0-16.69,29.27c-6.34,19.31-5.58,39-2.66,58.69,2.72,18.34,8.47,35.77,20.33,50.36,15.9,19.56,37.43,29.68,61.66,34.64,7.61,1.56,15.29,2.79,23.53,4.28a51.76,51.76,0,0,0-14.47,29.6,4,4,0,0,1-2.06,2.73c-17,6.25-34,9.35-50.57-1.46-8.09-5.27-13-13.22-18.18-21-8-12.08-19-20.2-33.64-21.83-3.69-.42-7.65,1.56-11.48,2.44,2,3.14,3.65,6.75,6.27,9.31,4.22,4.1,10.2,6.73,13.49,11.36a217.15,217.15,0,0,1,16.19,27.74c3.68,7.25,8,13.59,14.95,17.93,18.19,11.37,38.11,11.31,58.4,8.76,1.72-.22,3.43-.52,5.86-.88,0,14-.3,27.48.12,40.93.23,7.34-2,12.52-8.9,15.41H322a6.4,6.4,0,0,0-1.32-.87c-31.89-10.41-60.35-26.74-84.81-49.74-37.71-35.46-62.94-78-72.68-129.24-1.66-8.76-2.85-17.61-4.26-26.42v-37.8c.46-3.35.94-6.69,1.37-10.05,6.79-53,28.33-99.18,65.78-137.38,35-35.7,77-59,126.62-67.58,9.87-1.71,19.85-2.83,29.78-4.22h27c6.76.77,13.54,1.37,20.27,2.35a232.08,232.08,0,0,1,118.72,53.31c42.79,36.17,69.78,81.9,80.34,137.07C630.58,276.42,631.66,285.67,633.05,294.87Z"/></g></svg>