<svg id="gris" xmlns="http://www.w3.org/2000/svg" viewBox="0 0 792 612"><defs><style>.cls-1{fill:#515151;}.cls-2{fill:#ececec;}.cls-3{fill:#fff;}</style></defs><title>Certificaciones-01</title><g id="QbwAoq.tif"><path class="cls-1" d="M449.29,348.17H434.81V346c0-9.76,0-19.53,0-29.29a44.81,44.81,0,0,0-.43-5.91c-.8-5.74-5-8.1-10.42-6a9.48,9.48,0,0,0-6,8.74q0,16.17,0,32.36v2.19H403.7V293c3.4,0,6.82,0,10.24.07.4,0,1,.85,1.13,1.4.54,1.86.92,3.77,1.44,6,4.23-5.3,9-8.87,15.81-9s12.14,2,14.8,9c.57-.68,1-1.18,1.41-1.72,4.91-6.63,11.67-8.11,19.39-7,8.37,1.2,10.91,6.92,12,14a71.43,71.43,0,0,1,.62,9.92c.08,10.09,0,20.17.05,30.26v2.2H466.17v-1.94c0-9.45.09-18.9-.06-28.34a46.87,46.87,0,0,0-1.16-9.44c-.62-2.79-2.59-4-5.47-4.18-6-.32-10.18,3.59-10.19,9.58q0,16.08,0,32.17Z"/><path class="cls-1" d="M693.71,325.58v22.56H679.53V271h14.15v45.15a5.62,5.62,0,0,0,4.19-2.72c3.54-6.34,7.18-12.62,10.73-19a2.48,2.48,0,0,1,2.52-1.53c4.58.08,9.17,0,14.12,0-.46.8-.78,1.38-1.13,1.94-3.61,5.78-7.17,11.6-10.9,17.31a20.68,20.68,0,0,1-3.73,3.75,31.68,31.68,0,0,1-2.74,2c.13.23.17.37.25.42,4.4,2.37,7,6.21,9.36,10.49,3.18,5.89,6.65,11.61,10,17.4.31.54.58,1.1,1,1.94-5.41,0-10.54,0-15.67-.06-.49,0-1.1-.75-1.42-1.29-3.79-6.34-7.53-12.71-11.29-19.08C697.32,325,697.33,325,693.71,325.58Z"/><path class="cls-1" d="M377.39,315c0-1.32,0-2.66,0-4-.1-4.76-2.31-7-7.07-7.11A44.07,44.07,0,0,0,352,306.94c-1.15-3.61-2.26-7.1-3.51-11.05,3.8-1,7.42-2.12,11.12-2.87a47.83,47.83,0,0,1,18-.68c8.77,1.56,13.58,7,13.75,15.91.12,6-.25,12-.35,18-.06,3.69-.19,7.4,0,11.08s.82,7.19,1.28,11c-3.44,0-7,0-10.64-.06-.37,0-.87-.78-1.05-1.3-.72-2-1.32-4-2-6.14-1.87,1.77-3.44,3.44-5.19,4.87-6.12,5-19.45,4.78-24.89-2.31-7.08-9.23-3.36-21.54,7.91-25.77,5.72-2.14,11.69-2.36,17.69-2.45.83,0,1.66,0,2.48,0A3,3,0,0,0,377.39,315Zm0,9.24c-.78-.09-1.34-.17-1.91-.2-4.3-.24-8.55-.09-12.46,2a5.48,5.48,0,0,0-2.88,6.12,5.25,5.25,0,0,0,4.14,4.7,11.4,11.4,0,0,0,11.62-3.54C378.45,330.57,376.92,327.28,377.36,324.19Z"/><path class="cls-1" d="M620.92,348.36c-3.77,0-7.27.05-10.76-.06-.46,0-1.11-.71-1.3-1.23-.73-2-1.32-4.08-2-6.23-1.66,1.6-3.11,3.07-4.64,4.45-6.21,5.59-20.84,5.6-26.28-3-5.18-8.18-2.78-18.57,5.66-23.22,4.63-2.55,9.7-3.39,14.88-3.7,2.48-.14,5-.17,7.46-.13,1.15,0,1.65-.41,1.61-1.54a5.44,5.44,0,0,1,0-.57c.29-7.13-1.84-9.33-9-9.3a44.75,44.75,0,0,0-16.49,3.06c-1.14-3.62-2.24-7.11-3.49-11.11,4.63-1.11,9-2.4,13.48-3.16,5.79-1,11.65-1.37,17.46.1,7.06,1.79,11.27,6.29,11.71,13.52a170.06,170.06,0,0,1-.06,18.89C618.85,332.87,618.85,340.53,620.92,348.36Zm-15.44-24.21c-5-.46-9.84-.56-14.3,1.88a6,6,0,0,0-1.66,9c2.51,2.84,5.85,2.59,9,1.68s6.18-2.72,6.86-6.42A35.81,35.81,0,0,0,605.48,324.15Z"/><path class="cls-1" d="M525,306c-3.64-.93-7.09-2-10.64-2.63a26,26,0,0,0-6.81.15,3.55,3.55,0,0,0-3,3c-.4,1.67-.17,3.27,1.4,4.24a41,41,0,0,0,5.05,2.64c3.42,1.52,7.05,2.64,10.33,4.41,11.68,6.29,9.39,21.75,2.51,27.41-3.57,2.94-7.76,4.07-12.18,4.43a39.9,39.9,0,0,1-21.5-4c-.44-.23-.85-.51-1.4-.84l3.93-10.57c.78.31,1.41.54,2,.82,4.94,2.25,10,3.71,15.53,2.93,3.35-.47,5.12-2.3,4.65-5.3a5.2,5.2,0,0,0-2.1-3.32c-2.51-1.47-5.31-2.42-7.93-3.7-3.13-1.53-6.48-2.79-9.22-4.86-6-4.55-6.86-11.94-4.66-19.13,1.79-5.87,7.71-9.7,14.64-10.08a47,47,0,0,1,20.59,3.11c1.42.58,2,1.16,1.41,2.8C526.54,300.28,525.79,303.17,525,306Z"/><path class="cls-1" d="M555.18,305.15c0,8.8-.24,17.28.08,25.74.22,5.61,2.3,6.78,8.65,5.68a33.9,33.9,0,0,0,3.87-1.2c.81,3.45,1.65,6.9,2.41,10.35a1.26,1.26,0,0,1-.63,1c-6.34,2.7-12.88,4.14-19.72,2.42-5.44-1.36-8.37-5-8.93-11.05-.3-3.23-.36-6.49-.39-9.73,0-7,0-13.91,0-20.86v-2.29H533V293h7.5c0-3.15,0-6.07,0-9a2.14,2.14,0,0,1,1-1.65c4.37-1.34,8.77-2.54,13.41-3.86v14.46h13.36v12.21Z"/><path class="cls-1" d="M666.8,306.41c-2.69-.68-5.11-1.46-7.6-1.89-8.24-1.41-13.18,2-14.8,10.1a28.22,28.22,0,0,0,.4,12.89c2,7.46,8.33,11.05,16.16,9.06a64.61,64.61,0,0,0,6.56-2.38c1,3.2,2.09,6.5,3,9.84.11.4-.52,1.22-1,1.53A27.63,27.63,0,0,1,655,349.7a37.82,37.82,0,0,1-10-.92A18.45,18.45,0,0,1,631.39,336c-3.18-9.82-3.5-19.82-.09-29.66,3.21-9.26,10-14.08,19.79-14.79a37.33,37.33,0,0,1,17.39,2.6c1.2.5,1.66,1,1.19,2.38C668.6,299.79,667.74,303.12,666.8,306.41Z"/><path class="cls-1" d="M311.52,370.77V358.43c.49,0,.91-.09,1.33-.09,4.45,0,6.17-1.18,7.13-5.53a37.33,37.33,0,0,0,.71-7.77q.07-25,0-49.93c0-1.83.57-2.25,2.27-2.2,4,.11,8,0,12.17,0,0,.88.09,1.5.09,2.11,0,18.69,0,37.38-.07,56.06A36.31,36.31,0,0,1,334,359.6c-1.75,7.12-5.73,10.69-13,11.46C317.94,371.39,314.74,370.9,311.52,370.77Z"/><path class="cls-1" d="M328,269.23c2,.77,4.32,1.18,6.08,2.37,4.84,3.27,4.12,9.92-1.21,12.35a11.86,11.86,0,0,1-8.76.47,7.37,7.37,0,0,1-5.21-7.6,7.91,7.91,0,0,1,7.2-7c.57-.07,1.14-.06,1.72-.09Z"/></g><path class="cls-2" d="M151.48,394.87c-2.38-.77-4.89-.73-7.33-1.1-35.34-5.43-64.71-33.66-71.53-68.92-5.24-27.14.12-52,17.21-73.81,15.17-19.37,35.3-30.29,59.9-32.77a92.62,92.62,0,0,1,9.56-.4q40.78,0,81.56,0c3.74,0,3.31-.3,3.31,3.29,0,28.91.15,57.82,0,86.73a87.72,87.72,0,0,1-69.85,85.16c-3,.63-6.18.93-9.27,1.38-.56.08-1.16,0-1.64.4Z"/><path class="cls-3" d="M159.21,272.48c0-9.83,0-19.66,0-29.48,0-1.84.39-2.53,2.42-2.53q29,.12,58,0c1.77,0,2.27.54,2.27,2.27q-.08,29.67,0,59.35c0,1.87-.62,2.36-2.43,2.35q-28.91-.07-57.81,0c-2,0-2.47-.6-2.45-2.5C159.26,292.13,159.21,282.3,159.21,272.48Z"/><path class="cls-3" d="M159.22,340.19c0-9.83.05-19.65,0-29.47,0-2,.56-2.46,2.49-2.45,19.19.07,38.39,0,57.59,0,2.43,0,2.52,0,2.35,2.46-1.25,18.26-8.69,33.54-22.44,45.6a62.16,62.16,0,0,1-38,15.71c-1.63.1-2-.39-1.95-1.85,0-10,0-20,0-30Z"/><path class="cls-3" d="M155.41,340v28.72c0,3.37,0,3.4-3.44,3.08a62.75,62.75,0,0,1-39-18c-12-11.72-18.52-26.07-19.92-42.76-.23-2.76-.09-2.89,2.73-2.89l56.87,0c2.8,0,2.8,0,2.8,2.86Q155.42,325.58,155.41,340Z"/></svg>