<svg id="gris" xmlns="http://www.w3.org/2000/svg" viewBox="0 0 792 612"><defs><style>.cls-1{fill:#ececec;}</style></defs><title>Certificaciones</title><path class="cls-1" d="M283.15,134.88c-.14.85,0,2.23-.48,2.5C274,142.21,268.51,150.9,260,155.89a2,2,0,0,1-3.21-.94,4.93,4.93,0,0,0-4.08-2.87,2.39,2.39,0,0,1,.1-3.77c7.16-3.76,11.35-11,18.06-15.38,2.79-1.82,6.87-2.19,8.1-6.13a11.8,11.8,0,0,1,5.72-1c3.25.25,4,2.22,2.42,5h0C286.11,132.52,283.52,132.6,283.15,134.88Z"/><path class="cls-1" d="M287.1,130.88c-.88-5-4.94-3.68-8.14-4.08,5.72-5.84,13.52-8.29,20.33-12.33,1.37-.81,3.34-.59,5-.84a2.21,2.21,0,0,0,.13.64c4.35,7.18,4.11,7.47-4.31,12.12C296,128.67,292.36,132,287.1,130.88Z"/><path class="cls-1" d="M410.34,92.36A12.46,12.46,0,0,1,399.5,96.1c-7.28-1.14-14.4.37-21.58.29s-14.41-.84-20.67,3.82a3.07,3.07,0,0,1,0-4l4.09-1.1c4.51-3.76,9.89-1.28,14.82-2,2.68-.4,5.61.41,7.91-1.72l26.32-.17c.47.27.63.54.47.8S410.5,92.36,410.34,92.36Z"/><path class="cls-1" d="M222.3,454.09a29.23,29.23,0,0,0,13.87-2.78c4.82-2.35,11.41-2.82,16.37,1.06,4.1,3.21,9.33.24,13.19,3.32a12.06,12.06,0,0,1-13.15-.09c-11.61-2.48-23.27,1.14-34.89-.27-3.71-.45-7.72-.14-9.11-4.86l4.29-.21C216.08,451.37,219.65,451.59,222.3,454.09Z"/><path class="cls-1" d="M410.34,92.36c0-.4,0-.8,0-1.2h25.14c6,2.45,12.87.48,18.68,3.8l-.09.12c.95.33,1,.73.08,1.19-11.14,1.46-22.22-2.37-33.41-.33C416.89,96.63,414.13,92.68,410.34,92.36Z"/><path class="cls-1" d="M440.8,516.31c8-6.31,17.43-5.11,26.65-5l.86.75-1.09.34C458.72,515.79,450,517.46,440.8,516.31Z"/><path class="cls-1" d="M182.23,385.52c-4.8-2.33-8.19-5.14-5.57-11.35,1.22-2.88.3-5.6-3.49-6.17-.11-.36-.21-.72-.3-1.09,9.26.55,10.18,1.73,7,9.67C178.35,380.31,183.86,381.91,182.23,385.52Z"/><path class="cls-1" d="M195.49,231.39c-.06,6.3-4.39,11.33-5.14,17.42-1.17,0-2.33-.07-2.92-1.36q-.52-3.3-1-6.6c-.4-3,2.73-3.45,3.92-5.31.44-1.34.87-2.68,1.31-4A2.85,2.85,0,0,1,195.49,231.39Z"/><path class="cls-1" d="M182.47,267.41c5.16,1.46,4.57,4.49,1.91,7.73-1.62,2-3.27,4.13-6.2,4.35-1.79-3.71-2-6.91,2.57-8.82C182.05,270.13,182.22,268.67,182.47,267.41Z"/><path class="cls-1" d="M188,413c5.34,1.82,5.87,7,7.24,11.22.89,2.73.25,6,.3,9C188.82,428,192.05,419.12,188,413Z"/><path class="cls-1" d="M493.84,503.22c6.36-4.72,12.77-9.36,21.26-9.19C508.68,498.64,502,502.74,493.84,503.22Z"/><path class="cls-1" d="M507.33,113.44c-6-3.59-14.6-1.67-18.85-8.93C494.85,107.3,503,106.46,507.33,113.44Z"/><path class="cls-1" d="M357.25,511.33c4.93.44,10.85-1.81,13.46,5-5.35,1.87-8.95-2.28-13.29-3.84-.55-.17-.76-.39-.63-.67S357.08,511.33,357.25,511.33Z"/><path class="cls-1" d="M602.63,411.93c2.09-5.45,2.85-11.7,8.92-14.75C609.92,402.91,607.9,408.4,602.63,411.93Z"/><path class="cls-1" d="M195.51,450.34c3.13,0,6.25,0,9.14-1.47-.55,3.07-.8,6.39-5.16,6.34C196.26,455.18,195.46,453.1,195.51,450.34Z"/><path class="cls-1" d="M576.28,446.61c.54-5.45,5.66-6.67,8.9-9.63C584.82,442.6,581.16,445.17,576.28,446.61Z"/><path class="cls-1" d="M337.36,504.7c4.06-1.28,8.37-3.68,10.8,2.4-1.3,1.19-2.69.93-4.11.27C341.51,507.26,339,507.07,337.36,504.7Z"/><path class="cls-1" d="M615.73,227.62c-5.59-1.4-3.57-5.89-3.83-9.45C617.58,219.54,615.23,224.15,615.73,227.62Z"/><path class="cls-1" d="M488.65,507.36l-4.19-.22c1.16-4.81,4.93-3.78,8.27-3.68A4.12,4.12,0,0,1,488.65,507.36Z"/><path class="cls-1" d="M313.53,109.55c-1.11,5.89-5.76,3.62-9.25,4C307.22,111.91,309.67,109.11,313.53,109.55Z"/><path class="cls-1" d="M572.16,328.37l-.37-39.69c-1.7-2.38-2.25-4.7.41-6.82,3.43.66,3.77,3.26,3.77,6.05q0,17.22,0,34.45C576,325.16,575.6,327.74,572.16,328.37Z"/><path class="cls-1" d="M444.85,480.7c-11.75.16-23.5.26-35.25.53-3.42.08-4.47-1.14-3.24-4.32l7.9-.34a12.22,12.22,0,0,1,13.36,0l3.87,0c5.84-2.41,11.63-2.95,17.35.34C447.32,478,445.46,478.68,444.85,480.7Z"/><path class="cls-1" d="M515.05,459.55c.19-3.2,2.64-4.12,5.07-5.13,4.58-1.91,7.13-6.86,12.13-8.16l0,0c-1.95,7.94-5.24,14.94-13.24,18.58C515.75,464.57,513.81,463.26,515.05,459.55Z"/><path class="cls-1" d="M455.34,474.06l2.58-1.34c.65-.66,1.19-.58,1.6.26.65,4.49,4.26,3.45,7.13,3.83,1.72.23,3.77.29,3.8,2.66,0,2-1.75,2.22-3.27,2.51a15.42,15.42,0,0,0-2.56.47c-9.1,3.43-9.1,3.44-11.89-5.59C452.8,475.18,454.45,475,455.34,474.06Z"/><path class="cls-1" d="M545.45,402.5c3.36-4.21,3.26-10.81,9.17-13.24l4.24.17c2.14,2.27,2.16,4.34-.27,6.52s-2.2,4.4.11,6.54c-2.72,5.37-5.14,5.94-9.34,2A7.11,7.11,0,0,0,545.45,402.5Z"/><path class="cls-1" d="M576.67,367.64c-3.29,4.12-4.31,9.61-5.92,14.93-.66,2.2-4.1,3.36-6.2,1.75-2.92-2.23,0-3.58,1.63-4.88a5.13,5.13,0,0,0,1.8-4.72c-.44-4,2.13-6.47,4-9.37.75-1.16,1.5-2.28,3.08-1.69S576.43,365.68,576.67,367.64Z"/><path class="cls-1" d="M286.77,446.44c-3-.08-5.89-.13-8.24-2.71s-5.65-1.29-8.59-1.31c.42-1,.73-2.77,1.26-2.84,4.85-.63,7.48-5,11.66-6.66-.77,5.83,1.62,9.78,7.09,11.91C289.35,446.28,288.47,447.15,286.77,446.44Z"/><path class="cls-1" d="M628.79,292.61q0,13.2,0,26.39c-.42-.12-1-.11-1.24-.37C623.23,314.59,624.08,296.47,628.79,292.61Z"/><path class="cls-1" d="M459.52,473l-1.6-.26a90.88,90.88,0,0,1,22.67-9.1C476,472.31,468.1,473.35,459.52,473Z"/><path class="cls-1" d="M532.25,446.26a36.26,36.26,0,0,1,.26-4.56c.58-3.18,3-4.19,5.82-4.15,2.55,0,3.08,2.06,3.07,4.19,0,2.95-1.71,4.33-4.53,4.47-1.52.08-3,.06-4.58.09Z"/><path class="cls-1" d="M177.15,302.07l1.33-.15c-.46,3.81.32,7.13,3.76,9.37-2.86,1.81-1.13,6.66-5.12,7.74-7.18-2.6-2.6-8.82-4.05-13.19C175.44,305.68,176.9,304.53,177.15,302.07Z"/><path class="cls-1" d="M515.05,459.55l4,5.33c-.42,2.57-1.79,4-4.53,3.48a3.89,3.89,0,0,1-3.2-3.7C511,461.8,512.05,460,515.05,459.55Z"/><path class="cls-1" d="M418.28,486h5.31c-1.61,4.42-4.16,7.72-9.35,7.9C414.59,490.78,413.49,486.9,418.28,486Z"/><path class="cls-1" d="M431.7,144c-.06-1.27-.12-2.55-.19-3.82,4.49,1.16,10.48-3.07,13.39,3.74Z"/><path class="cls-1" d="M300.53,454.35a3.26,3.26,0,0,1,1,3.17,10.11,10.11,0,0,1,2.91-.09,9.51,9.51,0,0,1,5.68.48C307.35,455.51,304.26,454.05,300.53,454.35Z"/><path class="cls-1" d="M335.25,465.9c-1.67.23-3.35.55-4.94-.35-2.06-3-4.63-4.84-8.49-3.61-1.53-.11-3.11,0-4.65-.05.45.25.89.49,1.34.7a118.32,118.32,0,0,0,21,7.86c2.89.72,5.88,2.12,7.58,4.93a5.52,5.52,0,0,1,3.61-1c-2.66-1.43-5.25-3-7.8-4.73C341.44,466.19,338.92,464.86,335.25,465.9Z"/><path class="cls-1" d="M630.71,319.23c-5.21-7.14-5.2-19.66,0-26.93-.42-4.35,1.64-9-1.6-13.05-.1-1.28-.19-2.56-.29-3.83-2.24-2.05-1.54-4.87-1.87-7.39-.45-3.37,1.08-7.1-1.9-10a48.38,48.38,0,0,0-3.34-15c-2-5.05-5.94-9.62-6-15.47-3.21-2.37-.75-7-3.83-9.45,1.05-5.17-2.93-8.17-5-12-3.45-6.43-7.85-12.31-11.19-18.72-4-7.7-10.57-13.21-15.72-19.85-4-5.12-8-10.89-13.69-14.55a92.48,92.48,0,0,1-15.45-12.13c-12.41-12.41-27.31-21-43.5-27.43-3.29-.48-4.27-4.8-8.25-4.56s-7.45-2-10.6-4.37c-6-.27-10.62-5.61-17-4.37-5.55-2.83-11.85-2.86-17.67-4.72a21.24,21.24,0,0,0-8.23-1.85c-11.76.14-23.5.26-35.14-1.81-5.26,1.59-10.55,1.75-16.08,1.69-12.74-.12-25.92-2.35-37.8,4.77-4.5-1.17-8.43,1.16-12.6,2l-3.85.18c-2.33,3.22-7,.67-9.39,3.85l-3.85.13c-3.16,1.18-6.94.93-9.24,4l-4.13,1.1c-2.35,3-6.09,2.86-9.25,4l0,.06c-2.53,8.6-9.31,12.48-17,15.35a5.59,5.59,0,0,0-1.58.92c-.8,2.12-3.05,2.85-4.34,4.5-.67,2.32-2.41,2.81-4.56,2.85s-4.11.61-5,2.55c-4,8.36-11,10.9-19.58,10.4-7.32,1.9-13.65,5.72-15.37,13.26-.89,3.87-2.64,5.51-5.47,7.11-3.53,2.1-4.64,5.57-5.25,9.32l-.21,2.56c-4.74,2.3-10.47,2.07-14.68,5.69-1.87,6.53-.74,13.18-.95,19.78,0,3.76-1.65,6.44-5.17,7.85-4.32.61-7.72,2.35-7.69,7.37,0,2.07-1.76,2.82-2.47,4.32a7.13,7.13,0,0,0-1.33,3.77c-.91,6-5.41,10.82-5.35,17.09-4.42,2.52-5.18,5.79-2,9.86l0,0c3.51,4.15,1.21,9.22,2.12,13.8a18.14,18.14,0,0,1-1.87,12.63c.42,3.63-2.64,5.34-4.33,7.8-2.5,2.8-3.14,6.51-4.75,9.75-1.23,3.44-2.61,6.91,1,9.89.78,1.14,2.41,2.48-.61,2.8-4-2.36-.75-7.13-3.26-10-3.19-1.28-3.08-5.05-5.31-7.06a6.06,6.06,0,0,1-.16-1.11c-2.43-2.42-3.19-8.68-8.78-3.82.21,9.62,1.19,19.32-.2,28.82-1.15,7.85-.4,14.67,4.91,20.72a8.31,8.31,0,0,1,2.07,6.26c-.08,2-.07,4.64,2,6.28.38,4.28-.93,9.11,3.88,12,3.18,2.53,9.17,3.82,3.91,9.9-1.07,1.24-.21,3.45,1.26,4.67a4,4,0,0,1,1.76,3.92c-.27,4.4-5.13,7-4.62,11.7.17,3.65-1.89,6.95-1.48,10.72.34,3.14,1.29,4.79,4.37,2.8,3.3-2.11,5.9-.73,8.6,1L188,413c5.37,5.66,4.21,13.76,7.54,20.18q0,8.6,0,17.19c3.67,3.39,6.66,2.56,9.13-1.47,1.94-1,2.63,1.06,3.94,1.6,1.16.7,2.16,1.73,3.62,1.84,3.44,1,7.57-.84,10.44,2.52,5.14.15,10.2.28,15.23-1.6s10.15-1.92,14.43,1.49c3.15,2.51,6.43,3,10.12,2.9,2,.14,2.44,2.07,3.64,3.11l20.87,12.2c3.3,2.69,6.31,5.6,7.62,9.82a4.52,4.52,0,0,0,3.15,1.94c3.8,2.12,6.89,5.78,11.82,5.42,2.1,2.25,5.77,1.77,7.65,4.41a23.86,23.86,0,0,0,9.48,4.89c2.52,3.88,7,3.89,10.71,5.29,3.54,1.1,7.8-.35,10.67,3.06,3.38.9,5.71,4.24,9.53,4.11,4.79.27,9,2.34,13.15,4.42l3.81.36c2.83,2.62,6.37,1.45,9.62,1.85,15.7,0,31.4-.1,47.1,0,3.26-.4,6.81.77,9.63-1.9l-.07-.29a190.75,190.75,0,0,1,26.46-4.43c6.09.7,11.52-1.57,17-3.76,2.17-2.76,6-2.52,8.51-4.66a7,7,0,0,0,1.1-.24c1.6-1.15,3.69-.51,5.41-1.79,4.74-3.52,10.28-5.54,15.85-7.4,11.46-3.56,20-12.06,29.62-18.49,10.66-7.11,19.68-16.67,29.54-25a5.52,5.52,0,0,0,2-3.9c2.68-3.48,7.2-5.25,8.9-9.63l1.62-2.06c5.74-7.34,13.44-13.34,15.83-23,3.47-4.61,5.29-10.23,8.92-14.75,2-6.34,3.89-12.73,6.15-19,2.91-8.1,6.41-16,7.37-24.67,3.76-3.29.22-8.85,3.8-12.19l.3-9C632.34,328.29,630.52,323.63,630.71,319.23Zm-56.9,3.3c-.06,2.22-.24,4.13-1.65,5.84l-.3,3.81c-2.91,3-1.3,7-2.16,10.43-2.86,4.45-3.12,9.71-4.67,14.57a41.41,41.41,0,0,1-2.09,5.84c0,1.26-.09,2.52-.13,3.79-3.34,2.31-.9,6.95-3.8,9.44-.25,4.75-5.33,7.86-4.39,13-2,5.13-2.51,11.32-9.17,13.24-2.09,1.21-2.54,3.63-3.93,5.35-1.09,4.22-4.72,7.28-5.33,11.72-5.54,3.1-7.47,9.37-11.86,13.49-2.89,1.71-4.89,5.18-9,4.61-9.48,8.37-22.22,12.12-30.84,21.71l-3.94,4.24c-6,6.25-14.67,6.67-22.08,9.83a3.93,3.93,0,0,1-3.59,2.15c-5.7-1.3-11.48-.54-17.22-.72-2.78-.09-3.67,2-5.35,3.15a6.47,6.47,0,0,1-4.35.52c-4.81-4.31-7.42-5.93-14.19.06-2.59.13-5.16.67-7.77.69-4,.11-7.86-.67-11.8-.59-5.07-2.71-10.13-2.26-15.17,0-2.74.14-5.47.06-8.2.34-2.55.5-5.08.08-7.6-.13a36.9,36.9,0,0,1-7.29-2.13,15.24,15.24,0,0,0,2,1.1c6,.68,10.33,5.94,16.54,6,3.46-.07,7.1.82,10.13-1.78,2.82-.47,5.18,1.87,8,1.32,1.82.14,3.55-.46,5.33-.64,4.29.21,8.28.69,12.5-2s8.13-.47,9.66,4.37a27.86,27.86,0,0,1-5.87,8.72H387.88c-2-2.79-6.08-1.09-8.08-3.83-12.22,2.22-23.12-5.19-35.18-4.86-2.84.08-5.76-2.84-8.65-4.39h0c-7.26-3.1-14.59-6-22-8.82-6-2.3-11.07-7.27-16.55-11.06h0l-5-1.73c-7.6-3.13-13.53-8.92-20.59-12.91-1.62-.91-1.84-2.32-1.9-3.91,3.93-3.05,7.79-3.55,11.48.37a5,5,0,0,0,2.71,1.36c-4.66-2.94-4.48-4.84-1.27-11.23,7.6-10.43,4.46-20.08-1.09-30.39-5.87-10.9-14.3-20.31-19.24-31.41-3.21-7.21-10.3-12.75-9.95-21.52-2.75-5.65-.45-12.57-4.53-17.89-3.88-7.61-2.44-15.9-2.9-23.91-.13-2.29-.14-4.37-1.51-6.25v-7.5c2.53-5.13,1.44-10.64,1.71-16,.11-2.34-.2-4.92,2-6.67-1.29-9.45,6.36-17.08,5.37-26.46,2.72-2.05,1.14-6.07,3.73-8.17.19-3.6,1-6.91,4-9.28.73-4.83,4.66-8.3,5.56-13,5.84-1,5.26-7.35,8.72-10.61a42.19,42.19,0,0,0,9.79-12.86c1.6-3.46,7.53-4.92,11.52-7.28,2.91-2.88,5.43-6.11,8.18-9.14,10.19-5.65,17.23-16.79,30.33-17.35,7.37-2.86,14.55-6.23,22.15-8.48a11.83,11.83,0,0,0,3.24-2.06c2.14-.9,4.54-.21,6.71-1.06a35,35,0,0,1,12.85-1.65c6-3.25,12.45-1.16,18.72-1.48,11-.56,22-.07,33-.31,4.55.49,9.38-1.16,13.62,1.78l3.74.34c2.43,3.08,7.07.59,9.47,3.77l3.8.18c2,1.42,4.46,1.78,6.8,2.34,3.62,2.93,9.14,2.38,12,6.62,4.43.27,7.79,3.31,11,5.53,12.81,8.86,27,16.15,36.29,29.38,3.28,4.25,8.21,7.24,9.68,12.85,5.28,2.84,5.74,8.64,8.15,13.24,5.11,1.3,5.89,6.43,8.66,9.8-.33,3.48,1.25,6,4.07,7.77,6.24,4,4.11,11.22,6.38,16.76.86,2.13,1.91,4.45,1.84,6.94-.36,2.64,2.87,4,2.37,6.69,1.28,3,0,6.66,2.59,9.28l0,3.83c-4.95,4.84,1.88,7.25,2.15,11Q574.21,306.39,573.81,322.53Z"/><path class="cls-1" d="M195.72,227.64q0-4.59,0-9.2l11.81-.06c-3.7,1.45-8.33,1.67-8.69,7.29C198.79,227,197,227.33,195.72,227.64Z"/><path class="cls-1" d="M266.05,214.4c.74,5.45-2.4,9.26-5.56,13C259.44,221.86,262.49,218,266.05,214.4Z"/><path class="cls-1" d="M471.52,151.88l-4.24.21c-2.63-.14-4.16-1.81-5.37-3.9C465.49,148.44,469.9,146.52,471.52,151.88Z"/><path class="cls-1" d="M379.8,490.11c3.28.05,7.13-1.14,8.08,3.82C384.65,493.78,380.79,495,379.8,490.11Z"/><path class="cls-1" d="M554.53,228c-5.31-1.13-4.36-7.78-8.66-9.8C551.26,219.2,554.05,222.55,554.53,228Z"/><path class="cls-1" d="M283.15,134.88c-1.21-.34-2.83-.29-2.87-2,0-1.3,1.19-1.7,2.29-1.8,1.51-.14,3-.13,4.54-.19A4,4,0,0,1,283.15,134.88Z"/><path class="cls-1" d="M515.18,438.41,515,437c3.78.29,5.16-5.08,9.29-3.93C523.35,438.37,519,437.9,515.18,438.41Z"/><path class="cls-1" d="M444.68,485.92l.13-3.87,0-1.35c1.89.32,4.37.33,4.31,2.89C449.1,486.41,446.51,485.75,444.68,485.92Z"/><path class="cls-1" d="M222.3,454.09c-3.83.42-6.55-1.91-9.43-3.83C216.35,450.71,220.81,448.74,222.3,454.09Z"/><path class="cls-1" d="M347.93,477a135.25,135.25,0,0,1-30.41-11.42c-4.31-2.19-8.2-5.28-13-6.42-2-3.08-.51-4.71,2.52-4.64,2.06.05,4.41-.26,6.33,1.12,1.4,5.51,6.12,3.09,9.47,3.95,2,2.73,6.06,1.14,8.16,3.74l4.94.3c2.07,2.64,6.24.87,8.13,3.89,6.67,2.15,12.52,5.94,18.58,9.31,1.15.74,3.25.52,3.08,2.6s-1.89,2-3.38,1.91c-1.67-.06-3.41.39-5-.55C353.65,480.91,351.84,476.35,347.93,477Z"/><path class="cls-1" d="M313.34,455.68c-3.18.61-7.66-2.06-8.85,3.52l-4,.11L299,453C304.48,450.33,308.83,453.41,313.34,455.68Z"/><path class="cls-1" d="M297.55,451.54a7.37,7.37,0,0,0-1.15.26c-3.84-.65-8.39,0-9.63-5.36l3.18-1.61C293.11,446.35,296.69,447.4,297.55,451.54Z"/><path class="cls-1" d="M374.59,486c-1.49-1.27-4.8-2.83,0-3.72,3-.54,6.11-.06,9.18,0,.39.39.79.77,1.19,1.15C382.44,487.92,378.11,485.32,374.59,486Z"/><path class="cls-1" d="M391.91,485.87c.12-1.75.44-3.47,2.21-4.33s4.13-1.36,5.37.27c1.9,2.51-1.33,2.9-2.42,4.17Z"/></svg>