<svg id="gris" xmlns="http://www.w3.org/2000/svg" viewBox="0 0 792 612"><defs><style>.cls-1{fill:#ececec;}.cls-2{fill:#4b4b4b;}</style></defs><title>Certificaciones</title><g id="NGIBW9.tif"><path class="cls-1" d="M542.89,160.22a5,5,0,0,1-1.73.67,178.89,178.89,0,0,0-57.1,29.62,215.69,215.69,0,0,0-45.41,48.12A280.41,280.41,0,0,0,414,281.75a8,8,0,0,1-.4.77c0,.05-.14.07-.23.12-.47-.4-.52-1-.74-1.53-5.69-14.06-11.17-28.19-17.24-42.09a1.39,1.39,0,0,1,.17-1.59,195.39,195.39,0,0,1,21.5-23.69A199.57,199.57,0,0,1,487.49,171,205.85,205.85,0,0,1,528,161.3c2.71-.37,5.45-.56,8.18-.83a2.62,2.62,0,0,0,1.2-.25Z"/><path class="cls-2" d="M85.28,414.09c4.49,0,9,0,13.47,0,.74,0,1.28.08,1.38,1,.69,6.16,4.78,9,10.31,10.05a27.17,27.17,0,0,0,15.44-1.25,7.72,7.72,0,0,0,5.09-8.82c-.45-2.38-2.09-3.72-4.1-4.68a45.35,45.35,0,0,0-9-2.75c-6.1-1.47-12.29-2.58-18.26-4.54-4.25-1.39-8-3.62-10.39-7.52-3.73-6.12-3.53-12.59-1-19a18.17,18.17,0,0,1,10.15-10.3A41.29,41.29,0,0,1,127,364.8a22.81,22.81,0,0,1,13.36,10,22.19,22.19,0,0,1,3.12,9.89c.08.91-.15,1.27-1.12,1.26-4.16,0-8.31,0-12.47,0-.72,0-1.17-.19-1.31-1-1-6-5.15-8.5-10.63-9.38a21.06,21.06,0,0,0-12.34,1.3c-3.71,1.69-5.37,4.79-4.61,8.56a6.3,6.3,0,0,0,4.29,4.79,63.93,63.93,0,0,0,7.1,1.88c7,1.79,14.23,3,21.12,5.41a18.84,18.84,0,0,1,9.19,6.35c3.06,4,3.6,8.7,3.08,13.52-1,9.37-6.51,15.2-15.15,18.06a44.65,44.65,0,0,1-31.82-.93c-7.67-3.14-12.27-8.88-13.26-17.28a6.66,6.66,0,0,0-.25-.95Z"/><path class="cls-2" d="M328.26,242.12A68.53,68.53,0,0,0,339.34,280a67.8,67.8,0,0,0,28.18,24.79A68.15,68.15,0,0,0,441.1,295a67.73,67.73,0,0,0,22.79-38.55,68.45,68.45,0,0,0-1.64-34.36,2.25,2.25,0,0,1,.57-2.55c1.74-1.77,3.42-3.62,5.14-5.42,1.18-1.23,1.21-1.22,1.8.32a78.13,78.13,0,0,1-36.67,97.12,77.92,77.92,0,0,1-87.2-9.83,76.81,76.81,0,0,1-26.36-47.46,80.54,80.54,0,0,1-.87-11.3,74.44,74.44,0,0,1,14-45.28c11.87-16.89,28-27.71,48.25-31.77,23.88-4.79,45.58.56,64.82,15.59,1.19.93,1.18.94-.09,1.74-2,1.25-4,2.46-5.87,3.78a1.67,1.67,0,0,1-2.3-.07,63,63,0,0,0-19-10c-19.35-6.21-38.07-4.59-55.67,5.61-19.06,11-30.16,27.81-33.82,49.52A63.78,63.78,0,0,0,328.26,242.12Z"/><path class="cls-2" d="M380.82,377.12v56.69c0,2.38.21,2.18-2.25,2.19-3.49,0-7,0-10.47,0-1.15,0-1.61-.28-1.61-1.52q0-34,0-68.08c0-1.15.37-1.49,1.5-1.48q9.79.06,19.58,0c1.1,0,1.49.37,1.74,1.4q6.27,26.51,12.62,53a2.78,2.78,0,0,0,.47,1.28,2.71,2.71,0,0,0,.57-1.54q6.13-26.08,12.25-52.17c.46-1.93.46-1.93,2.43-1.93,6.23,0,12.47,0,18.7,0,1.28,0,1.61.39,1.61,1.63q0,33.92,0,67.83c0,1.25-.34,1.66-1.62,1.63-3.65-.07-7.31,0-11,0-1.72,0-1.73,0-1.73-1.72V377c-.57.16-.46.57-.52.85q-6.57,28.23-13.09,56.46c-.31,1.34-.85,1.71-2.17,1.68-3.82-.09-7.64,0-11.47,0-1.87,0-1.87,0-2.28-1.8q-6.28-27.76-12.59-55.54c-.12-.52-.25-1-.37-1.56Z"/><path class="cls-2" d="M456.21,227.08a47.67,47.67,0,0,1,1.59,8.57,60.71,60.71,0,0,1-5.13,32.23c-7.65,16.46-20.05,27.8-37.37,33.34-17.57,5.61-34.52,3.57-50.24-6s-25.26-23.61-28.58-41.67c-3.2-17.47.44-33.59,11-47.93a59.18,59.18,0,0,1,39.07-24.16c16.25-2.73,31.29.71,45,9.95.86.58.69.88,0,1.39-1.76,1.26-3.5,2.55-5.18,3.9a1.54,1.54,0,0,1-2.09.1,48,48,0,0,0-20.39-7.25c-18.67-2.1-34.42,3.8-46.92,17.86a50.53,50.53,0,0,0-12.89,31c-.94,14.46,3.14,27.45,12.55,38.59a51.22,51.22,0,0,0,30.26,17.75,53,53,0,0,0,62.09-42.91,56.42,56.42,0,0,0,.54-15,1.69,1.69,0,0,1,.18-1.32C451.75,232.74,453.9,230,456.21,227.08Z"/><path class="cls-2" d="M338.59,390.11c0-7.86,0-15.71,0-23.56,0-1.24.34-1.67,1.62-1.65,4.23.07,8.47.06,12.71,0,1.11,0,1.42.37,1.42,1.44,0,15.17,0,30.33,0,45.5a29.3,29.3,0,0,1-2,11.09,21.23,21.23,0,0,1-14,12.86c-9.69,2.93-19.41,3-29-.72-8.85-3.46-13.31-10.19-14.27-19.47a52.55,52.55,0,0,1-.23-5.47V366.63c0-1.69,0-1.7,1.73-1.7,4.15,0,8.31,0,12.46,0,1.22,0,1.55.38,1.55,1.57,0,14.62,0,29.25,0,43.88a21,21,0,0,0,.64,5.8,12,12,0,0,0,11.69,9.12,23.69,23.69,0,0,0,6.55-.62c5.51-1.31,8.69-5.06,9-10.74.11-1.82.17-3.65.18-5.48C338.6,402.32,338.59,396.22,338.59,390.11Z"/><path class="cls-1" d="M396.7,286.22a42.64,42.64,0,0,1-22.33-6,3.08,3.08,0,0,1-1.36-1.53q-9.57-22.54-19.18-45.07a3.07,3.07,0,0,1-.2-2.15,44.72,44.72,0,0,1,20.75-27.69c.9-.55,1.27-.49,1.68.54q15.82,39.57,31.71,79.12c.47,1.14.18,1.48-.92,1.71A42.56,42.56,0,0,1,396.7,286.22Z"/><path class="cls-2" d="M209.48,388.18c-2.12,0-4.24,0-6.36,0a1.41,1.41,0,0,1-1.6-1.17,14.69,14.69,0,0,0-3.89-7c-4-3.59-8.7-4.51-13.81-4-7.39.75-12.12,5-14.47,11.81a36.76,36.76,0,0,0,.59,26.69c3.27,8,10.47,11.63,19,10.16,6.72-1.15,10.76-5.19,12.58-11.61.31-1.11.77-1.53,2-1.5,4.11.07,8.23,0,12.34,0,1.46,0,1.51.07,1.18,1.5-2.12,8.93-6.59,16.18-14.81,20.75a31.18,31.18,0,0,1-13.54,3.89c-5.87.34-11.63-.1-17.15-2.35-8.9-3.63-14.53-10.26-17.57-19.23a50.81,50.81,0,0,1-2.13-20.31,39.6,39.6,0,0,1,5-17.2c5.12-8.9,13-13.78,23-15.14,7.68-1.05,15.25-.51,22.35,3.18,8,4.13,13.16,10.36,14.92,19.28,0,.2.09.4.12.61.21,1.52.17,1.57-1.32,1.57Z"/><path class="cls-1" d="M683.38,421.2c1-3.41,1.91-6.63,2.82-9.86,2.52-8.87,5.06-17.74,7.54-26.62a1.47,1.47,0,0,1,1.73-1.29c3.9.05,7.81,0,11.71,0,1.53,0,1.54,0,1,1.42q-8.64,24.17-17.29,48.34a149.14,149.14,0,0,1-5.48,14.17,31.28,31.28,0,0,1-1.62,2.8,10.34,10.34,0,0,1-8,5,54.66,54.66,0,0,1-10.7.17c-.78-.06-1.09-.34-1.08-1.13q0-4.31,0-8.61c0-.85.31-1.08,1.12-.94a16.91,16.91,0,0,0,5-.17,5,5,0,0,0,3.7-2.29c1.5-2.38,2.24-4.72,1.14-7.7-6.11-16.52-12-33.1-18-49.67-.47-1.28-.43-1.35.91-1.35,4.24,0,8.47,0,12.71,0,1,0,1.43.42,1.71,1.36q5.18,17.57,10.43,35.11A2.4,2.4,0,0,0,683.38,421.2Z"/><path class="cls-1" d="M458.63,418.36c2,0,3.91,0,5.86,0,.82,0,1.2.26,1.31,1.1A6.52,6.52,0,0,0,471,425.2a20.23,20.23,0,0,0,9.75.38,8.39,8.39,0,0,0,3.49-1.58c2.62-2.12,2.22-5.32-.86-6.66a49,49,0,0,0-10.59-2.75,50.79,50.79,0,0,1-10.54-2.95c-9.32-4-11.93-14.66-5.44-22.51,3.17-3.85,7.41-5.79,12.26-6.52a38.45,38.45,0,0,1,16.9,1.06c6.92,2.09,11.11,6.68,12.11,14,.16,1.19-.18,1.5-1.34,1.47-3.62-.06-7.23,0-10.85,0-.75,0-1.22-.13-1.39-1-.67-3.32-2.89-5.09-6.09-5.56a16.54,16.54,0,0,0-8.37.55,4.33,4.33,0,0,0-2.82,2.46,3.48,3.48,0,0,0,1.9,4.77,29.67,29.67,0,0,0,6.66,2c4.53,1,9.18,1.55,13.56,3.23a21,21,0,0,1,7,4.22c3.21,3,3.79,6.88,3.35,11-.71,6.56-4.56,10.7-10.45,13.11-5.4,2.22-11.07,2.46-16.8,2-4.25-.39-8.42-1.14-12.18-3.3-5-2.88-8.28-7-8.66-13-.06-1,.24-1.32,1.22-1.29C454.73,418.4,456.68,418.36,458.63,418.36Z"/><path class="cls-1" d="M576.54,428.05c-.68.88-1.3,1.82-2.06,2.63A16.58,16.58,0,0,1,563.41,436c-4.11.32-8.18.06-11.93-1.83-5.18-2.61-7.48-7.2-8.33-12.7a29.77,29.77,0,0,1-.28-4.72V385.11c0-1.65,0-1.66,1.65-1.66,3.53,0,7.06,0,10.59,0,1.21,0,1.55.38,1.55,1.57,0,9.93,0,19.86,0,29.79a13.52,13.52,0,0,0,.79,5.27c1.41,3.41,4.83,5.19,9,4.71,6.13-.71,9.77-4.6,9.83-10.8.09-9.6,0-19.2,0-28.8,0-1.71,0-1.71,1.7-1.71,3.58,0,7.15,0,10.72,0,1,0,1.37.36,1.36,1.37q0,24.32,0,48.62c0,1.12-.39,1.43-1.46,1.41q-5.17-.07-10.34,0c-1.08,0-1.5-.29-1.45-1.41.07-1.76,0-3.54,0-5.31Z"/><path class="cls-1" d="M511.51,409.69c0-5,0-10.05,0-15.08,0-1.12-.3-1.57-1.48-1.5-1.4.1-2.82,0-4.23,0-1,.05-1.41-.27-1.38-1.33.06-2.32.07-4.65,0-7,0-1.1.34-1.43,1.43-1.42,6.31,0,12.62,0,18.94,0,2.61,0,5.23,0,7.85,0,1,0,1.31.33,1.29,1.3-.06,2.37-.07,4.74,0,7.1,0,1.08-.39,1.35-1.39,1.32-1.95-.06-3.9,0-5.85,0-.93,0-1.34.23-1.33,1.25,0,9.18,0,18.36,0,27.54,0,2,.52,2.59,2.45,3a12.65,12.65,0,0,0,4.71.18c1-.17,1.4.21,1.38,1.27-.06,2.57,0,5.15,0,7.72,0,.63,0,1.18-.88,1.18-4.27,0-8.55.36-12.81-.25a13.39,13.39,0,0,1-4.34-1.49,7.84,7.84,0,0,1-4.18-6.52,77,77,0,0,1-.21-8.59C511.48,415.5,511.51,412.59,511.51,409.69Z"/><path class="cls-1" d="M518.45,378.64c-2,0-3.91,0-5.86,0-.8,0-1.1-.31-1.1-1.11q0-5.85,0-11.72c0-.81.33-1.09,1.12-1.08,3.86,0,7.73,0,11.59,0,.85,0,1.2.3,1.19,1.16,0,3.87,0,7.73,0,11.6,0,.87-.37,1.16-1.2,1.15C522.27,378.61,520.36,378.64,518.45,378.64Z"/><path class="cls-2" d="M286.26,433.75a3.64,3.64,0,0,1-2-2.59,16.82,16.82,0,0,1-.51-3.94c-.08-4.69.11-9.39-.5-14.06-.63-4.86-2.68-8.7-7.51-10.58a11.72,11.72,0,0,1-1.29-.7,15.55,15.55,0,0,0,5.92-3.44c4.39-4.37,5.88-9.73,5.12-15.74-1-8.11-5.53-13.5-13.18-16.3a27.68,27.68,0,0,0-9.68-1.44c-12,0-23.93,0-35.9,0-1.18,0-1.57.31-1.57,1.53q.06,34,0,68c0,1.14.33,1.52,1.48,1.5,3.9-.06,7.81,0,11.72,0,2,0,2,0,2-2q0-12.21,0-24.43c0-.77-.09-1.51,1.09-1.49,6.18.12,12.38-.24,18.56.24,5.41.41,7.72,2.82,8.11,8.18.22,3.07.11,6.14.22,9.21a41.49,41.49,0,0,0,1.22,9,1.45,1.45,0,0,0,1.65,1.26c4.82,0,9.64,0,14.46,0,.49,0,1.17.22,1.3-.59S287.06,434.11,286.26,433.75Zm-16-45.43c-.56,4.17-2.46,6.27-6.55,7.3a20.62,20.62,0,0,1-5.07.54c-5.61,0-11.22,0-16.82,0-1.06,0-1.47-.27-1.46-1.4.05-5.44,0-10.88,0-16.33,0-1,.31-1.3,1.3-1.29,3.19,0,6.39,0,10.28,0,2.88.13,6.47-.28,10,.19C268,378.18,271.06,382.31,270.25,388.32Z"/><path class="cls-1" d="M651.11,366.87c0-1.12-.39-1.42-1.45-1.41-3.66.05-7.32.07-11,0-1.24,0-1.54.42-1.53,1.58,0,7.15,0,14.3,0,21.44,0,.43.16.9-.16,1.3a.79.79,0,0,1-.24-.1c-.24-.28-.47-.58-.7-.87a16.18,16.18,0,0,0-7-5.39c-9.52-3.65-20.81.43-25.44,9.53-5.26,10.36-4.89,21-.21,31.42,5.21,11.56,17.23,14,27,10.17a15,15,0,0,0,6.72-5.74l.34.09c0,1.52,0,3,0,4.56,0,1,.29,1.41,1.35,1.39q5.48-.07,11,0c1.07,0,1.32-.42,1.32-1.4Q651.07,400.16,651.11,366.87Zm-14.05,49.27a11.56,11.56,0,0,1-14.13,8.68,10,10,0,0,1-6.34-5.24c-2.25-4-2.65-8.33-2.27-12.79a22.36,22.36,0,0,1,1.12-5.35c1.75-5,5.34-7.57,10.62-7.6s8.85,2.57,10.58,8A25.4,25.4,0,0,1,637.06,416.14Z"/></g></svg>