<svg id="gris" xmlns="http://www.w3.org/2000/svg" viewBox="0 0 792 612"><defs><style>.cls-1{fill:#515151;}.cls-2{fill:#fff;}.cls-3{fill:#7a7a7a;}.cls-4{fill:#ececec;}.cls-5{fill:#3f3f3f;}</style></defs><title>Certificaciones</title><g id="pS5WUb.tif"><path class="cls-1" d="M395.39,409.69C368.12,443.6,333,464.75,290,470.59c-64.69,8.78-118-13-158.21-64.54C88.38,350.35,87.13,269,127.93,211.46c30.5-43,72.28-67.56,124.76-71.21,57.83-4,105.58,17.51,142.64,62.29,2.57.57,4.28,2.22,5.77,4.31,16.38,22.94,27.21,48.08,30.57,76.24.6,5.05.92,10.14,1.88,15.15a129.38,129.38,0,0,0,0,15.63c-1.92,11.38-2.26,23-5.3,34.24a173.41,173.41,0,0,1-27.17,57.36C399.59,407.52,398,409.26,395.39,409.69Z"/><path class="cls-2" d="M262.76,297.74c-.28,10.86.51,24.07-.47,37.25a48.33,48.33,0,0,1-4.82,18.67c-5.06,9.87-13.16,15.28-24.14,16.5-11.29,1.26-21.69-.52-29.82-9.23-5.75-6.16-8.13-13.86-9.25-22a99.15,99.15,0,0,1-.78-13.78c0-23.29.06-46.59,0-69.88,0-3,.68-4.09,3.89-4.07,11,.07,11-.05,11,10.78,0,22.79,0,45.58.15,68.38a38.33,38.33,0,0,0,3.72,17c3.31,6.65,8.94,9.5,16.09,9.5S241,353.66,244.15,347c3.34-7.05,3.82-14.64,3.84-22.26q.07-34.19,0-68.38c0-5.09,0-5.09,5-5.1,9.76,0,9.76,0,9.76,9.76Z"/><path class="cls-2" d="M308.89,319.58c-2.88,6.4-5.72,12.69-8.54,19-4,8.86-8,17.7-11.84,26.6-.81,1.86-1.78,2.69-3.88,2.61-4.05-.16-8.12-.05-12.8-.05,1.63-3.46,3-6.36,4.36-9.24,7.84-16.39,15.65-32.8,23.59-49.14a6.36,6.36,0,0,0,0-6.24c-7.81-16-15.51-32-23.23-48.07-1.8-3.75-1.69-3.22,2.35-3.9,8.83-1.47,13.35,2,16.27,10.42,3.47,9.95,8.42,19.38,12.76,29,.5,1.11.75,2.4,2.1,3.42,2.8-6.31,5.57-12.54,8.32-18.77,3.11-7.06,6.25-14.11,9.27-21.21.83-2,1.87-3,4.16-2.83a76.52,76.52,0,0,0,9,0c2.88-.15,3.08.79,1.92,3.19-7.72,15.9-15.23,31.9-23.06,47.74a8.62,8.62,0,0,0,0,8.61c8.76,17.75,17.21,35.64,25.93,53.41,1.52,3.11.86,3.83-2.33,3.59-4-.29-8.59,1.35-11.71-.63S328,360.49,326.36,357c-5.13-11.34-10.17-22.72-15.28-34.06C310.59,321.84,310.42,320.52,308.89,319.58Z"/><path class="cls-3" d="M431.29,297.46a46.32,46.32,0,0,1,0,17.21Z"/><path class="cls-4" d="M692.57,287.71a157.31,157.31,0,0,0-39.24-90c-37.58-42.55-85.06-62-141.56-57.19-45.71,3.87-83.34,24.41-113,59.43-.93,1.1-1.62,2.6-3.41,2.6,22.18,27.78,33.91,59.52,36,94.92a100.93,100.93,0,0,1,0,17.21c-.55,5.68-.82,11.4-1.71,17-4.58,29-15.75,55.09-34.19,78,1.32,0,1.93,1,2.64,1.84a164,164,0,0,0,20.61,21.06C454.34,462.67,495.69,476,542,472c42.06-3.65,78.12-21.14,106.88-52.35C683.23,382.34,697.65,338,692.57,287.71ZM542.65,261.55c0,23.29,0,46.59-.09,69.88a50,50,0,0,1-4.15,20.35c-6.08,13.66-19.08,20.55-34.87,18.65-16.27-2-26.11-11.8-28.94-28.93-1.29-7.78-1.24-15.63-1.25-23.47V295.61c0-13.33.09-26.66-.06-40,0-3.31.82-4.88,4.39-4.46a32.71,32.71,0,0,0,6.71,0c3-.26,3.9.89,3.86,3.82q-.19,15.87,0,31.76c.17,15.57-.59,31.14.51,46.7.37,5.26,1.41,10.37,4.13,15,3.5,5.95,8.89,8.4,15.65,8.31s11.8-2.76,15-8.69c3-5.61,4.09-11.76,4.12-18q.17-37,0-74c0-3.63.75-5,4.7-4.91C542.64,251.36,542.65,251.16,542.65,261.55Zm35.84,48.26c0,17.94-.08,35.88.08,53.81,0,3.28-.85,4.53-4.18,4.17a42.35,42.35,0,0,0-7.47,0c-2.69.21-3.35-.95-3.35-3.47q.09-54.75,0-109.5c0-2.75.83-3.84,3.63-3.64a51.3,51.3,0,0,0,7.84,0c2.92-.24,3.53,1.05,3.51,3.71-.1,16.44,0,32.89,0,49.33Z"/></g><path class="cls-5" d="M395.77,408.31s-63.08-87.72-21.54-167.71l22.32-36.5S441,256.67,430.71,317.28C430.71,317.28,432.42,358.1,395.77,408.31Z"/></svg>