<svg id="gris" xmlns="http://www.w3.org/2000/svg" viewBox="0 0 792 612"><defs><style>.cls-1{fill:#c6c6c6;}.cls-2{fill:#111110;}.cls-3{fill:#595959;}.cls-4{fill:#100f12;}.cls-5{fill:#0e0e06;}.cls-6{fill:#0f0e08;}.cls-7{fill:#14140b;}.cls-8{fill:#13120f;}.cls-9{fill:#1b1a1d;}.cls-10{fill:#1c1a1d;}.cls-11{fill:#19181b;}.cls-12{fill:#1c1b11;}.cls-13{fill:#171619;}.cls-14{fill:#1f1e21;}.cls-15{fill:#1e1c1f;}.cls-16{fill:#151417;}.cls-17{fill:#4f482b;}.cls-18{fill:#3e3a28;}.cls-19{fill:#3c3613;}.cls-20{fill:#2f2d2f;}.cls-21{fill:#3e3a2d;}.cls-22{fill:#313035;}.cls-23{fill:#c5ad23;}.cls-24{fill:#1c1b16;}.cls-25{fill:#5c595f;}.cls-26{fill:#0f0f00;}.cls-27{fill:#121201;}.cls-28{fill:#070800;}.cls-29{fill:#0b0c00;}.cls-30{fill:#0d0d04;}.cls-31{fill:#0e0e00;}.cls-32{fill:#0b0c02;}.cls-33{fill:#201e03;}.cls-34{fill:#110;}.cls-35{fill:#121200;}.cls-36{fill:#221f03;}.cls-37{fill:#26231d;}.cls-38{fill:#0e0e01;}.cls-39{fill:#0e0f00;}.cls-40{fill:#222003;}.cls-41{fill:#161501;}.cls-42{fill:#151401;}.cls-43{fill:#191801;}.cls-44{fill:#1b1901;}.cls-45{fill:#131300;}.cls-46{fill:#181701;}.cls-47{fill:#211f04;}.cls-48{fill:#1e1c04;}.cls-49{fill:#1f1d02;}.cls-50{fill:#1e1c03;}.cls-51{fill:#262305;}.cls-52{fill:#2e2907;}.cls-53{fill:#272404;}.cls-54{fill:#2e2a09;}.cls-55{fill:#312c08;}.cls-56{fill:#2f2a08;}.cls-57{fill:#342f0b;}.cls-58{fill:#fcfaf2;}.cls-59{fill:#3d381e;}.cls-60{fill:#6a634d;}.cls-61{fill:#646167;}.cls-62{fill:#aaa7ab;}.cls-63{fill:#080901;}.cls-64{fill:#cac4b4;}.cls-65{fill:#a79d7d;}.cls-66{fill:#0c0c00;}.cls-67{fill:#0c0d00;}.cls-68{fill:#101000;}.cls-69{fill:#0a0b00;}.cls-70{fill:#272405;}.cls-71{fill:#262316;}.cls-72{fill:#2b2807;}.cls-73{fill:#252204;}.cls-74{fill:#242104;}.cls-75{fill:#232005;}.cls-76{fill:#2c2807;}.cls-77{fill:#1d1b03;}.cls-78{fill:#342f08;}.cls-79{fill:#2c2920;}.cls-80{fill:#322d08;}.cls-81{fill:#433c0f;}.cls-82{fill:#403c36;}.cls-83{fill:#4f4617;}.cls-84{fill:#a69650;}.cls-85{fill:#0e0e02;}.cls-86{fill:#b8a00e;}.cls-87{fill:#141316;}</style></defs><title>Temas-33</title><g id="PBOAmN.tif"><path class="cls-1" d="M698.84,324.07c-.57,0-1.08-.29-1.71-.1a37.49,37.49,0,0,1-7.76.92c-.71-.06-1-.63-1.36-1.12.07-.17.19-.21.38-.21,3.05.07,6.13.38,8.94-1.28.09,0,.2-.22.36,0,.37.55.82.12,1.08-.09.44-.38.31-.89.06-1.38s-.33-.69-.9-.63a15.42,15.42,0,0,0-5.82,1.38c-.18.09-.45.29-.56.23-1.24-.69-2.48-.1-3.72-.05-.58,0-.59-.31-.57-.71,0-1.05-.66-1.3-1.48-1.24-2.82.21-5.63.57-8.45.81a10.74,10.74,0,0,1-2.72.27,7.36,7.36,0,0,1-2-.27c-.59.45-1.33,0-1.93.35,0,1.27.08,1.4,1.64,1.71h.58a2.53,2.53,0,0,1,1.39,0c.18,0,.43,0,.56.11.21,0,.4-.09.56-.1-.14,0-.33.09-.54.13a.38.38,0,0,1,.07.2,91.77,91.77,0,0,1-9.72,1.79c-.8.14-1.35-.69-2.15-.5a2,2,0,0,1,.35-.36.39.39,0,0,1-.1-.08s0-.1,0-.11a3.31,3.31,0,0,1,2.3-.17l.3.08.19,0a9.45,9.45,0,0,1,1.19,0,1.57,1.57,0,0,0,.25-.14c.68-.4,1.4-.72,2.11-1.08s1-.69.44-1.36c-.23-.21-.5-.1-.75-.1-1-.07-1.9.34-2.86.34a8.82,8.82,0,0,0-2.93.43h-.21c-.88-.32-1.77.07-2.65,0-.65.45-1.43.09-2.11.34a8.56,8.56,0,0,1-1.13,0c-.42-.05-1.1.37-1.16-.5s.65-.64,1.08-.7a48.41,48.41,0,0,1,5.36-.54c1.95,0,3.79-.67,5.74-.76,1.34-.07,2.82-.55,4.26-.53,4.31,0,8.44-1.13,12.64-1.8,1.29-.2,1.82-1.69,3.22-1.59.29,0,.2-.48.18-.77,0-.45-.36-.39-.65-.34-1.07.2-2.13.43-3.2.61a143.64,143.64,0,0,1-18.27,2.05c-2.54.08-5.1.43-7.65.73a47.49,47.49,0,0,0-5.44.91c-2.39.58-4.88.21-7.23.77a78.74,78.74,0,0,1-13.57,2.06c-3.56.21-7.1.78-10.64,1.21a11.88,11.88,0,0,0-2.46.46c-.55.19-.69-.72-1.23-.28a3.32,3.32,0,0,1-2.41.38c-1.47,0-2.94-.1-4.4,0-3.78.27-7.48,1.49-11.33,1.09-.09,0-.19,0-.25,0-1.38.89-2.7.13-4-.15-.33-.45-.9-.41-1.33-.64s-.9-.59-.83-1.26a7.9,7.9,0,0,1,1.09-3.45c.26-.4.62-1.47,1.29-.2.14.26.54.18.82.06.68-.29,1.38-.74,1.47-1.44a8.6,8.6,0,0,1,1.52-3.25,9.4,9.4,0,0,0,.86-2.36c.17-.65.24-1.29-.61-1.51s-1.13.31-1.36.95c-.44,1.25-.84,2.51-1.23,3.8a.74.74,0,0,1-.23-.63c-.2-1.8,1-3.05,1.78-4.45.35-.63.66-1.1,1.55-.82.71.22,1.25-.23,1-1a1.77,1.77,0,0,1,1-2.53c.62-.35.45-1-.27-1.1-1.12-.12-1-.8-.88-1.54a5.94,5.94,0,0,1,.64-1.49,77.59,77.59,0,0,0,4-9.5c.23-.71.42-1.15,1.33-1.11s1.41-.8.93-1.3c-1.28-1.33-.59-2.46.23-3.57a10.69,10.69,0,0,0,2-4.15.92.92,0,0,1,.39-.75c2.08-1.12,2.72-3.2,3.42-5.21a26.15,26.15,0,0,1,1.14-3.33,162.52,162.52,0,0,0,7.71-18.57q4-11.06,7.93-22.14a165,165,0,0,0,6-19.46c.1-.44.31-.89.06-1.35.3-1.64.59-3.28.89-4.92.06-.31.28-.66-.26-.77-.8-.29-1,.2-1.12.84-.27,1.31-.67,1.41-1.74.48,0-.11,0-.22,0-.33-.09.13-.17.27-.26.41a5.45,5.45,0,0,1,.34-3.29,16.71,16.71,0,0,1,2.28-4.69c.26-.39.62-.94.93,0-.06.14-.11.28-.16.42.22.67.34,1.38.55,2.06.14.45.21,1,.88,1l.74,0a1.41,1.41,0,0,0,.52-1.54,8.56,8.56,0,0,1,.43-2.66,1.25,1.25,0,0,0-.38-1.44,1.09,1.09,0,0,0-1.15-.28c-.36.13-.56,0-.57-.39v-.28a6.16,6.16,0,0,1-.34.68c0-.43,0-.86,0-1.3a.68.68,0,0,1,.33.37c0-.21,0-.43,0-.65a5.9,5.9,0,0,0-.33-2.39c-.23-.54.37-1.32-.34-1.67a3.34,3.34,0,0,1-1.4-1.53c-.11-1.15-.34-1.38-1.45-1.26-1.36.16-2.73.22-4.09.39a1.81,1.81,0,0,1-1.79-.62c-.16-.46-.84-1-.14-1.4a6.8,6.8,0,0,1,4.74-1.13c1.1.23,2.13-.21,3.21-.22.41,0,.78-.34,1.21.06a.61.61,0,0,0,.81-.07c.25-.25,0-.56,0-.84s-.34-.46-.64-.4a21.73,21.73,0,0,1-4.77,0,39.52,39.52,0,0,0-4.49.3c-7.69.43-15.37,1.13-23.05,1.76-5.55.46-11.1,1-16.65,1.4s-11.09,1.33-16.67,1c-1.76-.1-3.38,1.36-5.17.35-.06,0-.16,0-.25.05l-3.63,1-3.29,0,.14.08a.23.23,0,0,1-.14-.08c-1,.08-2.06-.6-3,.23a1.39,1.39,0,0,0-.87.49,8.56,8.56,0,0,0,2.67-.23h0l1.93-.06c.47.16,1-.23,1.45.24a82.33,82.33,0,0,1-11.6,1.93c-6.4.35-12.74,1.78-19.1,2.75a4.48,4.48,0,0,1-2.11.16,9.62,9.62,0,0,0-5.08,0c-4.72,1-8.91,3.31-13.36,5-.34.13-.6.28-.3.73s.57,1.06,1.23.62c1.33-.89,2.73-.45,4.13-.41,1.06,0,1.1.47.76,1.24a4.14,4.14,0,0,0-.42,2.37c-2.14,1.19-4.34,2.43-5.15,4.89a4.37,4.37,0,0,1-2.84,2.81,17.69,17.69,0,0,0-5,2.93c-.39.34-.79.83-.44,1.3s.83.08,1.25-.12.78-.64,1.18,0,1,1,1.24,1.71a1.83,1.83,0,0,0,.19,1.82,3.15,3.15,0,0,1-.47,2.28c-2.61,5.66-5.2,11.33-7.88,17-9.11,19.15-18.74,38.06-26.87,57.67-4.77,11.51-10,22.83-14.2,34.58a1.19,1.19,0,0,1-.94.85,21,21,0,0,0-3.73,1.48,9.07,9.07,0,0,0-4.07,3.61c-.61,1.15-.47,1.61.77,2.08.62.24,1.28.37,1.93.55,1.49.78,1.49.78.67,2.38a1.6,1.6,0,0,0-.27.92c-.39,2.87-.06,3.61,2,4.6a2,2,0,0,0,1.05.64,30.07,30.07,0,0,0,7.88,1.19c.92,0,.81.36.8.92,0,.82-.43,1.63-.05,2.46-.24,1.39-.49,2.78-.72,4.17-.07.38-.42.88.06,1.11s.76-.36,1-.7c.61-.83,1.19-1.69,1.78-2.54.52-.14.65-.61.87-1a17,17,0,0,0,1.36-3.23c.12-.36.24-.74.77-.61a2.07,2.07,0,0,1,1.24,2.7c-1.47,2.41-2.39,5.07-3.66,7.57-.13.26-.28.53,0,.82-.09.31-.15.64-.27.94q-2.18,5.47-4.36,10.94a5.39,5.39,0,0,0-.38,1.06,1.33,1.33,0,0,0,.85,1.5c.64.23.77-.42,1-.89,1.15-2.86,2.28-5.74,3.47-8.6,1.68-4,3.24-8.14,5.24-12,1.12-1.24,1.59-2.83,2.35-4.27a4.32,4.32,0,0,1,3.88-2.74c6.51-.49,13-1.2,19.51-1.89,6-.64,12.1-1.21,18.13-1.93,2.49-.29,5-.72,7.46-.9,1.9-.14,3.81-.49,5.76-.49,4.47,0,8.93-.66,13.4-1a26.49,26.49,0,0,0,5.6-.76c1.62-.51,3-1.25,3.41-3.14.14-.71.73-1,1.35-1.16,1.46-.42,3-.61,4.43-.94s3,.12,4.5-.16a46.7,46.7,0,0,1,6.22-.84,1.42,1.42,0,0,0,1.56-1.31,4.19,4.19,0,0,1,1.89-3.25,1.06,1.06,0,0,0,.39-.4,13.68,13.68,0,0,0-1,2.77c-.09.58-.66,1.24,0,1.7s1.26,0,1.81-.44a3.62,3.62,0,0,0,1.19-1.27c.49-.83.19-2.38,1.9-2.1,1.76.1,1.71.08,1,1.65-.36.87-1.1,1.71-.56,2.78a1.46,1.46,0,0,1,.41,2.05c-.38.73-.64,1.52-1,2.27s-.3,1.06.61,1.1a4,4,0,0,1,2.24.63c1.09,1.16,1.7,1.42,3.21.59a12.08,12.08,0,0,1,6.43-1.22c2.85.06,5.7,0,8.55,0a12.4,12.4,0,0,0,5-.83,10.31,10.31,0,0,1,4.3-.71,60.68,60.68,0,0,0,9.9-.52c1.38-.18,2.74-.19,4.12-.24,2.27-.09,4.51.27,6.76.29a1.86,1.86,0,0,1,.81-.42,3,3,0,0,0-.55.24c-.42.57-1.05.4-1.61.46s-1.3.25-1.15,1.11.82.6,1.38.46.89-.43,1.6,0a9.28,9.28,0,0,1-3.57.65,5.36,5.36,0,0,0-2.69.38,2.12,2.12,0,0,1-1.62.05c-.62-.07-1.23-.15-1.6.53,0,1.3.84,1.18,1.72,1.11,3.2-.28,6.4-.53,9.6-.79,1.05.54,2.07,0,3.1-.12l.44-.11a2.23,2.23,0,0,1-.35-.17c.9-.25,1.76-1,2.74-.25a2.93,2.93,0,0,0-.41.07,2.05,2.05,0,0,1,.69.22c1.14.2,2-.63,3.15-.7a43.38,43.38,0,0,0,6.61-.8c4.2-.94,8.47-1.47,12.7-2.27a32.67,32.67,0,0,1,6.33-.84c.54,0,1.26-.06,1.23-.92s-.54-1.08-1.25-1.11a13.15,13.15,0,0,0-3,.06c-3.7.69-7.45.27-11.15.71.55-.05,1.08-.17,1.62-.23a27.46,27.46,0,0,1,4.71-.64,84.32,84.32,0,0,0,12.91-.57c4.2-.44,8.37-1.14,12.53-1.91q7.05-1.29,14-2.79c.63-.14,1.36-.23,1.52-1.08l.72-1.63a3.29,3.29,0,0,0,.65-1.45C699.47,324.39,699.52,323.93,698.84,324.07Zm-84.52-92a.46.46,0,0,1-.49.31c-.27,0-.27-.24-.33-.44a4.51,4.51,0,0,1,2-4.22A15.75,15.75,0,0,1,614.32,232.08ZM618.51,220c-.42.36-.3.78-.23,1.15a4.36,4.36,0,0,1-.77,3.42,7,7,0,0,0-.67,1.74c-.07.2-.1.43-.37.44s-.32-.25-.34-.44c-.11-1-.21-2.08-.31-3.12a.46.46,0,0,1,.27-.51c1.17-.55,1.41-1.68,1.71-2.77a33.75,33.75,0,0,1,2-5.81,3.24,3.24,0,0,1,1.32-1.61C620.63,215.17,620.85,218,618.51,220Zm2.73-9c-.49-1.65-.09-2.16,2.06-2.43C622.71,209.63,622.27,210.58,621.24,211Zm14.56-19.1a7.2,7.2,0,0,1,.85-.49c1.06-.47.45.28.44.61l-.37,0h0a2.18,2.18,0,0,1-1.33.19Zm-3,7.07c0-.14.19-.39.25-.38,1.1.21,1.55-.83,2.35-1.19a22.76,22.76,0,0,1-5,9Zm-3.09-.38c.33-.13.71-.5,1-.12s-.15.59-.26.88c-.4,1.14-.9,2.25-1.19,3.42a1.17,1.17,0,0,1-1.5,1C628.38,202.1,629,200.37,629.66,198.63Zm-52.73-9.73h0a1.85,1.85,0,0,1,1.61,0l-1.09.28a13,13,0,0,1-6.7.14Zm-12.53.8,4.72-.24-.38.23h.07l-.12,0a5.91,5.91,0,0,1-4.75.47C564.09,190,564.32,189.93,564.4,189.7Zm.27,20.12a.93.93,0,0,1-1,0c0-.23,0-.46,0-.69C564.11,209.2,564.84,208.81,564.67,209.82ZM538.2,329.41a7,7,0,0,1-3.12.61,11.17,11.17,0,0,1,2.27-.42,11.85,11.85,0,0,1,2.12-.41C539.05,329.29,538.61,329.27,538.2,329.41Zm40.6,8c-.51-.08-.64-.62-.73-1.06s.28-.51.62-.55c.7-.08.54.43.57.83S579.41,337.49,578.8,337.39Zm11.84-52.25a2,2,0,0,1,.61,1.69,12,12,0,0,1-1.18,5.48c-1.84,4-3,8.18-4.6,12.23-.19.74-.54,1.43-.8,2.14-1.76,4.07-3.1,8.33-5.63,12a2.2,2.2,0,0,0-.25,1.7c.25,1.52.51,3,.76,4.58a3.72,3.72,0,0,1,.06,1.37.92.92,0,0,1-.84.81c-.48.08-.66-.25-.79-.63a4.05,4.05,0,0,0-.56-1.12,1.83,1.83,0,0,0-3.13.09,10.14,10.14,0,0,0-1.59,3.25l-.06.13a1.38,1.38,0,0,0,0-.73c-.25-.57-.75-.6-1.26-.56a8.07,8.07,0,0,0-2.07.4c-2.41.89-4.83.47-7.25.1a4.65,4.65,0,0,0-2,0,5,5,0,0,1-2.73.64c-3.12,0-6.25,0-9.35.34-2.81.26-5.6.84-8.41.11.24,0,.48,0,.72,0a62.67,62.67,0,0,0,13.16-2.57,7.44,7.44,0,0,0,2.72-1.52c.62-.73,1.15-1,1.91-.18.29.33.79.21,1.2.13.78-.16,1.56-.36,2.32-.59s1.34-.42,1.18-1.33-.78-.92-1.52-.91c-6.36.09-12.73.34-19.09.49-4.57.1-9.13.38-13.7.31a3.16,3.16,0,0,0-1.73.22,5.06,5.06,0,0,1-3.54.41,6.34,6.34,0,0,0-3.7.38,2,2,0,0,1-1.47.16,7.91,7.91,0,0,0-3.25-.1,48.41,48.41,0,0,0-7.06,1.19,4.8,4.8,0,0,1-2,.19c-3-.5-5.94.08-8.9.18s-5.84.62-8.77.66a6.41,6.41,0,0,1-.88-.11c-1.86-.3-1.94-.4-1.42-2.24.62-2.18,1.44-4.29,2.25-6.4,4.06-10.57,8.94-20.78,13.38-31.19a20.77,20.77,0,0,1,4.49-7.06,1.82,1.82,0,0,1,1.92-.6,4.13,4.13,0,0,0,2.81-.22c2.15-.83,4.31-1.68,6.7-1a2.81,2.81,0,0,0,1,0,58.14,58.14,0,0,0,10.69-2.2c3.19-.92,6.26-2.54,9.76-1.7a1.62,1.62,0,0,0,.74-.12c4.8-1.37,9.78-1.35,14.68-1.77a92,92,0,0,0,17.89-3.3,3.08,3.08,0,0,0,.6-.14c.63-.25,1.47-.32,1.34-1.33s-.87-1-1.58-1a2.29,2.29,0,0,1-2.53-1.9,2.75,2.75,0,0,0-.65-.75,5,5,0,0,0-3.31-.91c-.28,0-.66,0-.74-.32s.33-.54.62-.62a14.73,14.73,0,0,1,3.64-.86c2.34-.07,4.64-.44,7-.55,1.16-.06,1.42-.6,1-1.78-1-.72-2.2-.31-3.3-.43-.67-.07-1.4.18-2-.27a.4.4,0,0,1,.29-.45,11.78,11.78,0,0,1,2.36-.34c.75-.14,1.61-.32,1.57-1.29s-1-.86-1.64-.9a20.44,20.44,0,0,1-3.76-.16,21.83,21.83,0,0,0-6.84-.42c-5.6.32-11.2.52-16.8.78-5,.23-10,.35-15.06.49a93.41,93.41,0,0,1-13.69-.25,3.75,3.75,0,0,0-2.22.15c-.82.29-1.2-.07-1-.91a4.69,4.69,0,0,1,.42-1.19c.76-1.72,1.69-3.37,2.49-5.08,2.91-6.23,6-12.39,9.47-18.32a14.91,14.91,0,0,1,2.33-3.2,7.34,7.34,0,0,1-.68,2.19c-.17.44-.34.94.17,1.24a1.28,1.28,0,0,0,1.53-.14,2.13,2.13,0,0,0,.58-1c.78-1.86,1.66-3.67,2.59-5.46A20.16,20.16,0,0,1,538,218a4.26,4.26,0,0,1,2.8-1.25c2.06-.15,4.09-.37,5.83-1.69a6.52,6.52,0,0,1,2.09-.85,91.39,91.39,0,0,1,11.82-2.42,2.9,2.9,0,0,1,1.49.13,4.51,4.51,0,0,0,2.47.08c3-.58,6.08-1.26,9.18-1.56l.15,0-.24-.3.61-.1a6.42,6.42,0,0,1,1.16,0,3.13,3.13,0,0,1,.44,0c7.49-1.08,15-2.18,22.49-3.09a6.24,6.24,0,0,1,1.61-.21c.77-.06,1.31-.41,1.24-1.25s-.77-.83-1.42-.77c-2,.17-3.92.3-5.87.54-.33,0-.77.13-.88-.26s.38-.45.65-.63c.69-.45,1.52.1,2.2-.26a5.5,5.5,0,0,1,4-.35,2.64,2.64,0,0,0,1.25,0A59.69,59.69,0,0,1,611.86,202a3.69,3.69,0,0,0,2.39-1.34c.91-1.56.61-2.16-1.12-2.22a8.49,8.49,0,0,1-1.13,0c-.52-.09-1.4,0-1.41-.51,0-.75.9-.75,1.49-.77,5.38-.18,10.63-1.5,16.07-1.82-.3,1.11-.86,2.1-1.13,3.19a2,2,0,0,0-.08.26l.35-.07c0,.16-.09.31-.12.47-.13.58-.28,1.08-1.07,1.07s-.5-.75-.72-1.14l.26-.06c0-.05,0-.11,0-.15-.18-.52-.31-1.13-1-1.16s-.89.54-1.12,1a5,5,0,0,0-.37.93,4.64,4.64,0,0,1-.2.73c-2.58,7-5,14-7.54,20.93-4.3,11.9-8.7,23.76-13.41,35.51-2.84,7.07-6.14,14-8.52,21.22a16.59,16.59,0,0,1-2.87,5.41C590.12,284.06,590,284.63,590.64,285.14ZM630.41,337h-.28l3.89-.3A15,15,0,0,1,630.41,337Z"/><path class="cls-2" d="M640.82,194.44c-1.06-.27-1.29-1.31-1.89-2a10.84,10.84,0,0,0,0,2.67c.71.44.16.87,0,1.3h0c.08.27-.16,1,.54.44a1.45,1.45,0,0,1,1.52-.17c0-.5.09-1,.13-1.49C641.11,194.89,641.22,194.55,640.82,194.44Z"/><path class="cls-3" d="M628.59,194.69c-.36-.26-.69.09-1,.23-.58.25-1.2,1-1.78.35s-.87-.29-1.3-.2a34.51,34.51,0,0,1-4.26,1c-2.88.24-5.74.52-8.61.79a1.89,1.89,0,0,0-1.55.71c-.32.5-.43.94.42,1s1.75.2,2.62.22c1.68,0,1.8.24.94,1.76,3.16-.16,6.3-.51,9.44-.87.17-.37.35-.74.49-1.13s.16-.56.52-.6.48.22.59.5.2.45.3.68l1.91-.4h0c.39-1,.8-2,1.14-3C628.53,195.36,629.05,195,628.59,194.69Z"/><path class="cls-1" d="M485.12,218.84a4,4,0,0,1-.47-.72,16.19,16.19,0,0,0-3.9-5.79c-4.48-4.35-10.06-6.91-15.7-9.24-4.52-1.87-9.39-2.44-14.23-2.94a60.22,60.22,0,0,0-17.27.24,172.5,172.5,0,0,0-25.34,6.7c-6.89,2.39-14,4.32-19.95,8.91a97.55,97.55,0,0,1-11.77,7.25c-.55.31-1.28.63-.86,1.38s.93,0,1.33-.2c.57-.28,1.12-.38,1.45.16s.63.46,1.08.23c.27-.14.62-.44.87,0s0,.66-.29.88c-1.06.92-2.1,1.87-3.22,2.7q-3.87,2.91-7.83,5.7c-.74.52-1.3,1-.62,2-.31,0-.51.06-.63,0a2.32,2.32,0,0,0-2.71.58c-.51.42.67,1,.89,1.68,0,.06,0,.14-.09.33a4.71,4.71,0,0,0-3.77,0c-1.17-.05-1.85,1-2.9,1.4.11-.57.2-1,.3-1.47,2-8.43,3.7-16.92,5-25.5.29-2,.86-4,.56-6.09a2.8,2.8,0,0,0-1.57-3.33,6.43,6.43,0,0,1-2-1.85c-.21-.46-.42-.93-1-1a2.86,2.86,0,0,1-1.14-2.86c0-.4.25-1-.34-1.19s-.63.48-.85.81c-10.94,15.83-22.81,31-34.76,46-5.75,7.25-11.88,14.2-17.53,21.54-1.53,2-2.64,4.26-4.29,6.16-2.51,2.89-5.58,5.35-6.87,9.16,0,.1-.19.16-.28.24A2.87,2.87,0,0,0,293,282.9c0,.17-.1.42-.24.34-1.07-.58-1.11.51-1.47.93a18.46,18.46,0,0,1-3.87,3.56c-2.46,1.64-5.28,2.28-8.1,2.91-.77.18-1.55.34-2.32.55a1.15,1.15,0,0,0-.84,1.47c.17.95.78.14,1.18.24.24.06.57-.25.74.15a.42.42,0,0,1-.31.36,44.67,44.67,0,0,1-13.47,3.28c-.31,0-.77-.28-1,.28h1.05v.15l-1.3.26h0c-1.43.33-2.84.7-4.28,1-1,.17-2.15.49-2.92-.19-.93-.82-1.76-.51-2.69-.3-.65.15-1.31.26-2,.45-.43.12-.67.1-.88-.36a25.66,25.66,0,0,0-3.37-5c-3-3.9-6.39-7.51-9.56-11.29,0-.62-.53-.93-.88-1.32-1.25-1.37-1.3-1.92-.12-3.38a22.56,22.56,0,0,1,5.64-4.55,41.63,41.63,0,0,0,5.61-3.81c5.36-4.81,10.79-9.54,16.22-14.28a18.32,18.32,0,0,0,4.05-4.58A40.92,40.92,0,0,0,272.7,237c1-5.17,2.06-10.35,1.55-15.67a13.12,13.12,0,0,0-1.31-5.46,28.19,28.19,0,0,0-10.73-12.63c-2.75-1.86-5.78-3.21-8.64-4.86a40.4,40.4,0,0,0-8.24-3.65c-9.71-3-19.73-3.78-29.8-3.94-5.71-.09-11.31,1.2-16.88,2.37a278,278,0,0,0-38.1,11.38c-4.2,1.53-8.34,3.08-12,5.8A180.77,180.77,0,0,1,130,221.9a5.77,5.77,0,0,1-.55.29c-.76.34-.6,1-.42,1.52s.78.17,1.16,0c2.06-.77,2.18-.75,3,.61.72-.12,1.2-.95,2-.7a2.24,2.24,0,0,1-1,1.75,12.71,12.71,0,0,0-2.5,2.36c-3.68,3-7.62,5.75-11.52,8.51-.89.63-1.71,1.12-.57,2.41a5.62,5.62,0,0,0-4,.21c-.94.3-.92.65-.44,1.29s1,.9,1.3,1.6c-1.07.25-1.92-.48-2.93-.27-4.47.91-7.19,4.07-9.71,7.47-.42.56.21,1,.52,1.39s.55-.17.76-.35c1.13-.93,2.22-1.93,3.38-2.82.33-.25.84-1.12,1.25-.33a1.32,1.32,0,0,1-.49,1.94c-.38.18-.74.39-1.13.53s-.4.46-.25.8a2.82,2.82,0,0,0,1.27,2c.44.51.7.08,1-.19a10.42,10.42,0,0,1,1.67-1.65,11.81,11.81,0,0,0,2.71-2.22c.49-.45,1.06-.79,1.52-1.27a21.26,21.26,0,0,1,1.71-1.29c.24-.17.45-.36.67-.55.6-.47,1.24-.87,1.86-1.29,1.61-1.08,2.26-1.06,3.85.06s2.22,1.15,3.77,0A138.05,138.05,0,0,1,152.71,229c2.72-1.22,5.49-2.31,8.29-3.31.3-.1.66-.35.93,0s.08.72-.1,1c-.33.63-.82,1.17-1.18,1.78-.57.93-1.65,1.45-2,2.53-1.09.78-.63,1.74-.11,2.48a2.88,2.88,0,0,1,.26,2.72c-.73,2.49-1.62,4.93-2.59,7.33-10,24.85-20.73,49.39-31.68,73.83-11.08,24.72-22.7,49.18-35.86,72.88-2.41,4.35-4.82,8.72-7.54,12.89v.75c.63,1.92.71,2,2.73,1.59a2.1,2.1,0,0,0,.24-.06,30.62,30.62,0,0,0,5.45-2.2c.52-.32.93-.3,1.17.37.18.52.65.58,1.13.6a4.58,4.58,0,0,0,1.45-.34,1.58,1.58,0,0,1,2.24,1.84,11.94,11.94,0,0,1-.35,1.46,12.26,12.26,0,0,1-2.12,4.67,34.24,34.24,0,0,0-4.4,9,28.94,28.94,0,0,0-.94,3,1.11,1.11,0,0,0,.26,1.27,1.32,1.32,0,0,0,1.43,0,2.07,2.07,0,0,0,.77-.64,20.59,20.59,0,0,1,1.64-1.73c.56-.58.92-1.3,1.43-1.91a92.7,92.7,0,0,0,11.12-16.69,2.51,2.51,0,0,1,1.68-1.37c2.22-.6,4.41-1.34,6.63-1.95l.27-.09-.37-.15,9.84-3.26h0a2.36,2.36,0,0,1,1.58-.46,1.71,1.71,0,0,1-.56.37l.54-.13a190.16,190.16,0,0,0,24.44-10.26,7.34,7.34,0,0,1,2.78-.72,49.23,49.23,0,0,0,15.77-4,31.54,31.54,0,0,0,5.37-3.24c.48-.34,1.05-.79.75-1.44a.64.64,0,0,0-.69-.43l.14,0a28.64,28.64,0,0,0,12.85-5.38c6.39-5,12.93-9.86,19.53-14.62,4.45-3.21,9.12-6.12,13.56-9.35A115.66,115.66,0,0,0,237.17,331c3.68-4.16,7.21-8.46,9.49-13.54,1.14-2.53,2.85-3.25,5.24-3.36.38,0,.76,0,1.13,0a2.11,2.11,0,0,0,1.2-.33,3.84,3.84,0,0,1,2.39-.64,15.4,15.4,0,0,0,4.58-.68,22.6,22.6,0,0,1,4.47-.63c.48,0,1-.21,1.33.4a1.51,1.51,0,0,1-.21,1.53c-.29.5-.81.89-.72,1.56-4.33,6.92-8.6,13.88-13,20.74-5.71,8.87-10.68,18.23-17.65,26.25a2.46,2.46,0,0,0-.47.87c-.91,3-1.79,6-2.69,9,1.23.14,2.1-.85,3.27-.91l-.86,3.72a1.07,1.07,0,0,0,.27,1c.29.28.78.6.62,1-.7,1.63.38,1.2,1.2,1.11,1.25-.31,1.67-1.43,2.18-2.39.75-1.42.69-1.46,2.23-1.22a6.65,6.65,0,0,1,1,.1c-.19.34-.58.5-.74.83-.4.82-1.14,1.61-.35,2.59a.88.88,0,0,0,1-.25,3.9,3.9,0,0,0,1.35-1.1c1.34-1.67,2.72-3.3,4-5,9.39-12.36,18.17-25.15,27.21-37.76,5.55-7.74,11.09-15.48,16.86-23a20.75,20.75,0,0,0,2.66-3.65,6.2,6.2,0,0,1,2.69-2.87,24.72,24.72,0,0,1,3.32-1.51,181.19,181.19,0,0,1,23.22-6.58c.36-.08.75-.24,1,.22a2.51,2.51,0,0,1,.06.72c.11.92-.22,1.84.08,2.75a32.1,32.1,0,0,1-.88,5.32c-1.88,9.2-5.57,17.88-7.77,27-1.23,5.12-3,10.08-4.35,15.19-2.08,8-4.45,16-7.25,23.78A244.6,244.6,0,0,0,294,407.72c-.28,1.52-.22,1.62,1.3,1.71.42,0,.7-.25,1.07-.31.65.11,1.2,0,1.2-.79,0-.68.42-.8,1-.82a6.94,6.94,0,0,0,2.08-.16,4.26,4.26,0,0,0,1.54-1.72,6.29,6.29,0,0,0,.83-3.5,3.55,3.55,0,0,1,1.33-3.23,2.17,2.17,0,0,0,.75-1.27c1.1-3.91,2.45-7.77,3.49-11.67,1.87-7,4.6-13.75,6.62-20.7a30.12,30.12,0,0,1,1.29-3.55,7.68,7.68,0,0,1,1.4-2.27,2,2,0,0,1-.23,1.65,39.58,39.58,0,0,0-1.94,5.84c-1.27,5.77-2.74,11.5-4.35,17.18s-3.34,11.16-5.41,16.62c-.21.54-.6,1.16.07,1.71.22.91.45,1.83.68,2.75.08.31.06.73.39.84s.57-.37.83-.6c.7-.24.78-.93,1-1.49,3.08-7.35,6-14.75,8.76-22.23,4.57-12.53,8.76-25.18,12.82-37.88s7.87-25.21,11.64-37.87a97.34,97.34,0,0,0,3-10.63,15.44,15.44,0,0,1,5.75-10c.58-.46,1.12-.93.62-1.79-.32-.53.33-.68.48-1,.25-.13.51-.25.75-.4.66-.4,1.66-.69,1.64-1.51,0-.63-1.05-.64-1.61-.95l-.22-.13a1.56,1.56,0,0,0-.83-.52c-1.6-.61-1.59-.61-1.19-2.29q2.06-8.81,4.11-17.61c1.07-4.57,2.1-9.14,3.19-13.7.36-1.51,1.46-2.16,2.68-3,.07.76-.37.92-.67,1.18-.73.65-.7,1.25.05,2.17.61.73,1.16.77,1.88.1a34.94,34.94,0,0,1,4.08-3.71,2.73,2.73,0,0,1,.23-.25l-.34-.06a4.53,4.53,0,0,1,1.28-1.06l.15.2a13.84,13.84,0,0,1,1.92-1.31,1.39,1.39,0,0,1,1.1-.53,3,3,0,0,1,1.48.63c1.19.83,1.83.88,2.95.06a117.19,117.19,0,0,1,13-8.15,80.91,80.91,0,0,1,11.82-5.23c.31-.11.68-.33.94,0s-.05.64-.23.9A13.84,13.84,0,0,1,397.9,230c-.45.39-.8.8-.24,1.36a3.7,3.7,0,0,1,.17,3.59c-.67,1.76-1.21,3.57-1.9,5.31-6.31,15.92-13.17,31.6-20.09,47.25-8.17,18.49-16.68,36.82-26.11,54.71-3.23,6.11-6.55,12.16-10.13,18.07a1.66,1.66,0,0,0,.11,1.95c.41.69.94.31,1.44.18l1.71-.42c.93.17,1.64-.41,2.42-.74.29-.13.68-.48.89-.16.68,1,1.5.57,2.31.33a1.37,1.37,0,0,1,1.18.17.92.92,0,0,1,.23.2.88.88,0,0,0,0-.43c.65.09.43.61.49,1a.65.65,0,0,1-.27-.05,2.44,2.44,0,0,1,0,.27c.09.92-.55,1.72-.42,2.65a9.21,9.21,0,0,1-1.44,2.76c-2,2.57-2.92,5.6-4,8.59-.1.28-.23.63.08.79a1.4,1.4,0,0,0,.84,0c.4-.07.6-.43.85-.71L349,373.3c.5,0,.71-.39,1-.72a73.14,73.14,0,0,0,6.64-10.47,2.59,2.59,0,0,1,1.73-1.48q2.16-.63,4.32-1.32c.68-.18,1.36-.4,2-.61A211,211,0,0,0,387,350.28c.69-.37,1.4-.73,2.11-1.07,1.11-.53,2.15-1.3,3.49-1.1a29.23,29.23,0,0,0,3.22-.54,29.89,29.89,0,0,0,11.36-4.15,7.82,7.82,0,0,0,1.59-1.22.69.69,0,0,0,.18-.8c-.15-.35-.46-.29-.75-.25l-.54.11a7.72,7.72,0,0,1,.93-.2,20.58,20.58,0,0,0,9.88-4c6.82-5.3,13.71-10.51,20.9-15.31a94.67,94.67,0,0,0,19-16.11A42.26,42.26,0,0,0,467,291.41l.07-.22a1.05,1.05,0,0,1-.33.22,2.76,2.76,0,0,1,.47-1.41,2.55,2.55,0,0,1,.1.51l.21-.6c.17-.6.29-1.22.4-1.83.37-2.06.74-4.12.08-6.18a5.92,5.92,0,0,0-1.44-2.88c-2.43-3.41-5.32-6.44-7.95-9.68-.06-.81-.77-1.16-1.2-1.7-.95-1.2-.95-1.54.09-2.69a24.14,24.14,0,0,1,5.36-4.12,17.31,17.31,0,0,0,2.39-1.62c3.63-3.17,7.19-6.41,10.91-9.46,3.14-2.57,5.75-5.46,7.1-9.38a58.28,58.28,0,0,0,2.65-12.64A18.14,18.14,0,0,0,485.12,218.84ZM264.25,297v0C264.21,296.83,264.28,296.89,264.25,297ZM113,244.42c-.32.13-.72.19-.82-.26s-.4-1.12.57-1.15c.66,0,1.33-.13,2-.18.24,0,.52,0,.59.52C114.61,243.69,113.82,244.07,113,244.42ZM94.89,400.2c1.41-.59,1.83-.46,2.4.8Zm18.77-2.94a2.37,2.37,0,0,1-2.06-.09c2.14-4,3.65-4.22,8.2-3C117.75,395.18,115.72,396.25,113.66,397.26ZM263.32,221.67a8.52,8.52,0,0,1,1.33,4.36c-1.52-.79-1.81-2.26-2.55-3.39a2.29,2.29,0,0,1,0-.37c.07-.35-.22-.84.14-1S263,221.5,263.32,221.67Zm-1-12.83c-.18,1.24-.72,1.41-1.86.89-3.38-1.53-6.82-2.93-10.23-4.38A24.79,24.79,0,0,1,262.35,208.84ZM141.67,384c-.52.33-1.2.4-1.55,1-2,1.79-4.49,2.47-6.85,3.46-.58.23-1.17.43-1.76.64h-2.34a35.15,35.15,0,0,1,5.36-2.81,20.82,20.82,0,0,0,3.23-1.55,1.15,1.15,0,0,0,1-.44,12.42,12.42,0,0,1,4.77-1.84.89.89,0,0,1,.71.34A16.49,16.49,0,0,1,141.67,384Zm15.12-7a34.92,34.92,0,0,0-4.94,1.94l-.81.36h0c-1,.8-2.35,1-3.21,2l-1.25.48c-.87-.26-.38-1-.54-1.52.3-.28.71-.1,1-.26a13.72,13.72,0,0,0,3.78-.95h0l1-.42h0a14.26,14.26,0,0,0,3.62-2.64l.45-.29a1.23,1.23,0,0,1,1-.06c.46.09.79.37.76.83S157.13,376.9,156.79,377Zm14.76.2a13.24,13.24,0,0,1-2.64.58c1-.24,2.05-.49,3.09-.7ZM222,307.59a55.79,55.79,0,0,1-5.91,12.46,19,19,0,0,1-5.95,5.64,76,76,0,0,0-7,5.39c-4.34,3.44-8.52,7.09-13,10.28a223.08,223.08,0,0,1-23.58,14.88c-8.17,4.34-16.27,8.83-24.61,12.84a143.78,143.78,0,0,1-17.87,7.69c-.4.13-.8.23-1.21.34-.28-.54.08-1,.28-1.41,2.23-4.83,4.6-9.6,6.92-14.39,7.19-14.82,14.72-29.47,22-44.25a3.84,3.84,0,0,1,3.39-2.45,100.69,100.69,0,0,0,18.45-4.39q11.16-3.48,22-7.89a13.45,13.45,0,0,1,3.71-.56c6.47-.72,12.89-.67,19,2a6.88,6.88,0,0,1,3.4,2.26A2.81,2.81,0,0,1,222,307.59Zm-49.69-.82h.08c.75,0,1.51,0,2.26-.1.29,0,.61-.18.65.28s-.3.32-.53.35c-.67.08-1.33.16-2,.22S172.05,307.28,172.32,306.77Zm59.3-56.48a6,6,0,0,1-2,1.29,6,6,0,0,0-3,2.46c-3.5,4.52-8.05,7.89-12.65,11.18-.78.56-1.61,1.06-2.37,1.65-3.58,2.8-7.7,4.35-12,5.79-9.72,3.26-19.07,7.52-28.47,11.62a2.15,2.15,0,0,1-2.25,0,1.62,1.62,0,0,1,0-1.57,19.07,19.07,0,0,1,2.21-5.19,16,16,0,0,0,2.07-5.87c.61-2.74,1-5.63,2.56-8,3.83-5.87,6.1-12.46,9-18.75s5.69-12.69,8.48-19.06a25.08,25.08,0,0,0,1.5-3.86,3.21,3.21,0,0,1,1.68-1.95,27.5,27.5,0,0,1,10.57-3c.73-.08,1.48,0,1.59,1s.57,1,1.32.84c3.34-.56,6.7-1,10.07-1.45a47.14,47.14,0,0,1,14.76.18,10.43,10.43,0,0,1,5.81,2.74c.47.47-.06,1.72,1.21,1.56.93.51,1,1.49,1.32,2.34.14.37.14,1,.7.88s.37-.66.4-1a3.84,3.84,0,0,0-.09-.75c-.25-1.82.62-2.55,2.32-1.79a6.13,6.13,0,0,1,3.37,2.87,4.29,4.29,0,0,1,.25,3.18,14.64,14.64,0,0,1-3,5.73c-.53.69-1.38.36-1.73-.7-.24-.7-.4-1.14-1.32-1s-.67.84-.68,1.33a9.66,9.66,0,0,1-2,6C238.2,242.94,235.46,247.08,231.62,250.29Zm14.82,53.2-.11-.53c.23-.06.54-.38.64.11S246.74,303.5,246.44,303.49Zm36.47-11.65c-.41.6-1.08.12-1.57.35-.49-.16-1.28.32-1.36-.25s.79-.49,1.24-.63,1-.51,1.5-.15A.71.71,0,0,1,282.91,291.84Zm45.71-12.08-8.28,2.32c-.06,0-.15-.07-.22-.1-.5-.38-.39-.78-.05-1.2a74.08,74.08,0,0,1,8.18-2.18c.35-.09.66-.05.77.39S329,279.65,328.62,279.76Zm7.48-19.37a71.81,71.81,0,0,0-2.3,9.36,10.37,10.37,0,0,1-3.43,6.14c-1.13.9-2.23,2.2-4,1.45-.2-.09-.54.15-.82.25a21.19,21.19,0,0,1-4.27,1.42c3.46-5.22,7.3-10.16,11.05-15.16,1.4-1.86,2.86-3.69,4.29-5.53A17.81,17.81,0,0,1,336.1,260.39Zm26.81-19.9a1.6,1.6,0,0,1-.12-.84c0-.4.44-.35.7-.34.53,0,1.07-.25,1.58.05.05,0,0,.15.06.23C365.08,239.84,363,240.69,362.91,240.49Zm102.23,44c0,.41.05.82.07,1.24C465,285.32,464.79,284.92,465.14,284.49ZM363.27,356.6c.93-1.34,2-2.38,3.84-1.77C365.83,355.43,364.72,356.39,363.27,356.6Zm31.85-14.34c.37-.31.76-.61,1.12-.94.54-.5,1-.46,1.39.16A6.14,6.14,0,0,1,395.12,342.26Zm11-.66h0l0,0-.47.39c-.39-.09-.55-.29-.12-.51a3.27,3.27,0,0,1,.95-.18l-.32.27a2.9,2.9,0,0,1,.41-.06,7.09,7.09,0,0,0,.78-.14A9.52,9.52,0,0,1,406.09,341.6Zm34.51-42.31c-1.47,1.92-3.67,2.89-5.47,4.38-4.23,3.51-8.39,7.12-12.86,10.3a161.34,161.34,0,0,1-19.61,12.2c-5.69,2.94-11.26,6.11-17,8.92A93.29,93.29,0,0,1,371.92,341c-.28-.54.07-1,.28-1.41,7-14.51,14.35-28.83,21.48-43.27a2.48,2.48,0,0,1,2.09-1.52c7.18-1,14-3.24,20.85-5.64,3.41-1.19,6.79-2.44,10.13-3.79a9.56,9.56,0,0,1,2.47-.43c4.7-.55,9.38-.65,13.89,1.1,1.14.45,2.42.73,3.15,1.89A36.43,36.43,0,0,1,440.6,299.29Zm-30.76-10.64c.42,0,1.21-.28,1.23.14,0,.78-.85,0-1.06.46-.45-.14-1,.35-1.09-.14S409.51,288.68,409.84,288.65Zm56.5-58.4a5.59,5.59,0,0,1-.64,1.08c-.32.4-.43,1.14-1.09,1.07s-.85-.63-.92-1.2c-.06-.4-.31-.44-.63-.43s-.59.06-.68.42a1.75,1.75,0,0,0-.09.49c.21,2.34-1.12,4-2.38,5.77a49,49,0,0,1-5.57,6.79,7.5,7.5,0,0,1-3.22,2.09,1.19,1.19,0,0,0-.7.49c-3,4.13-7.09,7.06-11.16,10a33.74,33.74,0,0,1-9.7,5c-7.5,2.37-14.65,5.7-21.88,8.78-.38.15-.72.46-1.18.32a1.71,1.71,0,0,1,.12-1.68,20.47,20.47,0,0,1,1.68-3.5,6.35,6.35,0,0,0,.89-2.34,44.4,44.4,0,0,1,1.7-6.3,5.15,5.15,0,0,1,.64-1.5c2.13-2.76,3.26-6,4.66-9.15,3.06-6.84,6.29-13.62,9.09-20.57a7,7,0,0,1,4.88-4.36,21.75,21.75,0,0,1,4.91-1c.6,0,1.11,0,1.32.66s.78.83,1.49.72c2.57-.42,5.13-.86,7.71-1.16a32.85,32.85,0,0,1,10.61.18c1.55.32,3.13.66,4.2,2a.53.53,0,0,0,.55.51c1.38.56,1.36,2.07,2.08,3.18.49-.51.31-1.08.37-1.58.13-1,.62-1.34,1.54-1a4.06,4.06,0,0,1,2.31,1.8C467.76,227.48,467,228.86,466.34,230.25Zm9.34-16-5-2.16a13.65,13.65,0,0,1,5.87,1.77C476.49,214.5,476.12,214.46,475.68,214.27Zm2.8,12.3a4.35,4.35,0,0,1-1.41-1.69c.19-.37-.66-1.55.76-1A3.43,3.43,0,0,1,478.48,226.57Z"/><path class="cls-3" d="M162.21,225a117.53,117.53,0,0,0-23.13,10.88c-4,2.41-7.88,5.05-11.69,7.78-.91.65-1.84,1.2-2.87,0-.79-1-2.72-1.39-3.39-.94-1,.7-2,1.45-3,2.19l.5.69a1.13,1.13,0,0,1-1.11-.18h0a5.59,5.59,0,0,0-1.61,1.24c.48.13,1.31-.31,1.42.24.16.79-.82.54-1.27.79s-1,.94-1.73.29a14.43,14.43,0,0,0-2.53,2.35,9.06,9.06,0,0,0,.15,1.49c.15.53-.14.63-.51.8-1.78.79-1.78.8-.69,2.44a2.79,2.79,0,0,1,.28.42c.35.8.7.79,1.3.15a59,59,0,0,1,10.13-8.6,3,3,0,0,1,4.18.44c.85,1,1.64.67,2.49.27a9.18,9.18,0,0,0,1.34-.93,137.34,137.34,0,0,1,24.72-14.44,10,10,0,0,1,3.49-1.26,16.08,16.08,0,0,0,3.27-3.75A2.25,2.25,0,0,0,162.21,225Z"/><path class="cls-3" d="M307.89,405.43q5.61-12.92,10.32-26.18c8-22.37,15-45.05,21.91-67.78q2.26-7.49,4.48-15c.49-1.63.56-3.36,1.19-5a14.26,14.26,0,0,1,5-6.44c.64-.47,1-.69.29-1.57-.92-1.2.59-.64.94-.95l3.81,1.21c1,.34,1,.81.18,1.41a6.83,6.83,0,0,1-2.44,1.22c-.69.17-.86.5-.26,1s.54.76-.09,1.21c-3.56,2.47-5.39,5.9-6.2,10.17a114.42,114.42,0,0,1-3.14,11.05c-6,20-12.12,39.92-18.84,59.67-4.37,12.81-8.86,25.58-14.35,38-.23.53-.5,1.05-.72,1.59-.14.36-.27.77-.71.78s-.43-.56-.52-.86C308.41,407.8,308.17,406.61,307.89,405.43Z"/><path class="cls-3" d="M596,324.41a5,5,0,0,1-.87-.11c-1.68-.46-1.83-.69-1.53-2.44a9.47,9.47,0,0,1,.95-3,2,2,0,0,1,2.06-1.25l-.4,1.07a2.11,2.11,0,0,0,2.2-2.26c0-.31-.12-.63.22-.91,1.27-1.05,1.54-2.62,2-4.08.19-.54,0-.73-.5-.88s-.66.06-.8.5a19.56,19.56,0,0,0-1.22,4.19c0,.35-.12.53-.51.53s-.48-.21-.51-.54a5.25,5.25,0,0,1,.65-3.5c.78-1.13,1.47-2.33,2.3-3.67.17.83.6,1.16,1.22.87s.28-.95.09-1.19c-1-1.26.07-1.57.82-2.1.26-.18.91,0,.73-.63s-.58-.19-.87-.14c-.67.12-.88-.14-.9-.79a4.14,4.14,0,0,1,.41-1.93c1.69-3.71,3.64-7.33,4.61-11.34.17-.73.51-.34.79-.21a1,1,0,0,0,1.35-.22c.19-.23.33-.53,0-.77a2.06,2.06,0,0,1-.35-3.21c1.33-1.62,2.43-3.3,2.44-5.49,0-.18.06-.41.23-.34,1.35.6,1.49-.72,2-1.32a4.32,4.32,0,0,0,.92-1.76c1.29-4.83,3.95-9.09,5.69-13.73,5.9-15.74,11.86-31.46,16.7-47.57.5-1.68.89-3.39,1.33-5.08,1.7.52,1.75.53,1.84-1,.05-.67.24-1.14.92-1s.26.75.19,1.14c-1.66,9.66-4.84,18.87-8.19,28-3.89,10.68-7.39,21.51-11.83,32-.91,2.15-1.86,4.28-3,6.34a35,35,0,0,0-1.28,3.91,9.28,9.28,0,0,1-1.88,3.36c-.31.31-.5,1.05-1.27.5-.33-.24-.3.24-.31.44a8.17,8.17,0,0,1-2.32,5.15,3.76,3.76,0,0,0-.78,2.7c0,.28,0,.48.39.49s1-.31.83.47c-.11.61-.65,1.07-1.16.82-1.21-.61-1.15.18-1.4.95a84.89,84.89,0,0,1-4.42,10.46,2.86,2.86,0,0,0-.4,1.54c.05.8.22,1.25,1.14,1.08.23,0,.63-.19.71.25s-.29.39-.55.51c-.41.2-.77.49-1.16.72s-.54.6-.17,1a1.2,1.2,0,0,1,.26,1.58c-.3.35-1.1.58-1.24-.42,0-.11-.29-.06-.38.12-.83,1.54-2,2.86-2.59,4.56a11.59,11.59,0,0,0-.15,2.11c0,.17.09.39.24.4,1.32,0,1.26.84,1,1.76s-1.17,1.18-2,1.53c-.21-.53.21-.84.21-1.33C596.7,321.55,596.44,323.06,596,324.41Z"/><path class="cls-3" d="M237.45,281.7c-.53-.54-1-1.12-1.58-1.61-1-.86-.79-1.72-.17-2.66a10.56,10.56,0,0,1,3.51-3.37c8.56-5,15.2-12.42,22.91-18.48,6.2-4.88,8.65-11.56,10.3-18.79a72.81,72.81,0,0,0,1.68-12.29,24.11,24.11,0,0,0-.91-7.44c-.11-.39-.37-.76-.25-1.21,1.61,1.81,2.19,4.08,2.72,6.34.92,4,.56,8,0,12a70.78,70.78,0,0,1-3.3,14c-1.79,5-5.14,8.76-9.2,12.09-4.65,3.82-9.13,7.87-13.61,11.92a42,42,0,0,1-5.48,3.73C241.6,277.51,239.1,279.12,237.45,281.7Z"/><path class="cls-3" d="M458.64,269.34c-.55-.57-1.06-1.19-1.65-1.71-1-.88-.74-1.71,0-2.59a11.56,11.56,0,0,1,3.21-2.79,67.53,67.53,0,0,0,10.37-8.07c2.64-2.31,5.28-4.64,8-6.91s4-5.52,5.06-8.78a52.93,52.93,0,0,0,2.26-13.56,16.23,16.23,0,0,0-.63-5.21c-.08-.26-.44-.56-.07-.88a14.45,14.45,0,0,1,2.8,9.53,49.34,49.34,0,0,1-3.31,16.87c-1.36,3.42-3.89,5.76-6.59,8-3.77,3.19-7.43,6.53-11.22,9.69-1.5,1.24-3.27,2.17-4.89,3.27A12.64,12.64,0,0,0,458.64,269.34Z"/><path class="cls-3" d="M620.2,340.73a2.13,2.13,0,0,0-1.61.3c-2.88.3-5.77.4-8.67.45a.31.31,0,0,1-.48,0,6.64,6.64,0,0,0-2,0c-.48.4-1.1.29-1.63.51-2.59.53-5.24.49-7.86.8a46.77,46.77,0,0,1-9,.22,6.49,6.49,0,0,0-3.83.89,3,3,0,0,1-3.51.1,4.75,4.75,0,0,0-2.64-.69c-.77,0-.86-.34-.62-.93.29-.74.61-1.46.92-2.19.08,0,.2,0,.25,0,1.32,1.25,2.6.52,3.76-.19a6.81,6.81,0,0,1,3.73-.8c2.77,0,5.54-.1,8.3,0a19,19,0,0,0,8.58-1.33,4.72,4.72,0,0,1,2.1-.25,72.22,72.22,0,0,0,10.91-.47,38.41,38.41,0,0,1,10.92.23l0,0c.28.62-.12.73-.59.76s-.91.06-1.37.06-.57.35-.55.76.36.44.7.31a11.37,11.37,0,0,0,1.14-.47,1,1,0,0,1,1.16.05.64.64,0,0,1,.28.66c-.16.46-.63.29-1,.43-1.86.78-4,0-5.81.81C621.26,341,620.73,340.68,620.2,340.73Z"/><path class="cls-3" d="M301.9,405.57a8.8,8.8,0,0,0,.73-3.66c0-1.36.26-2.68,1.66-3.41.35-.19.32-.55.41-.86.81-2.9,1.44-5.86,2.51-8.65,1.46-3.8,2-7.87,3.48-11.61,2.06-5,3.18-10.36,5.29-15.36a7.12,7.12,0,0,1,2.14-3.36c.18.55.48,1,.22,1.58-2.51,5.49-3.29,11.46-4.84,17.21a225,225,0,0,1-7.31,23.41,2.39,2.39,0,0,0-.2,1.58c-1.27,1.17-1.32,2.75-1.33,4.28a6.3,6.3,0,0,1-1.24,3.47c-.66,1-1.75.82-2.72.84s-1.82-.09-1.22,1.29c.07.16.07.44-.08.4-1.13-.29-2.11.88-3.3.28-.52-.27-.25-.57-.23-.81a15.2,15.2,0,0,0,.47-3.07c.72-.19,1.25-.42.8-1.38-.19-.42.36-.45.68-.46l2.72-.1C301.16,406.79,302.2,406.74,301.9,405.57Z"/><path class="cls-3" d="M362.09,238.65a27.75,27.75,0,0,0-3.55,2.47c2.36-10.07,4.45-19.8,5.79-29.68.2-1.49.46-3,.69-4.45,2.17.94,2.29,2.6,2,4.7-1.24,8.9-2.86,17.72-4.77,26.48C362.2,238.34,362.14,238.49,362.09,238.65Z"/><path class="cls-3" d="M454.88,347.87a61.22,61.22,0,0,0,8.6,1.63c.77.12.78-.65,1.41-.69a12,12,0,0,1-.33,4.27,39.15,39.15,0,0,1-6.53-1.14C455.18,351.15,455,350.87,454.88,347.87Z"/><path class="cls-3" d="M466.69,355.12a17.35,17.35,0,0,0,2-4.8c.17-1,.88-.57,1.31-.33a4.86,4.86,0,0,1,1.64,2c.16.27,0,.44-.12.66-1.85,2.69-2.8,5.83-4.32,8.69a3.52,3.52,0,0,0-.52.5c-.22.32-.54.47-.85.28s-.12-.54-.07-.8C466.16,359.28,466.86,357.26,466.69,355.12Z"/><path class="cls-3" d="M236.74,378c1-1.12,2.17-2.12,2.21-3.79,0-.49.31-.36.6-.33.91.1,1.83.19,2.74.24.24,0,.41,0,.48.25s-.16.35-.33.45c-1.26.67-1.45,1.83-1.4,3.09-.17,1.78-1.56,3.66-2.89,3.95-.36.08-.82.13-.67-.32.36-1.13-.55-1.85-.7-2.8A6,6,0,0,1,236.74,378Z"/><path class="cls-3" d="M591.68,348c-.29-.1-1,.33-.89-.5.08-.56.15-1.38,1.07-1.22a21.29,21.29,0,0,0,5.75,0c3.57-.37,7.15-.65,10.73-1,.17,0,.34,0,.5,0,.51-.1.78.05.82.62s-.27.57-.68.6l-11.24,1C595.75,347.69,593.75,347.84,591.68,348Z"/><path class="cls-1" d="M589,343c.17-.31.38-.55.79-.47,3.81.68,7.57-.25,11.35-.41,1.63-.07,3.25-.29,4.87-.44a2,2,0,0,1,1.45,0c.19.72,0,1-.83,1.07q-8.36.65-16.7,1.44C588.77,344.36,588.5,344,589,343Z"/><path class="cls-3" d="M687.26,321.06a1.23,1.23,0,0,0-1.63-.93c-1.82.39-3.72.09-5.54.81-.53.2-1.49-.33-2.29-.13-1,.24-2,.47-3,.67-.21,0-.2-.2-.24-.34-.18-.44-.91.19-1-.5,5.52-.51,11-1.27,16.44-2.32.36-.07.82-.42.89.35,0,.56-.07.85-.69.9a1.75,1.75,0,0,0-1.58,1C688.44,321.14,687.69,320.74,687.26,321.06Z"/><path class="cls-3" d="M637.19,189.22c-.28-.89-.81-1.1-1.76-.92-1.43.26-2.91.23-4.34.45-.92.14-1.19-.23-1.23-1a7.37,7.37,0,0,1,2.61-.19c1.43.45,2.72-.34,4.12-.14a35.61,35.61,0,0,0,4.39.07c.31,0,.8-.27.9.3.06.31.18.71-.08,1s-.68.2-1,0c-.13-.09-.36-.26-.39-.23C639.46,189.36,638.1,188.34,637.19,189.22Z"/><path class="cls-4" d="M672.63,337.75a130.56,130.56,0,0,0,13.89-2.43c.39-.08,1-.61,1.25.14s-.25,1.12-1,1.27a48,48,0,0,1-5.34.61c-2.57.26-5.15.44-7.72.65C673.33,338,672.88,338.36,672.63,337.75Z"/><path class="cls-3" d="M640.39,202.3c.32-.46.06-1.13.52-1.54.36,0,.59-.27.87-.43a1.24,1.24,0,0,1,1.31.08,1,1,0,0,1,.39,1.19c-.3,1.25-.55,2.52-.78,3.78-.07.41-.1.69-.63.7s-.76-.15-.88-.64C641,204.39,640.66,203.35,640.39,202.3Z"/><path class="cls-3" d="M600.39,321.12c0-.76.17-1.62-1-1.63-.18,0-.2-.32-.19-.53.5.62.79.9,1-.24.28-1.37.82-2.69,1.23-4,.16-.52.4-.56.91-.4s.64.42.47.91c-.49,1.46-.81,3-2,4.1C600.22,319.82,601,320.61,600.39,321.12Z"/><path class="cls-3" d="M517.88,202.24c-.07.8.14,1.65-.42,2.37a2.53,2.53,0,0,0-2,.45c-.79.44-1.31.23-1.66-.59-.4-1,.57-.73.88-.89C515.7,203.05,516.81,202.68,517.88,202.24Z"/><path class="cls-3" d="M107.85,250.14a7.79,7.79,0,0,1,1.27,2c-.59.53-1.14,1.09-1.77,1.56-.28.21-.49,1-1,.38-.38-.46-.94-1-.27-1.68S107.26,250.88,107.85,250.14Z"/><path class="cls-5" d="M135.17,223.65c.73.62.11,1.06-.26,1.42a19.2,19.2,0,0,1-3.26,2.69c-.47.09-.7-.08-.68-.59s-.1-.93.49-1.28A20.57,20.57,0,0,0,135.17,223.65Z"/><path class="cls-6" d="M452.48,340c.48.11,1.13-.3,1.44.33a1.66,1.66,0,0,1-.28,1.85c-.28.36-.51.75-.76,1.12C451,342.42,451,342.41,452.48,340Z"/><path class="cls-7" d="M667.34,323.37a9.36,9.36,0,0,1,2-1.13c.72-.2.75-.58.73-1.13l.57-.13c.08,1.08.85,1.32,1.73,1.42.25.14.44.29.18.58-1.55.85-3.27.75-5,.83C667.42,323.72,667.28,323.61,667.34,323.37Z"/><path class="cls-8" d="M698.79,326.27a3.21,3.21,0,0,1,.36-1.52c.13-.37.19-.64-.31-.68,1.76-.38,2.16-.21,2.28,1,0,.46,0,.93-.55,1.09s-.84,0-1.25-.1Z"/><path class="cls-9" d="M672.63,337.75c.31.33.73.16,1.09.24-1.28.12-2.4.81-3.65,1-.45.07-1.16.44-1.21-.52s.73-.63,1.15-.68C670.88,337.7,671.76,337.76,672.63,337.75Z"/><path class="cls-10" d="M237.39,386.77c.74-.18.71.35.75.71.08.87-.56,1.14-1.23,1.27s-1.18-.21-1.13-.68C235.88,387.22,236.65,386.87,237.39,386.77Z"/><path class="cls-1" d="M236,383.78c0,.91-.57,1.15-1.28,1.21-.52.05-1.07-.29-1-.73a1.81,1.81,0,0,1,1.7-1.22C236.05,383,235.9,383.47,236,383.78Z"/><path class="cls-11" d="M511.65,205.51c-.82.16-1.37.08-1.3-.75s.91-.54,1.42-.68c.79-.21.91.34.91.91C512.67,205.94,511.87,205.35,511.65,205.51Z"/><path class="cls-12" d="M507.75,218.09a4.33,4.33,0,0,1,.19,1.82c-.61.24-1.39,1-1.84.34s.47-1.29,1-1.78A4.5,4.5,0,0,1,507.75,218.09Z"/><path class="cls-1" d="M509.53,200.45c.7-.19,1,0,1,.61.06.81-.48.74-1,.73s-1.24.33-1.28-.65C508.24,199.93,509.34,200.88,509.53,200.45Z"/><path class="cls-13" d="M710.46,326c-.82.11-1.48.18-2.13.29s-.69-.07-.76-.62c-.08-.74.34-.6.75-.58A2.54,2.54,0,0,1,710.46,326Z"/><path class="cls-14" d="M702.8,324.1a4.29,4.29,0,0,0,1.05-1.53c.06-.22.1-.81.66-.7s.33.52.41.81.35.76-.21.92A4.75,4.75,0,0,1,702.8,324.1Z"/><path class="cls-1" d="M708.27,322.29l-2.14.28c-.55.08-.6-.3-.64-.68s.26-.58.63-.52A2.77,2.77,0,0,1,708.27,322.29Z"/><path class="cls-15" d="M692.66,336.39c-.49-.08-1-.16-1.45-.22s-.59-.53-.57-.94c0-.59.48-.28.73-.27C692.24,335,693.1,335.11,692.66,336.39Z"/><path class="cls-1" d="M701,320.31c.47-.81.85-1.5,1.25-2.2C703.37,319.45,703.16,319.83,701,320.31Z"/><path class="cls-1" d="M232,372.48c.43.16.43.55.41.91a.85.85,0,0,1-.83.9c-.33,0-.4-.48-.36-.81A1,1,0,0,1,232,372.48Z"/><path class="cls-16" d="M234.42,376c0,.37,0,.75,0,1.12,0,.55-.26,1-.8.88s-.31-.67-.26-1.06c.07-.62.67-.67,1-.95Z"/><path class="cls-17" d="M669.33,321l-2.76.54c-.74-.33-1.58.31-2.3-.23A24.5,24.5,0,0,1,669.33,321Z"/><path class="cls-18" d="M689.37,324.89c-1.24.58-1.21-.37-1.36-1.12C688.87,323.65,689.26,324.11,689.37,324.89Z"/><path class="cls-19" d="M664.27,321.32c.76.16,1.57-.18,2.3.23a14,14,0,0,1-3,.23A.93.93,0,0,1,664.27,321.32Z"/><path class="cls-20" d="M361.48,201.81a2.29,2.29,0,0,1-1-1c.19-.27.44-.63.76-.41C361.75,200.71,361.48,201.31,361.48,201.81Z"/><path class="cls-21" d="M663.33,321.77l-2.76.06-.09-.05C661.43,321.77,662.38,320.83,663.33,321.77Z"/><path class="cls-22" d="M673.64,320.64c.22.36.79,0,1,.5-.67-.19-1.45.08-2-.51Z"/><path class="cls-23" d="M660.48,321.78h.07l0,.06c-.61.53-1.33.19-2,.25C659.16,321.71,659.85,321.93,660.48,321.78Z"/><path class="cls-3" d="M622.72,343.68c-.41-.31-.34-.72-.19-1.15A.82.82,0,0,1,622.72,343.68Z"/><path class="cls-24" d="M234.65,375a1.57,1.57,0,0,1,.27,1l-.5,0h0A1.07,1.07,0,0,1,234.65,375Z"/><path class="cls-25" d="M699.32,326c.45-.42.82.29,1.25.1C700.14,326.36,699.69,326.66,699.32,326Z"/><path class="cls-1" d="M607.41,341.75l-1.45,0c.45-.45,1-.22,1.49-.21A.93.93,0,0,1,607.41,341.75Z"/><path class="cls-3" d="M222.07,306c-5.79-3.86-12.26-4.55-19-4.16-1,.06-2.08.22-3.13.23-4,0-7.35,2-10.93,3.32-9,3.25-18,6.45-27.41,8.51a51.17,51.17,0,0,1-7.16,1.19A1.54,1.54,0,0,0,153,316c-10,20-20.14,40-29.72,60.17-.14.3-.25.61-.38.92a17.91,17.91,0,0,1-3.17.69c-.89.14-.94-.09-.61-.81,1.56-3.37,3-6.78,4.65-10.12,8.5-17.64,17.34-35.1,26.05-52.62.9-1.82,1.83-2.9,4.14-3.14,6-.62,11.76-2.4,17.52-4.14.28-.08.56-.13.85-.2.75.46.75.46,1.78.24a2.07,2.07,0,0,1-1.71-.25c4.27-1.5,8.56-3,12.83-4.53,2-.73,4.09-1.44,6.08-2.3a21.43,21.43,0,0,1,7-1.65c5.33-.41,10.61-.48,15.77,1.16a23.31,23.31,0,0,1,6.44,3.28A3.07,3.07,0,0,1,222.07,306Z"/><path class="cls-3" d="M240.5,220.39a20.21,20.21,0,0,0-6.66-2.56,45.66,45.66,0,0,0-11.14-.29c-4.51.36-9,1.12-13.42,1.84-.79.13-1.16-.07-1.05-.94s-.29-1.17-1.16-1.06a34.49,34.49,0,0,0-9.33,2.31,5.66,5.66,0,0,0-3.16,3.7c-1.33,3.67-3.11,7.18-4.69,10.76-3.84,8.63-7.69,17.26-11.48,25.91a14.71,14.71,0,0,1-1.61,2.19,23.5,23.5,0,0,0-2.78,7.19c-.43,1.6-.72,3.25-1.06,4.88a7.39,7.39,0,0,1-.9,2.18,20.33,20.33,0,0,0-3.16,7.82c-2.69-.32-2.14.21-2.23-2.29a11.62,11.62,0,0,1,1.82-6.56,27.78,27.78,0,0,0,3.28-9.23,17.11,17.11,0,0,1,2.1-6.26c4.16-6.1,6.37-13.1,9.46-19.69s6-13.32,8.93-20a3.26,3.26,0,0,0,.38-.92c.16-1.93,1.53-2.81,3.06-3.47a32.41,32.41,0,0,1,9.21-2.29c.91-.12,1.38.13,1.28,1.08s.49,1,1.22.86c6-.9,12.05-2.06,18.19-2a28.53,28.53,0,0,1,9.27,1.31,9.57,9.57,0,0,1,4.43,3A4.49,4.49,0,0,1,240.5,220.39Z"/><path class="cls-3" d="M460.4,222.94c-3.31-2.06-7-2.23-10.75-2.14a86.65,86.65,0,0,0-12.42,1.6c-.75.13-1.07-.08-1.06-.87,0-.61-.27-.77-1-.71a23.32,23.32,0,0,0-5.95,1.39,5,5,0,0,0-3.4,3.27c-1.33,3.67-3.12,7.18-4.72,10.75-2.5,5.59-4.91,11.23-7.56,16.74-1,2.12-2.58,4-3.08,6.35-.27,1.3-.65,2.59-.92,3.89a9.25,9.25,0,0,1-1.08,2.9,15,15,0,0,0-2,4.83,2.88,2.88,0,0,1-.49-.11c-.55-.19-1.36.2-1.64-.29a3.61,3.61,0,0,1-.2-2.33,13.3,13.3,0,0,1,2.08-5.6c1-1.54,1.14-3.29,1.57-5a20.57,20.57,0,0,1,1.82-5.45c4.95-8.31,8.05-17.49,12.23-26.15a32.48,32.48,0,0,0,2.23-5.3,3.08,3.08,0,0,1,2-1.81,23.22,23.22,0,0,1,7.24-1.91c.58-.06.77.15.77.67,0,1,.55,1,1.38.88,4.5-.74,9-1.61,13.57-1.56a19.39,19.39,0,0,1,7.27,1.16C458.49,219.05,460.09,220.45,460.4,222.94Z"/><path class="cls-3" d="M321.25,279a5.35,5.35,0,0,1-1.59.32c-1.66,0-2.36-1.09-1.52-2.56a66.71,66.71,0,0,1,4.4-6.41c4.1-5.51,8.25-11,12.34-16.5a1.39,1.39,0,0,1,1.66-.7c.84.24.52.94.56,1.46a10.83,10.83,0,0,1-.51,3.7,14.21,14.21,0,0,1-2.17,3.2c-4.1,5.49-8.28,10.92-12.21,16.53A2.46,2.46,0,0,1,321.25,279Z"/><path class="cls-3" d="M131.51,389.1l-11.71,5a5.25,5.25,0,0,1-2.46-.21,4.53,4.53,0,0,0-4.91,2.41c-.21.34-.31.81-.83.84-2.6-.45-3.06-1.28-2.11-3.7a6.83,6.83,0,0,1,2.86-3.4c1-.61,2.2-.22,3.31-.19a2.84,2.84,0,0,1,1.23.23c1.69.87,3.2.36,4.82-.33a56.83,56.83,0,0,1,9-2.76c.67-.16,1.24-.29,1.09-1.25s-.83-.48-1.24-.48c-1.13,0-2.25.16-3.46.26.21-.56.67-.7,1-.9a122.69,122.69,0,0,1,12.47-5.52,7.88,7.88,0,0,1,2-.33c.31,0,.71-.18.75.35s-.35.39-.61.44a17.75,17.75,0,0,0-3.06.66,5.6,5.6,0,0,0-2.42,1.5c-1.14,1.31-.95,2.27.57,3-.12.66-.69.8-1.18,1-2.31,1-4.51,2.12-6.72,3.26A1.23,1.23,0,0,1,131.51,389.1Z"/><path class="cls-3" d="M156.51,375.3c8.21-4.13,16.18-8.72,24.13-13.33,3.62-2.1,7.21-4.23,10.83-6.36a2.15,2.15,0,0,1-.72,2.75,39.66,39.66,0,0,1-9.6,6.54,101.43,101.43,0,0,0-15.07,8.18A57,57,0,0,1,151.6,380c-1.26.43-2.51.88-3.77,1.33-.17-.62.33-.78.7-1a17.76,17.76,0,0,1,2.32-1.13,8.38,8.38,0,0,0,1-.47,20.46,20.46,0,0,1,4.57-1.94c.42-.12,1-.23.46-.89A.94.94,0,0,1,156.51,375.3Z"/><path class="cls-3" d="M250.26,205.35,239.58,201c5.87.06,11.66.35,17.21,2.29a10.63,10.63,0,0,1,4,2.26,3.89,3.89,0,0,1,1.55,3.26.69.69,0,0,1-.61-.05c-3.44-2-7.32-2.53-11.12-3.34A1.61,1.61,0,0,1,250.26,205.35Z"/><path class="cls-3" d="M95.51,407.19l-.33.16c-1.64.83-2.09.61-2.32-1.17a3.47,3.47,0,0,0-1,.27A21,21,0,0,1,85.3,409c-.51.14-1.06.5-1.42-.21s-1-1.31-.46-2.17c.31-.54.64-1.08,1-1.62a23.69,23.69,0,0,0,5.51-2.35c.33-.23,1-.46,1,.32,0,1.72,1.35,1.09,1.74.76,1-.86,1.92-.16,2.8.07.61.15.35.94.42,1.44A3.25,3.25,0,0,1,95.51,407.19Z"/><path class="cls-3" d="M470.7,212.11l-11.05-4.52a18.42,18.42,0,0,1,5.14.08c1.53.12,3,.45,4.58.67a17.07,17.07,0,0,1,5.94,2.43,2.43,2.43,0,0,1,1.26,3.11c-1.1.14-1.95-.57-2.92-.87S471.7,212.36,470.7,212.11Z"/><path class="cls-3" d="M94.89,400.2l-.75-.05c-1.91-.14-1.87-.14-2-2,0-1,.29-1.74,1.31-2s1.59.45,1.86,1.39a4.38,4.38,0,0,0,.21.45c1.22-1.4,2.44-2.72,3.56-4.12.61-.77,1.19-.49,1.88-.24s.57.86.47,1.35c-.29,1.42-.45,2.89-1.47,4-.11.4-.47.6-.71.89-.57.54-1,1.35-2,1.08A2.55,2.55,0,0,0,94.89,400.2Z"/><path class="cls-3" d="M249.73,224.45a17.65,17.65,0,0,0-3-2.37,2.88,2.88,0,0,0-1.76-.43c-.6,0-.8.16-.7.8.14.81.14,1.65.23,2.48,0,.52-.12.75-.67.75s-.88.06-.95-.61a7.88,7.88,0,0,0-1.16-3.12c.58-.06.78-.34.67-.93a12.65,12.65,0,0,1-.16-1.75c-.06-1.33.48-1.89,1.62-1.33,2.67,1.33,4.92,3.16,5.92,6.14C249.8,224.19,249.74,224.33,249.73,224.45Z"/><path class="cls-3" d="M350.27,357c.87-1,1.75-2,2.58-3,.44-.54.87-.45,1.43-.22s.35.73.28,1.15a7.67,7.67,0,0,1-1.34,3.59,1.85,1.85,0,0,1-2.4.73,9.81,9.81,0,0,0-2.05-.53c-.38-.08-1.06.15-1-.58s-.38-1.6.45-2.2S349.47,355.56,350.27,357Z"/><path class="cls-3" d="M467.25,225.84a26.72,26.72,0,0,0-2.29-1.52c-.86-.45-1.28-.12-1.26.83,0,.46,0,.92.06,1.38s-.22.58-.58.62-.67,0-.71-.49a6,6,0,0,0-1.52-3.21c1-.13.69-.79.63-1.41s-.42-1.2.11-1.51a1.61,1.61,0,0,1,1.74.34C465.25,222.12,467,223.41,467.25,225.84Z"/><path class="cls-26" d="M313.6,295.92l-10.34,2.87a1.41,1.41,0,0,1-.86.09c-.32-.11-.68-.29-.73-.62-.08-.5.45-.42.71-.49,2.23-.54,4.46-1.08,6.71-1.54a9.45,9.45,0,0,0,2.66-1C312.64,294.71,313.23,294.79,313.6,295.92Z"/><path class="cls-27" d="M143.9,377c-.11-.48.21-.64.63-.69a15.83,15.83,0,0,0,9.11-4.29c.63-.59,1.25-.3,1.75.2.29.29.55.76-.13.93-3.61.88-6.78,2.74-10,4.5C144.28,378.23,143.93,378.06,143.9,377Z"/><path class="cls-28" d="M216.4,295.36c2.28-.81,3.88.22,5.34,1.6a1.33,1.33,0,0,1,.48,1.46c-.27.56-.89.17-1.34.09A7.43,7.43,0,0,1,216.4,295.36Z"/><path class="cls-29" d="M122.29,352.35c-.57,2.7-1,5-2.27,7.15-.19.31-.42.72-.85.59s-.25-.57-.26-.88C118.82,356.46,120.08,354.38,122.29,352.35Z"/><path class="cls-3" d="M230.91,280.84a16.49,16.49,0,0,1,3.67,2.14c.28.21.14.81-.14,1.16a1.06,1.06,0,0,1-1.34.39,21.19,21.19,0,0,0-2.86-1.22c-.8-.28-.38-1.26-.44-1.9S230.58,281.25,230.91,280.84Z"/><path class="cls-26" d="M250.33,312.86c-.53.13-.72.12-.79-.15s.07-.36.3-.44a70.39,70.39,0,0,1,7.92-2.32c.37-.07.56,0,.59.37s.26.51-.16.73a6,6,0,0,1-2.61,1.05A23,23,0,0,0,250.33,312.86Z"/><path class="cls-30" d="M143.52,382.74c-1.23.05-2.23.77-3.35,1.14a3.74,3.74,0,0,1-1.39.42c2.18-1.69,4.2-3.66,7.11-4.08a.27.27,0,0,1,.3.1,15.16,15.16,0,0,1,.39,1.47,3.26,3.26,0,0,1-1.7.74C144.45,382.78,144,382.5,143.52,382.74Z"/><path class="cls-31" d="M320.07,280.78a1.71,1.71,0,0,0,.05,1.2,10.48,10.48,0,0,1-6.21,1.54A13,13,0,0,1,320.07,280.78Z"/><path class="cls-32" d="M262.1,222.64a12,12,0,0,1-2.07-4.28c-.07-.3-.32-.7,0-.91s.75.07,1,.32a7.31,7.31,0,0,1,2.26,3.9C262.51,221.49,262.41,222.2,262.1,222.64Z"/><path class="cls-33" d="M395.73,338c0,.25-.11.37-.34.42a34.44,34.44,0,0,0-7.53,3.26c-.28.14-.71.48-1,0-.17-.35-.37-.83.32-.92a13.21,13.21,0,0,0,7.14-3.3A.93.93,0,0,1,395.73,338Z"/><path class="cls-31" d="M453,268.19a10.54,10.54,0,0,1,2.74,1.55c.34.21.09.54,0,.77a.81.81,0,0,1-1.05.45c-.71-.34-1.43-.64-2.17-.92s-.32-1-.33-1.43S452.61,268.31,453,268.19Z"/><path class="cls-34" d="M442,279.17c1.74-.73,2.88.23,4,1.17.33.29.57.77.33,1.12s-.71.16-1.07.07A5.73,5.73,0,0,1,442,279.17Z"/><path class="cls-35" d="M367.91,328.65a6.44,6.44,0,0,1,2.34-5.92C369.85,324.74,369.7,326.84,367.91,328.65Z"/><path class="cls-36" d="M325,292.29c0,.27-.21.32-.42.37a48.56,48.56,0,0,0-6.67,2.07c-.19.07-.4.23-.55,0s.06-.41.28-.57c2.06-1.56,4.63-1.46,6.94-2.19C324.8,291.88,325,292.05,325,292.29Z"/><path class="cls-37" d="M146.75,379.84c2.61-1,5.15-2.24,7.67-3.47.33-.15.61-.44,1-.37,0,.65-.49.93-.92,1.24a29.65,29.65,0,0,1-2.66,1.59c-.36.08-.62.41-1,.43a8.05,8.05,0,0,1-3.69,1A.58.58,0,0,1,146.75,379.84Z"/><path class="cls-38" d="M477.07,224.88A14.35,14.35,0,0,1,475,220.7c-.06-.23-.23-.52,0-.7s.57,0,.78.18a6.3,6.3,0,0,1,2,3.73A6.5,6.5,0,0,0,477.07,224.88Z"/><path class="cls-34" d="M152.35,266.93a8,8,0,0,0,1.2-3c.07-.93.66-.89,1.17-.85.74.05.4.7.35,1.07C154.77,266.28,154.07,267,152.35,266.93Z"/><path class="cls-39" d="M162,247a2,2,0,0,1,.4-2.23,5.94,5.94,0,0,0,1.42-2.59c.08-.3.1-.57.51-.55s.31.4.37.64a1.72,1.72,0,0,1-.82,2.26,4,4,0,0,0-1,1.22C162.58,246.09,162.33,246.51,162,247Z"/><path class="cls-40" d="M249.61,310.05c0-.63.11-1,.74-1.07,1.77-.27,3.52-.67,5.28-1,.29-.05.77-.52.9.15s-.46.37-.72.44C253.8,309.08,251.77,309.54,249.61,310.05Z"/><path class="cls-41" d="M164.4,291.35c-.75.07-1.2.13-1.23-.67s.3-.81.88-.81a9.55,9.55,0,0,0,1.5-.16c.51-.09.87-.08.92.61s-.16.89-.8.88A8,8,0,0,0,164.4,291.35Z"/><path class="cls-42" d="M115.43,385.8c-.21,0-.53.12-.65-.13s0-.56.22-.8c.41-.56,2.84-1.17,3.4-.82.33.21.37.66,0,.76C117.39,385.08,116.57,385.87,115.43,385.8Z"/><path class="cls-43" d="M148.3,278.91c-.1.93-.19,1.76-.29,2.59,0,.3-.14.57-.53.56s-.39-.34-.41-.62c-.08-.79-.13-1.59-.25-2.37s.41-.77,1-.83C148.59,278.15,148.26,278.68,148.3,278.91Z"/><path class="cls-44" d="M244.32,300.61c-.1-1.24-.17-2.14-.24-3,.08,0,.12,0,.15,0,.89.27,2,.66,2.12,1.48S245,299.7,244.32,300.61Z"/><path class="cls-3" d="M324.68,296.88c-1.76.36-3.43,1.05-5.21,1.49.67-.55,1.17-1.28,2.1-1.47s2-.47,3-.72c0-.86-.61-.5-1-.41-7.3,1.75-14.63,3.41-21.7,6-3.25,1.2-6.93,2-8.38,5.82-5.88,7.57-11.46,15.36-17.09,23.11-11.41,15.71-22,32-34.4,47,.66.08,1.33.15,2,.25.25,0,.63-.2.72.24s-.3.33-.49.45a3.17,3.17,0,0,0-1.22,2.37.61.61,0,0,0,.33.74.63.63,0,0,0,.68-.23c.21-.26.44-.5.66-.76,5.41-6.34,10.22-13.15,15.09-19.92,11.94-16.61,23.51-33.5,36-49.71.17-.23.43-.48.45-.74a2.61,2.61,0,0,1,1.52-2,17.15,17.15,0,0,1,2.53-1.37c7.79-3.3,16-5.2,24.18-7.13A7.14,7.14,0,0,0,324.68,296.88Zm-19.07,5.54c-.67.19-1.44.32-1.94-.66,2.1-.5,4.16-1.06,6.25-1.47a13.62,13.62,0,0,0,4.11-1.41c.78-.43,1.22-.26,1.59.69C312.21,300.55,308.92,301.51,305.61,302.42Z"/><path class="cls-45" d="M393.28,257.64a9.28,9.28,0,0,0,.8-2.32c.06-.6.45-.76,1-.66s.23.62.2.9C395.1,257.08,394.6,257.6,393.28,257.64Z"/><path class="cls-46" d="M298,403.69c.58-.79-.3-2.13,1.34-2.05.68,0,.94.43,1.07,1,.18.79-.52.58-.86.71A10.3,10.3,0,0,1,298,403.69Z"/><path class="cls-47" d="M149.75,274.3c-.41-.06-.77.13-.88-.28s.3-.5.6-.59a1.75,1.75,0,0,0,1.45-1.78c0-.48.24-.75.7-.61a.51.51,0,0,1,.19.83C151.14,272.73,151.1,274.18,149.75,274.3Z"/><path class="cls-43" d="M261.39,309.6a20.57,20.57,0,0,1,2.05-.44.9.9,0,0,1,1.08.65c.14.72-.56.44-.87.55C262.8,310.66,261.91,310.85,261.39,309.6Z"/><path class="cls-48" d="M400.64,242.29a1.27,1.27,0,0,1,.18-1.44,18.21,18.21,0,0,0,.95-1.6c.17-.31,0-.79.48-.94a.33.33,0,0,1,.43.33c0,.47.39,1.08-.1,1.39A9.21,9.21,0,0,0,400.64,242.29Z"/><path class="cls-49" d="M402.62,276.08c-.44-.11-1.11.43-1.1-.51s.88-.61,1.37-.74,1.09-.27,1.08.55C404,276.49,403,275.81,402.62,276.08Z"/><path class="cls-3" d="M422.91,324.93c-6.06,3.59-12,7.19-18.17,10.53s-11.9,6.8-18.52,8.8a1.39,1.39,0,0,0-.5.34,25.1,25.1,0,0,1-2.8,2.12,1,1,0,0,1-1.37.06c-.55-.45-.38-1-.1-1.46.71-1.25,2-1.53,3.23-1.95.56-.19,1.61.31,1.59-.57,0-.33-1.31,0-2,.05a.61.61,0,0,0-.1.07c-3,1.2-6,2.42-8.83,3.87a2.33,2.33,0,0,0-1.26,1c.92-.09,1.71-.23,2.5-.24.37,0,1-.4,1.09.39s-.4.77-.9.91a60.75,60.75,0,0,0-8.11,2.6,2.34,2.34,0,0,1-2-.15,4,4,0,0,0-5.25,1.23c-.72.93-1.31,2.1-.79,3.12.44.85,1.67,1,2.7,1,.93-1.34,2-2.38,3.84-1.77h0l9.3-4a40.32,40.32,0,0,0,6.11-2.67,51.65,51.65,0,0,1,10.57-4.95c.7-.26,1.36-.62,2-.94.85-.24,1.5-1.1,2.51-.78,1.52-.22,2.63-1.2,3.85-2a152.78,152.78,0,0,1,15.28-8.36,27.42,27.42,0,0,0,5.83-4.33A1.36,1.36,0,0,0,422.91,324.93Z"/><path class="cls-50" d="M117.61,363.45c0,.86-.29,1.49-1.12,1.61-.54.09-.35-.44-.37-.72a1.25,1.25,0,0,1,1.09-1.53C117.75,362.73,117.53,363.25,117.61,363.45Z"/><path class="cls-51" d="M365.19,347.85c-.22.06-.46.14-.53-.13a.73.73,0,0,1,.11-.46,3.09,3.09,0,0,1,2.65-.7.32.32,0,0,1,0,.59C366.66,347.37,366,347.92,365.19,347.85Z"/><path class="cls-52" d="M157.41,259.55c-.13.36.28,1-.36,1s-.42-.58-.48-.94a14,14,0,0,1-.18-1.6c0-.25,0-.52.35-.53s.43.17.46.45Z"/><path class="cls-53" d="M389.19,267.56a7.73,7.73,0,0,1-.13-1c0-.46.39-.47.72-.5s.47.24.44.55a2.3,2.3,0,0,1-.14.85c-.3.49.3,1.52-.58,1.47C388.89,268.91,389.38,267.94,389.19,267.56Z"/><path class="cls-51" d="M171.81,302.89c.47.31,1.35-.56,1.41.34s-.91.47-1.4.47-1.71.47-1.72-.2C170.07,302.49,171.24,303.27,171.81,302.89Z"/><path class="cls-54" d="M392.79,261.07c0,.74-1.09,2.14-1.73,2.13-.19,0-.45.06-.53-.18s.08-.49.36-.54a1.49,1.49,0,0,0,1.32-1.42c0-.23.1-.41.36-.37S392.79,260.9,392.79,261.07Z"/><path class="cls-55" d="M366.37,330.44c.44-.11.43.16.45.42a1.07,1.07,0,0,1-.77,1.25c-.36.11-.43-.18-.44-.43A1.17,1.17,0,0,1,366.37,330.44Z"/><path class="cls-56" d="M408.12,284.84c.31.13.87-.28.93.26s-.55.43-.85.42c-.5,0-1.37.47-1.44-.24S407.64,285,408.12,284.84Z"/><path class="cls-57" d="M397.05,251.62c-.11.37.25,1-.23,1-.76,0-.45-.83-.52-1.3-.05-.29-.29-.92.29-.87C397.35,250.5,396.85,251.25,397.05,251.62Z"/><path class="cls-58" d="M301.9,405.57c.83,1,.79,1.19-.38,1.47a8,8,0,0,1-1,.14Z"/><path class="cls-3" d="M400.77,225.88c-.26-.44-.68,0-1,.12a85,85,0,0,0-13.56,6.09,117.61,117.61,0,0,0-11.82,7.54c-.8.58-1.54.89-2.39,0a2.68,2.68,0,0,0-1.92-.8h0l.37.92c-.6.26-1-.18-1.52-.28h0a8.51,8.51,0,0,0-1.9,1.35l1.19,1.49-2.47-.43h0a38.51,38.51,0,0,0-4.88,4.5c-.56-.38-.78-1-1.19-1.47s-.2-.89.32-1c1.24-.28,1.08-1.1.85-2.28-1.33,1.25-2.94,1.84-3.38,3.78-2.34,10.29-4.75,20.57-7.15,30.85-.65,2.79-.67,2.79,2.24,3.34,2.35-10.09,4.75-20.18,7-30.3.45-2,2-2.66,3.39-3.65-.3.57.65,1.45-.45,1.74-1.29.33-1.18.94-.44,1.77a14.88,14.88,0,0,1,.93,1.27c.45-.57.8-1.09,1.23-1.54a44.64,44.64,0,0,1,6.58-5.61c1.28-.91,2.35-.93,3.39.24.68.74,1.24.47,1.86.21a5.41,5.41,0,0,0,1-.71,100.64,100.64,0,0,1,20.54-11.6.92.92,0,0,1,.37-1,12.76,12.76,0,0,0,2.65-3.15A1.18,1.18,0,0,0,400.77,225.88Zm-35,18.16c-.2.13-.55.38-.77.06a1.52,1.52,0,0,1-.14-.83c0-.29.31-.19.49-.21.49-.05,1-.08,1.48-.12.24,0,.39.05.41.36C366.88,243.78,366.23,243.75,365.75,244Z"/><path class="cls-59" d="M246.44,303.49c-.45.2-.89.45-1.39.15-.05,0-.08-.17-.05-.22.33-.46.84-.44,1.33-.46C246.49,303.11,246.71,303.25,246.44,303.49Z"/><path class="cls-60" d="M140.12,385c.17-.88.95-.8,1.55-1A4.77,4.77,0,0,1,140.12,385Z"/><path class="cls-61" d="M147.08,380c-.3.25-.69.18-1,.26H146l-.06,0,.86-.39Z"/><path class="cls-3" d="M350.37,362.37c-.76,0-.36-.65-.49-1a1.64,1.64,0,0,0-1.83-.06c-.48.24-1.41.77-1.54-.55,0-.49-.4-.43-.73-.18a17.5,17.5,0,0,1-2.92,1.42c-.47.79-.94,1.58-1.39,2.38-.37.63.07,1.1.32,1.61a.69.69,0,0,0,.95.35,20,20,0,0,0,4.67-1.72c.57-.33,1.13-1,1.27.36.07.69.65.21,1,.25A4.47,4.47,0,0,0,350.37,362.37Z"/><path class="cls-62" d="M143.52,382.74a2.44,2.44,0,0,1,1.36-.21l-.62.27Z"/><path class="cls-63" d="M465.21,285.73h0c-.22-.41-.42-.81-.07-1.24-.05-.45-.13-.91-.16-1.36-.1-1.43-.48-1.85-2.05-2.14.19,2.39.38,4.76.57,7.13.05.63.34.69.81.32A2.79,2.79,0,0,0,465.21,285.73Z"/><path class="cls-64" d="M99.3,399.92A2,2,0,0,1,100,399C100,399.54,99.83,399.86,99.3,399.92Z"/><path class="cls-65" d="M156.9,375.65l-1,.06.62-.41Z"/><path class="cls-3" d="M266.69,311.35c-1.37.12-2.74.23-4.09.47-2.17.37-4.25,1.22-6.52,1.05-.53,0-1.31,0-1.57.27-.7.87-1.62.68-2.47.73a24.86,24.86,0,0,0-3.34.47,1.7,1.7,0,0,0-1.35,1.12,38.05,38.05,0,0,1-3,5.63c-7,11.1-16.65,19.7-27.29,27.08-9.46,6.57-18.82,13.25-28,20.16-3,2.22-5.67,4.84-9.22,6.22a54.08,54.08,0,0,1-10.4,2.69c-.46.08-1.38-.14-1.2.63s.93.3,1.44.16c.85-.24,1.68-.51,2.53-.74.25-.06.6-.3.78,0s0,.64-.3.86c-1,.67-1.89,1.4-2.89,2-5,3-10.57,4.48-16.31,5.36-1.8.27-3.64.17-5.36,1.09a136.89,136.89,0,0,1-15.66,7L124,396.87c-.52.16-1,.4-1.53.58a29.22,29.22,0,0,0-4.25,1.82,7.37,7.37,0,0,1-5.64,1.32l-7.44,2.13c-.5.15-.68.56-.9,1-1,1.8-2,3.59-3,5.36-2.77,4.79-6.29,9-9.6,13.45a20.58,20.58,0,0,0-2,5.15,1.14,1.14,0,0,0,.22,1.18h1c.36-.37.88-.46,1.24-.88a100.48,100.48,0,0,0,14.24-20.58,1.83,1.83,0,0,1,1.31-1c3.79-1.13,7.57-2.28,11.33-3.51,10.54-3.45,21-7.2,30.85-12.28a9.5,9.5,0,0,1,3.44-1,47.59,47.59,0,0,0,15.89-4.16,26.67,26.67,0,0,0,5.22-3.22c.36-.29,1-.52.6-1.16s-.75,0-1.09.06c-1,.19-1.92.55-2.88.8-.27.07-.67.4-.84-.11s.3-.61.65-.68c1.1-.21,2.22-.36,3.33-.59,4.46-.95,8.81-2.11,12.53-5,8.09-6.3,16.25-12.52,24.73-18.29,7.24-4.92,14.45-9.86,20.86-15.86s12.47-12.46,16.28-20.53c1.14-2.41,2.72-3,5-3.14.58,0,1.17-.05,1.75-.09.25,0,.65,0,.71-.12.52-1.11,1.59-.83,2.4-.81a14.79,14.79,0,0,0,3.7-.49c1.3-.3,2.61-.56,3.91-.83.44-.66.93-1.3,1.31-2S267.3,311.29,266.69,311.35Zm-6.61,3.47a4,4,0,0,1-2.72,1,17.65,17.65,0,0,0-4.57.61,1.48,1.48,0,0,1-1.43-.21,69.38,69.38,0,0,1,8.21-2.45c.24,0,.66-.43.77.19A.69.69,0,0,1,260.08,314.82Zm5.77-.78c-.86.22-1.8.63-2.28-.66a6.79,6.79,0,0,1,2.19-.45c.38,0,.79.2.82.63S266.13,314,265.85,314Z"/><path class="cls-3" d="M571.91,268.1c.42,1.53.92,1.85,2.89,1.83.5,0,1.07-.29,1.15.63s-.47.82-1,1a95.78,95.78,0,0,1-21.65,3.79c-4.11.29-8.27.39-12.27,1.62-.9.28-1.78-.29-2.71-.23a10.09,10.09,0,0,0-2.82.47,63.64,63.64,0,0,1-15.27,3.69c-.2,0-.44.16-.61.09-2.73-1-5.13.29-7.59,1.13a2.54,2.54,0,0,1-2,0,1.84,1.84,0,0,0-2.32.64,24.18,24.18,0,0,0-4.46,7.2c-4.86,11.32-10.22,22.42-14.45,34-.31.86-.6,1.73-.9,2.59-.5-.05-1-.11-1.49-.15-1.47-.13-1.55-.22-1.16-1.68a111.1,111.1,0,0,1,5.65-15.11q5.37-12.42,10.87-24.76a20.42,20.42,0,0,1,3.92-6,1.79,1.79,0,0,1,2.22-.56,2.48,2.48,0,0,0,2.16,0c.74-.29,1.52-.47,2.25-.78a7.87,7.87,0,0,1,4.38-.51c2.86.4,5.64-.47,8.4-1.09a56.94,56.94,0,0,0,8.38-2.53,7.8,7.8,0,0,1,4.08-.32,4.52,4.52,0,0,0,2.07-.05c3.65-1.08,7.44-1.16,11.18-1.42A102.64,102.64,0,0,0,571.91,268.1Z"/><path class="cls-3" d="M598.89,206.83l-.54-.23a3.57,3.57,0,0,1,1.58-.27c.57-.06,1.07-.1,1-.92s-.68-.49-1.09-.45c-2.25.21-4.49.44-6.73.66-.36,0-.78.14-.8-.47,0-.37-.13-.8.39-.91,1.73-.4,3.54-1.28,5.18-1,3,.43,5.63-.75,8.44-1,1.87-.16,3.73-.36,5.59-.54.06.63.61.53,1,.56a18.23,18.23,0,0,0,2.86.09c.92-.07,1,.39.8,1a2.63,2.63,0,0,1-2.13,1.9,96.89,96.89,0,0,0-11.84,1.88C601.44,207.39,600.14,206.69,598.89,206.83Z"/><path class="cls-3" d="M577.43,258.51c.36.06,1-.31,1,.36a1,1,0,0,1-.86,1.08c-1.06.33-2.17.11-3.23.38-.33.08-.93-.13-.81.61.09.57.28.85,1,.84,1.38,0,2.75.11,4.13.17.45,0,.89-.11.91.64s-.32.8-.89.84c-3,.21-5.92.37-8.87.8-1-1.53-2.55-1.52-4.11-1.54-.45,0-1,.25-1.1-.59s.39-.83.9-1c3.49-1.23,7.16-1,10.76-1.4C577,259.61,577.62,259.52,577.43,258.51Z"/><path class="cls-3" d="M467.33,326.38c-.83.2-1-.21-.77-1,.84-2.85,2-5.57,3.11-8.32a1.07,1.07,0,0,1,1.31-.67c.62.1.33.69.28,1a46.22,46.22,0,0,1-2.49,8.39C468.56,326.36,468.47,326.35,467.33,326.38Z"/><path class="cls-66" d="M571.18,206.06c4.63.81,8.71-.6,12.89-1.08,1.6-.19,3.17.16,4.76.09.2,0,.43,0,.45.3s-.11.46-.41.51a29.18,29.18,0,0,0-5.14,1.08.42.42,0,0,1-.45-.12,4,4,0,0,0-4.13-.48,16.67,16.67,0,0,1-5.9,1A2.36,2.36,0,0,1,571.18,206.06Z"/><path class="cls-29" d="M495.88,337.73a4.7,4.7,0,0,1-4.05,2.4,25.51,25.51,0,0,0-4.62-.17c-.61.05-.68-.28-.76-.73s.12-.68.58-.71Z"/><path class="cls-67" d="M546.82,198.22c2.68-.53,5.35-.9,7.95-1.68.64-.19,1.17.44,1.75.67s.06,1.18-.52,1.25a3.52,3.52,0,0,1-1.61,0c-1.27-.49-2.36,0-3.55.32A6,6,0,0,1,546.82,198.22Z"/><path class="cls-68" d="M624.39,327.71a39.77,39.77,0,0,1,6.24-.9c2.08,0,4-.64,6-.74.47,0,.94-.11,1.24.33s.38.69-.29.75l-12.72,1C624.67,328.2,624.49,328.17,624.39,327.71Z"/><path class="cls-43" d="M560.07,197.29c.09-1.16.59-1.59,1.7-1.58,1.28,0,2.57-.25,3.86-.37.34,0,.83-.25.9.32s-.43.46-.71.49C563.87,196.32,562,197.05,560.07,197.29Z"/><path class="cls-69" d="M523.73,202.69c-1.05.11-.61-.7-.57-1.08.06-.71.66-1,1.32-1.1a2.05,2.05,0,0,1,2,.62c.43.65-.16,1.18-.82,1.34A12.91,12.91,0,0,1,523.73,202.69Z"/><path class="cls-33" d="M627.82,337.43c.1-.63.64-.59,1.07-.63,2-.19,3.91-.34,5.86-.5.23,0,.52-.1.6.26s-.08.37-.33.38c-1.09.05-2.33.78-3.12.55-1.45-.42-2.77.3-4.11-.09Z"/><path class="cls-3" d="M574.45,331.69c-1.38,1.64-1.73,1.83-2.92,1.59l.3-1.32-1.74.45c0,.93-.48,1.25-1.4,1.29-1.38.06-2.75.26-4.11.45-1,.14-2,.67-2.92.51-3-.53-5.71.46-8.5,1.06a1.39,1.39,0,0,0-1.3,1.43,2.46,2.46,0,0,1-1.35,2,6.76,6.76,0,0,1-3.06,1.06c-6.12.59-12.24,1.14-18.37,1.71a.73.73,0,0,1-.69-.21c-.36-.49-.64-.21-1,0-.93.47-1.88,1-2.9.15-.3-.24-.56.05-.78.2a3.31,3.31,0,0,1-1.65.49c-2.63.25-5.25.54-7.87.82-6,.64-12.06,1.31-18.1,1.92-6.29.63-12.58,1.2-18.87,1.79a1.42,1.42,0,0,0-1.15.65,36.2,36.2,0,0,0-3.33,6.57c.92,1,1.33,2,.22,3.08a1.67,1.67,0,0,0-.23.44c-2.51,4.9-4.44,10-6.49,15.14q-1,2.44-1.92,4.89a1.39,1.39,0,0,0,.8,1.76c.59.3.84-.42,1-.93.44-1.12.88-2.24,1.33-3.36,2.85-7.06,5.71-14.12,9-21,1.09-2.26,2.32-3.67,5.15-3.76,4.59-.15,9.16-.8,13.74-1.26q7.86-.78,15.73-1.59c1.87-.19,3.74-.45,5.61-.65s3.82-.48,5.74-.52,3.38-1,5.28-.63c1.19.24,2.51-.36,3.86-.39,4.42-.1,8.84-.61,13.26-1a25.89,25.89,0,0,0,6.54-1c1.32-.48,2.49-1.18,2.61-2.72a1.19,1.19,0,0,1,1-1.22c2.87-.65,5.68-1.75,8.72-1.09a.87.87,0,0,0,.48,0,24.66,24.66,0,0,1,6.66-1c.93-.06,1.28-.35,1.33-1.33.12-2,1-2.94,2.52-3.19l.12-.14A.89.89,0,0,0,574.45,331.69Z"/><path class="cls-70" d="M555.69,210.89c-.4-.26-1.22.57-1.29-.22s.85-.32,1.32-.41c1.06-.19,2.14-.25,3.22-.36.27,0,.65-.15.67.3s-.36.37-.64.39Z"/><path class="cls-71" d="M667.67,323.65l-4.63.7c-.29-.17-.63-.34-.52-.74s.48-.2.75-.26a4.57,4.57,0,0,1,3,.12c.41.19.71-.05,1.06-.1Z"/><path class="cls-72" d="M575.86,203.79c-1.33.66-2.78.43-4.16.71-.21,0-.43,0-.47-.28s.06-.36.24-.37C572.93,203.83,574.38,203.31,575.86,203.79Z"/><path class="cls-3" d="M577.33,329.44a3.12,3.12,0,0,0-.85.07L574.7,333h0l0,0a37.58,37.58,0,0,0-1.21,4.21c1.69.08,2.54-.66,3.48-3a8.16,8.16,0,0,1,1.09-3.22C578.64,329.86,578.55,329.63,577.33,329.44Z"/><path class="cls-73" d="M642.49,326.64c-1.38.12-2.68-.4-4.29-.2C639.76,325.29,641.84,325.47,642.49,326.64Z"/><path class="cls-33" d="M538.21,329.64c-1,.82-2.19.57-3.31.75-.2,0-.42,0-.45-.28s0-.48.37-.51l2.34-.22C537.54,329.34,538,329,538.21,329.64Z"/><path class="cls-74" d="M649.22,325.86c-.69-.45-1.69.27-2.13-.49-.11-.19,1-.92,1.65-.94a1.16,1.16,0,0,1,1.17,1.09C650,326,649.45,325.69,649.22,325.86Z"/><path class="cls-75" d="M558.07,197.51c-.31-.06-.81.18-.69-.41a1.39,1.39,0,0,1,1.34-1.09c.5-.08.61.23.63.67C559.41,197.77,558.53,197.31,558.07,197.51Z"/><path class="cls-3" d="M564.65,326.76c-.13-.93-.76-.59-1.21-.6-3.41-.05-6.81.38-10.22.2a95.83,95.83,0,0,1-13,2.58c-.17.28-.78-.2-.75.43a8.78,8.78,0,0,1,2.77.72.63.63,0,0,0,.69.06c1.47-.95,3.25,0,4.76-.76,0,0,.08,0,.12,0l9.77-.43a11.63,11.63,0,0,0,.87-.85c.23-.28.14-.86.77-.73a1.07,1.07,0,0,1,.92,1h0c.54-.32,1.07,0,1.61,0a8.07,8.07,0,0,1,1.87-.56C564.16,327.65,564.78,327.66,564.65,326.76Z"/><path class="cls-76" d="M499,338.21l.62,0c.27,0,.67-.14.69.27s-.42.31-.68.34c-.78.09-1.56.15-2.35.21-.23,0-.55.08-.56-.28s.33-.3.55-.33c.57-.09,1.15-.14,1.73-.2Z"/><path class="cls-77" d="M657.63,325c-.44-.41-1.52.42-1.7-.73,0-.3.48-.79.57-.64.44.68,1.62.19,1.76,1.16C658.31,325.17,658,325.05,657.63,325Z"/><path class="cls-50" d="M471.25,314.82a1.24,1.24,0,0,1,1.13-1.14c.54-.08.39.44.36.71a1.16,1.16,0,0,1-1.17,1.18C471,315.57,471.34,315.08,471.25,314.82Z"/><path class="cls-78" d="M561.15,206.35c-.5-.09-1.1.2-1.15-.39s.62-.3,1-.45h.12c.52.1,1.44-.66,1.49.28C562.6,206.57,561.51,206,561.15,206.35Z"/><path class="cls-79" d="M584.94,306.74c-.54-.19-.92-.93-.8-1.11a1.66,1.66,0,0,1,1.54-.85C585.43,305.44,585.19,306.09,584.94,306.74Z"/><path class="cls-80" d="M653.57,325c-.39-.16-.94.31-1-.26s.57-.38.84-.37c.52,0,1.39-.58,1.47.24C654.92,325.19,653.94,324.65,653.57,325Z"/><path class="cls-3" d="M700.74,327.76c-1-.48-1.78.16-2.67.14a2.56,2.56,0,0,1-1.68.75c-4.92,1-9.82,2-14.75,2.91a116.75,116.75,0,0,1-20.41,2.32c-1.58,0-3.23-.17-4.72-.06a27,27,0,0,0-4.61.75c-.87.23-1.87,0-2.82.73H654c3.72,0,7.41-.63,11.13-.56.45,0,.8,0,.85.61s-.33.77-.76.68a8,8,0,0,0-3.53.31c-4.31,1-8.7,1.46-13,2.3a44.06,44.06,0,0,1-8.68,1.22c-1.48,0-2.64,1-4.09.84-.91.07-1.76.87-2.74.25h0l-3.19.4c-.33.81-1.09.43-1.62.5-.92.12-1.3.38-.85,1.33a5.94,5.94,0,0,0,2-.69.81.81,0,0,1,1.13.48c.08.18.14.5-.13.51-1.34,0-2.56.87-3.89.64a3.27,3.27,0,0,0-1.94.12,3.77,3.77,0,0,1-2.7.18c-.75-.24-1.23.05-1.28.67s.56.89,1.16.86,1.34-.12,2-.2c3.94-.46,8-.4,11.84-1.27a37.08,37.08,0,0,1,5-.62c4.5-.38,8.87-1.43,13.32-2,1.82-.22,3.62-.62,5.43-.93,2.65-.45,5.25-1.26,8-1.17.41,0,.88,0,.77-.66-.06-.34,0-.67-.51-.68a27.53,27.53,0,0,0-3.63,0c-3.91.55-7.86.37-11.76.78-.25,0-.61.16-.79-.39a1,1,0,0,1,.27-.12,62.48,62.48,0,0,1,7.71-1,106.91,106.91,0,0,0,14.53-.84c7.7-1.06,15.3-2.65,22.93-4.09,2.61-.48,4-1.56,4.32-4.08a.22.22,0,0,1,.05-.11C701.48,328.08,701.21,328,700.74,327.76Z"/><path class="cls-81" d="M644.79,325.52c-.17.23-.22.35-.27.35-.6,0-1.19.45-1.8.06,0,0,0-.29.06-.32A2.7,2.7,0,0,1,644.79,325.52Z"/><path class="cls-82" d="M674.45,322.81h-1.83l-.24-.42c.68,0,1.37-.27,2,.2l.09.08Z"/><path class="cls-83" d="M538.21,329.64c-.28-.39-.71-.13-1.05-.26a16,16,0,0,1,3.08-.44l-.75.43A2.84,2.84,0,0,0,538.21,329.64Z"/><path class="cls-84" d="M674.45,322.81a.27.27,0,0,1-.07-.21h1.82l0,.16-1.31.3Z"/><path class="cls-1" d="M620.2,340.73c.55-.72,1,.41,1.59,0A1.28,1.28,0,0,1,620.2,340.73Z"/><path class="cls-61" d="M575.5,210a2.57,2.57,0,0,1-1.32,0l1.22-.29C575.43,209.81,575.46,209.93,575.5,210Z"/><path class="cls-85" d="M566.59,208.52c-.9,0-1.81.08-2.71.16-.22,0-.29.26-.23.49.46,0,1.19-.36,1,.65h0l-1,0c.5.48,1,.26,1.53,0h0a10.15,10.15,0,0,0,1.36-.07c.33-.06.94.28.91-.45A.82.82,0,0,0,566.59,208.52Z"/><path class="cls-1" d="M672.8,333.9c4.09-.77,8.19-1.41,12.23-2.4.25-.06.53-.15.64.17a.84.84,0,0,1-.3,1,3,3,0,0,1-1.53.46c-3.57.36-7.15.67-10.72,1C673,334.07,672.85,334.06,672.8,333.9Z"/><path class="cls-1" d="M671.68,334.22c-1.38.11-2.58.89-3.94,1-.37,0-.86.22-.91-.49s.4-.58.8-.6l3.5-.17C671.3,334.11,671.55,334,671.68,334.22Z"/><path class="cls-1" d="M689.94,332.47a4.37,4.37,0,0,1-1-.12.75.75,0,0,1-.39-.93c.07-.42.46-.25.69-.14.4.19.93-.06,1.24.37C690.65,332.16,690.79,332.66,689.94,332.47Z"/><path class="cls-1" d="M671.68,334.22l-.55-.22,1.67-.1.32.24Z"/><path class="cls-86" d="M689.94,332.47c.52,0,.54-.43.57-.82a.76.76,0,0,1,.07,1C690.44,332.78,690.13,332.63,689.94,332.47Z"/><path class="cls-1" d="M620.56,338.67c.35.39.19.78.21,1.25C620.31,339.35,620.31,339.35,620.56,338.67Z"/><path class="cls-3" d="M444.61,284.43a18.85,18.85,0,0,0-9.77-3.16c-4.14-.21-8.24-.2-12.21,1.4-3.67,1.48-7.41,2.82-11.16,4.09-6,2-12.08,3.93-18.43,4.63-.66.07-.82.49-1,.92-7.22,14.46-14.56,28.86-21.53,43.44a56.11,56.11,0,0,0-2.69,6.13,12.73,12.73,0,0,0,4.14-.92c.21-.45.41-.91.63-1.36,6.9-14.44,14.17-28.71,21.33-43,.46-.93.87-1.6,2.07-1.49a7.14,7.14,0,0,0,2-.3c6.67-1.2,13.05-3.4,19.45-5.55,5-1.68,9.65-4.3,15.17-4.3,4.84,0,9.5.33,13.72,3A3.25,3.25,0,0,0,444.61,284.43ZM410,289.25c-.45-.14-1,.35-1.09-.14s.59-.43.92-.46,1.21-.28,1.23.14C411.1,289.57,410.22,288.81,410,289.25Z"/><path class="cls-87" d="M529.21,237.78c.48,1.25,0,2.29-.27,3.31-.13.55-.85.46-1.3.4s-.29-.57-.22-.83A4.2,4.2,0,0,1,529.21,237.78Z"/><path class="cls-1" d="M583.27,301.11c.6-.06.52.34.55.65a1,1,0,0,1-.91,1.13c-.57.07-.83-.58-.78-.91C582.2,301.42,582.86,301.31,583.27,301.11Z"/><path class="cls-3" d="M603,209.28c-.06-.79-.46-.73-1-.69l-6.87.6c-.34,0-.78.32-.84-.33s0-.94.62-1a4.11,4.11,0,0,0,1.41-.51c.13-.06.39-.42.44-.06.13.9.64.28.87.2a6.43,6.43,0,0,0,1.18-.7c0-.46-.26-.36-.53-.23a12.45,12.45,0,0,0-1.37.06c-7.2,1-14.4,1.89-21.57,3.07a.53.53,0,0,0,0,.3l.13,0c2.22.29,4.35-.37,6.52-.62a26.45,26.45,0,0,1,8.55-.59c.28,0,.74-.21.75.36s-.43.37-.73.42a6.3,6.3,0,0,0-1.59.27c-2.28,1.07-4.45.06-6.66-.25a19.71,19.71,0,0,1-7.2,1.44c-.81,0-1.16-.47-1.57-1-2.43.17-4.78.81-7.17,1.15-1.38.2-2.74,1-4.16.34a3.49,3.49,0,0,0-2.09-.13c-1.77.31-3.54.58-5.3.94-2.86.59-5.86.85-8.38,2.37a11.42,11.42,0,0,1-5.45,1.6,5.08,5.08,0,0,0-3.63,1.7,30.27,30.27,0,0,0-4.71,7.65c-.54,1.12-1,2.27-1.52,3.43a1,1,0,0,1-1.47.52c-.55-.21-.09-.71,0-1a7,7,0,0,0,.79-2.87c-.95.51-1.12.65-2.13,2.24A176.66,176.66,0,0,0,519,245.53c-1.36,2.77-2.63,5.59-4,8.34-.41.82.07,1.28.44,1.78s.73-.06,1-.21a2.62,2.62,0,0,1,1.82-.24c1.17-2.44,2.33-4.89,3.53-7.32a160.72,160.72,0,0,1,8.77-16.3,6.19,6.19,0,0,1,1.95-2.18,6.89,6.89,0,0,1-.77,2.82c-.15.38-.75.95,0,1.22a1,1,0,0,0,1.51-.67,16.66,16.66,0,0,1,.94-2.18c1.46-3.05,2.86-6.14,5.16-8.7a5.09,5.09,0,0,1,3.73-1.77,8,8,0,0,0,4.45-1.05,10.86,10.86,0,0,1,3.75-1.66c2.27-.54,4.54-1.13,6.85-1.48s4.69-1.37,7.12-.34c.2.09.49-.06.73-.11,8-1.56,16.13-2.83,24.25-3.9,4-.52,8-1,11.94-1.54C602.6,210,603.11,210.08,603,209.28Zm-41.72,4.91-4.87.49,0-.42c1.61-.47,3.31-.32,4.94-.63a.25.25,0,0,1,.31.29C561.65,214.12,561.49,214.17,561.32,214.19Zm7.3-.7a11.76,11.76,0,0,1-2,.16c-.44,0-.88.17-.94-.58s.4-.68.84-.7.66,0,.64,0a11.34,11.34,0,0,1,1.34-.11c.48,0,.92.21,1,.76C569.58,213.76,568.91,213.43,568.62,213.49Z"/><path class="cls-1" d="M527,234.18c.66,1.19,0,2.15-.16,3.14-.07.51-.75.42-1.17.39s-.38-.51-.3-.78A4.5,4.5,0,0,1,527,234.18Z"/><path class="cls-3" d="M468,281.9a34,34,0,0,1-.79,8.1c.17.58.18,1.11-.47,1.41a43.33,43.33,0,0,1-3.16,6.63c-5.42,8.81-13,15.51-21.36,21.3q-11.16,7.7-22,15.86c-2.43,1.85-4.77,3.8-7.8,4.66-2,.57-4,1-6.09,1.42-.3.2-.86.09-.83.69a10.46,10.46,0,0,0,2.66-.65c.2-.05.44-.17.58,0s0,.47-.22.63c-.61.43-1.21.89-1.84,1.29-4.33,2.78-9.22,3.75-14.19,4.52h0L387,350.28c-3.39,2.84-7.74,3.7-11.61,5.53-3,1.43-6.16,2.68-9.12,4.29a3.44,3.44,0,0,1-3.71-1c-.88.05-1.66.55-2.51.67a5,5,0,0,0-4.42,3.55,5.31,5.31,0,0,1-.59,1.1,79.38,79.38,0,0,1-6,8.87c.11.51-.23.87-.42,1.27a44.86,44.86,0,0,0-2.2,5.71c-.1.32-.31.7.05.89a1.35,1.35,0,0,0,1,0,2.4,2.4,0,0,0,.73-.66,71.52,71.52,0,0,0,10.48-15.1,2.28,2.28,0,0,1,1.53-1.27c10.46-3.14,20.85-6.49,30.66-11.35a17.17,17.17,0,0,1,5.35-1.5,31,31,0,0,0,12.92-4.36c.77-.49,1.76-.82,2.05-1.87h0c-.38-.24-.76.08-1.15,0l-.09,0-1.89.63c-.22.07-.53.21-.62-.14s.28-.45.55-.5c.57-.11,1.14-.18,1.71-.26l1.27-.24a23.79,23.79,0,0,0,10.57-4.83c6.55-5.2,13.27-10.2,20.25-14.81A96.21,96.21,0,0,0,458.59,311c5.48-5.78,10-12.13,11.29-20.23C470.39,287.61,470.76,284.41,468,281.9Z"/><path class="cls-3" d="M636.72,192h0a2.18,2.18,0,0,1-1.33.19c-1.77.52-2.63,2.59-4.63,2.74-.07,0-.13.28-.17.44l-.93,3.24c.33-.13.71-.5,1-.12s-.15.59-.26.88c-.4,1.14-.9,2.25-1.19,3.42a1.17,1.17,0,0,1-1.5,1h0a7.79,7.79,0,0,1-.39.76c-.82,1.24.09,1.64.95,2.21s1.5.63,2-.36h0l2.43-7.44c0-.14.19-.39.25-.38,1.1.21,1.55-.83,2.35-1.19h0a22.26,22.26,0,0,0,1.74-5.38Z"/><path class="cls-3" d="M639.14,201.59c-.24-.91-.51-1.81-.76-2.71h0a39.48,39.48,0,0,1-3.55,8h0c0,1.21,1.12.72,1.69.92s.51-.6.6-1c.12-.56-.11-1.3.84-1.31l1.69-3.1C639.25,202.25,639.22,201.92,639.14,201.59Z"/></g></svg>