<svg id="gris" xmlns="http://www.w3.org/2000/svg" viewBox="0 0 792 612"><defs><style>.cls-1{fill:#515151;}.cls-2{fill:#ececec;}</style></defs><title>Tema</title><g id="JoNLIJ"><path class="cls-1" d="M719.53,308.39c-10.24,4.18-12.2,11.3-12,19.39.09,3.67.83,7.31,1.1,11,1.07,14.7,1.05,14.7-11.32,20.33V369c20.57,3,28.68-4,28.21-24a91.15,91.15,0,0,0-.84-10.16c-2-14.35-1.51-15.35,10.66-22v-9.12c-11.15-4.52-12.58-7.18-11-19.41A128.47,128.47,0,0,0,725.52,270c.21-17.67-10.83-25.87-28.64-21.1,0,1.59,0,3.28,0,5,.07,1.92.23,3.83.34,5.58,10.92,2.71,12.31,4.52,11.65,15.31-.28,4.51-1.11,9-1.29,13.52C707.25,296.56,708.52,304.23,719.53,308.39Zm-663.75,5c11.11,4.59,12.49,7.13,11.06,18.86a143.47,143.47,0,0,0-1.24,15.21c-.21,17.64,11.26,26,28.32,21v-10c-11.56-3.67-12.33-4.82-11.59-17.13a68.66,68.66,0,0,1,.58-7.62c1.81-10.39.69-19.65-9.94-25.35,8.86-5.6,11.36-10.5,10.59-20.14-.31-3.94-.93-7.86-1.19-11.81-.83-12.72-.44-13.25,11.42-17.4V248.28c-20.3-2.87-28.79,4.53-28.16,24.26.14,4.23.73,8.45,1.23,12.67,1.37,11.76,0,14.14-11.08,18.51Z"/><path class="cls-1" d="M719.53,308.39c-11-4.16-12.28-11.83-11.94-20.15.18-4.52,1-9,1.29-13.52.66-10.79-.73-12.6-11.65-15.31-.11-1.75-.27-3.66-.34-5.58-.06-1.69,0-3.38,0-5,17.81-4.77,28.85,3.43,28.64,21.1a128.47,128.47,0,0,1-1.19,14.38c-1.56,12.23-.13,14.89,11,19.41v9.12c-12.17,6.64-12.62,7.64-10.66,22a91.15,91.15,0,0,1,.84,10.16c.47,20-7.64,27-28.21,24v-9.9c12.37-5.63,12.39-5.63,11.32-20.33-.27-3.67-1-7.31-1.1-11C707.33,319.69,709.29,312.57,719.53,308.39Z"/><path class="cls-1" d="M55.78,313.4v-9.68c11.08-4.37,12.45-6.75,11.08-18.51-.5-4.22-1.09-8.44-1.23-12.67-.63-19.73,7.86-27.13,28.16-24.26V259c-11.86,4.15-12.25,4.68-11.42,17.4.26,4,.88,7.87,1.19,11.81.77,9.64-1.73,14.54-10.59,20.14,10.63,5.7,11.75,15,9.94,25.35a68.66,68.66,0,0,0-.58,7.62c-.74,12.31,0,13.46,11.59,17.13v10c-17.06,5.08-28.53-3.32-28.32-21a143.47,143.47,0,0,1,1.24-15.21C68.27,320.53,66.89,318,55.78,313.4Z"/></g><path class="cls-2" d="M497.2,331l-9.07,30.06H468.05l34.13-106.34h24.73L561.46,361.1H540.61L531,331Zm30.58-14.68-8.38-26.2c-2-6.59-3.8-13.82-5.41-20h-.35c-1.54,6.23-3.17,13.6-5.05,19.92l-8.21,26.27Z"/><path class="cls-2" d="M576.28,256.12A176.44,176.44,0,0,1,606,253.93c14.18,0,24.53,3,31.31,8.7,6.34,5.2,10.41,13.55,10.41,23.54s-3.15,18.38-9.06,24.09c-7.82,7.75-19.84,11.45-33.62,11.45a47.42,47.42,0,0,1-9.51-.75V361.1H576.28Zm19.28,49.57a38.45,38.45,0,0,0,9.52.89c14.52,0,23.38-7.23,23.38-19.7,0-11.72-8.2-18-21.65-18a55.76,55.76,0,0,0-11.25.93Z"/><path class="cls-2" d="M683.89,254.76V361.1H664.45V254.76Z"/><path class="cls-2" d="M116.09,361.3V304.12h-9.55V290.84h9.55v-3c0-9.13,2.45-18.31,8.55-24.1,5.22-4.95,12.26-6.8,18.44-6.8a34.73,34.73,0,0,1,11.31,1.75l-1.24,13.69a21.4,21.4,0,0,0-7.59-1.27c-8.82,0-11.77,7.41-11.77,16v3.68H149.2v13.28H133.92V361.3Z"/><path class="cls-2" d="M171.3,331c.47,12.77,10.35,18.35,21.76,18.35a53.57,53.57,0,0,0,19.44-3.26l2.64,12.26c-6,2.56-14.4,4.47-24.63,4.47-22.87,0-36.27-14.13-36.27-35.72,0-19.45,11.8-37.85,34.46-37.85,22.9,0,30.36,18.83,30.36,34.27a37.32,37.32,0,0,1-.63,7.48Zm31-12.42c.08-6.52-2.76-17.17-14.69-17.17-11,0-15.53,10-16.32,17.17Z"/><path class="cls-2" d="M253.79,270.66v20.18h17v13.28h-17v31.09c0,8.62,2.3,13,9.11,13a26.87,26.87,0,0,0,6.92-.77l.36,13.55a40,40,0,0,1-13,1.83c-6.55,0-12-2.23-15.32-5.81-3.82-4-5.57-10.53-5.57-19.76V304.12H226.28V290.84h10.05v-16Z"/><path class="cls-2" d="M335,359.18c-3.69,1.75-11,3.64-19.89,3.64-22.09,0-36.33-14.17-36.33-36,0-21.1,14.42-37.5,39.2-37.5a46.29,46.29,0,0,1,17.21,3.22l-3.16,13.39a30.21,30.21,0,0,0-13.48-2.75c-13.59,0-21.64,9.93-21.58,22.85,0,14.45,9.5,22.73,21.64,22.73a34.78,34.78,0,0,0,14-2.78Z"/><path class="cls-2" d="M348.36,258.54h17.83v41.91h.29a25.52,25.52,0,0,1,21-11.2c12,0,24.63,7.95,24.63,30.57V361.3H394.31V321.77c0-10.21-3.69-18-13.54-18-7,0-11.85,4.69-13.81,10a15.14,15.14,0,0,0-.77,5.37V361.3H348.36Z"/></svg>