<svg id="gris" xmlns="http://www.w3.org/2000/svg" viewBox="0 0 792 612"><defs><style>.cls-1{fill:#515151;}.cls-2{fill:#ececec;}</style></defs><title>Tema</title><g id="zarLu8"><path class="cls-1" d="M174.07,388.26c-10.71,7.17-20.44,14.26-30.78,20.3-4.44,2.6-10.09,3.86-15.3,4.24-12.45.9-21.11-5.48-24.89-17.46-4.44-14.08-2.61-28.21.38-42.21.87-4.06.55-5.76-3.84-7.1-11.88-3.62-23.29-8.45-32.83-16.78-15.31-13.38-14.88-30.32,1-43.14,9.41-7.59,20.3-12.23,31.65-16,1.41-.47,2.83-.92,4.82-1.57-.94-5.43-2.47-10.77-2.66-16.17-.33-9.14-1-18.53.61-27.43,3.31-18.36,17.61-25.85,35.42-19.74,11.64,4,21.25,11.24,30.34,19.26,1.62,1.43,3.2,2.9,4.38,4,8.29-6.09,15.87-12.52,24.29-17.57a55.38,55.38,0,0,1,19.05-7.09c13.69-2.25,23.31,4.46,27.36,17.8,4.24,13.94,2.24,27.86-.48,41.74-.32,1.61-.62,3.23-.92,4.81,7.16,2.84,14.22,5,20.7,8.36a88,88,0,0,1,18,11.71c13.59,11.94,13.31,27.92-.08,40.07-9.77,8.88-21.61,13.93-34,17.78-3.88,1.21-4.87,2.53-3.93,6.64,2.92,12.79,4.46,25.74,1.59,38.82-3.82,17.42-17.33,25.27-34.4,19.91-12.29-3.85-22.23-11.49-31.76-19.78C176.34,390.35,174.88,389,174.07,388.26Zm.84-41.76c4.12-.21,10-.24,15.82-1a9,9,0,0,0,5.87-3.45q9.19-15,17.59-30.44a8.36,8.36,0,0,0,.12-6.82c-5.57-10.3-11.42-20.47-17.57-30.43a9,9,0,0,0-6.27-3.77c-10.88-.44-21.78-.21-32.67-.41-4.72-.09-7.78,1.82-10,6-2.42,4.58-5.43,8.84-8,13.33-10.66,18.31-10.64,18.32-.35,36.64.17.29.34.58.52.86C154.68,350,145.5,345,174.91,346.5Zm64.54-7.8c9.19-4.21,18.41-8,27.15-12.65,4-2.12,7.51-5.63,10.44-9.17,4.65-5.62,4.69-11.83.09-17.47-9.88-12.14-24-16.59-38.06-20.93-3.78,9.53-7.35,18.34-10.71,27.22a7.33,7.33,0,0,0-.07,4.74C231.66,319.33,235.25,328.14,239.45,338.7Zm-59,41.55c10,9.27,20,18.25,33.55,22,8.9,2.46,15.62-.21,18.64-8.06,5.63-14.64,2.34-29.11-.9-43.45-10.3,1.42-19.89,2.65-29.44,4.15a7.34,7.34,0,0,0-3.89,2.73C192.47,364.87,186.72,372.26,180.41,380.25Zm-73.54-42.43c3.88-9.65,7.53-18.61,11-27.62a5.82,5.82,0,0,0,.08-3.84c-3.53-9.16-7.22-18.27-10.87-27.4-8.55.75-29.13,10-36.27,17.86s-7,16.2,1.21,23.72C81.91,329.58,94.11,334,106.87,337.82Zm59.2-102.39c-7.34-5.45-14.23-11.33-21.87-16a49.74,49.74,0,0,0-16.31-5.88c-7-1.33-12.12,2-14.58,8.72-5.38,14.68-2.21,29.14,1,43.36,9.32-1.35,17.92-2.47,26.48-3.92,2.29-.39,5.12-1.18,6.5-2.8C153.52,251.67,159.26,244.06,166.07,235.43Zm-51.7,115.31c-3.2,12.53-5.31,25-2.79,37.74,2.22,11.19,8.27,16.13,18,14.25,14.92-2.88,25.61-12.71,36-22.51-6.29-8-12-15.34-17.95-22.61a7.32,7.32,0,0,0-3.88-2.73C134.22,353.38,124.63,352.15,114.37,350.74Zm117.37-85.07c2.92-12.5,5.43-25.14,2.67-38s-10.47-17.19-23-12.85c-12.27,4.23-21.91,12.44-30.85,21.31,6.27,8,12.2,15.65,18.33,23.15a7.25,7.25,0,0,0,4.25,2.11C212.46,262.88,221.86,264.21,231.74,265.67ZM116.88,340.62l21.45,3.63c-4.94-8.57-9.19-15.92-13.94-24.15C121.74,327.33,119.46,333.57,116.88,340.62Zm104.74-20.57c-4.75,8.3-9,15.73-13.94,24.32l21.48-3.84Zm0-23.89,7.49-20.52L207.62,272C212.48,280.34,216.78,287.78,221.64,296.16Zm-104.82-20.5c2.64,7.09,5,13.33,7.62,20.52l13.95-24.27ZM173,243.35c-4.72,5.71-8.89,10.75-13.43,16.26h27Zm13.7,113.11H159.25l13.83,16.42Z"/><path class="cls-2" d="M521.94,310c.45-16.43,4.61-30.47,18.07-39.85,24.47-17,56.38-2.81,61.18,27.08,1.76,11,1,21.78-3.17,32.11a38.72,38.72,0,0,1-41.25,23.9c-18.27-2.42-31.26-15.61-34-34.55C522.37,315.54,522.17,312.36,521.94,310Zm11.11-2c2.08,7.4,3.09,14.7,6.12,21,8.91,18.65,33.4,20.44,44,3.09,9.5-15.52,9.54-32.08,0-47.65C573,267.63,549.1,268.56,540,286.15,536.56,292.8,535.33,300.6,533.05,308Z"/><path class="cls-2" d="M431.72,309.13c1.8-7.42,2.72-15.19,5.59-22.17a38,38,0,0,1,40.86-23.54c17.92,2.39,30.52,14.83,33.59,33.08,2,11.68,1.25,23.12-3.57,34a38.69,38.69,0,0,1-40,22.85c-17.19-1.82-30.18-13.6-33.92-31-.91-4.24-1.21-8.6-1.79-12.91Zm13.41-.8-1.36.42c2.23,7.26,3.43,15.07,6.89,21.69,9,17.17,31.53,18.22,42.83,2.55,9.77-13.56,9.35-37.52-.9-50.67a25,25,0,0,0-39.93.41C447,290.32,445.24,299.09,445.13,308.33Z"/><path class="cls-2" d="M354,264.94h10.81v35.7h41.62V265h11.31v86.6h-10.9V311.53H365V351.7H354Z"/><path class="cls-2" d="M675,265.2c-9.49,11.14-18.36,21.8-27.54,32.18-2.78,3.15-3.13,5.28-.58,8.89,9.46,13.42,18.51,27.12,27.69,40.72.9,1.34,1.68,2.76,2.57,4.24-10.27,2.38-12.31,1.59-17.67-6.42-7.73-11.55-15.49-23.07-23.73-35.35-3.92,4.83-8.93,7.9-8.39,15.19.65,8.8.16,17.69.16,27h-11V265h10.86v41.32l20.22-25.06c2.42-3,4.83-6,7.27-9C662,263.55,662.28,263.45,675,265.2Z"/><path class="cls-2" d="M728.78,275.6c-6.65-1-12.53-2.45-18.44-2.56-7.81-.16-13.17,4.08-14.45,10-1.38,6.38,1.35,11.71,8.46,15.43,5,2.63,10.45,4.52,15.52,7.1,13.2,6.75,18.39,18,13.9,30.7C729.65,348,720,352.64,708.69,353.12c-7,.3-14.2-1.54-21.25-2.71-4.59-.76-6.15-3.44-3.87-7.86a23.43,23.43,0,0,0,1.16-3.22c6.35,1.5,12.37,3.37,18.54,4.2a23.67,23.67,0,0,0,10.81-1.38,13.9,13.9,0,0,0,4.13-24c-3.17-2.6-7.23-4.1-10.92-6.05-4.87-2.57-10.12-4.58-14.57-7.74-7.16-5.06-10-12.46-8.55-21.17,1.55-9.12,7.31-14.91,15.77-18s17.14-2.62,25.71-.18c6.12,1.75,6.21,2.07,4.18,7.89C729.45,274,729,275.06,728.78,275.6Z"/><path class="cls-1" d="M193.91,308.19a20.91,20.91,0,1,1-41.81-.11,20.91,20.91,0,1,1,41.81.11Z"/></g></svg>