<svg id="gris" xmlns="http://www.w3.org/2000/svg" viewBox="0 0 792 612"><defs><style>.cls-1{fill:#515151;}</style></defs><title>Tema</title><g id="H0oDTJ"><path class="cls-1" d="M616.89,322.29c0-14.08,4.58-26.12,16.39-34.5,14.09-10,36.91-9.6,48.91,3.5,2.48,2.71,2.53,3.72,0,6.37a29.39,29.39,0,0,1-2.3,2.17c-3,2.42-3.57,2.35-6.16-.52-9.6-10.62-30.06-8.57-38.25,3.85-8.07,12.22-7.48,30.27,2.44,41,8.8,9.52,23.91,11.45,34.76,1.68.87-.78,1.66-1.62,2.48-2.45a2.1,2.1,0,0,1,3.32,0c1.67,1.62,3.31,3.26,5,4.88,1.35,1.3.73,2.51-.2,3.62-4.24,5.06-9.44,8.79-15.88,10.35-8.79,2.11-17.64,2.13-26.11-1.26-12.1-4.83-19.53-13.91-22.93-26.43A38.24,38.24,0,0,1,616.89,322.29Z"/><path class="cls-1" d="M703.75,321.7c0-7.92-.09-15.83,0-23.74.05-2.9-1-4-3.88-3.85-2.2.16-4.43,0-6.64,0a2.47,2.47,0,0,1-2.78-2.71c0-.53,0-1,0-1.58-.09-7-.09-7,6.93-6.74.42,0,.85,0,1.27-.06,5.09-.43,5.09-.43,5.1-5.63,0-4.12,0-8.23,0-12.35,0-2.25,1-3.29,3.26-3.24s4.44.06,6.65,0c2.45-.08,3.4,1.11,3.37,3.47q-.07,7,0,13.93c0,3.25,1,4.26,4.22,3.8,2.87-.4,5.69.13,8.53-.06a2.17,2.17,0,0,1,1.23.14c3.21,2.11,1.49,5.34,1.72,8.1.17,2.06-1.16,3-3.22,3-3.16,0-6.33.05-9.49,0-2.16,0-3,.93-3,3.06,0,15.72-.08,31.44.09,47.16.07,6.24,5.72,9.35,11.57,6.64,2.09-1,3.93-2.76,5.5.81,2.37,5.38,2.32,7.43-1.17,9.21a23.72,23.72,0,0,1-11.29,2.71c-11.49-.24-17.68-6.44-17.93-18-.17-8,0-16,0-24.05Z"/><path class="cls-1" d="M310.65,298.65c-4.25-9.38-12-15.44-20.5-20.46a118.24,118.24,0,0,0-27.56-11.89c-1.69-.48-3.31-1.06-2.79-3.4a139.72,139.72,0,0,0,3.2-23.48c.6-11.83-.08-23.35-6.21-34a23.53,23.53,0,0,0-23.67-11.79c-9.65,1.28-18.16,5.31-26.33,10.26A121.71,121.71,0,0,0,188,218.33c-3.55,3.24-3.88,3.32-7.05.46a120.66,120.66,0,0,0-19.09-14.53c-9.78-5.78-19.79-10.73-31.7-10.35a21.64,21.64,0,0,0-17.12,8.7c-6,7.65-7.36,16.93-8,26.24-.76,11,1.19,21.87,3.39,32.63.54,2.6-.17,4-2.73,4.68-2.74.77-5.42,1.75-8.09,2.74C83.32,274.23,70.06,281,60.33,293.42c-5.9,7.52-6.33,19.75-2,26.49a58.45,58.45,0,0,0,16.77,17,112.68,112.68,0,0,0,30,14c2.9.88,3.74,2.26,3.13,5.32-1.74,8.79-3.67,17.58-3.28,27.2-.53,6.71.82,13.76,2.82,20.67a26.4,26.4,0,0,0,14.11,17c5.39,2.65,11.1,2.22,16.74,1.29,8.25-1.37,15.64-5,22.78-9.19,7.78-4.53,14.68-10.27,21.43-16.17,1.39-1.21,2.4-1.34,3.77,0,2,2,4.14,3.91,6.35,5.7,12.18,9.84,25,18.41,41.1,20.35a21.91,21.91,0,0,0,13.68-2.81c8.62-4.87,12.47-13,14.25-22.18,2.53-13,1.82-26-.67-39-1.47-7.62-1.47-7.59,5.83-10.13,14.62-5.07,28.15-11.89,38.81-23.56C312.76,318,314.76,307.72,310.65,298.65ZM194.41,228.48c10.73-9.64,21.9-18.6,36.26-22.31,9.23-2.39,14.22.19,17.68,9a31.81,31.81,0,0,1,2,6.32c.73,4.36,1.35,8.77,1,12.29a108,108,0,0,1-2.74,24.46c-.6,2.81-1.71,3.81-4.79,3.25-8.91-1.63-17.81-3.41-26.85-4.21a7,7,0,0,1-5.4-3.47c-4.87-7.57-10.92-14.2-16.79-21C193.61,231.44,192.62,230.08,194.41,228.48ZM124.53,341c1.69-5.33,3.79-10.5,5.88-15.68.24-.57.43-1.27,1.15-1.37,1-.13,1.13.78,1.48,1.38,3.85,6.53,7.31,13.29,11.54,19.59.35.51.83,1,.44,1.71s-1.09.44-2.1.32c-5.12-.75-10.65-1.53-16.15-2.4C124.78,344.19,123.82,343.16,124.53,341Zm1.7-68.07c5.37-.95,10.76-1.84,15.68-2.68,2.51-.18,3,.72,2,2.42q-5.56,9.72-11.16,19.42c-.85,1.47-1.71,1.06-2.2-.23-2.07-5.4-4.07-10.82-6.07-16.25C123.9,274,124.77,273.14,126.23,272.88Zm18.69,49.24c-2.17-3.87-4.29-7.76-6.07-11.83a3.87,3.87,0,0,1-.11-3.58,268.69,268.69,0,0,1,20.81-36.18,5.61,5.61,0,0,1,4.51-2.44c6.74-.69,13.48-.54,22.6-.58,4.39-.07,11.13,0,17.87.59a5.59,5.59,0,0,1,4.4,2.63c4.93,7,9.14,14.43,13.4,21.84,2.46,4.3,4.6,8.79,7,13.15a4.93,4.93,0,0,1,.12,5.07,365.32,365.32,0,0,1-20.31,35,5.76,5.76,0,0,1-4.93,2.84c-9.28.35-18.55.89-27.83.6-4.32-.14-8.63-.47-13-.65a4.51,4.51,0,0,1-3.59-2.24C154.19,338.68,149.57,330.39,144.92,322.12Zm79.2,22.56c3.74-6.6,7.44-13.22,11.18-19.81.4-.71.8-1.65,1.82-1.49.86.13.94,1.05,1.2,1.72,1.91,4.91,3.74,9.85,5.74,14.71,1,2.4.67,3.76-2.13,4.19-5.51.84-11,1.8-16.51,2.71C223.72,346.8,223.23,346.25,224.12,344.68Zm19.7-68.27c-1.91,5-3.79,10-5.75,15-.84,2.16-2.07,2-3,.1-3.14-6.43-7.05-12.42-10.54-18.65-.91-1.63-1-2.88,1.76-2.69,5,.89,10.28,1.79,15.54,2.78C243.76,273.32,244.56,274.46,243.82,276.41Zm-61.57-35.75c1.31-1.6,2.58-1.51,3.91,0,3.58,4.14,7.22,8.22,10.4,12.7,1.29,1.82.47,2.12-1.2,2.12H173.54c-2.25,0-2.7-.93-1.32-2.65C175.53,248.76,178.9,244.72,182.25,240.66Zm-64-21.55a21.69,21.69,0,0,1,3.67-8.68c2.42-3.37,5.81-4.75,10.75-4.78,7.22.39,14.47,3.56,21.31,7.64a107.86,107.86,0,0,1,19.89,15.08c1.13,1.1,2.08,2,.53,3.64-6.69,7.06-12.56,14.79-18.45,22.5a6.47,6.47,0,0,1-4.74,2.77c-9.14.92-18.18,2.5-27.19,4.24-2.33.45-3.59-.13-4.11-2.53C117.05,245.79,115.7,232.53,118.27,219.11Zm-4.6,117.51c-1.28,4.05-1.6,4-5.7,2.79a96.32,96.32,0,0,1-25.46-11.77C77.14,324.1,72.19,320,68.9,314.22a13.06,13.06,0,0,1-1.91-7c.81-5.3,4.52-9.61,9-13.25,9.79-8,21.25-12.78,33.21-16.51,2.46-.76,3.78,0,4.49,2.45a215.93,215.93,0,0,0,10.17,26.56,4.5,4.5,0,0,1,0,3.94A253.34,253.34,0,0,0,113.67,336.62Zm61,51.65c-10.65,10-22.31,18.33-36.66,22.18a26,26,0,0,1-5,.38c-7.91.7-11.34-3.57-13.44-9.1C117,395,116.62,388,116.83,380.91A118.06,118.06,0,0,1,119.55,359c.83-3.79,1-3.79,4.85-3.19,8.21,1.3,16.36,3.05,24.68,3.62,3.53.24,6.3,1.38,8.49,4.51A221.31,221.31,0,0,0,174.65,385C175.71,386.19,175.79,387.19,174.63,388.27Zm12.08-12.35c-1.29,1.63-2.32,1.78-3.83.3-3.94-3.84-7.14-8.3-10.64-12.49-1.41-1.68-.81-2.42,1.19-2.43h11.06c3.69,0,7.37,0,11.06,0,.71,0,1.61-.12,1.9.76.22.66-.39,1.13-.79,1.62C193.33,367.76,190,371.79,186.71,375.92Zm62.6,23.95c-4.22,11-8.78,13.24-20.81,10-11.12-3-20.31-9.66-28.95-17.07-1.6-1.37-3.22-2.72-4.75-4.17a2.52,2.52,0,0,1-.1-3.91,236.19,236.19,0,0,0,17.72-22.65,6.09,6.09,0,0,1,4.56-2.55c9.43-1.07,18.83-2.37,28.12-4.29,2.45-.5,3.48.48,4,2.75a133.55,133.55,0,0,1,3,23.72C251.75,387.92,251.53,394.08,249.31,399.87Zm42.58-77.13c-9.61,7.82-20.85,12.63-32.46,16.64-1.95.67-3.28.09-3.89-2-2.77-9.44-7.09-18.27-10.85-27.31a5,5,0,0,1,.1-4.22c3.65-8.63,7.45-17.22,10.2-26.21.66-2.16,1.84-2.85,4-2.15,14.06,4.54,27.49,10.16,37.89,21.25a13.46,13.46,0,0,1,3.9,9.37C300.87,314.86,296.48,319,291.89,322.74Z"/><path class="cls-1" d="M404.58,321.57c-2.41-3.62-2.42-3.64,1.69-4.7,12-3.1,19.6-10.76,22.71-22.68a36,36,0,0,0,.21-15.7,29.7,29.7,0,0,0-9.37-16.86c-7-6.41-15.63-8.53-24.83-8.62-12.67-.12-25.34,0-38,0-4.73,0-4.92.2-4.93,5.07v49.41c0,15.2,0,30.41,0,45.61,0,9.82-1.35,8.81,9.07,8.81,4.36,0,4.88-.61,4.88-5,0-11.51.05-23,0-34.53,0-2.55.86-3.65,3.5-3.58,4.54.13,9.08.16,13.62,0a6.07,6.07,0,0,1,6,3.2c6.63,10.66,13.23,21.35,20.16,31.81,6.41,9.68,3.29,8,15,8.08,1.73,0,4.07.74,5-1s-.91-3.52-1.91-5Q416,338.66,404.58,321.57Zm-30.81-15.15c-.42,0-.84,0-1.26,0-6.48.33-6.48.33-6.48-6.26q0-7.12,0-14.24c0-5.7,0-11.4,0-17.1,0-1.79.38-3.2,2.56-3.14,9.9.25,19.84-.83,29.71.62a19.24,19.24,0,0,1,16.61,20.82c-.62,9.64-7.82,17.92-17.56,19C389.51,306.93,381.64,306.65,373.77,306.42Z"/><path class="cls-1" d="M506.26,292.28c-9.11-9.81-20.77-13-33.77-10.7-14.58,2.54-24.14,11.28-29.38,25a43.89,43.89,0,0,0-2.22,23.35c1.85,10.9,6.62,20.07,16,26.58,9.61,6.66,20.17,7.85,31.4,6.46a38.74,38.74,0,0,0,18.84-7.64c6.19-4.68,5.19-3.67,1.46-8.86-2.37-3.29-2.54-3.42-6-1a37.64,37.64,0,0,1-21.15,7.19c-13.4.53-24.52-9.77-26.93-21.79-.75-3.76-.39-4.36,3.38-4.37,9.18,0,18.37,0,27.55,0h27.87c1.83,0,3.4-.16,3.47-2.58C517.16,312.05,514.45,301.09,506.26,292.28Zm-5.66,24.65c-7.28-.08-14.56,0-21.84,0-7.07,0-14.14-.06-21.21,0-2.87,0-3.73-1-3.16-3.85,4-19.65,23.07-26.6,38.35-17.6,6.6,3.88,9.76,10.28,11.28,17.56C504.57,315.71,503.41,317,500.6,316.93Z"/><path class="cls-1" d="M597.28,303.28c-1.14-8.67-5.28-15.57-13.5-18.88-15.56-6.27-30.37-4.49-43.94,5.63-4.61,3.44-4.71,4.82-1.21,9.53,2.31,3.1,3.29,3.27,6,.63,6.5-6.35,14.43-8.57,23.23-7.81,6.43.56,12.29,2.53,15.17,9.1,2.47,5.63,1.49,11.63,1.47,17.5,0,1.53-1.06.81-1.72.24-5.38-4.7-11.89-6.74-18.76-7.68-9.76-1.33-19,.93-25.65,8-7.41,7.86-9.54,19.33-3.39,30.89,4.89,9.18,16.57,13.77,26.64,13.11,7.68-.5,14.66-2.84,20.61-7.88,1.39-1.17,2.15-1,2.39,1,.62,5.25.67,5.25,6,5.25,1,0,1.9,0,2.85,0,3.73-.08,4.4-.71,4.42-4.51,0-8,0-16,0-25.92C597.54,323.31,598.6,313.27,597.28,303.28Zm-24.62,49.38c-8.43,2.32-16.71,2.56-23.56-4.35-7.25-7.33-5.13-20.56,4.18-25,9.73-4.62,18.88-2.6,27.58,3,4.33,2.76,3.93,7.09,3.71,11C586,347.33,579.32,350.82,572.66,352.66Z"/><path class="cls-1" d="M207.62,308.21c0,12.91-10.84,23.36-24.13,23.29-12.44-.08-22.82-10.88-22.75-23.66a23.44,23.44,0,0,1,46.88.37Z"/></g></svg>