<svg id="gris" xmlns="http://www.w3.org/2000/svg" viewBox="0 0 792 612"><defs><style>.cls-1{fill:#515151;}.cls-2{fill:#ececec;}</style></defs><title>Tema</title><path class="cls-1" d="M322.69,287.36a32.1,32.1,0,1,1,32.11-31.84A32.1,32.1,0,0,1,322.69,287.36Z"/><path class="cls-1" d="M214.48,319.11a32.11,32.11,0,0,1,32.91-31.5c17.46.3,31.48,14.94,31.27,32.66a32.11,32.11,0,0,1-32.92,31.5C228.28,351.47,214.27,336.83,214.48,319.11Z"/><path class="cls-1" d="M537.33,287.6a32.09,32.09,0,1,1-32,32A32.11,32.11,0,0,1,537.33,287.6Z"/><path class="cls-1" d="M94.75,432.45c10.52,5.86,12.37,17.06,18.66,26.67-7.28,0-13.65.13-20-.13-1-.05-2.13-1.77-2.79-2.95-3.12-5.51-6-11.13-9.14-16.65-1.8-3.17-4.33-5.25-8.71-4.32v23.68H54.37V398.88c7,0,13.92-.08,20.85,0,6.33.1,12.7,0,19,.76,8.2,1,12.81,5.73,13.71,12.83q1.71,13.46-9.83,18.63C97.18,431.53,96.26,431.85,94.75,432.45Zm-21.9-8.72c4.61-.46,8.77-.32,12.52-1.5,1.81-.56,4-3.67,3.88-5.52s-2.55-4.73-4.4-5.12c-3.8-.81-7.89-.24-12-.24Z"/><path class="cls-1" d="M119.19,459V399.31h49.59v12.05H138.1v10h28.23v12.2H137.94v12h31.58V459Z"/><path class="cls-1" d="M237.94,459H219.32a4.15,4.15,0,0,1-.81-1.06c-3-8.65-3-8.66-12.07-8.66H205c-10.15,0-10.15,0-13.68,9.87H173c.49-1.64.79-3,1.27-4.23,6.48-17.3,13.08-34.55,19.39-51.91,1.2-3.33,2.83-4.61,6.25-4.19a53.43,53.43,0,0,0,6.33,0c9.32,0,9.33,0,12.52,8.49q8.82,23.43,17.61,46.87C236.9,455.72,237.34,457.23,237.94,459Zm-39.33-23.27h13.2l-6.67-21.37Z"/><path class="cls-1" d="M293.72,416.55l-15.56,3.53c-2.29-4.69-5.49-8.38-11.27-8.37a11.22,11.22,0,0,0-11.49,9.91,64.58,64.58,0,0,0-.11,14.51c.59,6.17,4,9.45,9.38,10.14,5.87.76,10.07-1.86,12.5-7.79.42-1,.83-2.08,1.46-3.67l15.81,4.74c-2.45,10-7.65,16.77-17.4,19.5-14.25,4-28.5-.18-35.54-10.36-9.34-13.48-6.56-36.22,5.53-45.21,14.87-11.06,39-5.92,45.66,9.74C293.06,414.08,293.26,415,293.72,416.55Z"/><path class="cls-1" d="M350.85,399.12V413.4H332.34v45.47H313.67V413.74H294.84V399.12Z"/><path class="cls-2" d="M554.15,420.75c0,4.72,0,9.43,0,14.15-.13,14-7.86,23.11-21.66,25a48.19,48.19,0,0,1-20.33-1.21c-8.07-2.36-12.78-8-14.85-16-2.61-10.09-1.66-20.39-1.63-30.6,0-15.42-2.26-13.1,13.43-13.46,4.38-.1,6.14,1.32,6,5.86-.23,10.08-.1,20.17,0,30.26,0,7.22,2.85,10.57,9,10.83,7.25.31,11-2.72,11.35-10.26.42-9.41.17-18.86.19-28.3,0-8.33,0-8.34,8.3-8.33,11.18,0,10.22-.87,10.26,10.28C554.16,412.94,554.15,416.84,554.15,420.75Z"/><path class="cls-2" d="M459.29,397.79c-19.75,0-31.07,11.44-31.07,31.34s11.5,31.15,31.8,31.15c19.83,0,30.72-11.15,30.7-31.41C490.71,408.35,480,397.77,459.29,397.79Zm12.08,39.26c-1.51,5.7-5.38,9.05-10.95,9.35a12.36,12.36,0,0,1-12.18-8.62,27.46,27.46,0,0,1-.24-16.73c1.72-5.76,6.16-9.47,11.5-9.45,6,0,10.21,3.43,11.9,9.55a26.65,26.65,0,0,1,.74,7.7A29.46,29.46,0,0,1,471.37,437.05Z"/><path class="cls-2" d="M410.87,432.45c10.52,5.86,12.37,17.06,18.66,26.67-7.28,0-13.65.13-20-.13-1-.05-2.12-1.77-2.78-2.95-3.12-5.51-6-11.13-9.14-16.65-1.8-3.17-4.33-5.25-8.71-4.32v23.68h-18.4V398.88c7,0,13.91-.08,20.85,0,6.32.1,12.7,0,19,.76,8.19,1,12.8,5.73,13.71,12.83q1.71,13.46-9.83,18.63C413.29,431.53,412.38,431.85,410.87,432.45ZM389,423.73c4.62-.46,8.78-.32,12.53-1.5,1.8-.56,4-3.67,3.88-5.52s-2.55-4.73-4.41-5.12c-3.79-.81-7.88-.24-12-.24Z"/><path class="cls-2" d="M715.48,432.45c10.52,5.86,12.36,17.06,18.65,26.67-7.27,0-13.64.13-20-.13-1-.05-2.12-1.77-2.78-2.95-3.12-5.51-6-11.13-9.15-16.65-1.79-3.17-4.33-5.25-8.7-4.32v23.68H675.1V398.88c7,0,13.91-.08,20.84,0,6.33.1,12.71,0,19,.76,8.2,1,12.81,5.73,13.71,12.83q1.71,13.46-9.83,18.63C717.9,431.53,717,431.85,715.48,432.45Zm-21.91-8.72c4.61-.46,8.78-.32,12.53-1.5,1.8-.56,4-3.67,3.88-5.52s-2.56-4.73-4.41-5.12c-3.8-.81-7.89-.24-12-.24Z"/><path class="cls-2" d="M613.7,399.12V413.4H595.19v45.47H576.52V413.74H557.69V399.12Z"/><path class="cls-2" d="M618.91,459V399.31H668.5v12.05H637.81v10h28.24v12.2H637.66v12h31.58V459Z"/><path class="cls-2" d="M397.91,158.05c3.46,1.83,7.43,2.27,10.86,4.28,9.83,5.73,15.09,14.54,17.4,25.34,1.18,5.57,1.92,11.23,3.14,16.78,1.66,7.56,6.52,12.09,14,14,7.76,2,15.81,1.73,23.66,3.09,13.51,2.34,24.32,8.42,29.48,21.82,7.22,18.75-4,38.46-24.49,43.24a79.19,79.19,0,0,1-17.86,2.31c-15.34.07-22.63,6.22-25.35,21.43-1.68,9.34-3.33,18.56-8.85,26.61A33.3,33.3,0,0,1,378.7,348.1c-14.41-6.78-22-22.57-17.73-37.21,3.78-13,13-20.17,25.54-23.82,6.93-2,14.13-2.28,21.22-2.84,19.26-1.54,23.12-12.84,23.08-31.15,0-2.57-.8-5.14-1.3-7.69-2.84-14.55-10-20.75-24.86-20.87A68.13,68.13,0,0,1,383.1,221c-14.52-4.93-23.45-17-23.25-31.44.19-13.7,9.52-25.53,23.7-30.09,1.23-.39,2.42-.91,3.63-1.38Z"/></svg>