<svg id="gris" xmlns="http://www.w3.org/2000/svg" viewBox="0 0 792 612"><defs><style>.cls-1{fill:#515151;}.cls-2{fill:#595959;}.cls-3{fill:#6d6d6d;}.cls-4{fill:#fbfbfb;}</style></defs><title>Tema</title><g id="h49rNC.tif"><path class="cls-1" d="M595.43,76.84c-1.59-.08-3.18-.07-4.77-.07H198.36c-1.59,0-3.18,0-4.77.07a3.7,3.7,0,0,0-3,1.32v2.25c.39.48.26,1.06.28,1.61.25,8.4.67,16.78,1.11,25.16.46,8.87,1.57,17.69,2.26,26.55.77,9.78,1.76,19.55,2.59,29.33.76,9.14,1.69,18.25,2.45,27.39.82,9.78,1.78,19.55,2.6,29.33.77,9.23,1.71,18.44,2.47,27.67.8,9.59,1.74,19.18,2.55,28.78.78,9.31,1.73,18.62,2.51,27.94.79,9.59,1.73,19.18,2.54,28.78.78,9.22,1.73,18.43,2.49,27.66.79,9.59,1.72,19.18,2.54,28.78s1.7,19,2.54,28.5q1.5,17,3,34.09c1.06,11.92,2,23.85,3.24,35.75.92,8.65-.37,7.44,7.93,9.74,34.63,9.6,69.22,19.38,103.93,28.71,18.51,5,36.64,11.46,55.72,14.24h1.68c8.91-.89,17.4-3.56,26-5.93q48.57-13.44,97.13-26.89c13.62-3.76,27.23-7.58,40.85-11.33,2.37-.65,3.54-1.82,3.79-4.41.45-4.66.81-9.32,1.25-14q1.37-14.52,2.6-29.05c.8-9.22,1.67-18.44,2.47-27.66.83-9.68,1.72-19.37,2.59-29.05.85-9.5,1.73-19,2.56-28.49.79-9,1.69-18.06,2.44-27.1.83-9.87,1.79-19.74,2.62-29.61.76-9,1.69-18.06,2.43-27.1.79-9.69,1.73-19.37,2.55-29.06,1-11.55,2.1-23.09,3.1-34.64.81-9.4,1.7-18.81,2.51-28.21s1.7-19,2.55-28.5c.86-9.68,1.83-19.36,2.59-29s1.91-19.14,2.23-28.77c.22-6.51.29-13,1.1-19.51V78.16A3.7,3.7,0,0,0,595.43,76.84Z"/><path class="cls-2" d="M394.36,212.81c16.28-.25,32.57-.08,48.85-.11q33.14,0,66.27,0c5.9,0,6.75-.93,7.26-6.7,1-11.08,1.92-22.17,3.12-33.24.75-6.94.06-7.82-7-7.82H402c-2.52,0-5,0-7.58-.12"/><path class="cls-2" d="M395.07,399l-.57-.17q0-38.56,0-77.14a9.14,9.14,0,0,0-.55-4.14l.56-.16c1-1.23,2.43-1.29,3.84-1.29,18.43-.05,36.85-.08,55.28,0,4,0,4.56.62,4.55,4.62,0,5.52-.85,11-1.31,16.48-1,11.83-2.19,23.64-3.18,35.46-.27,3.16-.42,6.34-1,9.48a4.19,4.19,0,0,1-3.32,3.65c-8.81,2.53-17.7,4.75-26.54,7.19-7.3,2-14.63,3.92-22,5.86C399,399.33,397,400.58,395.07,399Z"/><path class="cls-3" d="M557.06,112.43q-79.47,0-158.93,0c-3.41,0-3.61.22-3.61,3.72q0,21.06,0,42.12a12.32,12.32,0,0,1-.25,3.53l-1.14,59.88c0,.69,0,1.38,0,2.06,0,12.53,0,25.06,0,37.59,0,.56,0,1.13,0,1.7V459.68h1.37q0,21,0,42c0,3.19.14,3.3,3.15,2.47q25.29-7,50.57-14.06,39.21-11,78.39-21.94a3.32,3.32,0,0,0,2.82-3.27c.86-9.77,1.78-19.53,2.67-29.29q1.25-13.68,2.46-27.35,1.3-14.37,2.6-28.74c.64-7.25,1.24-14.51,1.89-21.77.85-9.39,1.75-18.78,2.6-28.17.65-7.26,1.24-14.52,1.89-21.77.85-9.58,1.74-19.16,2.6-28.74q1.23-13.68,2.43-27.35,1.3-14.5,2.63-29c.65-7.26,1.26-14.52,1.92-21.77.84-9.21,1.74-18.41,2.56-27.62.84-9.39,1.59-18.79,2.43-28.19.85-9.58,1.8-19.15,2.6-28.74C561,112.84,560.54,112.43,557.06,112.43Z"/></g><g id="PZdg4S.tif"><path class="cls-4" d="M410.38,306.83,391,289.31l56.54-55.67,56.08,55.91-16.38,17.06-7.92-6.75q-6.35-5.43-12.69-10.84a4.44,4.44,0,0,0-1.64-.94c-.83-.21-1.52.05-1.48,1.14,0,.58,0,1.17,0,1.75q0,53.5,0,107c0,14.72-5.42,26.94-17,36.18a42.43,42.43,0,0,1-27,9.45q-25.92.08-51.83,0c-21.93-.08-40.84-16.89-43.24-38.7-.67-6.08-.3-12.27-.43-18.42,0-1.43,1-1.19,1.82-1.19h20.91c4.22,0,8.43.06,12.65,0,1.52,0,2,.37,2,2a115.48,115.48,0,0,0,.3,12.63,24.55,24.55,0,0,0,23.16,21.62c7.49.26,15,.27,22.48,0,13.55-.42,23.92-11.3,24-25.11.09-20.91,0-41.82,0-62.73q0-21.71,0-43.41a10,10,0,0,0-.53-2.22c-1,.28-2.31.24-3,.88-5.29,5.15-10.46,10.42-15.64,15.67C411.58,305.22,411.08,306,410.38,306.83Z"/><path class="cls-4" d="M466,220.44h-1.68c-11.19,0-22.37,0-33.56,0-1.54,0-2-.41-2-2a100.28,100.28,0,0,0-.38-13.33c-1.59-11.83-12.16-20.86-24.13-21q-10.36-.09-20.74,0c-13.31.11-24.55,11.1-24.6,24.39-.11,35.85-.06,71.7-.07,107.55,0,.46.07.91.11,1.41a3.44,3.44,0,0,0,3.82-1c5.2-5.32,10.48-10.56,15.72-15.85a16.32,16.32,0,0,0,1.36-1.84l19.4,17.56-56.59,55.68-56-56,16.34-17c1.73,1.47,3.33,2.82,4.92,4.19,5.2,4.46,10.38,8.94,15.63,13.35a15.74,15.74,0,0,0,3.13,1.53c.07-1.46.14-2.32.14-3.17q0-53.87-.07-107.73c0-12.3,4-23,12.56-31.8a42.23,42.23,0,0,1,30.58-13.36c17.69-.25,35.39-.3,53.07,0A43.75,43.75,0,0,1,465.88,201C466.63,207.32,466,213.76,466,220.44Z"/></g></svg>