<svg id="gris" xmlns="http://www.w3.org/2000/svg" viewBox="0 0 792 612"><defs><style>.cls-1{fill:#515151;}.cls-2{fill:#6d6d6d;}.cls-3{fill:#fbfbfb;}.cls-4{fill:#ececec;}.cls-5{fill:#848484;}</style></defs><title>Tema</title><g id="sD2HZw.tif"><path class="cls-1" d="M186.91,79.84V77.1a2.4,2.4,0,0,1,2-.82c1,0,1.94,0,2.91,0H593c1.08,0,2.17,0,3.25,0,1.25,0,1.91.55,1.82,1.89-.28,4.19-.28,8.39-.66,12.57-.54,5.79-1,11.59-1.56,17.38-.68,7.22-1.29,14.44-1.94,21.65q-.95,10.49-1.86,21c-.63,7.16-1.29,14.32-1.92,21.48-.6,6.93-1.23,13.86-1.85,20.8q-.94,10.65-1.91,21.3c-.64,7-1.22,14-1.86,21s-1.24,14.1-1.9,21.14-1.21,13.87-1.85,20.8q-1,10.74-1.92,21.48c-.61,7.16-1.31,14.31-1.89,21.48-.45,5.51-1,11-1.5,16.53-.6,7.22-1.32,14.43-1.92,21.65-.46,5.57-1,11.14-1.5,16.71-.61,7.22-1.32,14.43-1.92,21.65-.46,5.51-1,11-1.48,16.53-.62,7.34-1.33,14.66-2,22-.58,6.83-1.21,13.64-1.82,20.46-.53,5.91-1,11.82-1.59,17.73-.69,7.21-1.22,14.44-2,21.64a2.77,2.77,0,0,1-2.35,2.68L518.35,509l-55.46,15.38q-32.28,8.93-64.54,17.89a23.61,23.61,0,0,1-12.86-.12L325.9,525.63q-39.78-11-79.55-22.09c-6.82-1.9-13.65-3.77-20.46-5.7a3,3,0,0,1-2.57-2.89c-.49-4.65-.81-9.32-1.27-14-.71-7.15-1.27-14.32-1.93-21.48-.64-6.93-1.23-13.86-1.85-20.8-.63-7.1-1.3-14.2-1.9-21.3-.5-5.86-1.07-11.71-1.55-17.56-.46-5.58-1-11.14-1.5-16.71-.5-6-1.08-11.93-1.58-17.9-.47-5.57-1-11.14-1.5-16.71-.61-7.22-1.31-14.43-1.93-21.65-.59-6.93-1.23-13.86-1.85-20.79-.52-5.8-1-11.6-1.56-17.39-.66-7.16-1.25-14.32-1.92-21.48-.65-6.87-1.22-13.75-1.83-20.63-.64-7.16-1.32-14.31-1.93-21.48S198,211,197.35,204s-1.25-14.2-1.9-21.3c-.64-6.88-1.21-13.76-1.84-20.63-.67-7.22-1.3-14.43-1.94-21.65s-1.28-14.2-1.87-21.31c-.44-5.4-.94-10.8-1.46-16.19-.6-6.09-.85-12.19-1.09-18.3A39.61,39.61,0,0,0,186.91,79.84Z"/><path class="cls-2" d="M392.49,162.7q0-24.33,0-48.65c0-2.68,0-2.68,2.66-2.68q81.38,0,162.75,0c1.69,0,2.37.35,2.18,2.17-.49,4.64-.82,9.3-1.23,14-.39,4.37-.81,8.74-1.2,13.11q-.76,8.6-1.5,17.19-.61,6.9-1.24,13.79-.79,8.77-1.6,17.53c-.5,5.68-1,11.36-1.49,17-.52,5.85-1.06,11.69-1.58,17.54-.4,4.48-.77,9-1.16,13.45-.37,4.26-.76,8.51-1.14,12.77-.41,4.54-.84,9.08-1.25,13.62q-.81,8.92-1.62,17.87c-.38,4.31-.74,8.63-1.13,12.94q-.8,8.94-1.6,17.87c-.5,5.62-1,11.24-1.49,16.86-.52,5.79-1.07,11.58-1.59,17.36s-1,11.36-1.49,17c-.52,5.85-1.06,11.69-1.58,17.53-.4,4.43-.76,8.86-1.16,13.29-.52,5.84-1.06,11.69-1.58,17.53-.39,4.37-.76,8.74-1.16,13.11-.53,6-1.08,11.92-1.61,17.88q-.75,8.6-1.47,17.2c-.24,2.78-.49,5.56-.73,8.34-.1,1.16-.86,1.61-1.89,1.89Q514.3,473.58,502,477l-73.27,20.36q-17.07,4.74-34.16,9.45c-1.78.5-2.08.24-2.08-1.9q0-24.07,0-48.14c0-1,.19-2-.68-2.71a1,1,0,0,1,.39-.47c2.66-1.56,5.7-2,8.6-2.79q30.84-8.58,61.71-17.13c10.18-2.81,20.35-5.66,30.53-8.44,3.43-.94,3.87-1.55,4.16-5.07.61-7.21,1.27-14.43,1.92-21.64q.93-10.49,1.85-21c.62-7.05,1.31-14.09,1.9-21.13s1.31-14.31,1.89-21.48c.44-5.45,1-10.9,1.48-16.36.51-5.85,1.05-11.7,1.57-17.55q.94-10.65,1.92-21.3c.64-6.93,1.21-13.86,1.86-20.79.65-7.1,1.26-14.2,1.9-21.3s1.25-14,1.86-21,1.3-14.09,1.89-21.13c.5-5.91,1.09-11.82,1.56-17.73.26-3.18.51-6.37.89-9.54.51-4.24.13-4.7-4.07-4.7H397.27c-1,0-2.06,0-3.09-.05C393.52,163.5,392.78,163.54,392.49,162.7Z"/><path class="cls-3" d="M392.49,162.7c.92,0,1.83.06,2.74.06h123c2.86,0,2.79,0,2.54,2.76-.88,9.6-1.69,19.21-2.55,28.82s-1.75,19.2-2.6,28.81S514,242.36,513.09,252s-1.75,19.09-2.61,28.64q-1.1,12.18-2.16,24.38-1.31,14.58-2.62,29.16-1.09,12.27-2.18,24.55l-2.61,29.16-2.19,24.72c-.33,3.69-.73,7.38-1,11.08-.08,1.26-.86,1.42-1.77,1.67q-16.9,4.69-33.82,9.39Q428.08,444.17,394,453.6c-.6.17-1.22.25-1.83.37-.89-.62-.83-1.58-.84-2.48-.05-3.65,0-7.3,0-10.95,0-12.2,0-24.4,0-36.61,0-1.14-.32-2.44.85-3.32l0-.09a7.83,7.83,0,0,1,3.92-1.92c16.54-4.42,33.05-9,49.6-13.33a3.9,3.9,0,0,0,3.33-3.89c.52-6.08,1-12.16,1.61-18.23.68-7,1.25-14.08,1.91-21.12.63-6.64,1.17-13.29,1.78-19.94.21-2.28-.49-2.9-3.07-2.91H396.09c-1.37,0-2.76.11-3.94-.8l0-.1c-1-.65-.84-1.68-.85-2.63-.05-4.27,0-8.54,0-12.8q0-16.32,0-32.62c0-1.12-.2-2.3.65-3.26,1.22-1,2.66-.89,4.09-.89h58.39c4.48,0,4.69-.21,5.09-4.62q2-21.64,3.86-43.29c.2-2.27-.45-3-2.72-3.14-.74,0-1.48,0-2.22,0H396.13c-1.42,0-2.87.1-4.11-.84a3,3,0,0,1-.69-2.39q-.06-23.25,0-46.49c0-.9-.07-1.86.84-2.47Z"/><path class="cls-4" d="M392.18,400.61q0,26.68,0,53.36l-.36.11q-18.63-5.2-37.25-10.39-32.73-9.09-65.46-18.14c-1.7-.47-2.43-1.1-2.59-3.05-1.21-14.66-2.62-29.3-3.93-43.95-1-11-1.89-21.93-2.89-32.89-.12-1.37.32-1.64,1.57-1.64q24.06,0,48.12,0c1.44,0,1.87.57,2,1.85.48,5.74,1,11.48,1.51,17.21.6,6.82,1.21,13.63,1.77,20.45.12,1.34.86,1.76,2,2.08q27,7.26,54,14.6Z"/><path class="cls-4" d="M392.17,162.82v51.29c-.51.41-1.1.21-1.65.21H269.78a2.72,2.72,0,0,1-1.66-.19c-.57-6-1.16-11.92-1.71-17.89q-1.16-12.34-2.26-24.71c-.23-2.5-.42-5-.69-7.49-.09-.88.15-1.32,1.08-1.28.4,0,.8,0,1.2,0H390.28C390.91,162.77,391.54,162.8,392.17,162.82Z"/><path class="cls-4" d="M392.17,267q0,25.65,0,51.3c-.69,0-1.37.05-2.05.05H279.79c-2.64,0-2.56,0-2.79-2.56-.71-8.3-1.5-16.59-2.25-24.89q-.92-10.23-1.83-20.45c-.1-1.14-.22-2.27-.34-3.41.48-.49,1.08-.25,1.62-.25H390.52C391.07,266.77,391.66,266.57,392.17,267Z"/><path class="cls-5" d="M392.15,318.38l36.48,0c8.28,0,16.56,0,24.84,0,1.5,0,2,.23,1.88,2-1.27,13.46-2.41,26.93-3.6,40.4-.68,7.62-1.39,15.23-2,22.85-.11,1.3-.76,1.71-1.87,2q-19.61,5.25-39.18,10.56l-16.53,4.41a5.43,5.43,0,0,0,.35-2.52V320.9A5.41,5.41,0,0,0,392.15,318.38Z"/><path class="cls-5" d="M392.17,267c-.8,0-1.6,0-2.4,0H275.14c-.85,0-1.7.05-2.56.08.8-.63,1.75-.42,2.65-.42H389.3l1.88,0a1.18,1.18,0,0,0,1.3-1.26c0-.46,0-.92,0-1.37V217.18c0-2.67,0-2.67-2.67-2.67H271a5,5,0,0,1-2.84-.36H391.31c.29,0,.57,0,.86,0,.85,0,1.71.07,2.56.07h67.33c2.53,0,2.6,0,2.37,2.57-.84,9.67-1.74,19.32-2.61,29-.58,6.43-1.2,12.84-1.67,19.27-.12,1.6-.73,1.94-2.2,1.94q-31.6-.06-63.22,0C393.88,266.92,393,267,392.17,267Z"/></g></svg>