<svg id="gris" xmlns="http://www.w3.org/2000/svg" viewBox="0 0 792 612"><defs><style>.cls-1{fill:#515151;}</style></defs><title>Tema</title><path class="cls-1" d="M268.85,251.31A57.73,57.73,0,0,1,292.44,274q8.34,14.59,8.35,33.68,0,18.9-8.35,33.59A57.43,57.43,0,0,1,268.76,364q-15.33,8.07-35.51,8.07H185V243.24h48.27Q253.62,243.24,268.85,251.31Zm-9.91,83.88q9.92-9.72,9.91-27.53T258.94,280Q249,270,231.23,270H216.36v74.89h14.87Q249,344.92,258.94,335.19Z"/><path class="cls-1" d="M346,364.92a63,63,0,0,1-24-23.58,69.33,69.33,0,0,1,0-68,63.29,63.29,0,0,1,24-23.5,70,70,0,0,1,66.62,0,62,62,0,0,1,23.86,23.5,70.33,70.33,0,0,1-.09,68,62.6,62.6,0,0,1-23.86,23.58,69.7,69.7,0,0,1-66.53,0Zm58-30.46q9.25-10.29,9.27-27.17,0-17.07-9.27-27.25t-24.69-10.19q-15.6,0-24.87,10.1t-9.27,27.34q0,17.07,9.27,27.26t24.87,10.18Q394.76,344.73,404,334.46Z"/><path class="cls-1" d="M608.58,243.24V372.08H577.2V294.81l-28.82,77.27H523.05l-29-77.45v77.45H462.67V243.24h37.07l36.16,89.2,35.79-89.2Z"/></svg>