<svg id="gris" xmlns="http://www.w3.org/2000/svg" viewBox="0 0 792 612"><defs><style>.cls-1{fill:#515151;}</style></defs><title>Tema</title><path class="cls-1" d="M54.67,304.45c1-8,6.44-13.08,11.77-18.39q41.48-41.33,82.79-82.84a38.84,38.84,0,0,0,2.63-3.22c.95.75,1.49,1.1,1.93,1.54q15.53,15.54,31.06,31.06c1.34,1.34,1.86,2.44,1.27,4.46a23.32,23.32,0,0,0,11.55,27.53,3.41,3.41,0,0,1,2.1,3.52q-.08,39.48,0,78.95c0,2.16-1,2.93-2.58,3.83a23.51,23.51,0,0,0-11.22,27,23.66,23.66,0,0,0,45.57.25A23.46,23.46,0,0,0,222,352a5,5,0,0,1-2.57-4.83q.1-37.9.05-75.79v-3.46c1,.81,1.6,1.26,2.15,1.81q13.61,13.59,27.21,27.18a3.53,3.53,0,0,1,1.12,4c-4.22,15.25,6.09,29.57,21.86,30.53,12.39.76,23.33-9.25,24.52-22.42,1-11.63-8.45-23.43-20.13-24.67-3.07-.33-6.24.33-9.37.34a5,5,0,0,1-3.23-1q-15.54-15.32-30.84-30.87a4.43,4.43,0,0,1-1-3.46C235.52,231.59,221,217,203.27,220.6a3.86,3.86,0,0,1-3-.56q-16.64-16.46-33.1-33.08a5.72,5.72,0,0,1-.54-.87c.53-.62,1.05-1.28,1.63-1.87q12.36-12.4,24.75-24.78c9-9,20.5-9.05,29.47-.09q66,66,131.89,132c9.32,9.34,9.23,20.71-.15,30.1q-65.43,65.51-130.84,131a28.2,28.2,0,0,1-12.54,7h-4.59c-7.31-1.33-12.13-6.32-17.09-11.29q-61.36-61.57-122.89-123c-5.32-5.31-10.67-10.45-11.6-18.45Z"/><g id="AigyDn.tif"><path class="cls-1" d="M735.4,300.49v23.56c-.7,4.67-1.3,9.37-2.14,14-8.07,44.87-31.3,79.86-69,105.31-11.36,7.67-23.84,13.11-36.68,17.76H623.3c-4.29-1.94-5.85-5.22-5.77-9.94.22-12.73.06-25.46.08-38.19,0-11.62-1.24-22.82-10.31-31.84.91-.28,1.42-.51,2-.61,6.65-1.24,13.46-1.9,19.9-3.81,17.89-5.3,33.11-14.32,41.32-32.21a88.38,88.38,0,0,0,7.38-27.72c2.09-19.58-.3-38-13.85-53.51a4.5,4.5,0,0,1-.76-3.69c3.67-11.28,3.09-22.47-.34-33.64-2.06-6.72-2.86-7.2-9.82-6.12-.47.07-.92.23-1.38.34A99.44,99.44,0,0,0,622,233.66c-2.92,1.9-5.52,2.13-8.89,1.52a265.53,265.53,0,0,0-27.44-3.86,139.14,139.14,0,0,0-43.13,4,9.07,9.07,0,0,1-5.49-1c-8.68-4.07-17.12-8.68-25.93-12.41-3.8-1.61-8.29-1.7-12.5-2.16a3.57,3.57,0,0,0-2.83,1.84c-4.48,12.21-6.27,24.62-1.77,37.23a4.4,4.4,0,0,1-1.07,5,54.34,54.34,0,0,0-11,19.35c-4.19,12.77-3.68,25.8-1.75,38.81,1.8,12.12,5.6,23.64,13.44,33.29,10.51,12.93,24.74,19.62,40.77,22.9,5,1,10.1,1.84,15.55,2.83a34.14,34.14,0,0,0-9.56,19.57,2.71,2.71,0,0,1-1.37,1.81c-11.26,4.13-22.48,6.18-33.43-1-5.35-3.49-8.6-8.74-12-13.91-5.3-8-12.53-13.35-22.24-14.44-2.44-.27-5.06,1-7.59,1.62,1.36,2.07,2.41,4.46,4.15,6.15,2.78,2.71,6.74,4.45,8.91,7.51a144.56,144.56,0,0,1,10.71,18.35c2.43,4.79,5.3,9,9.88,11.85,12,7.52,25.2,7.47,38.61,5.79,1.14-.15,2.27-.34,3.87-.58,0,9.25-.19,18.16.08,27.06.16,4.85-1.34,8.28-5.88,10.19h-4.28a4.06,4.06,0,0,0-.88-.58,147.46,147.46,0,0,1-56.07-32.88c-24.93-23.44-41.61-51.59-48.05-85.45-1.1-5.79-1.88-11.64-2.82-17.47v-25c.31-2.21.63-4.42.91-6.64,4.49-35.07,18.73-65.57,43.49-90.83,23.14-23.6,50.9-39,83.71-44.68,6.53-1.13,13.13-1.87,19.69-2.79H587.6c4.47.51,9,.91,13.41,1.55a153.57,153.57,0,0,1,78.49,35.25c28.28,23.92,46.13,54.15,53.11,90.62C733.77,288.29,734.48,294.41,735.4,300.49Z"/></g></svg>