<svg id="gris" xmlns="http://www.w3.org/2000/svg" viewBox="0 0 792 612"><defs><style>.cls-1{fill:#515151;}.cls-2{fill:#6d6d6d;}.cls-3{fill:#595959;}.cls-4{fill:#fbfbfb;}.cls-5{fill:#ececec;}</style></defs><title>Tema</title><g id="h49rNC.tif"><path class="cls-1" d="M597.7,77.32c-1.59-.08-3.18-.07-4.77-.07H200.63c-1.59,0-3.18,0-4.77.07a3.7,3.7,0,0,0-3,1.32v2.25a2.5,2.5,0,0,1,.28,1.61c.24,8.4.67,16.78,1.1,25.16.47,8.87,1.57,17.69,2.27,26.55.77,9.78,1.76,19.55,2.58,29.33.77,9.14,1.7,18.25,2.46,27.39.82,9.78,1.78,19.55,2.6,29.33.77,9.23,1.71,18.44,2.47,27.67.79,9.59,1.74,19.18,2.55,28.78.78,9.31,1.73,18.62,2.5,27.94.8,9.59,1.74,19.18,2.55,28.78.78,9.22,1.73,18.43,2.49,27.66.79,9.59,1.72,19.18,2.53,28.78s1.71,19,2.55,28.5q1.5,17,3,34.09c1.06,11.92,2,23.85,3.23,35.75.92,8.65-.36,7.44,7.94,9.74,34.63,9.6,69.21,19.38,103.92,28.71,18.51,5,36.65,11.46,55.72,14.24h1.69c8.9-.89,17.4-3.56,26-5.93q48.56-13.44,97.13-26.89c13.62-3.76,27.22-7.58,40.85-11.33,2.37-.65,3.54-1.82,3.79-4.41.45-4.66.81-9.32,1.25-14q1.36-14.52,2.6-29.05c.8-9.22,1.67-18.44,2.46-27.66.84-9.68,1.73-19.37,2.6-29.05q1.28-14.25,2.56-28.49c.79-9,1.68-18.06,2.44-27.1.82-9.87,1.78-19.74,2.62-29.61.76-9,1.69-18.06,2.43-27.1.79-9.69,1.73-19.37,2.55-29.06,1-11.55,2.1-23.09,3.1-34.64.81-9.4,1.69-18.81,2.51-28.21s1.7-19,2.54-28.5c.87-9.68,1.84-19.36,2.59-29.05s1.92-19.14,2.24-28.77c.22-6.51.29-13,1.1-19.51V78.64A3.71,3.71,0,0,0,597.7,77.32Z"/><path class="cls-2" d="M559.33,112.91H400.4c-3.41,0-3.61.22-3.62,3.72q0,21.06,0,42.12a12.32,12.32,0,0,1-.25,3.53l-1.14,59.88c0,.69,0,1.38,0,2.06,0,12.53,0,25.06,0,37.59,0,1.85-.19,3.77,1.14,5.35,1.3.77,2.74.47,4.12.47q49.92,0,99.85,0a38.81,38.81,0,0,1,11.3,1.68,3.38,3.38,0,0,1,1.34,3.47q-1.44,15.63-2.83,31.26c-1.06,11.73-2,23.46-3.17,35.17-.91,9.58-1.7,19.17-2.57,28.76-.85,9.39-1.72,18.79-2.52,28.19-.64,7.54-1.26,15.09-2.1,22.61a4.9,4.9,0,0,1-4,4.7c-.81.2-1.6.51-2.41.73l-84.09,23.32c-4,1.12-8.23,1.82-12,3.79a2.2,2.2,0,0,0-1.2,1.43,9.61,9.61,0,0,1,.56,4.41q0,22.47,0,44.93c0,3.19.15,3.3,3.16,2.47q25.29-7,50.57-14.06,39.19-11,78.39-21.94a3.33,3.33,0,0,0,2.82-3.27c.86-9.77,1.78-19.53,2.67-29.29q1.25-13.68,2.46-27.35,1.29-14.37,2.59-28.74c.65-7.25,1.25-14.51,1.9-21.77.85-9.39,1.75-18.78,2.59-28.17.66-7.26,1.25-14.52,1.89-21.77.86-9.58,1.75-19.16,2.61-28.74.82-9.12,1.61-18.23,2.43-27.35q1.3-14.5,2.63-29c.65-7.26,1.25-14.52,1.91-21.77.84-9.21,1.74-18.41,2.57-27.62.84-9.39,1.59-18.8,2.42-28.19.85-9.58,1.8-19.15,2.6-28.74C563.29,113.32,562.8,112.91,559.33,112.91Z"/><path class="cls-3" d="M396.63,213.29c16.28-.25,32.57-.08,48.85-.11q33.13,0,66.27,0c5.9,0,6.74-.93,7.25-6.7,1-11.08,1.93-22.17,3.13-33.24.75-6.94.06-7.82-7-7.82H404.23c-2.53,0-5.05,0-7.58-.12"/><path class="cls-3" d="M397.33,399.46l-.56-.17q0-38.57,0-77.14a9.14,9.14,0,0,0-.55-4.14l.56-.16c1-1.23,2.43-1.29,3.84-1.29,18.42-.05,36.85-.08,55.28,0,4,0,4.55.62,4.55,4.62,0,5.52-.85,11-1.32,16.48-1,11.83-2.19,23.64-3.18,35.46a94.59,94.59,0,0,1-1,9.48,4.18,4.18,0,0,1-3.31,3.65c-8.81,2.53-17.7,4.75-26.54,7.19-7.3,2-14.63,3.92-21.95,5.86C401.3,399.81,399.31,401.06,397.33,399.46Z"/><path class="cls-4" d="M520.33,163.85H399.85c-1,0-2.05.07-3.08.11v50.66c13.57,0,27.14.1,40.71.11q39.47,0,78.91,0c2.09,0,3.36-.13,3.58-2.85,1.21-14.64,2.63-29.26,4-43.88C524.41,163.84,524.5,163.85,520.33,163.85Z"/><path class="cls-4" d="M514.26,267.13a10.9,10.9,0,0,0-3.47-.39H395.38V318h62c1.51.24,2,1,1.83,3.21q-2.79,29.76-5.29,59.55c-.23,2.76-1.27,3.9-4,4.61q-12.72,3.31-25.42,6.75h0l-.55.15-17.3,4.67-10.41,2.33,0,53.51,35.11-9.8h0q33.36-9.24,66.72-18.45c2.2-.61,3.32-1.5,3.3-4,0-2.8.43-5.6.68-8.39l5.94-65.7q1.28-14.24,2.57-28.47h0l4.2-44.75,0-5.49A.67.67,0,0,0,514.26,267.13Z"/><path class="cls-5" d="M395.39,399.17c-17.89-4.77-35.77-9.59-53.67-14.31-1.93-.51-2.13-1.64-2.26-3.25-1-11.46-2-22.92-2.94-34.39-.21-2.74-1.06-3.75-4-3.72-14.69.17-29.38.07-44.07.08-3.64,0-3.59,0-3.26,3.59,2.21,24.5,4.44,49,6.55,73.5.2,2.27,1,3.2,3.18,3.79q28.68,7.88,57.29,15.93,22,6.17,44,12.39l.56-53.49A7,7,0,0,1,395.39,399.17Z"/><path class="cls-5" d="M392.31,317.92c1.3,0,2.61.06,3.92.09l.18-51.23c-3.86-.13-3.57-.18-5.34-.17-18.16.06-35.24-1.19-53.1-1.2-1.13,0-2.25,0-3.37-.06-2.82-.27-4-1.37-4.29-4.23-.2-2.32-.5-4.64-.69-7q-1.41-16.76-3-33.51c-.18-1.88,0-4-1.65-5.5,1.11-.74,2.36-.42,3.55-.42q34-.08,68-.1l.18-50.66h0c-.66,0-1.31-.08-2-.08H271.52c-.93,0-1.86.1-2.79.16q2.29,25.69,4.61,51.39c3,33,6,65.92,8.88,98.88.25,2.85,1.15,3.67,4,3.66Q339.28,317.83,392.31,317.92Z"/></g></svg>