<svg id="gris" xmlns="http://www.w3.org/2000/svg" viewBox="0 0 792 612"><defs><style>.cls-1{fill:#515151;}</style></defs><title>Tema</title><g id="fZylnd"><path class="cls-1" d="M628.27,77.92c0-1.45-.32-1.78-1.77-1.78q-230.11.06-460.22,0c-1.45,0-1.78.33-1.78,1.78q.06,230.12,0,460.22c0,1.45.33,1.78,1.78,1.78q115-.06,230.11,0t230.11,0c1.45,0,1.78-.33,1.77-1.78Q628.23,308,628.27,77.92ZM417.09,436.26a93.46,93.46,0,0,1-2.9,25c-6.12,22.13-20.67,35.4-42.88,40.21-15.83,3.42-31.61,2.94-47-2.57-17.06-6.11-29-17.89-37.08-33.91-.53-1-.34-1.52.64-2.11Q304.34,453,320.73,443c1.13-.69,1.63-.44,2.22.63a86.6,86.6,0,0,0,6.86,10.72c6.41,8.41,15,11.39,25.22,10,10.84-1.49,16.22-7,17.78-17.92a77.18,77.18,0,0,0,.71-11.16V291.93c0-2.83,0-2.83,2.78-2.83,12.62,0,25.24,0,37.86,0,2.91,0,2.94-.65,2.94,2.86v76.3Q417.1,402.26,417.09,436.26Zm171.85,27.2c-5.53,15.89-16.64,26.5-31.82,33.08-14.37,6.23-29.51,7.74-45,6.77A94.52,94.52,0,0,1,478,495a77.85,77.85,0,0,1-36.43-34.11c-.77-1.42-.76-2.11.77-3q16-9.15,31.89-18.52c1.49-.88,2.1-.61,3,.77,4.61,7.32,10.13,13.81,17.63,18.36,8.75,5.3,18.3,6.94,28.38,6.12,6.06-.49,11.8-2,16.85-5.52a19.64,19.64,0,0,0,2-30.93,49.38,49.38,0,0,0-11.47-7.44c-9.62-4.8-19.66-8.67-29.44-13.12-11.12-5.07-21.72-11-30.51-19.66-10.35-10.25-15.54-22.78-16.72-37.18-.85-10.4.23-20.47,4.51-30,7.34-16.36,20.25-26.24,37.16-31.26a76.06,76.06,0,0,1,22.52-2.91c10.64,0,21,1.46,30.88,5.75,13.23,5.76,22.58,15.69,29.79,27.9.54.91.46,1.4-.48,2q-15.78,10.07-31.52,20.24c-1,.68-1.47.46-2.06-.54-2.53-4.36-5.38-8.52-9.45-11.61-8.19-6.23-17.36-7.45-26.85-4.07-14.84,5.29-14.85,24.64-4.81,32.6,5.31,4.21,11.34,7.07,17.46,9.77,10.94,4.84,22.09,9.22,32.61,15,8.12,4.43,15.78,9.48,22.33,16.09,9.66,9.75,14.61,21.62,15.88,35.15C592.79,444.6,592.17,454.18,588.94,463.46Z"/></g></svg>