<svg id="gris" xmlns="http://www.w3.org/2000/svg" viewBox="0 0 792 612"><defs><style>.cls-1{fill:#515151;}</style></defs><title>Tema</title><g id="JkZLVe.tif"><path class="cls-1" d="M736.35,228.17Q723.24,245.59,710.13,263q-24.21,32.13-48.43,64.25a17.75,17.75,0,0,0-3.05,6.38q-2.6,10.19-5.2,20.37c-.3,1.17-.59,2.37-1.76,3a4.78,4.78,0,0,1-2.08.55c-9.51,0-19,0-28.53,0-2.05,0-2.75-.89-2.23-2.92q2.67-10.61,5.43-21.19a12.56,12.56,0,0,0-.09-6.69q-6.33-22.1-12.63-44.19c-.14-.49-.31-1-.41-1.47a1.84,1.84,0,0,1,1.75-2.5,7.77,7.77,0,0,1,1.18,0h27.51c2.84,0,3.79.79,4.44,3.61q1.49,6.52,3,13c.17.71.2,1.48,1.07,1.87.89-.23,1.24-1.05,1.7-1.73q9.78-14.3,19.53-28.59,12.69-18.57,25.34-37.17a6.55,6.55,0,0,1,6-3.11c10.47.06,20.94,0,31.41,0a16.63,16.63,0,0,1,2.31.31Z"/><path class="cls-1" d="M235.89,358.09q-16.12,0-32.26,0c-7.83,0-15.59-.61-23.12-2.94-9.18-2.84-16.94-7.72-22.56-15.67a46.37,46.37,0,0,1-7.47-18.41,76,76,0,0,1-.77-21.29,132.82,132.82,0,0,1,10.64-41,83.38,83.38,0,0,1,18.45-27.22,66.43,66.43,0,0,1,32.73-17.24,89.86,89.86,0,0,1,30.2-1.1,57.89,57.89,0,0,1,23,7.68,47.36,47.36,0,0,1,20.88,26.26,58.75,58.75,0,0,1,1.21,32.95,287.72,287.72,0,0,1-10.51,33.46c-1.49,4-3.09,8-4.63,12-.1.26-.23.52-.32.78-.61,1.72,0,2.61,1.81,2.65,2.6.06,5.21,0,7.81.06a28.19,28.19,0,0,0,3.05,0c1.95-.21,3.09,1,2.45,3.08-.71,2.32-1.24,4.7-1.86,7.05q-2,7.62-4,15.25c-.69,2.62-1.72,3.41-4.46,3.41H235.89Zm-15-30v0h15.28c2.24,0,3.29-.8,4-2.94.1-.33.19-.66.28-1q5.74-20.4,11.48-40.79a54.25,54.25,0,0,0,2.21-18.27,26.27,26.27,0,0,0-3.21-11.49c-3.52-6.15-9.1-9.24-15.85-10.5a44.46,44.46,0,0,0-12.67-.39,34.6,34.6,0,0,0-15,4.85,36.69,36.69,0,0,0-12.7,13.85,77.54,77.54,0,0,0-7.24,19.49c-1.93,7.82-3.34,15.7-3,23.81a34.54,34.54,0,0,0,1.42,8.68c2.06,6.73,6.29,11.39,13.12,13.49a25.84,25.84,0,0,0,7.51,1.18Z"/><path class="cls-1" d="M480.79,311.36H447.34c-2.71,0-4,1.26-4.16,4a24,24,0,0,0,.06,3.39c.46,4.51,2.72,7.79,7,9.33a34.1,34.1,0,0,0,6.9,1.62,62.23,62.23,0,0,0,8,.39c14.5,0,29,0,43.48,0h.85c1.8.05,2.59,1,2.27,2.73s-.73,3.54-1.1,5.31c-1.18,5.7-2.41,11.4-3.52,17.11-.41,2.09-1.55,3.44-4,3.45-12.85,0-25.7.17-38.55.2-5.15,0-10.3,0-15.44-.36-7.55-.47-14.91-1.91-21.75-5.35-8.9-4.47-14-11.75-15.68-21.46a60.9,60.9,0,0,1-.06-18.43A158.08,158.08,0,0,1,418.86,282,66.41,66.41,0,0,1,430.2,261a50.17,50.17,0,0,1,23.65-15.83,77.71,77.71,0,0,1,19-3.48,101.55,101.55,0,0,1,15.6.09,54.42,54.42,0,0,1,16.95,3.87c9.28,4,14.9,10.93,17,20.79a54.89,54.89,0,0,1,.86,15,146.52,146.52,0,0,1-4.9,27.17c-.52,2-1.45,2.7-3.52,2.7Zm-11.44-23.82h17.3a12.85,12.85,0,0,0,1.52,0,3,3,0,0,0,2.95-2.93,25.23,25.23,0,0,0,.13-2.88c-.12-6.09-3.07-10-8.89-11.73-.54-.16-1.09-.28-1.64-.4a36,36,0,0,0-11.8-.38c-9.42,1.1-16,5.89-19.65,14.73-1.25,3,.05,3.68,2.44,3.65C457.59,287.49,463.47,287.54,469.35,287.54Z"/><path class="cls-1" d="M357.69,357.53c-8.49,0-17,0-25.47,0a47.36,47.36,0,0,1-13.89-2q-13.89-4.29-18-18.22a43.08,43.08,0,0,1-1.73-10.52A94.86,94.86,0,0,1,300.78,303q5.87-28,11.74-55.94c.08-.39.17-.77.27-1.16a3.26,3.26,0,0,1,3.48-2.81c1.24,0,2.49,0,3.73,0h20.89c2.15,0,2.83.84,2.47,3-.23,1.39-.55,2.77-.83,4.16q-5,25.11-10,50.23c-.76,3.82-1.56,7.64-2.11,11.5a36.82,36.82,0,0,0-.3,7.27c.33,5.85,3.51,9.23,9.3,10.11a32.34,32.34,0,0,0,4.39.35c5.72,0,11.44,0,17.15,0,2.53,0,3.46-.7,4-3.18q3.18-14.59,6.32-29.18l10.95-50.73c0-.11.06-.22.09-.33.59-2.43,1.55-3.2,4-3.21h11c4,0,8,.07,12.06,0,2.47-.06,3.4.9,2.85,3.44q-2.13,9.78-4.19,19.57-5.19,24.39-10.37,48.77-4.19,19.67-8.39,39.32c-.54,2.53-1.54,3.32-4.1,3.32Z"/><path class="cls-1" d="M608.68,271.64H576.42a3.36,3.36,0,0,0-3.61,2.91c-.66,2.86-1.25,5.74-1.86,8.62q-4.35,20.65-8.68,41.32c-2,9.79-4,19.61-6,29.41a6.66,6.66,0,0,1-.66,2.08,3.23,3.23,0,0,1-3,1.53c-8.37,0-16.75,0-25.13,0-1.81,0-2.56-1-2.16-2.93q2.86-13.51,5.76-27,5.35-25.11,10.7-50.23c2.17-10.17,4.37-20.34,6.51-30.51.57-2.72,2.08-3.42,4.24-3.41,22.07.06,44.14.05,66.21.09a32.82,32.82,0,0,1,10.35,1.61,16,16,0,0,1,11.13,11.77c1,3.94,1.94,7.9,2.87,11.86.47,2-.26,2.89-2.33,2.89H608.68Z"/><path class="cls-1" d="M70.9,403.79H59.7c-.34,0-.68,0-1,0-1.72-.1-2.46-1-2.08-2.68.81-3.58,1.67-7.16,2.52-10.73q1.47-6.19,3-12.37c.57-2.33,1.56-3.09,4-3.08s4.76,0,7.13.09a9.21,9.21,0,0,0,6.93-2.62,24,24,0,0,0,4.3-5.43c2.76-4.52,4.15-9.5,5.25-14.62q6.17-28.68,12.45-57.34c.94-4.31,1.92-8.6,2.89-12.91.06-.27.14-.54.21-.82a3.29,3.29,0,0,1,3.65-2.81c6.23,0,12.46,0,18.68,0,2.55,0,5.1.09,7.64,0,2-.08,3.15.81,2.62,3.19-1.07,4.8-2.1,9.61-3.14,14.41q-6,27.94-12.07,55.87c-1.78,8.29-3.51,16.6-6.47,24.58-2.24,6.08-5,11.9-9.25,16.87a29.43,29.43,0,0,1-18.49,10.1C82.56,404.34,76.73,403.91,70.9,403.79Z"/><path class="cls-1" d="M124.13,270.62c-4.41,0-8.82,0-13.23,0a4.3,4.3,0,0,1-1.8-.32c-1-.48-1-1.4-.8-2.35.6-2.7,1.19-5.41,1.8-8.11,1-4.51,2-9,3.09-13.54a7.07,7.07,0,0,1,1.22-2.53,2.89,2.89,0,0,1,2.44-.95c8.88,0,17.75,0,26.63,0,1.9,0,2.64.94,2.24,2.86-1.06,5-2.18,10.05-3.27,15.07-.5,2.26-1,4.52-1.5,6.78s-1.52,3.07-3.76,3.08Z"/></g></svg>