<svg id="gris" xmlns="http://www.w3.org/2000/svg" viewBox="0 0 792 612"><defs><style>.cls-1{fill:#515151;}</style></defs><title>Tema</title><g id="vbHXSy.tif"><path class="cls-1" d="M380.37,87.32c9.25,1.71,18.72,2.69,27.71,5.31,12.06,3.52,24.33,7.16,35.48,12.79,23.43,11.84,44.37,35.24,33.57,74.68-7.05,25.76-20.18,47.71-41.19,63.5-44.76,33.63-95.29,52.26-151.82,52.19-15.13,0-29.61-3.72-42.45-12.33a53.6,53.6,0,0,1-20-24.63c-.79-1.9-.8-4.12-1.36-7.27,2.2.82,3.23,1,4,1.52,32.84,22.7,68.29,23.2,105.23,12.81,31.83-9,61.33-22.22,85.67-45.18,14.2-13.39,25.28-28.92,28.64-48.65,2.8-16.49-4.76-30.62-19.84-37.89-22.48-10.85-46.37-13.27-70.87-10.85-50.23,5-95.2,25.26-139.22,48.2-21.14,11-41.54,23.23-59.47,39.14-12.1,10.72-22.56,22.76-28.87,37.86-9.22,22-7,42.72,7.81,61.79,12.33,15.89,28.41,27.44,44.63,38.85,13.77,9.69,27.47,19.49,41.33,29.06,1.43,1,4,1.56,5.53.94,13.81-5.65,27.93-10.8,41.07-17.77,9.11-4.82,17.55-11.53,25-18.72,12.57-12.11,25.25-23.63,42.78-27.88A50.09,50.09,0,0,1,345,313.28c11.85-.12,19.13,7.69,20,21.36.3,4.77,0,9.58,0,14.5.62-.26,1.7-.74,2.8-1.16,9.83-3.76,19.22,2.09,18.5,12.59-.49,7.16-3,14.31-5.46,21.18-4.26,12.07-9.42,23.82-13.65,35.89-1.9,5.43-1.45,11.16,2.88,17,3.34-4.27,6.93-7.88,9.34-12.16,5.25-9.33,10.5-18.75,14.66-28.59,10.07-23.81,19.47-47.9,29.25-71.84,2.3-5.64,4.81-11.22,7.63-16.61,6.94-13.27,28.13-19.43,41.5-12.46,4,2.09,3.85,4.85,2.64,8.41-4,11.85-7.1,24-5.05,36.54,1.51,9.2,4.52,18.16,6.85,27.23l2.14.07c3.61-5.35,7.27-10.67,10.82-16.05,13.83-20.95,27-42.22,32.68-67.16.48-2.12,2.78-5.2,4.54-5.43,9.68-1.24,19.52-2.69,29.2-2.16,7.18.4,8.29,3.5,6,10.51-7.94,23.65-6.78,46.36,6.56,67.92.44.71.93,1.39,1.09,1.62,14.57-3.29,28.72-7.32,43.16-9.55,23.31-3.59,46.2-1.61,67.72,9.2,19.36,9.72,33.23,24.07,38.61,45.61v15.18c-4.36,13-12.38,22.82-25.3,28-3.09,1.23-6.69,1.22-10,1.78-.25-.82-.51-1.64-.76-2.46,3.44-2.6,6.93-5.14,10.32-7.81,13.07-10.32,15.9-24.16,7.86-38.71a49.85,49.85,0,0,0-23.85-21.82c-32.34-14.38-65.32-13.26-99.33-3.73,1,3.59,1.76,6.79,2.68,10,4.59,15.92.92,29.28-11.55,40.53-12.94,11.67-28.14,18.26-44.93,21.6-7.24,1.44-14.44-2.69-16.21-9.86a33.62,33.62,0,0,1-.38-14.26c3.09-15.47,13.72-26.19,24.55-36.63,4-3.89,8.27-7.58,11.19-10.24L526,325.54c-10.66,12.25-20.32,25.64-26.89,41.09a62.4,62.4,0,0,0-4.11,37c2.34,12.28.65,24.34-8.55,33.6-17.25,17.37-38.35,25.53-62.88,23.4-12-1-15.2-7-9-17.57,4.86-8.25,11.19-15.77,17.63-22.92,7.05-7.81,14.93-14.86,22.54-22.15,3.72-3.58,3.89-7.08,1.8-11.88-5.44-12.5-10.21-25.3-15.23-38-.64-1.62-1.16-3.28-2.09-5.93-2.25,5.27-3.93,9.57-5.88,13.74C421.63,380.88,410.39,406,398,430.59a94.07,94.07,0,0,1-28.25,33.61c-14.24,10.48-27.32,5.43-29.61-12-1.11-8.4-.19-17.06-.19-25.6-2.13,1.72-3.06,3.75-4.15,5.69-6.54,11.75-12.37,24-19.86,35.08-10.15,15-32,14.06-42.05-1.1S260.6,434,262.37,416.2c1.24-12.45,3.94-24.75,6.09-37.67L235.13,395.4c-.24,1.11-.38,1.35-.32,1.51.63,1.78,1.29,3.54,1.95,5.31a87.57,87.57,0,0,1,3.66,49.7c-8.18,37.89-32.31,61.36-67.88,74.08-8,2.88-16.59,4.41-24.91,6.56h-21.5c-.49-.37-.93-.93-1.47-1.08C99.93,525,87.87,505.6,93.17,480.41c4.11-19.58,16.37-33.82,31.29-46.07,17.71-14.54,38.22-24.41,58.64-34.38l15.26-7.48c-4.2-2.87-7.4-5.21-10.75-7.32-18.5-11.68-37.31-22.9-55.51-35-27.36-18.24-51.76-39.21-60.36-73.07v-19c7-27.07,23-48.43,43.72-66.14,16.74-14.32,34.15-28.11,52.55-40.18,44.68-29.29,93.15-50,145.92-59.92,9.45-1.77,19-3,28.49-4.52ZM211.26,409a12.22,12.22,0,0,0-2.32.46c-25.63,10.09-48.86,24-66.28,45.66a68.45,68.45,0,0,0-12.14,24.51c-4,14.93,4.56,23.57,19.93,22.09,13.53-1.31,24.84-7.44,35.19-15.73C210.8,465.84,220.51,436.78,211.26,409Zm81.21,11c.72,3.83,1.67,11.35,3.63,18.6,1.58,5.85,5,6.64,9,1.93,5.38-6.41,10.67-13.11,14.67-20.42,13-23.67,19.71-49.52,25-75.8,1.1-5.54-1.24-7.6-6.7-6.07-9.88,2.77-17.77,8.62-24.1,16.51C299.51,372.7,293.29,393.51,292.47,420ZM551.2,386.22c-11.31,8.88-21.28,17.9-24.55,32.09-.48,2.07.11,4.39.21,6.59,2.43-.13,5.12.37,7.24-.5C550.05,417.83,557.33,399.09,551.2,386.22Zm-86.4,27.11L434,446.21C447.68,445.45,465.47,426.18,464.8,413.33Z"/></g></svg>