<svg id="gris" xmlns="http://www.w3.org/2000/svg" viewBox="0 0 792 612"><defs><style>.cls-1{fill:#515151;}</style></defs><title>Tema</title><path class="cls-1" d="M583.85,413a145.71,145.71,0,0,1,.35-14.78c-.48-6.13-.32-12.29-.35-18.44,0-4.93-.12-9.88.35-14.78-.49-6.13-.3-12.29-.35-18.44a145.84,145.84,0,0,1,.35-14.79c-.49-6.13-.3-12.29-.35-18.44a145.84,145.84,0,0,1,.35-14.79c-.49-6.13-.3-12.29-.35-18.44a145.91,145.91,0,0,1,.35-14.79c-.49-6.13-.3-12.28-.35-18.43a145.84,145.84,0,0,1,.35-14.79c-.49-6.13-.3-12.29-.35-18.44,0-4.94-.11-9.88.35-14.78-.5-6.08-.36-12.19-.35-18.29,0-4.67-.21-9.35.26-14-.28-6.54-.57-13.07-3.31-19.18-3.17-10.83-11.21-18.34-18.9-25.61-7.19-6.8-16-11.87-24.87-16.53-6.06-3.85-13.52-4.58-19.42-8.75-4.72-1.21-9.29-2.93-14.06-4Q494,89.5,484.2,87.37a59.08,59.08,0,0,0-14.37-2.56C464,83.11,458,83.11,452,82.46a151.72,151.72,0,0,0-15.52-.61c-4.89-.37-9.78-.55-14.69-.6-4.69-.06-9.42.7-14.07-.5H385.6c-10.61,1.24-21.3-.06-31.91,1.1-4.52-.27-9,1-13.49.57A116.46,116.46,0,0,0,321.25,85c-5.58.94-11.25,1.47-16.55,3.69-6.31.7-12.1,3.43-18.25,4.72-3.1.39-5.93,1.7-8.89,2.55-2.31,1.9-4.66,3.69-7.86,3.67-5.65,1.12-10.4,4.18-15.25,7-4,.72-6.87,4-10.68,5.2-2.25,2.56-4.53,5.1-8.09,5.85-5.16,4.45-10.06,9.2-15.31,13.56-2.8,4.88-5.41,9.88-8.13,14.8-1.58,6.06-3.46,12.07-2.93,18.47a115.06,115.06,0,0,0-.08,16.08,146.66,146.66,0,0,0,0,16.51,153,153,0,0,0,0,16.59,153.57,153.57,0,0,0,0,16.62,153.39,153.39,0,0,0,0,16.61,153.39,153.39,0,0,0,0,16.61,153.57,153.57,0,0,0,0,16.62,153.39,153.39,0,0,0,0,16.61,153.39,153.39,0,0,0,0,16.61,153.57,153.57,0,0,0,0,16.62,153.39,153.39,0,0,0,0,16.61,153.57,153.57,0,0,0,0,16.62,153.39,153.39,0,0,0,0,16.61,153.39,153.39,0,0,0,0,16.61,153.39,153.39,0,0,0,0,16.61,152.28,152.28,0,0,0,0,16.55,136.37,136.37,0,0,0,0,16.3c-.15,5.48-.83,11,1.07,16.34.3,6.7,4,12.15,6.63,18a9,9,0,0,0,1.65,2.95c4.73,4,7.92,9.41,12.77,13.25,1.09,2,3.17,2.7,4.92,3.83q8.81,6.27,18.08,11.84c4.28,3.12,10,3.16,14.19,6.51,6.16,1.11,11.53,4.63,17.65,5.84,3.47.31,6.54,2.18,10,2.57,2.91.32,6,.18,8.17,2.67,5.05,2.89,10.85,1.87,16.21,3.11a61.4,61.4,0,0,0,16.3,2.13c5.45.41,10.91.64,16.37,1.06,5.61.43,11.27.18,16.85,1.12h46.51c11.77-1.06,23.61-.77,35.38-1.68,4.83-.49,9.7-.63,14.52-1.41,12.41-2,24.22-6.51,36.6-8.63a61.4,61.4,0,0,0,14.69-5,176.23,176.23,0,0,0,35.65-17.82c2.58-.93,4.36-3.1,6.73-4.35a84,84,0,0,1,10.33-10.24c2.31-2.72,4.52-5.5,5.56-9,3.56-4.82,6.27-10,6.87-16.08a94.87,94.87,0,0,0,.91-17.09c0-4.75-.17-9.51.34-14.23C583.7,425.39,583.87,419.21,583.85,413ZM395,509.75s-135.87-4.89-149.8-45.45V410s52.42,32.49,151.56,33.67c0,0,84.69,4.79,151.34-33.66l.1,53.19S505.9,514.4,395,509.75Zm0-96.9s-135.87-4.9-149.8-45.46v-54.3s52.42,32.49,151.56,33.67c0,0,84.69,4.79,151.34-33.67l.1,53.2S505.9,417.49,395,412.85Zm0-100.57s-135.87-4.89-149.8-45.45v-54.3S297.65,245,396.79,246.2c0,0,84.69,4.78,151.34-33.67l.1,53.2S505.9,316.93,395,312.28ZM548.23,163.73c-21.24,49.75-154.6,50-154.6,50-53.71,3.12-112.37-19.49-112.37-19.49-73.9-30.27-10.83-55.82-10.83-55.82,73.77-40.09,195.65-19.33,195.65-19.33C549.59,136.35,548.23,163.73,548.23,163.73Z"/></svg>