<svg id="gris" xmlns="http://www.w3.org/2000/svg" viewBox="0 0 792 612"><defs><style>.cls-1{fill:#595959;}.cls-2{fill:#f4f2f2;}.cls-3{fill:#e5e4e4;}.cls-4{fill:#c6c6c6;}.cls-5{fill:#767676;}.cls-6{fill:#fff;}</style></defs><title>Tema</title><g id="yq1Fzt.tif"><path class="cls-1" d="M539.78,217.5c-2.56,1.54-4.36,2.66-6.19,3.72q-19.38,11.19-38.75,22.38c-1.46.84-2.87,1.78-4.31,2.66s-1.79,2-.85,3.57q2.15,3.53,4.17,7.13c1.1,2,2.49,1.21,3.83.45q10.08-5.72,20.13-11.48,12.48-7.16,24.93-14.35c1.06-.61,2.16-1.15,3.71-2,24.88,51.62,26.85,103.49.7,154.54-29.7,58-78.88,87.58-143.64,93.22-.1-1.94-.22-3.32-.23-4.7q0-25.33,0-50.66c0-3.92-.11-3.95-4.11-3.94h-5.6c-3.63,0-3.82.14-3.83,3.7q0,24.39-.05,48.8v6.72c-58.16-4.49-104.07-29.63-135.67-78.53-35.58-55.07-33-121.25-7-168.88,1.29.65,2.62,1.25,3.89,2q20.88,12,41.77,24.07c5.28,3,5.36,3,8.34-2.05,4.12-7,4.84-5.8-2.55-10.15-13.55-8-27.2-15.74-40.8-23.6-1.22-.7-2.4-1.47-4-2.48,30.65-45.57,72.65-72.82,127.21-77.46C448.34,134.44,500.67,162.26,539.78,217.5ZM290,308c0,58.85,48,106.87,106.68,106.74a106.74,106.74,0,0,0,0-213.48C337.94,201.17,290,249.19,290,308ZM247.7,233.53C221.17,293.17,224.08,350.4,261.23,404c30,43.28,73,65.44,125.31,70.08V417.74c-37.27-4.84-66.22-22.48-85-55S282,296.42,296.64,261.81Zm297.47.09-49,28.3c.3.74.48,1.23.69,1.7,8.83,20.22,11.76,41.21,7.92,63-5.33,30.24-20.7,54.24-45.79,71.85A105.12,105.12,0,0,1,410.26,417c-4,.47-4,.54-4,4.44q0,25.06,0,50.14c0,.68.13,1.36.24,2.47,58.07-5.6,103.63-31.76,133.13-82.25C569.48,340.65,569.68,287.54,545.17,233.62ZM535,216.91c-27.62-43.33-85.87-82.15-157.68-73.51-50.72,6.09-90.33,31.14-119.6,73.38l48.67,28.05c22.74-30,52.4-46.55,90-46.6s67.38,16.65,90.11,46.64Z"/><path class="cls-1" d="M572.69,258.61l46.79-15.21c24.81,80.1,1.66,184.91-80.64,247.77L510,451.44C569.44,399.67,590.11,335.5,572.69,258.61Zm-33.06,228c40.37-33,67.24-74.34,79.54-124.76a223.8,223.8,0,0,0-1.74-114.4l-40.85,13.27Q600.92,374.64,514.42,452,526.86,469.05,539.63,486.62Z"/><path class="cls-1" d="M388.91,76.36v49.18c-3.61.4-7.1.87-10.6,1.16a166.82,166.82,0,0,0-40.92,8.82,181.11,181.11,0,0,0-82,57.08,183.34,183.34,0,0,0-28,47.2c-2.27,5.53-1.09,5-6.72,3.21-13.09-4.15-26.12-8.47-39.18-12.74-1.07-.35-2.11-.82-3.5-1.37Q201,166.67,252.69,125.77C301,87.58,354.07,76.78,388.91,76.36Zm-3.23,3.08c-49.51,2.73-93.59,19.12-132.16,49.82-32.64,26-56.33,58.62-71.43,97.78L223,240.31c31.62-70.82,85.57-110.25,162.64-118.14Z"/><path class="cls-1" d="M295.38,459.87C326.3,480,360,490.33,396.61,490.31s70.13-10.33,101-30.48l29,39.93c-72.5,52-182.34,55-260.34.08ZM271,499c70,48.17,174,52.13,251.16,0l-25.07-34.44c-67.24,38.86-134,38.82-201.12,0Z"/><path class="cls-1" d="M254.16,491.17C177,432.08,147.26,331.46,173.41,243.45c1.56.49,3.13,1,4.68,1.47,13.32,4.31,26.63,8.66,40,12.92,2,.62,2.59,1.36,2,3.56a187.06,187.06,0,0,0-5.93,51.12A182.06,182.06,0,0,0,279.32,447.7c1.22,1,2.39,2.1,3.92,3.44ZM175.79,247.53c-10.47,34-13.53,86.16,4.8,137.1,14.64,40.7,39,74.56,72.84,101.93,8.55-11.76,16.93-23.29,25.43-35-27.87-23.28-47.74-51.83-58.92-86.22s-12-69.29-3.09-104.52Z"/><path class="cls-1" d="M614.84,229.22l-21.34,7c-7.58,2.46-15.19,4.85-22.74,7.42-2.28.78-3.42.43-4.36-2A180.07,180.07,0,0,0,550,209.46a183.12,183.12,0,0,0-46.66-49.26,180.4,180.4,0,0,0-56.17-27.4A165.41,165.41,0,0,0,410,126.28c-6.14-.34-6.16-.29-6.16-6.47,0-13.51.07-27,0-40.53,0-2.56.69-3.16,3.35-3A232.65,232.65,0,0,1,613.86,225.73c.29.75.55,1.5.8,2.25A10.12,10.12,0,0,1,614.84,229.22Zm-4.12-2.12c-15-41.42-46.69-84.44-92.64-113.06A226.72,226.72,0,0,0,407.37,79.52v42.66c77.21,7.93,131.1,47.46,162.6,118.14Z"/><path class="cls-2" d="M290,308c0-58.85,48-106.87,106.68-106.74a106.74,106.74,0,0,1,0,213.48C338,414.91,290,366.89,290,308Zm163.31,0c0-31-25.38-56.11-56.69-56.15S339.69,277,339.71,308.14s25.43,56.14,57,56.09A56.33,56.33,0,0,0,453.27,308Zm-91.46-79.24c-2.49-.8-3.54-.11-3.31,2.39a40.16,40.16,0,0,1,0,4.25c0,1.26,0,2.87-1.76,2.51-.75-.15-1.63-1.61-1.74-2.55a60.89,60.89,0,0,1-.09-6.92l-3.21.14a79,79,0,0,0,.06,8.31c.28,2.54,2.22,3.78,5,3.77s4.8-1.38,5-3.76C362,234.2,361.81,231.47,361.81,228.77Zm21,8c-.2-4-2.09-5.9-5.16-5.52s-4.75,2.75-4.18,5.88c.51,2.84,3.79,4.25,7.56,3.23,1.57-.42,1.67-.67,1.08-2.55-1.7.06-3.54,1.72-5.63-.71Zm48.16.15c.33-3.14-.44-4.56-2.72-5.34a4.73,4.73,0,0,0-5.71,1.61,5,5,0,0,0,.44,6.14c1.37,1.35,5.41,1.92,7,.78.54-.38.62-1.42,1-2.29-2.32.07-4.18,1.77-6.21-.9Zm-29-3.67.52.57h4.31c-1,.7-2.29.58-3,1.14-1,.74-2.21,2.11-2.09,3a3.91,3.91,0,0,0,2.71,2.5c1.87.3,3.85-.19,6.07-.37,0-1.15,0-2.37,0-3.6,0-4.43-2.39-6.31-6.63-5.09C403.08,231.63,402.57,232.6,402,233.22Zm-2.13-2.49c.08-1.9-.93-2.54-4.46-2.29a5.62,5.62,0,0,0-5.21,3.87,6.37,6.37,0,0,0,1.87,7,7,7,0,0,0,7,.71c.56-.24.73-1.4,1.34-2.68-2.85.54-5.36,1.85-6.57-.86-.55-1.23-.48-3.75.3-4.33C395.51,231.15,397.64,231.2,399.83,230.73Zm12.81,7.39-.51.47c.55.6,1,1.53,1.68,1.73,2.95.9,5.86.19,6.41-1.58,1.34-4.36-3.25-3.2-5.54-5.32l5,.34.5-.61c-.66-.59-1.23-1.53-2-1.72-2.11-.52-4.69-.79-5.6,1.59-1.52,4,2.76,3.4,4.62,4.72l-.2.66Zm-42.93,0H364.3l-.49.66c.68.53,1.3,1.37,2.06,1.54,2.18.49,4.92.92,5.87-1.53,1.62-4.19-2.82-3.51-4.64-5.33l4.16.23c.79-1.82-.38-2.19-1.7-2.46-2.57-.52-5.1.31-5.46,2C363.28,237.32,367.23,236.4,369.71,238.17ZM440,233.78c.91-2-.57-2.25-1.87-2.51-2.61-.52-5.1.41-5.38,2.13-.64,3.81,3,3.08,4.78,4.72H433l-.52.54c.55.57,1,1.47,1.69,1.67,2.91.87,5.9.16,6.4-1.57,1.24-4.32-3.14-3.32-4.79-5.27Z"/><path class="cls-3" d="M247.7,233.53l48.94,28.28c-14.62,34.61-13.82,68.45,4.92,100.93s47.71,50.16,85,55V474c-52.33-4.64-95.29-26.8-125.31-70.08C224.08,350.4,221.17,293.17,247.7,233.53Zm22,121.6c.84-.3,1.17-1.31.28-2.59a17.91,17.91,0,0,0-2.68-3.25c-2.48-2.19-5.94-1.76-8.26.85s-1.86,6.07.91,8.75,3.18,2.66,6.66-.67c.25-.24.48-.51.81-.86l-3.22-3.83-1.53,4.39-1.33-.07c-.23-1.51-1.05-3.27-.54-4.46s2.73-2.74,3.56-2.43C266.21,351.65,267.64,353.41,269.72,355.13Zm18.1,36.92c1.47.45,2.75,1.32,3.64,1a56.28,56.28,0,0,0,6.74-3.2c-2.2-4.08-4.23.26-6.14-.2-.12-2,4.35-3.18,1.05-5.92l-4.5,2.1c.14-2.21,4.15-3.64.73-6.39-1.78,2.62-3.4,5-5.09,7.48l2.09,2.24,5-2.39Zm13.46,4.33-.65.47c-.93-.8-1.75-2-2.83-2.29s-2.81-.18-3.43.5a3.66,3.66,0,0,0-.15,3.45,33,33,0,0,0,4.26,4.51,49.1,49.1,0,0,0,4.09-3.67c1.87-2.1-.15-7.24-2.95-7.56-.45-.06-1,.58-1.3.77ZM272.66,363l-.65.57c-1-.82-1.85-2-3-2.36a4,4,0,0,0-3.42.62,3.34,3.34,0,0,0-.18,3.22,35.72,35.72,0,0,0,4.28,4.43c6.58-4.38,6.84-6.9,1.07-11.31l-1.25,1.08Zm12,18.7c2.87-2.85,3-5.06.71-7.28a4.29,4.29,0,0,0-6.56.1c-2,2.07-1.86,4.61.66,7,1,.95,2.18,2.85,4.06.68-1.57-1.47-4.26-2.06-3.26-5.29Zm20.77,16.55c-1.24,2.53-2.36,5-3.69,7.36a3.6,3.6,0,0,1-2.09,1.19,6.28,6.28,0,0,1-2-.11c.35.71.53,1.74,1.1,2.05a4.42,4.42,0,0,0,3,.53c3.34-1,6.61-2.28,10.08-3.52-2.19-4.21-4.7.18-6.53-.51C304.71,402.86,309.36,401.05,305.42,398.27Zm2.52,13-.8-.19c0,.81-.31,1.83.06,2.41,1.15,1.82,2.35,4.38,4.95,3.5,4.67-1.59.12-4.57.59-7.66l3.12,4,.79-.14c-.1-.88.07-1.92-.35-2.6-1.07-1.71-2.45-3.86-4.78-2.72-3.68,1.8-.1,4.33-.67,6.92Zm-27.72-42.8c1.54-2,1.54-2-.11-3.42-1.43.35-3.64.56-3.66.94-.2,2.51-2.86,3.2-3.46,5.05-.37,1.14.61,2.81,1.23,4.12.16.33,1.28.21,2.75.41-2.9-3.58-.32-4.34,1.34-5.58,1.08.67,1.88,2.82,3.22.42Z"/><path class="cls-3" d="M545.17,233.62c24.51,53.92,24.31,107-5.59,158.21-29.5,50.49-75.06,76.65-133.13,82.25-.11-1.11-.24-1.79-.24-2.47q0-25.08,0-50.14c0-3.9.05-4,4-4.44A105.12,105.12,0,0,0,459,398.45c25.09-17.61,40.46-41.61,45.79-71.85,3.84-21.77.91-42.76-7.92-63-.21-.47-.39-1-.69-1.7ZM471.78,429l1.88-2.33-3-2.39c.79-1.15,1.46-2,2-2.9a3.4,3.4,0,0,0-.94-4.7,3.24,3.24,0,0,0-4.75.22c-1.47,1.47-2.79,3.08-4.28,4.75,2.88,2.42,5.44,4.57,8,6.71A8.54,8.54,0,0,0,471.78,429Zm15-23.8c-2.88-2.35-5.22-2.24-7,.12s-1.47,5.1.82,6.73c2.5,1.77,5.08,1.1,7.12-2,.79-1.2,2.16-2.68-.3-3.76-1.07,1.76-1.22,4.37-4.54,4Zm32.67-37.55c-1.82,4-2.34,4.4-4.32,3.56,1.24-1.56,2.49-3.12,3.72-4.68-2.89-2.28-5.05-2.2-6.95.06s-1.72,4.67.48,6.54,4.83,1.45,6.76-.87S521.11,369.1,519.46,367.64ZM499.8,389.42c-3.1-2.29-5.69-2-7.37.75a4.34,4.34,0,0,0,1.68,6.51c2.65,1.44,5.52.08,7.23-3.36.67-1.37.57-2.24-1.08-2.57-1.39,3.39-1.82,3.79-4.33,3.78C497.31,392.71,498.55,391.06,499.8,389.42Zm4.2.73,1.73-2.19a32.08,32.08,0,0,1-3.53-3.32c-.44-.55-.28-1.57-.4-2.38.77.08,1.69-.08,2.27.29a38.52,38.52,0,0,1,3.74,2.94l1.83-2.19c-1.65-1.32-3.09-2.88-4.86-3.76a4.16,4.16,0,0,0-3.74.34c-1.46,1.27-2.38,3.16-3.58,4.87C499.54,386.46,501.59,388.15,504,390.15Zm22.48-30.35.16.93c.93-.33,2.09-.41,2.72-1,1.4-1.38,3.42-3,2.07-5.18-2.41-3.89-4.48.66-7.65.87l3.86-4.26c-1.23,0-2.24-.32-2.7.06-1.64,1.33-3.74,3-2.55,5.28,2.18,4.17,4.42-.45,7.12,0Zm-35.61,35.87c-1.43.1-2.36-.11-2.9.26a5.78,5.78,0,0,0-2.28,2.49,4.61,4.61,0,0,0,.17,3.51c.91,1.49,2.37,1.07,3.65.06.74-.58,1.57-1,2.36-1.54l.59.72-3.18,3.49.09.65c.76-.08,1.72.09,2.24-.3a6.53,6.53,0,0,0,2.38-2.76,5,5,0,0,0-.31-3.75c-1-1.5-2.46-.71-3.68.19-.73.55-1.53,1-2.29,1.49l-.49-.67Zm12.39-22.24a27.91,27.91,0,0,0,.88,3.1c.17.43.82,1.11,1,1,1.84-.76,2.67.75,3.81,1.57a3.45,3.45,0,0,0,5.54-1.71c.12-.36-.42-.95-.7-1.41,0-.09-.29-.06-.41-.08l-1.95,1.44-2.7-2.27c.18-1.42.3-2.35.41-3.27l-3.16,1-1.5-.91ZM472.39,414.7l6.7,5.52,1.58-2.05c-1.32-2.4-6.17-3.23-2.52-7.32l-1.81-1C474.94,411.56,473.74,413,472.39,414.7Zm52.22-49.64c-1.3-2.4-6.18-3.29-2.49-7.25l-1.69-1.15-4,5,6.76,5.46Z"/><path class="cls-3" d="M535,216.91l-48.54,28c-22.73-30-52.41-46.69-90.11-46.64s-67.22,16.6-90,46.6l-48.67-28.05c29.27-42.24,68.88-67.29,119.6-73.38C449.17,134.76,507.42,173.58,535,216.91ZM421.35,179.44h6.36c.24-3.67-1.26-5.4-4.4-5.41s-4.9,1.82-4.76,4.74,2.71,4.93,6,4.32c1.23-.22,3.51.09,2.6-2.55C425.23,180.61,423.2,182.16,421.35,179.44Zm-64.76,1.4c-1.82-.39-4-.29-5.33-1.32-.84-.68-.94-3.28-.36-4.54,1.26-2.71,3.83-1.43,6.27-1.34a4.1,4.1,0,0,0-2-2.32,6.24,6.24,0,0,0-7.06,2.25,6.86,6.86,0,0,0,0,7,6.66,6.66,0,0,0,7.08,2.35C356.86,182.52,357.43,181.73,356.59,180.84Zm7-6.81c-3,0-4.84,1.58-4.94,4.37a4.71,4.71,0,0,0,4.94,4.8,4.44,4.44,0,0,0,4.7-4.66C368.24,175.66,366.56,174.05,363.54,174Zm37.8,0c-3,0-4.8,1.66-4.83,4.46a4.65,4.65,0,0,0,4.76,4.71,4.43,4.43,0,0,0,4.85-4.75C406.1,175.59,404.4,174,401.34,174Zm-30.95.29v8.51l2.56-.13a28.8,28.8,0,0,1,.36-4.8c.15-.63,1.15-1.07,1.76-1.59.35.6.95,1.18,1,1.81a42.89,42.89,0,0,1,.05,4.38c2.21.79,3.2.29,3-1.89-.11-1.41.17-3-.34-4.21a4.08,4.08,0,0,0-2.64-2.24A29.14,29.14,0,0,0,370.39,174.32Zm74.48,1.91c-.13-2.75-2.09-2.11-3.43-2.18-1.78-.08-3.74-.08-4,2.4-.21,2.29,1.52,2.68,3.22,3.09a8.18,8.18,0,0,1,1.69.81l-.25.72-5.3-.35c1,1,1.4,1.86,2.06,2.08,2.78.94,5.58.31,6.13-1.42,1.44-4.47-3.23-3.15-4.72-5.42ZM383,171.5a31.17,31.17,0,0,0-2.24,2.87c-.23.38-.25,1.36-.09,1.43,2.2.94,1.15,2.85,1.34,4.35.26,2.11,3.24,3.76,5,2.56.27-.19.11-1.59,0-1.6-3.35-.5-1.91-2.86-2-4.64,1.28-.36,3.36.3,2.43-2.28l-2.5-.23C385,172.08,384.42,170.89,383,171.5Zm30.6-.37c0,3.37-.08,6.63.07,9.87,0,.64,1,1.24,1.48,1.86.51-.63,1.41-1.23,1.46-1.89.17-2.64,0-5.3.1-7.94C416.76,170.81,415.75,170.43,413.55,171.13Zm-5.32,11.75,2.53-.2v-11.9l-2.53.2Zm28.17-8.43h-6.27v8.26a8.76,8.76,0,0,0,1.41.13,6.56,6.56,0,0,0,1.14-.31c.39-5.79.39-5.79,3.8-6.57C436.45,175.39,436.41,174.8,436.4,174.45Zm-46.86-.07v8.33a8.43,8.43,0,0,0,1.4.12,5.6,5.6,0,0,0,1.14-.3c.45-5.89.45-5.89,4.44-6.65-.82-.81-1.3-1.72-1.84-1.75A41.75,41.75,0,0,0,389.54,174.38Z"/><path class="cls-4" d="M539.63,486.62Q526.84,469,514.42,452q86.66-77.55,62.16-191.22l40.85-13.27a223.8,223.8,0,0,1,1.74,114.4C606.87,412.28,580,453.64,539.63,486.62Zm54.74-128.94a57.5,57.5,0,0,1-.08,6.87,3.45,3.45,0,0,1-1.83,2.52c-1.64.35-1.9-1.12-1.9-2.46v-6.88h-3c0,2.76-.2,5.41.05,8s2.14,3.67,4.7,3.67c3,0,4.74-1,5-3.6a78.83,78.83,0,0,0,.06-8.14Zm8.91.06h-2.77V369.2h2.77Z"/><path class="cls-4" d="M385.68,79.44v42.73c-77.07,7.89-131,47.32-162.64,118.14L182.09,227c15.1-39.16,38.79-71.8,71.43-97.78C292.09,98.56,336.17,82.17,385.68,79.44ZM244.34,174.75c2.49-2.6,6-4.21,5.77-8.31a5.48,5.48,0,0,0-4.09-5.06c-4.39-1.3-6.39,2.41-9.47,4.57Zm36.1-37,4.65-4.35c-2.38-2.75-4.61-3-6.87-.91S276,137,277.86,139s4.63,2.12,7-.28c1-1,3.16-2.17.88-4.15C284.23,136,283.78,138.86,280.44,137.76Zm-22.29,19.73c-2.61-2.68-5.1-2.84-7.22-.62a4.43,4.43,0,0,0,.2,6.6c2.14,2,5,1.51,7.35-1.28,1.62-1.89,1.62-2,0-3.36-2.29,3.57-2.74,3.84-4.86,2.77.77-.67,1.51-1.3,2.23-1.95S257.38,158.21,258.15,157.49Zm29.67-24.29-.08.68c.78,0,1.69.26,2.31,0,2.69-1.37,4.25-3.77,3.4-5.33-2.12-3.9-4.45,0-6.69.15l-.42-.64,3.43-3-.19-.76a6.75,6.75,0,0,0-2.59.54c-1.56,1.07-3.69,2.29-2.66,4.56,1.8,4,4.42,0,7,.76Zm-32,19.88c2.49,1.25,4.74,2.49,7.1,3.5a2.72,2.72,0,0,0,2.22-.51,2.23,2.23,0,0,0,.7-1.91c-.81-2.58-1.83-5.09-2.79-7.71-4.16,2.46.39,4.87-.38,7.27a38,38,0,0,1-3.5-1.92C257.58,150.72,256.78,151.62,255.82,153.08Zm22.46-11c-1.47.78-2.64,1.74-3.93,2-.58.09-2.11-1.49-2-2,.34-1.34,1.35-2.52,2.24-4-1.11-1.84-2.34-.27-3.34.62-2.29,2.07-2.37,4.72-.36,6.77s4.48,1.91,6.8-.3C278.78,144.13,279.85,143,278.28,142.13Zm-14.13,3.17,6,6.65,2.06-1.92c-2.2-2.42-4.05-4.47-6-6.59Z"/><path class="cls-4" d="M271,499l25-34.37c67.12,38.8,133.88,38.84,201.12,0L522.13,499C445,551.1,341,547.14,271,499Zm90.48,4.49.66-1a16.6,16.6,0,0,0,2.91,0c.54-.1,1-.68,1.48-1.05-.51-.43-1-1.11-1.53-1.23a15.48,15.48,0,0,0-3-.06c-.57-2.81,1.31-2,2.42-2.08,1.3-.11,2.9.26,2.07-2.1h-7.63v11.57c2.34,0,4.47.08,6.58-.06.56,0,1.07-.77,1.61-1.19a8,8,0,0,0-1.7-1.14c-.56-.2-1.32.13-1.83-.1A11.29,11.29,0,0,1,361.45,503.46Zm61-2.69,0,.6c-1.23.24-2.66.18-3.64.81a4.17,4.17,0,0,0-1.88,2.94,3.36,3.36,0,0,0,2.36,2.26,35.84,35.84,0,0,0,6.35-.28c-.29-2.72,1.25-6.08-1.76-7.92-1.47-.9-3.86-.33-5.84-.29-.16,0-.3,1.05-.52,1.88Zm-33.18,2.91h6.58c0-3.62-1.5-5.28-4.44-5.27s-4.78,1.88-4.65,4.91,2.17,4.48,5.84,4.15c1.4-.12,3.45.14,2.88-2.48C393.51,505.06,391.37,506.74,389.31,503.68Zm19.85,23.23c.56-7-.33-8.75-4.59-8.53-1.22.06-3.72-.69-3.27,2l5,.24v.91a32.32,32.32,0,0,0-3.56.42c-1.65.36-2.6,1.62-2,3.13a4.09,4.09,0,0,0,2.69,2.26C405.25,527.59,407.15,527.11,409.16,526.91Zm-31.59-3.18H384c.5-3.71-2.08-5.36-4.47-5.37a4.39,4.39,0,0,0-4.67,4.89c.16,2.91,2.21,4.55,5.56,4.17,1.35-.15,3.7.4,3.13-2.53C381.55,525.11,379.44,526.81,377.57,523.73Zm45.92,0h6.34c.25-3.49-1.34-5.37-4.25-5.39a4.32,4.32,0,0,0-4.74,4.56c0,3.08,2,4.87,5.49,4.52,1.36-.14,3.56.29,3.27-2.51C427.47,525.11,425.33,526.78,423.49,523.74ZM415,507.28a40,40,0,0,0-.43-6.41,3.57,3.57,0,0,0-2.34-2.31,31.58,31.58,0,0,0-6,.32v8.54l2.5-.14a33.8,33.8,0,0,1,.39-4.9c.14-.67,1-1.19,1.6-1.77.41.65,1.11,1.27,1.19,2a41,41,0,0,1,.05,4.71Zm-55.82,19.9a17.46,17.46,0,0,1,.07-3.94,9.75,9.75,0,0,1,1.67-2.64,10.14,10.14,0,0,1,1.32,2.63,23.36,23.36,0,0,1,.06,4l2.71-.15a36.36,36.36,0,0,0-.1-6.21,3.53,3.53,0,0,0-2.31-2.35,32.19,32.19,0,0,0-6,.36v8.26Zm38.18-9.41c.32-.24.56-.46.83-.63.58-.37,1.17-.72,1.75-1.08a9.39,9.39,0,0,0-2.12-.92c-2.87-.49-2.78,2.69-4.42,3.79-.14.09.67,1.46.9,2.27a7,7,0,0,1,.16,1.84c0,1.31,0,2.63,0,4h2.93v-5.63l2.26-1.89ZM378,499l-.81-.84-4,2.24-3.88-2.18-1.21.68c4.58,2.8,2.94,5.54.32,8.27l.84.68,4.22-2.53c2.19,2.31,2.19,2.31,4.5,1.61C375,504.34,374.37,501.67,378,499Zm54.21,26.24-.58.55c.48.5.88,1.3,1.46,1.44a11.41,11.41,0,0,0,3.41.22c1.61-.09,3-.63,3.13-2.56s-1.29-2.5-2.84-2.9c-.81-.21-1.61-.5-2.41-.75l.2-.84,4.24.27.5-.43c-.55-.53-1-1.39-1.67-1.54-2.08-.49-4.71-1-5.58,1.47-1.52,4.27,3.22,3,5.32,5.07Zm-46.84-24.71.58-.81L383.32,498l.12-.11-2.89-2.15c-.85,1.9-2.05,3.93-1.8,4.12,1.85,1.45.9,3.37,1.21,5,.36,1.9,3.14,3.4,4.74,2.4.33-.2.21-1.8.18-1.8-3.51-.45-1.74-2.93-2.05-4.75Zm-16.28,15.11c-1.14,2.52-3.3,4.28-1,6.3.13.12,0,.51,0,.77.14,4.57.56,4.93,5.4,4.37-.12-.55-.19-1.53-.37-1.55-3.3-.36-2.14-2.69-2.19-4.24l3-1.67-.34-.76-2.51-.42.41-.5Zm49.81,10.14c-1.69-.49-3.14-.59-4.1-1.33a2.83,2.83,0,0,1-.07-2.79c1-.79,2.48-1,4.24-1.59.58-1.43-1-1.56-2.27-1.66-3-.24-5.22,1.55-5.35,4.22-.16,2.94,1.5,4.79,4.64,4.86C417.26,527.47,419.29,528,418.9,525.73Zm-65.35,1.41V515.71h-2.82v11.43ZM405,498.83a50.12,50.12,0,0,0-5.48-.24,2,2,0,0,0-1.35,1.37c-.17,1.75,0,3.53-.09,5.29-.15,2.26.91,2.53,3,1.83v-2.83c0-1.87.09-3.6,2.71-3.63C404.19,500.62,404.55,499.54,405,498.83Zm23.4,8.64,2.55-.23V495.35h-2.55Zm-35.75,11.36h-6.23v8.29h2.36c.91-6.08.91-6.08,4-6.65Z"/><path class="cls-4" d="M175.79,247.53l41.06,13.33c-8.87,35.23-8.12,70.07,3.09,104.52S251,428.32,278.86,451.6c-8.5,11.67-16.88,23.2-25.43,35-33.87-27.37-58.2-61.23-72.84-101.93C162.26,333.69,165.32,281.58,175.79,247.53Zm31.49,141c1.87,0,3.45,0,5,0a3.38,3.38,0,0,0,1.81-.31c1-.75,2.47-1.71,2.47-2.59,0-2.22-1.12-4.38-.54-6.76.09-.41-1.26-1.63-2-1.71a65.76,65.76,0,0,0-6.74-.08Zm-13.19,0c3.6-.37,7.39.85,9.88-2.68a5.36,5.36,0,0,0,0-6.48c-2.5-3.56-6.29-2.28-9.86-2.62Z"/><path class="cls-4" d="M610.72,227.1,570,240.32c-31.5-70.68-85.39-110.21-162.6-118.14V79.52A226.72,226.72,0,0,1,518.08,114C564,142.66,595.74,185.68,610.72,227.1Zm-100.34-84,.5,0c.52,2.09.93,4.23,1.62,6.26a2.46,2.46,0,0,0,1.89,1.17c.67,0,1.84-.5,2-1,1-3.43,1.7-6.93,2.55-10.55H516.1c-.64,2.49-1.26,4.94-2,7.92-.77-3-1.4-5.47-2-7.89h-2.87c-.64,2.49-1.25,4.89-2,7.83-.79-3.05-1.42-5.49-2.08-8l-2.78.23c.81,3.38,1.68,6.53,2.29,9.73.28,1.46.95,2.17,2.28,1.76a3.43,3.43,0,0,0,2-1.74A53,53,0,0,0,510.38,143.11Zm23.47-4.55h-2.64v11.81a32.83,32.83,0,0,0,5.77.24,4.59,4.59,0,0,0,2.84-2,4.78,4.78,0,0,0-.45-5.7c-1.48-1.88-3.36-1.49-5.3-.41l-.1-2.05C533.94,139.9,533.9,139.3,533.85,138.56ZM528.72,147c0-3.57-1.43-5.33-4.27-5.38a4.43,4.43,0,0,0-4.82,4.76c.08,3,2,4.53,5.69,4.3,1.48-.09,3.59.29,3.14-2.48-4.58,1-4.58,1-5.81-1.2Z"/><path class="cls-1" d="M453.27,308a56.33,56.33,0,0,1-56.57,56.22c-31.56,0-57-25-57-56.09s25.47-56.32,56.87-56.28S453.23,277,453.27,308Zm-56.72-53.08a53.65,53.65,0,0,0-53.86,53c-.21,29,23.76,53.09,53.64,53.18s53.61-23.38,53.93-52.83C450.59,279.06,426.31,255.06,396.55,254.93Z"/><path class="cls-1" d="M361.81,228.77c0,2.7.16,5.43-.05,8.14-.19,2.38-2.24,3.75-5,3.76s-4.71-1.23-5-3.77a79,79,0,0,1-.06-8.31l3.21-.14a60.89,60.89,0,0,0,.09,6.92c.11.94,1,2.4,1.74,2.55,1.77.36,1.74-1.25,1.76-2.51a40.16,40.16,0,0,0,0-4.25C358.27,228.66,359.32,228,361.81,228.77Z"/><path class="cls-1" d="M382.78,236.74l-6.33.33c2.09,2.43,3.93.77,5.63.71.59,1.88.49,2.13-1.08,2.55-3.77,1-7.05-.39-7.56-3.23-.57-3.13,1.12-5.5,4.18-5.88S382.58,232.73,382.78,236.74Z"/><path class="cls-1" d="M430.94,236.89h-6.2c2,2.67,3.89,1,6.21.9-.35.87-.43,1.91-1,2.29-1.62,1.14-5.66.57-7-.78a5,5,0,0,1-.44-6.14,4.73,4.73,0,0,1,5.71-1.61C430.5,232.33,431.27,233.75,430.94,236.89Z"/><path class="cls-1" d="M402,233.22c.61-.62,1.12-1.59,1.85-1.8,4.24-1.22,6.61.66,6.63,5.09,0,1.23,0,2.45,0,3.6-2.22.18-4.2.67-6.07.37a3.91,3.91,0,0,1-2.71-2.5c-.12-.94,1.12-2.31,2.09-3,.75-.56,2-.44,3-1.14h-4.31Z"/><path class="cls-1" d="M399.83,230.73c-2.19.47-4.32.42-5.69,1.42-.78.58-.85,3.1-.3,4.33,1.21,2.71,3.72,1.4,6.57.86-.61,1.28-.78,2.44-1.34,2.68a7,7,0,0,1-7-.71,6.37,6.37,0,0,1-1.87-7,5.62,5.62,0,0,1,5.21-3.87C398.9,228.19,399.91,228.83,399.83,230.73Z"/><path class="cls-1" d="M412.64,238.12l4.41.28.2-.66c-1.86-1.32-6.14-.74-4.62-4.72.91-2.38,3.49-2.11,5.6-1.59.75.19,1.32,1.13,2,1.72l-.5.61-5-.34c2.29,2.12,6.88,1,5.54,5.32-.55,1.77-3.46,2.48-6.41,1.58-.68-.2-1.13-1.13-1.68-1.73Z"/><path class="cls-1" d="M369.71,238.17c-2.48-1.77-6.43-.85-5.61-4.87.36-1.71,2.89-2.54,5.46-2,1.32.27,2.49.64,1.7,2.46l-4.16-.23c1.82,1.82,6.26,1.14,4.64,5.33-.95,2.45-3.69,2-5.87,1.53-.76-.17-1.38-1-2.06-1.54l.49-.66Z"/><path class="cls-1" d="M440,233.78l-4.21-.29c1.65,1.95,6,.95,4.79,5.27-.5,1.73-3.49,2.44-6.4,1.57-.67-.2-1.14-1.1-1.69-1.67l.52-.54h4.52c-1.81-1.64-5.42-.91-4.78-4.72.28-1.72,2.77-2.65,5.38-2.13C439.42,231.53,440.9,231.75,440,233.78Z"/><path class="cls-1" d="M269.72,355.13c-2.08-1.72-3.51-3.48-5.34-4.17-.83-.31-3.05,1.25-3.56,2.43s.31,2.95.54,4.46l1.33.07,1.53-4.39,3.22,3.83c-.33.35-.56.62-.81.86-3.48,3.33-3.87,3.37-6.66.67s-3.14-6.23-.91-8.75,5.78-3,8.26-.85a17.91,17.91,0,0,1,2.68,3.25C270.89,353.82,270.56,354.83,269.72,355.13Z"/><path class="cls-1" d="M287.82,392.05l3.55-5.25-5,2.39L284.25,387c1.69-2.47,3.31-4.86,5.09-7.48,3.42,2.75-.59,4.18-.73,6.39l4.5-2.1c3.3,2.74-1.17,3.89-1.05,5.92,1.91.46,3.94-3.88,6.14.2a56.28,56.28,0,0,1-6.74,3.2C290.57,393.37,289.29,392.5,287.82,392.05Z"/><path class="cls-1" d="M301.28,396.38l-3-3.82c.31-.19.85-.83,1.3-.77,2.8.32,4.82,5.46,2.95,7.56a49.1,49.1,0,0,1-4.09,3.67,33,33,0,0,1-4.26-4.51,3.66,3.66,0,0,1,.15-3.45c.62-.68,2.38-.82,3.43-.5s1.9,1.49,2.83,2.29Z"/><path class="cls-1" d="M272.66,363l-3.13-3.75,1.25-1.08c5.77,4.41,5.51,6.93-1.07,11.31a35.72,35.72,0,0,1-4.28-4.43,3.34,3.34,0,0,1,.18-3.22,4,4,0,0,1,3.42-.62c1.13.34,2,1.54,3,2.36Z"/><path class="cls-1" d="M284.65,381.72l-4.39-4.83c-1,3.23,1.69,3.82,3.26,5.29-1.88,2.17-3,.27-4.06-.68-2.52-2.35-2.67-4.89-.66-7a4.29,4.29,0,0,1,6.56-.1C287.67,376.66,287.52,378.87,284.65,381.72Z"/><path class="cls-1" d="M305.42,398.27c3.94,2.78-.71,4.59-.16,7,1.83.69,4.34-3.7,6.53.51-3.47,1.24-6.74,2.51-10.08,3.52a4.42,4.42,0,0,1-3-.53c-.57-.31-.75-1.34-1.1-2.05a6.28,6.28,0,0,0,2,.11,3.6,3.6,0,0,0,2.09-1.19C303.06,403.28,304.18,400.8,305.42,398.27Z"/><path class="cls-1" d="M307.94,411.23l2.91,3.52c.57-2.59-3-5.12.67-6.92,2.33-1.14,3.71,1,4.78,2.72.42.68.25,1.72.35,2.6l-.79.14-3.12-4c-.47,3.09,4.08,6.07-.59,7.66-2.6.88-3.8-1.68-4.95-3.5-.37-.58-.06-1.6-.06-2.41Z"/><path class="cls-1" d="M280.22,368.43l1.31,1.94c-1.34,2.4-2.14.25-3.22-.42-1.66,1.24-4.24,2-1.34,5.58-1.47-.2-2.59-.08-2.75-.41-.62-1.31-1.6-3-1.23-4.12.6-1.85,3.26-2.54,3.46-5.05,0-.38,2.23-.59,3.66-.94C281.76,366.4,281.76,366.4,280.22,368.43Z"/><path class="cls-1" d="M471.78,429a8.54,8.54,0,0,1-1.09-.64c-2.58-2.14-5.14-4.29-8-6.71,1.49-1.67,2.81-3.28,4.28-4.75a3.24,3.24,0,0,1,4.75-.22,3.4,3.4,0,0,1,.94,4.7c-.51.92-1.18,1.75-2,2.9l3,2.39Zm-2.68-6.12c.37-1.21.73-2.19.93-3.2,0-.17-.71-.75-.9-.67a32.18,32.18,0,0,0-2.9,1.56Z"/><path class="cls-1" d="M486.79,405.19l-3.92,5.06c3.32.38,3.47-2.23,4.54-4,2.46,1.08,1.09,2.56.3,3.76-2,3.12-4.62,3.79-7.12,2-2.29-1.63-2.63-4.36-.82-6.73S483.91,402.84,486.79,405.19Z"/><path class="cls-1" d="M519.46,367.64c1.65,1.46,1.56,2.37-.31,4.61s-4.65,2.67-6.76.87-2.37-4.29-.48-6.54,4.06-2.34,6.95-.06c-1.23,1.56-2.48,3.12-3.72,4.68C517.12,372,517.64,371.62,519.46,367.64Z"/><path class="cls-1" d="M499.8,389.42c-1.25,1.64-2.49,3.29-3.87,5.11,2.51,0,2.94-.39,4.33-3.78,1.65.33,1.75,1.2,1.08,2.57-1.71,3.44-4.58,4.8-7.23,3.36a4.34,4.34,0,0,1-1.68-6.51C494.11,387.45,496.7,387.13,499.8,389.42Z"/><path class="cls-1" d="M504,390.15c-2.41-2-4.46-3.69-6.54-5.4,1.2-1.71,2.12-3.6,3.58-4.87a4.16,4.16,0,0,1,3.74-.34c1.77.88,3.21,2.44,4.86,3.76l-1.83,2.19a38.52,38.52,0,0,0-3.74-2.94c-.58-.37-1.5-.21-2.27-.29.12.81,0,1.83.4,2.38a32.08,32.08,0,0,0,3.53,3.32Z"/><path class="cls-1" d="M526.48,359.8l3-3.31c-2.7-.47-4.94,4.15-7.12,0-1.19-2.26.91-4,2.55-5.28.46-.38,1.47-.06,2.7-.06l-3.86,4.26c3.17-.21,5.24-4.76,7.65-.87,1.35,2.17-.67,3.8-2.07,5.18-.63.62-1.79.7-2.72,1Z"/><path class="cls-1" d="M490.87,395.67l-3.65,3.84.49.67c.76-.49,1.56-.94,2.29-1.49,1.22-.9,2.69-1.69,3.68-.19a5,5,0,0,1,.31,3.75,6.53,6.53,0,0,1-2.38,2.76c-.52.39-1.48.22-2.24.3l-.09-.65,3.18-3.49-.59-.72c-.79.51-1.62,1-2.36,1.54-1.28,1-2.74,1.43-3.65-.06a4.61,4.61,0,0,1-.17-3.51,5.78,5.78,0,0,1,2.28-2.49C488.51,395.56,489.44,395.77,490.87,395.67Z"/><path class="cls-1" d="M503.26,373.43l1.21-1.54,1.5.91,3.16-1c-.11.92-.23,1.85-.41,3.27l2.7,2.27,1.95-1.44c.12,0,.36,0,.41.08.28.46.82,1.05.7,1.41a3.45,3.45,0,0,1-5.54,1.71c-1.14-.82-2-2.33-3.81-1.57-.17.07-.82-.61-1-1A27.91,27.91,0,0,1,503.26,373.43Z"/><path class="cls-1" d="M472.39,414.7c1.35-1.66,2.55-3.14,3.95-4.88l1.81,1c-3.65,4.09,1.2,4.92,2.52,7.32l-1.58,2.05Z"/><path class="cls-1" d="M524.61,365.06l-1.46,2.07-6.76-5.46,4-5,1.69,1.15C518.43,361.77,523.31,362.66,524.61,365.06Z"/><path class="cls-1" d="M421.35,179.44c1.85,2.72,3.88,1.17,5.83,1.1.91,2.64-1.37,2.33-2.6,2.55-3.32.61-5.88-1.33-6-4.32s1.69-4.74,4.76-4.74,4.64,1.74,4.4,5.41h-6.36Z"/><path class="cls-1" d="M356.59,180.84c.84.89.27,1.68-1.4,2.08a6.66,6.66,0,0,1-7.08-2.35,6.86,6.86,0,0,1,0-7,6.24,6.24,0,0,1,7.06-2.25,4.1,4.1,0,0,1,2,2.32c-2.44-.09-5-1.37-6.27,1.34-.58,1.26-.48,3.86.36,4.54C352.56,180.55,354.77,180.45,356.59,180.84Z"/><path class="cls-1" d="M363.54,174c3,0,4.7,1.63,4.7,4.51a4.44,4.44,0,0,1-4.7,4.66,4.71,4.71,0,0,1-4.94-4.8C358.7,175.61,360.5,174,363.54,174Zm.58,1.83-1.06,0c-.43.79-1.27,1.64-1.17,2.37.13,1,1,1.87,1.51,2.8.65-.79,1.71-1.51,1.83-2.37S364.53,176.79,364.12,175.86Z"/><path class="cls-1" d="M401.34,174c3.06,0,4.76,1.56,4.78,4.42a4.43,4.43,0,0,1-4.85,4.75,4.65,4.65,0,0,1-4.76-4.71C396.54,175.69,398.33,174.05,401.34,174Zm-2.5,4.62,2.61,2.34c.6-.84,1.67-1.69,1.67-2.52s-1.15-1.57-1.8-2.36Z"/><path class="cls-1" d="M370.39,174.32a29.14,29.14,0,0,1,5.78-.16,4.08,4.08,0,0,1,2.64,2.24c.51,1.25.23,2.8.34,4.21.18,2.18-.81,2.68-3,1.89a42.89,42.89,0,0,0-.05-4.38c-.06-.63-.66-1.21-1-1.81-.61.52-1.61,1-1.76,1.59a28.8,28.8,0,0,0-.36,4.8l-2.56.13Z"/><path class="cls-1" d="M444.87,176.23,440.3,176c1.49,2.27,6.16.95,4.72,5.42-.55,1.73-3.35,2.36-6.13,1.42-.66-.22-1.09-1.07-2.06-2.08l5.3.35.25-.72a8.18,8.18,0,0,0-1.69-.81c-1.7-.41-3.43-.8-3.22-3.09.23-2.48,2.19-2.48,4-2.4C442.78,174.12,444.74,173.48,444.87,176.23Z"/><path class="cls-1" d="M383,171.5c1.47-.61,2,.58,1.9,2.46l2.5.23c.93,2.58-1.15,1.92-2.43,2.28.11,1.78-1.33,4.14,2,4.64.08,0,.24,1.41,0,1.6-1.71,1.2-4.69-.45-5-2.56-.19-1.5.86-3.41-1.34-4.35-.16-.07-.14-1.05.09-1.43A31.17,31.17,0,0,1,383,171.5Z"/><path class="cls-1" d="M413.55,171.13c2.2-.7,3.21-.32,3.11,1.9-.12,2.64.07,5.3-.1,7.94-.05.66-.95,1.26-1.46,1.89-.52-.62-1.45-1.22-1.48-1.86C413.47,177.76,413.55,174.5,413.55,171.13Z"/><path class="cls-1" d="M408.23,182.88V171l2.53-.2v11.9Z"/><path class="cls-1" d="M436.4,174.45c0,.35.05.94.08,1.51-3.41.78-3.41.78-3.8,6.57a6.56,6.56,0,0,1-1.14.31,8.76,8.76,0,0,1-1.41-.13v-8.26Z"/><path class="cls-1" d="M389.54,174.38a41.75,41.75,0,0,1,5.14-.25c.54,0,1,.94,1.84,1.75-4,.76-4,.76-4.44,6.65a5.6,5.6,0,0,1-1.14.3,8.43,8.43,0,0,1-1.4-.12Z"/><path class="cls-1" d="M594.37,357.68h3a78.83,78.83,0,0,1-.06,8.14c-.28,2.59-2,3.59-5,3.6-2.56,0-4.44-1-4.7-3.67s-.05-5.26-.05-8h3v6.88c0,1.34.26,2.81,1.9,2.46a3.45,3.45,0,0,0,1.83-2.52A57.5,57.5,0,0,0,594.37,357.68Z"/><path class="cls-1" d="M603.28,357.74V369.2h-2.77V357.74Z"/><path class="cls-1" d="M244.34,174.75l-7.79-8.8c3.08-2.16,5.08-5.87,9.47-4.57a5.48,5.48,0,0,1,4.09,5.06C250.38,170.54,246.83,172.15,244.34,174.75Zm-3.88-8.92,4.65,5.09c2.37-2.45,2.63-4.14,1.13-5.81S243,163.59,240.46,165.83Z"/><path class="cls-1" d="M280.44,137.76c3.34,1.1,3.79-1.78,5.26-3.15,2.28,2,.15,3.1-.88,4.15-2.33,2.4-5,2.42-7,.28s-1.77-4.57.36-6.54,4.49-1.84,6.87.91Z"/><path class="cls-1" d="M258.15,157.49c-.77.72-1.52,1.45-2.3,2.16s-1.46,1.28-2.23,1.95c2.12,1.07,2.57.8,4.86-2.77,1.62,1.35,1.62,1.47,0,3.36-2.39,2.79-5.21,3.28-7.35,1.28a4.43,4.43,0,0,1-.2-6.6C253.05,154.65,255.54,154.81,258.15,157.49Z"/><path class="cls-1" d="M287.82,133.2l3.53-3c-2.6-.72-5.22,3.23-7-.76-1-2.27,1.1-3.49,2.66-4.56a6.75,6.75,0,0,1,2.59-.54l.19.76-3.43,3,.42.64c2.24-.18,4.57-4.05,6.69-.15.85,1.56-.71,4-3.4,5.33-.62.31-1.53,0-2.31,0Z"/><path class="cls-1" d="M255.82,153.08c1-1.46,1.76-2.36,3.35-1.28a38,38,0,0,0,3.5,1.92c.77-2.4-3.78-4.81.38-7.27,1,2.62,2,5.13,2.79,7.71a2.23,2.23,0,0,1-.7,1.91,2.72,2.72,0,0,1-2.22.51C260.56,155.57,258.31,154.33,255.82,153.08Z"/><path class="cls-1" d="M278.28,142.13c1.57.9.5,2-.57,3-2.32,2.21-4.84,2.31-6.8.3s-1.93-4.7.36-6.77c1-.89,2.23-2.46,3.34-.62-.89,1.49-1.9,2.67-2.24,4-.13.51,1.4,2.09,2,2C275.64,143.87,276.81,142.91,278.28,142.13Z"/><path class="cls-1" d="M264.15,145.3l2.11-1.86c1.91,2.12,3.76,4.17,6,6.59L270.16,152Z"/><path class="cls-1" d="M361.45,503.46a11.29,11.29,0,0,0,2,1.49c.51.23,1.27-.1,1.83.1a8,8,0,0,1,1.7,1.14c-.54.42-1.05,1.15-1.61,1.19-2.11.14-4.24.06-6.58.06V495.87h7.63c.83,2.36-.77,2-2.07,2.1-1.11.09-3-.73-2.42,2.08a15.48,15.48,0,0,1,3,.06c.57.12,1,.8,1.53,1.23-.49.37-.94,1-1.48,1.05a16.6,16.6,0,0,1-2.91,0Z"/><path class="cls-1" d="M422.49,500.77H417.6c.22-.83.36-1.88.52-1.88,2,0,4.37-.61,5.84.29,3,1.84,1.47,5.2,1.76,7.92a35.84,35.84,0,0,1-6.35.28,3.36,3.36,0,0,1-2.36-2.26,4.17,4.17,0,0,1,1.88-2.94c1-.63,2.41-.57,3.64-.81Z"/><path class="cls-1" d="M389.31,503.68c2.06,3.06,4.2,1.38,6.21,1.31.57,2.62-1.48,2.36-2.88,2.48-3.67.33-5.72-1.2-5.84-4.15s1.64-4.89,4.65-4.91,4.42,1.65,4.44,5.27Z"/><path class="cls-1" d="M409.16,526.91c-2,.2-3.91.68-5.73.45a4.09,4.09,0,0,1-2.69-2.26c-.6-1.51.35-2.77,2-3.13a32.32,32.32,0,0,1,3.56-.42v-.91l-5-.24c-.45-2.71,2.05-2,3.27-2C408.83,518.16,409.72,519.92,409.16,526.91Z"/><path class="cls-1" d="M377.57,523.73c1.87,3.08,4,1.38,6,1.16.57,2.93-1.78,2.38-3.13,2.53-3.35.38-5.4-1.26-5.56-4.17a4.39,4.39,0,0,1,4.67-4.89c2.39,0,5,1.66,4.47,5.37Z"/><path class="cls-1" d="M423.49,523.74c1.84,3,4,1.37,6.11,1.18.29,2.8-1.91,2.37-3.27,2.51-3.45.35-5.51-1.44-5.49-4.52a4.32,4.32,0,0,1,4.74-4.56c2.91,0,4.5,1.9,4.25,5.39Z"/><path class="cls-1" d="M415,507.28H412a41,41,0,0,0-.05-4.71c-.08-.69-.78-1.31-1.19-2-.56.58-1.46,1.1-1.6,1.77a33.8,33.8,0,0,0-.39,4.9l-2.5.14v-8.54a31.58,31.58,0,0,1,6-.32,3.57,3.57,0,0,1,2.34,2.31A40,40,0,0,1,415,507.28Z"/><path class="cls-1" d="M359.2,527.18h-2.61v-8.26a32.19,32.19,0,0,1,6-.36,3.53,3.53,0,0,1,2.31,2.35,36.36,36.36,0,0,1,.1,6.21l-2.71.15a23.36,23.36,0,0,0-.06-4,10.14,10.14,0,0,0-1.32-2.63,9.75,9.75,0,0,0-1.67,2.64A17.46,17.46,0,0,0,359.2,527.18Z"/><path class="cls-1" d="M397.38,517.77l2.29,1.79-2.26,1.89v5.63h-2.93c0-1.41,0-2.73,0-4a7,7,0,0,0-.16-1.84c-.23-.81-1-2.18-.9-2.27,1.64-1.1,1.55-4.28,4.42-3.79a9.39,9.39,0,0,1,2.12.92c-.58.36-1.17.71-1.75,1.08C397.94,517.31,397.7,517.53,397.38,517.77Z"/><path class="cls-1" d="M378,499c-3.63,2.72-3,5.39,0,7.93-2.31.7-2.31.7-4.5-1.61l-4.22,2.53-.84-.68c2.62-2.73,4.26-5.47-.32-8.27l1.21-.68,3.88,2.18,4-2.24Z"/><path class="cls-1" d="M432.21,525.19h5.18c-2.1-2.08-6.84-.8-5.32-5.07.87-2.44,3.5-2,5.58-1.47.65.15,1.12,1,1.67,1.54l-.5.43-4.24-.27-.2.84c.8.25,1.6.54,2.41.75,1.55.4,3,.93,2.84,2.9s-1.52,2.47-3.13,2.56a11.41,11.41,0,0,1-3.41-.22c-.58-.14-1-.94-1.46-1.44Z"/><path class="cls-1" d="M385.37,500.48l-2.54.27c.31,1.82-1.46,4.3,2.05,4.75,0,0,.15,1.6-.18,1.8-1.6,1-4.38-.5-4.74-2.4-.31-1.67.64-3.59-1.21-5-.25-.19.95-2.22,1.8-4.12l2.89,2.15-.12.11,2.63,1.67Z"/><path class="cls-1" d="M369.09,515.59l2.39,2.3-.41.5,2.51.42.34.76-3,1.67c.05,1.55-1.11,3.88,2.19,4.24.18,0,.25,1,.37,1.55-4.84.56-5.26.2-5.4-4.37,0-.26.11-.65,0-.77C365.79,519.87,368,518.11,369.09,515.59Z"/><path class="cls-1" d="M418.9,525.73c.39,2.24-1.64,1.74-2.91,1.71-3.14-.07-4.8-1.92-4.64-4.86.13-2.67,2.33-4.46,5.35-4.22,1.31.1,2.85.23,2.27,1.66-1.76.6-3.24.8-4.24,1.59a2.83,2.83,0,0,0,.07,2.79C415.76,525.14,417.21,525.24,418.9,525.73Z"/><path class="cls-1" d="M353.55,527.14h-2.82V515.71h2.82Z"/><path class="cls-1" d="M405,498.83c-.46.71-.82,1.79-1.2,1.79-2.62,0-2.71,1.76-2.71,3.63v2.83c-2.1.7-3.16.43-3-1.83.11-1.76-.08-3.54.09-5.29a2,2,0,0,1,1.35-1.37A50.12,50.12,0,0,1,405,498.83Z"/><path class="cls-1" d="M428.41,507.47V495.35H431v11.89Z"/><path class="cls-1" d="M392.66,518.83l.16,1.64c-3.12.57-3.12.57-4,6.65h-2.36v-8.29Z"/><path class="cls-1" d="M207.28,388.52V377.06a65.76,65.76,0,0,1,6.74.08c.77.08,2.12,1.3,2,1.71-.58,2.38.55,4.54.54,6.76,0,.88-1.51,1.84-2.47,2.59a3.38,3.38,0,0,1-1.81.31C210.73,388.54,209.15,388.52,207.28,388.52Zm3.16-2.41.64.76,2.62-2.07-3.26-2.13Z"/><path class="cls-1" d="M194.09,388.55V376.77c3.57.34,7.36-.94,9.86,2.62a5.36,5.36,0,0,1,0,6.48C201.48,389.4,197.69,388.18,194.09,388.55Zm3-1.82c1.69-.91,3.33-1.32,4.09-2.36a3.76,3.76,0,0,0,0-3.58c-.78-1-2.42-1.39-4-2.21Z"/><path class="cls-1" d="M510.38,143.11a53,53,0,0,1-1.47,5.74,3.43,3.43,0,0,1-2,1.74c-1.33.41-2-.3-2.28-1.76-.61-3.2-1.48-6.35-2.29-9.73l2.78-.23c.66,2.51,1.29,4.95,2.08,8,.76-2.94,1.37-5.34,2-7.83h2.87c.62,2.42,1.25,4.87,2,7.89.76-3,1.38-5.43,2-7.92h2.82c-.85,3.62-1.59,7.12-2.55,10.55-.14.51-1.31,1-2,1a2.46,2.46,0,0,1-1.89-1.17c-.69-2-1.1-4.17-1.62-6.26Z"/><path class="cls-1" d="M533.85,138.56c0,.74.09,1.34.12,1.94l.1,2.05c1.94-1.08,3.82-1.47,5.3.41a4.78,4.78,0,0,1,.45,5.7,4.59,4.59,0,0,1-2.84,2,32.83,32.83,0,0,1-5.77-.24V138.56Zm-.6,7.8,2.41,2.22c.61-.8,1.7-1.6,1.7-2.4s-1.09-1.61-1.7-2.41Z"/><path class="cls-1" d="M528.72,147h-6.07c1.23,2.19,1.23,2.19,5.81,1.2.45,2.77-1.66,2.39-3.14,2.48-3.68.23-5.61-1.3-5.69-4.3a4.43,4.43,0,0,1,4.82-4.76C527.29,141.66,528.77,143.42,528.72,147Z"/><path class="cls-5" d="M396.55,254.93c29.76.13,54,24.13,53.71,53.35-.32,29.45-23.93,52.91-53.93,52.83s-53.85-24.18-53.64-53.18A53.65,53.65,0,0,1,396.55,254.93ZM363,302.73v11.74c2.33,0,4.45.08,6.56-.06.57,0,1.09-.72,1.62-1.11a5.46,5.46,0,0,0-1.7-1,22.25,22.25,0,0,0-3.37,0v-2.61a19.41,19.41,0,0,0,3.26-.05c.5-.09.9-.74,1.35-1.13-.47-.38-.89-.94-1.42-1.1s-1.44.07-2.1-.12c-.46-.12-.8-.67-1.2-1,.42-.32.81-.86,1.26-.92a29.32,29.32,0,0,1,3.38,0l.51-.93c-.63-.53-1.21-1.43-1.89-1.5C367.28,302.6,365.25,302.73,363,302.73Zm56.83,8.2c0-3.77-1.7-5.58-4.71-5.38s-4.72,2.2-4.36,5.35c.34,2.93,2.84,4.27,6.72,3.6,2.1-.36,2.12-.39,1.68-2.34-4.15,1-4.15,1-5.37-1.23Zm-43.46,3.4a39.5,39.5,0,0,1,.35-5c.11-.59,1-1,1.5-1.55.41.56,1.12,1.08,1.18,1.68a44.76,44.76,0,0,1,.06,4.79h3c0-2,.35-4-.12-5.69a4.6,4.6,0,0,0-2.76-2.9c-1.83-.36-3.84.2-5.9.38v8.25ZM422,312.4l-.47.59c.58.5,1.11,1.31,1.77,1.44,2.16.41,5,1,5.89-1.47,1.6-4.35-3.18-3.19-5-4.67l.15-.71,4.38.2.46-.48c-.59-.52-1.1-1.35-1.77-1.5-2.08-.46-4.69-.93-5.54,1.55-1.44,4.25,3.31,2.93,5.29,5Zm-36-9.1c-.9,1.32-1.9,2.15-1.94,3s.76,2.07,1.18,3.12a1.86,1.86,0,0,1,0,.53c.1,4.31,1,5,5.56,4.12-.21-.57-.35-1.53-.61-1.56-3.36-.42-1.76-2.73-1.94-4.47a5.23,5.23,0,0,0,1.16-.25c.56-.27,1.09-.62,1.63-.93a11.71,11.71,0,0,1-1.61-1.15A15.2,15.2,0,0,1,388,304a5,5,0,0,1-.34-.65Zm15.28,4.76a4.29,4.29,0,0,0,1.39-.26,21.25,21.25,0,0,0,2-1.72l-3.22-.53-.34-2.22h-2.37c-.4,2-2.79,3.85-.3,5.91.13.11,0,.51,0,.78.13,4.34,1,5,5.59,4.09-.22-.57-.39-1.54-.63-1.56C400,312.27,401.63,309.84,401.26,308.06Zm4.64-2.14v8.37h2.68v-8.37Zm-10.58,8.46V306h-2.48v8.38Zm14.36-10.91c-1.37-.67-2-1.25-2.49-1.15s-.93.85-1.38,1.31c.46.37.91,1,1.39,1S408.33,304.16,409.68,303.47Zm-13.37.3c-1.08-.83-1.58-1.5-2-1.45-.57.07-1.09.67-1.63,1,.37.46.69,1.22,1.12,1.29S395,304.27,396.31,303.77Z"/><path class="cls-6" d="M469.1,422.87l-2.87-2.31a32.18,32.18,0,0,1,2.9-1.56c.19-.08.94.5.9.67C469.83,420.68,469.47,421.66,469.1,422.87Z"/><path class="cls-6" d="M364.12,175.86c.41.93,1.23,1.91,1.11,2.76s-1.18,1.58-1.83,2.37c-.54-.93-1.38-1.82-1.51-2.8-.1-.73.74-1.58,1.17-2.37Z"/><path class="cls-6" d="M398.84,178.65l2.48-2.54c.65.79,1.79,1.57,1.8,2.36s-1.07,1.68-1.67,2.52Z"/><path class="cls-4" d="M240.46,165.83c2.54-2.24,4.28-2.38,5.78-.72s1.24,3.36-1.13,5.81Z"/><path class="cls-4" d="M197.11,386.73v-8.15c1.63.82,3.27,1.18,4,2.21a3.76,3.76,0,0,1,0,3.58C200.44,385.41,198.8,385.82,197.11,386.73Z"/><path class="cls-4" d="M533.25,146.36l2.41-2.59c.61.8,1.7,1.61,1.7,2.41s-1.09,1.6-1.7,2.4Z"/><path class="cls-1" d="M363,302.73c2.23,0,4.26-.13,6.26.07.68.07,1.26,1,1.89,1.5l-.51.93a29.32,29.32,0,0,0-3.38,0c-.45.06-.84.6-1.26.92.4.35.74.9,1.2,1,.66.19,1.45-.08,2.1.12s.95.72,1.42,1.1c-.45.39-.85,1-1.35,1.13a19.41,19.41,0,0,1-3.26.05v2.61a22.25,22.25,0,0,1,3.37,0,5.46,5.46,0,0,1,1.7,1c-.53.39-1.05,1.08-1.62,1.11-2.11.14-4.23.06-6.56.06Z"/><path class="cls-1" d="M419.85,310.93h-6c1.22,2.23,1.22,2.23,5.37,1.23.44,1.95.42,2-1.68,2.34-3.88.67-6.38-.67-6.72-3.6-.36-3.15,1.27-5.16,4.36-5.35S419.87,307.16,419.85,310.93Z"/><path class="cls-1" d="M376.39,314.33h-2.71v-8.25c2.06-.18,4.07-.74,5.9-.38a4.6,4.6,0,0,1,2.76,2.9c.47,1.72.12,3.67.12,5.69h-3a44.76,44.76,0,0,0-.06-4.79c-.06-.6-.77-1.12-1.18-1.68-.52.51-1.39,1-1.5,1.55A39.5,39.5,0,0,0,376.39,314.33Z"/><path class="cls-1" d="M422,312.4h5.19c-2-2.12-6.73-.8-5.29-5,.85-2.48,3.46-2,5.54-1.55.67.15,1.18,1,1.77,1.5l-.46.48-4.38-.2-.15.71c1.79,1.48,6.57.32,5,4.67-.92,2.49-3.73,1.88-5.89,1.47-.66-.13-1.19-.94-1.77-1.44Z"/><path class="cls-1" d="M386,303.3h1.72a5,5,0,0,0,.34.65,15.2,15.2,0,0,0,1.38,1.79,11.71,11.71,0,0,0,1.61,1.15c-.54.31-1.07.66-1.63.93a5.23,5.23,0,0,1-1.16.25c.18,1.74-1.42,4.05,1.94,4.47.26,0,.4,1,.61,1.56-4.55.91-5.46.19-5.56-4.12a1.86,1.86,0,0,0,0-.53c-.42-1.05-1.23-2.1-1.18-3.12S385.08,304.62,386,303.3Z"/><path class="cls-1" d="M401.26,308.06c.37,1.78-1.24,4.21,2.15,4.49.24,0,.41,1,.63,1.56-4.63.89-5.46.25-5.59-4.09,0-.27.1-.67,0-.78-2.49-2.06-.1-3.88.3-5.91h2.37l.34,2.22,3.22.53a21.25,21.25,0,0,1-2,1.72A4.29,4.29,0,0,1,401.26,308.06Z"/><path class="cls-1" d="M405.9,305.92h2.68v8.37H405.9Z"/><path class="cls-1" d="M395.32,314.38h-2.48V306h2.48Z"/><path class="cls-1" d="M409.68,303.47c-1.35.69-1.93,1.22-2.48,1.19s-.93-.66-1.39-1c.45-.46.85-1.2,1.38-1.31S408.31,302.8,409.68,303.47Z"/><path class="cls-1" d="M396.31,303.77c-1.31.5-1.95,1-2.5.88s-.75-.83-1.12-1.29c.54-.37,1.06-1,1.63-1C394.73,302.27,395.23,302.94,396.31,303.77Z"/><path class="cls-4" d="M210.57,381.77V378c.75.38,1.51.55,1.87,1a1.77,1.77,0,0,1,0,1.66C212.11,381.16,211.35,381.35,210.57,381.77Z"/><path class="cls-4" d="M210.44,386.87v-4.22c1.17.43,2.36.62,2.92,1.15a1.47,1.47,0,0,1,0,1.85C212.84,386.19,211.66,386.4,210.44,386.87Z"/></g></svg>