<svg id="gris" xmlns="http://www.w3.org/2000/svg" viewBox="0 0 792 612"><defs><style>.cls-1{fill:#515151;}.cls-2{fill:#ececec;}</style></defs><title>Tema</title><path class="cls-1" d="M381.86,362.56a59.92,59.92,0,1,1,56.51-79.9h3.46a39.95,39.95,0,0,1,0,79.9h-60Zm0-106.54a46.61,46.61,0,0,0,0,93.22h60a26.63,26.63,0,1,0,0-53.26h-8.38a6.66,6.66,0,0,1-6.45-5A46.7,46.7,0,0,0,381.86,256Z"/><path class="cls-1" d="M204.54,355.53H79.11A23.55,23.55,0,0,1,55.59,332v-78.4a23.55,23.55,0,0,1,23.52-23.52H204.54a23.55,23.55,0,0,1,23.52,23.52V332A23.55,23.55,0,0,1,204.54,355.53ZM79.11,245.77a7.85,7.85,0,0,0-7.84,7.84V332a7.85,7.85,0,0,0,7.84,7.84H204.54a7.85,7.85,0,0,0,7.84-7.84v-78.4a7.85,7.85,0,0,0-7.84-7.84Z"/><path class="cls-1" d="M173.18,386.88H110.46a7.84,7.84,0,1,1,0-15.68h62.72a7.84,7.84,0,0,1,0,15.68Z"/><path class="cls-1" d="M141.82,386.88A7.83,7.83,0,0,1,134,379V347.69a7.84,7.84,0,0,1,15.68,0V379A7.83,7.83,0,0,1,141.82,386.88Z"/><path class="cls-1" d="M714.33,302.57H602.2a21,21,0,0,1-21-21v-28a21,21,0,0,1,21-21H714.33a21,21,0,0,1,21,21v28A21,21,0,0,1,714.33,302.57ZM602.2,246.51a7,7,0,0,0-7,7v28a7,7,0,0,0,7,7H714.33a7,7,0,0,0,7-7v-28a7,7,0,0,0-7-7Z"/><path class="cls-1" d="M714.33,386.67H602.2a21,21,0,0,1-21-21v-28a21,21,0,0,1,21-21H714.33a21,21,0,0,1,21,21v28A21,21,0,0,1,714.33,386.67ZM602.2,330.61a7,7,0,0,0-7,7v28a7,7,0,0,0,7,7H714.33a7,7,0,0,0,7-7v-28a7,7,0,0,0-7-7Z"/><path class="cls-1" d="M616.29,274.54a7,7,0,0,1-.08-14h.08a7,7,0,0,1,0,14Z"/><path class="cls-1" d="M616.29,358.64a7,7,0,0,1-.08-14h.08a7,7,0,0,1,0,14Z"/><rect class="cls-2" x="249.62" y="297.07" width="52.5" height="11"/><rect class="cls-2" x="505.23" y="297.07" width="52.5" height="11"/></svg>