<svg id="gris" xmlns="http://www.w3.org/2000/svg" xmlns:xlink="http://www.w3.org/1999/xlink" viewBox="0 0 792 612"><defs><style>.cls-1{fill:#ececec;}.cls-2{fill:#515151;}.cls-3{clip-path:url(#clip-path);}.cls-4{clip-path:url(#clip-path-2);}.cls-5{clip-path:url(#clip-path-3);}.cls-6{clip-path:url(#clip-path-4);}.cls-7{clip-path:url(#clip-path-5);}.cls-8{clip-path:url(#clip-path-6);}.cls-9{clip-path:url(#clip-path-7);}.cls-10{fill:#676767;}</style><clipPath id="clip-path"><path class="cls-1" d="M237.24,235.79A2.81,2.81,0,0,0,241,234.4q2.43-4.26,4.88-8.5c.84-1.47,1.7-2.93,2.52-4.42a2.81,2.81,0,0,0-2.39-4.33,2.61,2.61,0,0,0-2.41,1.43c-.35.58-.68,1.19-1,1.79-2.16,3.8-4.31,7.61-6.48,11.4A2.93,2.93,0,0,0,237.24,235.79Z"/></clipPath><clipPath id="clip-path-2"><path class="cls-1" d="M174.51,234.62a2.63,2.63,0,0,0,2.08,1.44,2.92,2.92,0,0,0,3.09-3.29,5.78,5.78,0,0,0-.81-1.81l-7-12.23a2.82,2.82,0,0,0-2.19-1.56,2.56,2.56,0,0,0-2.58,1.24,2.83,2.83,0,0,0,0,3.14Q170.77,228.09,174.51,234.62Z"/></clipPath><clipPath id="clip-path-3"><path class="cls-1" d="M205,225a2.69,2.69,0,0,0,2.9,2.68,2.56,2.56,0,0,0,2.57-2.73c0-.49,0-1,0-1.47.22-4.6.06-9.19.08-13.79a2.74,2.74,0,0,0-1.1-2.32,2.57,2.57,0,0,0-2.84-.3,2.67,2.67,0,0,0-1.64,2.51c0,2.56,0,5.11,0,7.67h0C205,219.81,204.94,222.39,205,225Z"/></clipPath><clipPath id="clip-path-4"><path class="cls-1" d="M262.12,258.66c.51-.24,1-.54,1.49-.82l11.66-6.8a2.87,2.87,0,0,0,1.28-4,2.8,2.8,0,0,0-3.84-1.07q-6.54,3.8-13,7.65a2.9,2.9,0,0,0-1.39,2.87A2.62,2.62,0,0,0,262.12,258.66Z"/></clipPath><clipPath id="clip-path-5"><path class="cls-1" d="M139.94,250.83c2.26,1.4,4.56,2.72,6.85,4.06,2.1,1.23,4.18,2.5,6.32,3.66a2.66,2.66,0,0,0,4-2.45c.11-1.33-.75-2.15-1.88-2.8l-6.12-3.56-6.24-3.65a2.79,2.79,0,1,0-3,4.74Z"/></clipPath><clipPath id="clip-path-6"><path class="cls-1" d="M158.3,291.31c0,.66.08,1.32.16,2a38.42,38.42,0,0,0,1.33,6.72h0a40.63,40.63,0,0,0,1.61,5.2c1.57-1.08,3-2.34,4.57-3.52a49.3,49.3,0,0,1-2.07-8.63,64.29,64.29,0,0,1-.43-6.79h0l.16-3.18.2-.07c.26-.18.26-.46.29-.72.17-1.34.32-2.68.6-4a1.52,1.52,0,0,0,0-.87.18.18,0,0,0,0-.07c.24-.1.28-.37.34-.61.39-1.49.81-3,1.27-4.43a.89.89,0,0,0,0-.66c.2,0,.28-.24.36-.43.46-1.15,1-2.29,1.44-3.44a.68.68,0,0,0,.07-.55c.27-.08.37-.35.5-.58.7-1.17,1.3-2.41,2.06-3.56a63.49,63.49,0,0,1,4.11-5.54c.13-.16.32-.32.34-.53a1.32,1.32,0,0,0,.71-.56,21.76,21.76,0,0,1,2-2,41.15,41.15,0,0,1,9.53-6.77,44.4,44.4,0,0,1,7.42-3.06c.22-.07.5-.11.6-.31h0a2.7,2.7,0,0,0,1.08-.18,44.79,44.79,0,0,1,10.5-1.43,40.63,40.63,0,0,1,4.93.28,43.36,43.36,0,0,1,21.2,8.28c2.55-.43,5.07-.94,7.61-1.42a49.44,49.44,0,0,0-7.21-5.48A48.94,48.94,0,0,0,210,237a46.77,46.77,0,0,0-11.74.88,43.25,43.25,0,0,0-9.49,2.92,35.24,35.24,0,0,0-5.95,2.91A48.93,48.93,0,0,0,170,254.52a47.62,47.62,0,0,0-6.78,10.35h0a39.47,39.47,0,0,0-2,4.7h0a18.83,18.83,0,0,0-1.07,3.12,1,1,0,0,1-.67.76l-.18.88a30.28,30.28,0,0,0-.95,6.54v.06l0,.05,0,0a22.3,22.3,0,0,0-.27,3.06h0c0,.83-.09,1.66-.12,2.49a27.1,27.1,0,0,0,.18,4.22A.76.76,0,0,0,158.3,291.31Z"/></clipPath><clipPath id="clip-path-7"><path class="cls-1" d="M280.31,304.44a34.56,34.56,0,0,0,.11-10.55,27.31,27.31,0,0,0-1.45-6.3h0c-5.11-15.37-15.91-24-31.76-26.75l.1-.07a10.65,10.65,0,0,1-1.65-.15,16.87,16.87,0,0,0-4.08-.12,2,2,0,0,1-.79-.07,5.35,5.35,0,0,1-.56.07,36.65,36.65,0,0,0-12.44,3.05c-.35.15-.76.25-.88.7a.68.68,0,0,0,0,.14,36.53,36.53,0,0,0-13.5,10.81,35.58,35.58,0,0,0-5.6,9.75h0a32.28,32.28,0,0,0-1.62,5.17h0a37.44,37.44,0,0,0-1,8c0,.45.14.69.63.69h4.35c.38,0,.64-.13.62-.54a37.69,37.69,0,0,1,.46-5.51c.45-1.78.88-3.57,1.47-5.32h0a50.35,50.35,0,0,1,2.64-5.43c.93-1.57,2.05-3,3.11-4.47h0c.14-.13.3-.26.43-.4a32.36,32.36,0,0,1,9.77-7.57,49.44,49.44,0,0,1,4.58-1.88l.38.16a3.12,3.12,0,0,0,1.09-.18,30.41,30.41,0,0,1,12.41-.85,32.49,32.49,0,0,1,24.43,17.55c.16.34.25.77.68.9-.19.37.08.71.21,1a32.34,32.34,0,0,1,2.26,8.06A26.42,26.42,0,0,1,275,301a6.46,6.46,0,0,0,0,2.48h0c-.21.1-.25.33-.29.57a33.52,33.52,0,0,1-2.58,8.59c-.15.33-.4.68-.24,1.09-.21,0-.33.19-.42.38-.57,1.08-1.26,2.09-1.87,3.14-.11.19-.25.38-.18.58a.79.79,0,0,0-.49.35,29.76,29.76,0,0,1-3,3.6.77.77,0,0,0-.25.43.79.79,0,0,0-.45.27A32.32,32.32,0,0,1,260.8,326a.78.78,0,0,0-.35.46.56.56,0,0,0-.46.1,45.53,45.53,0,0,1-4.71,2.43.86.86,0,0,0-.38.26l-.06,0c-.78.16-1.48.53-2.24.74-1.36.36-2.71.72-4.09,1a1.5,1.5,0,0,0-.56.15.73.73,0,0,0-.36,0,42.71,42.71,0,0,1-6.09.33c-3,0-5.94,0-8.91,0-.36,0-.78-.1-1.06.21l-.32-.18a13.09,13.09,0,0,0-1.4,0H214c-.42,0-.84,0-1.25,0a.87.87,0,0,0-.56.18c-.1-.06-.21-.11-.31-.18-.34,0-.69,0-1,0H188.65a7.47,7.47,0,0,0-1,0,.78.78,0,0,0-.48.17l-.12-.14a7.25,7.25,0,0,0-1.47-.07c-6.15,0-12.3,0-18.44,0a22.7,22.7,0,0,1-3.09-.21A26.1,26.1,0,0,1,144.29,318a14.7,14.7,0,0,0-1.32-2.36h0c.17-.26,0-.55-.1-.82-.33-.87-.64-1.75-.89-2.65a25.77,25.77,0,0,1-.94-8.87,1.64,1.64,0,0,0,0-.23,1.36,1.36,0,0,0,.08-.54,28,28,0,0,1,2-8,5.59,5.59,0,0,0,.65-1.69c.22-.07.3-.34.41-.54a38.18,38.18,0,0,1,4.15-5.87,1.13,1.13,0,0,0,.32-.46c.19.05.35-.1.51-.23.32-.27.6-.57.92-.84a32.58,32.58,0,0,1,3-2.25,2.38,2.38,0,0,1-.06-.55,58.38,58.38,0,0,1,.55-6.48,27.22,27.22,0,0,0-4.65,2.73h0a32.31,32.31,0,0,0-10.38,12.09h0a29.73,29.73,0,0,0-3.11,10h0a19.94,19.94,0,0,0-.27,2.68H135v3.69h.12a28.06,28.06,0,0,0,1,6.18l-.05,0a.93.93,0,0,0-.11,1,31.76,31.76,0,0,0,6.95,12.78,31.22,31.22,0,0,0,11.4,8.32,21.86,21.86,0,0,0,7.69,2.07,10,10,0,0,1,2.1.21h82a5.1,5.1,0,0,1,1.64-.29,34.44,34.44,0,0,0,7.81-1.92,25.51,25.51,0,0,0,5.6-2.55h0a26.85,26.85,0,0,0,4.73-3.08h0a27.46,27.46,0,0,0,4.9-4.55,24.88,24.88,0,0,0,3.68-4.74,22.72,22.72,0,0,0,2.5-4.43c.1-.17.23-.33.31-.5a39.52,39.52,0,0,0,3.07-10.13h0A6,6,0,0,1,280.31,304.44Z"/></clipPath></defs><title>Tema</title><g id="CzjIwq.tif"><path class="cls-2" d="M361.83,406.73l-10,.53v-6c-2,4-4.61,6.29-8.48,6.58-6.8.53-11.73-3-13.39-9.69a33.92,33.92,0,0,1,0-16.63c1.9-7.53,9-11.67,15.85-8.89,2.27.93,4.05,3.06,5.88,4.51V358.71h10.14Zm-10.24-16.84h0a30.15,30.15,0,0,0-.08-5.21,6,6,0,0,0-1.78-3.48,6.5,6.5,0,0,0-10.45,4.35,47.69,47.69,0,0,0,0,8.78,6.14,6.14,0,0,0,6.64,5.6c3.91-.25,5.66-2.15,5.69-6.19C351.6,392.46,351.59,391.17,351.59,389.89Z"/><path class="cls-2" d="M220.83,392.2l7.88,4.6c-3.89,8.32-10.75,12-20.29,11-8.06-.88-14.11-6.26-16-14.48-2.06-8.89-1.8-17.59,3.6-25.35,4.17-6,10.45-7.74,17.45-7.31,7.16.44,12.21,3.95,15.2,10.77l-8.49,4.43c-1.6-4.15-4.4-6.47-9-6.24-4.8.24-8.29,2.95-8.79,7.82a71.25,71.25,0,0,0-.09,12.9c.39,5,3,7.56,7.6,8.44,4.28.8,7.83-1.06,10.17-5.31C220.27,393,220.52,392.68,220.83,392.2Z"/><path class="cls-2" d="M169.6,361.42V407h-5.19V369.59l-.46-.12c-4.75,8.79-9.51,17.59-14.56,26.91-5-9.22-9.76-18.06-14.92-27.6V407h-5.33v-45.6a47.47,47.47,0,0,1,6,.09,3.53,3.53,0,0,1,2,1.79c3.62,6.69,7.15,13.43,10.72,20.15.41.77.84,1.53,1.45,2.63,3.92-7.32,7.8-14.25,11.33-21.35,1.29-2.59,2.79-3.8,5.65-3.34A22.22,22.22,0,0,0,169.6,361.42Z"/><path class="cls-2" d="M86.42,407.16V361.73a9.48,9.48,0,0,1,1.56-.3c6,0,12-.11,17.93,0,8.41.21,13.49,7.6,10.87,15.56a8.67,8.67,0,0,1-6,5.84,2.18,2.18,0,0,0,0,.49c5.8,1.69,8.62,5.69,8.19,11.65-.47,6.53-4.77,11.76-10.73,12.07C101,407.44,93.87,407.16,86.42,407.16ZM92,401.92c5,0,10,.16,14.89-.05,3.2-.14,5.46-2,5.8-4.88.56-4.72.47-7.66-2.58-9.76a3.46,3.46,0,0,0-1.74-.78c-5.43-.06-10.87,0-16.37,0Zm0-21c4.8,0,9.29.17,13.75-.05,3.5-.17,5.26-2.25,5.46-5.69.31-5.28-1-8.16-4.76-8.5-4.77-.42-9.6-.1-14.45-.1Z"/><path class="cls-2" d="M268.66,407.87c-11.16.09-16.88-8.89-15.81-20.25a23.44,23.44,0,0,1,2.73-8.82c3-5.57,9.82-8,16.79-6.69a14.57,14.57,0,0,1,12.06,12.36,34.26,34.26,0,0,1,.08,10.11C283.28,403.07,277.27,407.92,268.66,407.87Zm6-17.94h0c0-1.65.12-3.32,0-5a5.81,5.81,0,0,0-11.56,0,82.08,82.08,0,0,0,0,9.92c.2,3.31,2.62,5.29,5.91,5.24s5.44-2.08,5.68-5.49C274.77,393.06,274.68,391.49,274.68,389.93Z"/><path class="cls-2" d="M312,372.73h9.58V407H312.2v-5c-.41.12-.79.12-.85.27-2.45,5.54-7.42,6-11.73,5.41-4.13-.6-7.14-4.24-7.88-9.13a27.6,27.6,0,0,1-.44-3.82c0-7.24,0-14.49,0-21.95h9.83v6.72c0,4.87-.1,9.74,0,14.61.15,5.16,3.93,7.31,8.27,4.9,2-1.12,2.6-2.9,2.59-5.08C312,387,312,380,312,372.73Z"/><path class="cls-2" d="M244.75,399.54H249v7.54a47.57,47.57,0,0,1-6.33-.05c-4.73-.66-7.47-3.23-7.55-8-.24-13.31-.08-26.62-.08-40.13h9.7Z"/><path class="cls-2" d="M58.17,365.93V361.6H76.25v4.31l-6,.33v36.05h6V407h-18v-4.56h5.92V366.26Z"/></g><path class="cls-1" d="M237.24,235.79A2.81,2.81,0,0,0,241,234.4q2.43-4.26,4.88-8.5c.84-1.47,1.7-2.93,2.52-4.42a2.81,2.81,0,0,0-2.39-4.33,2.61,2.61,0,0,0-2.41,1.43c-.35.58-.68,1.19-1,1.79-2.16,3.8-4.31,7.61-6.48,11.4A2.93,2.93,0,0,0,237.24,235.79Z"/><g class="cls-3"><path class="cls-1" d="M81.31,192.29v75.77H91.86c2.78,0,2.77,4.31,0,4.31H81.31v65.36H317.56V192.29Z"/></g><path class="cls-1" d="M174.51,234.62a2.63,2.63,0,0,0,2.08,1.44,2.92,2.92,0,0,0,3.09-3.29,5.78,5.78,0,0,0-.81-1.81l-7-12.23a2.82,2.82,0,0,0-2.19-1.56,2.56,2.56,0,0,0-2.58,1.24,2.83,2.83,0,0,0,0,3.14Q170.77,228.09,174.51,234.62Z"/><g class="cls-4"><path class="cls-1" d="M81.31,192.29v75.77H91.86c2.78,0,2.77,4.31,0,4.31H81.31v65.36H317.56V192.29Z"/></g><path class="cls-1" d="M205,225a2.69,2.69,0,0,0,2.9,2.68,2.56,2.56,0,0,0,2.57-2.73c0-.49,0-1,0-1.47.22-4.6.06-9.19.08-13.79a2.74,2.74,0,0,0-1.1-2.32,2.57,2.57,0,0,0-2.84-.3,2.67,2.67,0,0,0-1.64,2.51c0,2.56,0,5.11,0,7.67h0C205,219.81,204.94,222.39,205,225Z"/><g class="cls-5"><path class="cls-1" d="M81.31,192.29v75.77H91.86c2.78,0,2.77,4.31,0,4.31H81.31v65.36H317.56V192.29Z"/></g><path class="cls-1" d="M262.12,258.66c.51-.24,1-.54,1.49-.82l11.66-6.8a2.87,2.87,0,0,0,1.28-4,2.8,2.8,0,0,0-3.84-1.07q-6.54,3.8-13,7.65a2.9,2.9,0,0,0-1.39,2.87A2.62,2.62,0,0,0,262.12,258.66Z"/><g class="cls-6"><path class="cls-1" d="M81.31,192.29v75.77H91.86c2.78,0,2.77,4.31,0,4.31H81.31v65.36H317.56V192.29Z"/></g><path class="cls-1" d="M139.94,250.83c2.26,1.4,4.56,2.72,6.85,4.06,2.1,1.23,4.18,2.5,6.32,3.66a2.66,2.66,0,0,0,4-2.45c.11-1.33-.75-2.15-1.88-2.8l-6.12-3.56-6.24-3.65a2.79,2.79,0,1,0-3,4.74Z"/><g class="cls-7"><path class="cls-1" d="M81.31,192.29v75.77H91.86c2.78,0,2.77,4.31,0,4.31H81.31v65.36H317.56V192.29Z"/></g><path class="cls-1" d="M158.3,291.31c0,.66.08,1.32.16,2a38.42,38.42,0,0,0,1.33,6.72h0a40.63,40.63,0,0,0,1.61,5.2c1.57-1.08,3-2.34,4.57-3.52a49.3,49.3,0,0,1-2.07-8.63,64.29,64.29,0,0,1-.43-6.79h0l.16-3.18.2-.07c.26-.18.26-.46.29-.72.17-1.34.32-2.68.6-4a1.52,1.52,0,0,0,0-.87.18.18,0,0,0,0-.07c.24-.1.28-.37.34-.61.39-1.49.81-3,1.27-4.43a.89.89,0,0,0,0-.66c.2,0,.28-.24.36-.43.46-1.15,1-2.29,1.44-3.44a.68.68,0,0,0,.07-.55c.27-.08.37-.35.5-.58.7-1.17,1.3-2.41,2.06-3.56a63.49,63.49,0,0,1,4.11-5.54c.13-.16.32-.32.34-.53a1.32,1.32,0,0,0,.71-.56,21.76,21.76,0,0,1,2-2,41.15,41.15,0,0,1,9.53-6.77,44.4,44.4,0,0,1,7.42-3.06c.22-.07.5-.11.6-.31h0a2.7,2.7,0,0,0,1.08-.18,44.79,44.79,0,0,1,10.5-1.43,40.63,40.63,0,0,1,4.93.28,43.36,43.36,0,0,1,21.2,8.28c2.55-.43,5.07-.94,7.61-1.42a49.44,49.44,0,0,0-7.21-5.48A48.94,48.94,0,0,0,210,237a46.77,46.77,0,0,0-11.74.88,43.25,43.25,0,0,0-9.49,2.92,35.24,35.24,0,0,0-5.95,2.91A48.93,48.93,0,0,0,170,254.52a47.62,47.62,0,0,0-6.78,10.35h0a39.47,39.47,0,0,0-2,4.7h0a18.83,18.83,0,0,0-1.07,3.12,1,1,0,0,1-.67.76l-.18.88a30.28,30.28,0,0,0-.95,6.54v.06l0,.05,0,0a22.3,22.3,0,0,0-.27,3.06h0c0,.83-.09,1.66-.12,2.49a27.1,27.1,0,0,0,.18,4.22A.76.76,0,0,0,158.3,291.31Z"/><g class="cls-8"><path class="cls-1" d="M321.45,219.48,85.26,224.7l1,43.36h5.64c2.78,0,2.77,4.31,0,4.31H86.32l2.16,97.73,236.18-5.22Z"/></g><path class="cls-1" d="M280.31,304.44a34.56,34.56,0,0,0,.11-10.55,27.31,27.31,0,0,0-1.45-6.3h0c-5.11-15.37-15.91-24-31.76-26.75l.1-.07a10.65,10.65,0,0,1-1.65-.15,16.87,16.87,0,0,0-4.08-.12,2,2,0,0,1-.79-.07,5.35,5.35,0,0,1-.56.07,36.65,36.65,0,0,0-12.44,3.05c-.35.15-.76.25-.88.7a.68.68,0,0,0,0,.14,36.53,36.53,0,0,0-13.5,10.81,35.58,35.58,0,0,0-5.6,9.75h0a32.28,32.28,0,0,0-1.62,5.17h0a37.44,37.44,0,0,0-1,8c0,.45.14.69.63.69h4.35c.38,0,.64-.13.62-.54a37.69,37.69,0,0,1,.46-5.51c.45-1.78.88-3.57,1.47-5.32h0a50.35,50.35,0,0,1,2.64-5.43c.93-1.57,2.05-3,3.11-4.47h0c.14-.13.3-.26.43-.4a32.36,32.36,0,0,1,9.77-7.57,49.44,49.44,0,0,1,4.58-1.88l.38.16a3.12,3.12,0,0,0,1.09-.18,30.41,30.41,0,0,1,12.41-.85,32.49,32.49,0,0,1,24.43,17.55c.16.34.25.77.68.9-.19.37.08.71.21,1a32.34,32.34,0,0,1,2.26,8.06A26.42,26.42,0,0,1,275,301a6.46,6.46,0,0,0,0,2.48h0c-.21.1-.25.33-.29.57a33.52,33.52,0,0,1-2.58,8.59c-.15.33-.4.68-.24,1.09-.21,0-.33.19-.42.38-.57,1.08-1.26,2.09-1.87,3.14-.11.19-.25.38-.18.58a.79.79,0,0,0-.49.35,29.76,29.76,0,0,1-3,3.6.77.77,0,0,0-.25.43.79.79,0,0,0-.45.27A32.32,32.32,0,0,1,260.8,326a.78.78,0,0,0-.35.46.56.56,0,0,0-.46.1,45.53,45.53,0,0,1-4.71,2.43.86.86,0,0,0-.38.26l-.06,0c-.78.16-1.48.53-2.24.74-1.36.36-2.71.72-4.09,1a1.5,1.5,0,0,0-.56.15.73.73,0,0,0-.36,0,42.71,42.71,0,0,1-6.09.33c-3,0-5.94,0-8.91,0-.36,0-.78-.1-1.06.21l-.32-.18a13.09,13.09,0,0,0-1.4,0H214c-.42,0-.84,0-1.25,0a.87.87,0,0,0-.56.18c-.1-.06-.21-.11-.31-.18-.34,0-.69,0-1,0H188.65a7.47,7.47,0,0,0-1,0,.78.78,0,0,0-.48.17l-.12-.14a7.25,7.25,0,0,0-1.47-.07c-6.15,0-12.3,0-18.44,0a22.7,22.7,0,0,1-3.09-.21A26.1,26.1,0,0,1,144.29,318a14.7,14.7,0,0,0-1.32-2.36h0c.17-.26,0-.55-.1-.82-.33-.87-.64-1.75-.89-2.65a25.77,25.77,0,0,1-.94-8.87,1.64,1.64,0,0,0,0-.23,1.36,1.36,0,0,0,.08-.54,28,28,0,0,1,2-8,5.59,5.59,0,0,0,.65-1.69c.22-.07.3-.34.41-.54a38.18,38.18,0,0,1,4.15-5.87,1.13,1.13,0,0,0,.32-.46c.19.05.35-.1.51-.23.32-.27.6-.57.92-.84a32.58,32.58,0,0,1,3-2.25,2.38,2.38,0,0,1-.06-.55,58.38,58.38,0,0,1,.55-6.48,27.22,27.22,0,0,0-4.65,2.73h0a32.31,32.31,0,0,0-10.38,12.09h0a29.73,29.73,0,0,0-3.11,10h0a19.94,19.94,0,0,0-.27,2.68H135v3.69h.12a28.06,28.06,0,0,0,1,6.18l-.05,0a.93.93,0,0,0-.11,1,31.76,31.76,0,0,0,6.95,12.78,31.22,31.22,0,0,0,11.4,8.32,21.86,21.86,0,0,0,7.69,2.07,10,10,0,0,1,2.1.21h82a5.1,5.1,0,0,1,1.64-.29,34.44,34.44,0,0,0,7.81-1.92,25.51,25.51,0,0,0,5.6-2.55h0a26.85,26.85,0,0,0,4.73-3.08h0a27.46,27.46,0,0,0,4.9-4.55,24.88,24.88,0,0,0,3.68-4.74,22.72,22.72,0,0,0,2.5-4.43c.1-.17.23-.33.31-.5a39.52,39.52,0,0,0,3.07-10.13h0A6,6,0,0,1,280.31,304.44Z"/><g class="cls-9"><path class="cls-1" d="M216.48,285.85c-.21.83-.45,1.66-.7,2.48a37.88,37.88,0,0,0,6.13,2.49A33.78,33.78,0,0,0,216.48,285.85Z"/><path class="cls-1" d="M123.12,251.71l-4.23,95.38L282,354.31l4.22-95.38Zm116.8,57.57c-3.86-4.74-7.88-9.27-12-13.71a2.14,2.14,0,0,1-1,.28c-4.52,0-8.51-1.7-12.46-3.61-.21.55-.42,1.1-.65,1.64-.07,1.1-.18,2.19-.29,3.24a19.64,19.64,0,0,1,2.37,6.39c.29,1.72-1.43,3.53-3.16,2.43-.2-.12-.4-.24-.59-.37a2.49,2.49,0,0,1-1.79.91c-4.22.21-9.48.46-10.25-4.89-.44-3,.57-6.21,1-9.21.44-3.45.61-6.94-.69-10.23a1.93,1.93,0,0,1,1-2.39,10.5,10.5,0,0,1-.09-2.39,2.2,2.2,0,0,1,2.16-2.15l.53,0a2.24,2.24,0,0,1,2.45-3.21c7.42,1.74,12.83,8.29,17.88,13.54,6.47,6.72,12.81,13.42,18.71,20.67C244.7,308.37,241.67,311.43,239.92,309.28Z"/></g><path class="cls-1" d="M144,292.48l.09-.18a38.18,38.18,0,0,1,4.15-5.87,1.13,1.13,0,0,0,.32-.46c.19,0,.35-.1.51-.23.31-.27.6-.57.92-.84a32.58,32.58,0,0,1,3-2.25,2.38,2.38,0,0,1-.06-.55,58.38,58.38,0,0,1,.55-6.48,27.22,27.22,0,0,0-4.65,2.73h0a32.31,32.31,0,0,0-10.38,12.09h0q-.53,1-1,2Z"/><path class="cls-1" d="M233.62,244.43a48.81,48.81,0,0,0-13.07-5.75,29.51,29.51,0,0,0-2.32,5.5,43.24,43.24,0,0,1,8.05,2.95,42.72,42.72,0,0,1,6.94,4.2c2.55-.43,5.07-.94,7.61-1.42A49.44,49.44,0,0,0,233.62,244.43Z"/><path class="cls-1" d="M217.58,278.67c.13-.12,1.13-1.39,1.25-1.53a32.48,32.48,0,0,1,9.77-7.56,49.44,49.44,0,0,1,4.58-1.88l.38.16a2.25,2.25,0,0,0,.85-.12c-1.19-1.68-2.58-3.26-3.57-4.69l-.38-.54c-.9.31-1.79.66-2.67,1-.35.15-.76.25-.88.7a.68.68,0,0,0,0,.14,35.08,35.08,0,0,0-13.54,10.86c1.18.78,2,1.64,3.17,2.5C216.8,278,217.31,278.47,217.58,278.67Z"/><g id="VDEge9.tif"><path class="cls-2" d="M699.47,224.43a31,31,0,0,0,4.6.7A55.28,55.28,0,0,1,715.13,228a26,26,0,0,1,2.66,1.28,5.93,5.93,0,0,1,3.39,6c-.08,1.46.05,2.93-.11,4.37-.2,1.94-1.22,2.56-3.11,2.1a31.06,31.06,0,0,1-4-1.54,43.45,43.45,0,0,0-24.24-2.24,14.51,14.51,0,0,0-3.24,1.08,8.92,8.92,0,0,0-5.73,7.62,9.15,9.15,0,0,0,4.17,9.15,37.83,37.83,0,0,0,9.35,4.16c5.71,1.9,11.56,3.36,17.12,5.69,6.06,2.52,10.88,6.41,13.07,12.83,3.35,9.81.5,21.59-10.56,28.41a36.84,36.84,0,0,1-15.37,5,60.6,60.6,0,0,1-27.4-3.5,19.09,19.09,0,0,1-4.72-2.4,4.94,4.94,0,0,1-2.18-4.11c-.06-1.77-.06-3.55,0-5.32.07-2.19,1.25-3.08,3.38-2.45,1.5.44,2.93,1.12,4.4,1.69a51.09,51.09,0,0,0,26.54,3.13,16.69,16.69,0,0,0,8.07-3.39c4.74-3.79,5.24-12.45-1-16.15a50,50,0,0,0-10.27-4.1c-5-1.62-10.23-2.88-15.12-5-7.13-3.05-12.16-8.08-14.29-15.66a21.85,21.85,0,0,1,7.73-23.13,33.1,33.1,0,0,1,17.71-6.81c.33,0,.72.12,1-.26h1.19a20.58,20.58,0,0,0,5,0Z"/><path class="cls-10" d="M698.52,224.43a10.79,10.79,0,0,1-5,0Z"/><path class="cls-2" d="M624.89,293.3c.48-.22.44-.68.53-1q7.73-29.82,15.41-59.63A20,20,0,0,1,642,229.3a3.55,3.55,0,0,1,3.09-2.23,94.25,94.25,0,0,1,10.63-.08c1.33,0,1.92.82,1.95,2.18a10,10,0,0,1-.54,3.13l-22.65,72.53c-1.35,4.33-2.22,5-6.76,5-2.32,0-4.65,0-7,0-3.36,0-4.59-1-5.38-4.28q-2.62-10.9-5.23-21.8-4.5-18.7-9-37.4a1,1,0,0,0-.41-.79c-.9,3.72-1.79,7.4-2.67,11.08q-5.71,23.93-11.43,47.86c-1.1,4.59-2,5.28-6.76,5.27-2.6,0-5.2,0-7.8-.07a4.15,4.15,0,0,1-4.09-3c-1.23-3.28-2.13-6.67-3.15-10q-9.81-32.22-19.58-64.46a15.62,15.62,0,0,1-.59-2.52c-.22-1.7.58-2.7,2.27-2.72,3.43,0,6.85,0,10.28.06a3.7,3.7,0,0,1,3.62,2.54,66.24,66.24,0,0,1,2.44,8.74q6.93,27.15,13.8,54.33a2.16,2.16,0,0,0,.62-1.39q7-29.62,14-59.26c1-4.22,2-5,6.34-5,2.48,0,5,0,7.44.06,2.82.11,4,1,4.64,3.79.91,3.59,1.74,7.19,2.58,10.79q6.08,25.72,12.13,51.45A2.24,2.24,0,0,0,624.89,293.3Z"/><path class="cls-1" d="M598.91,392.22c-33.38.54-64.92-6-94.77-20.29a203.1,203.1,0,0,1-46.21-30.54,5,5,0,0,1-1-1.15,2.37,2.37,0,0,1,0-2.77,2.4,2.4,0,0,1,2.64-.87,6.92,6.92,0,0,1,1.95.85,273.38,273.38,0,0,0,74,27.91,283,283,0,0,0,38.64,5.8,266.78,266.78,0,0,0,35.31.58,274.75,274.75,0,0,0,64.24-11.07,272.23,272.23,0,0,0,31.85-11.59,5.41,5.41,0,0,1,4.89-.15,3.7,3.7,0,0,1,1.41,5.53,8.22,8.22,0,0,1-2,2c-14.49,10.8-30.53,18.56-47.56,24.36a216.49,216.49,0,0,1-45.1,10.14C611,391.63,604.8,392,598.91,392.22Z"/><path class="cls-1" d="M716.54,327.49a53,53,0,0,1,15.24,1.5c4.27,1.17,5.11,2.2,5.24,6.61.22,7.44-1.52,14.53-4.08,21.45a52.49,52.49,0,0,1-11.75,19.19,15.39,15.39,0,0,1-2.76,2.4c-.87.53-1.84.92-2.75.2s-.59-1.71-.24-2.61c2.3-6,4.6-12.07,6.38-18.28A60.37,60.37,0,0,0,724,347.56a15.83,15.83,0,0,0,0-3.89,4.61,4.61,0,0,0-3.28-3.94,26.34,26.34,0,0,0-8.49-1.23c-7.94-.14-15.8.82-23.65,1.84a12.82,12.82,0,0,1-2.47.16,1.5,1.5,0,0,1-1.35-2.27,5,5,0,0,1,1.95-2.15,48.27,48.27,0,0,1,18.62-7.43A61,61,0,0,1,716.54,327.49Z"/><path class="cls-2" d="M539.7,300.08c-1.56-3.09-3.13-6.2-3.51-9.71-.23-2.11-.47-4.23-.5-6.35-.07-5.35,0-10.71,0-16.07V256a61.71,61.71,0,0,0-.54-8.48c-1.63-11.74-8.38-19.16-20-21.66a57.94,57.94,0,0,0-27.14.8,51.41,51.41,0,0,0-11.46,4.3c-1.46.79-2.6,1.84-2.64,3.63,0,2.2-.08,4.41,0,6.62.07,1.73,1.12,2.46,2.82,2a30.56,30.56,0,0,0,3.45-1.19c8.54-3.35,17.24-5.42,26.52-4.17,7.47,1,11.36,4.33,12.95,11.52,1,4.43.58,8.94.65,13.42,0,.75-.41.57-.85.47a114,114,0,0,0-13.85-2.3,48.25,48.25,0,0,0-17.23,1.09c-7.45,2-13.5,6-17.23,13-2.87,5.35-3.33,11.14-2.41,17,1.27,8.13,5.59,14.13,13.19,17.49,5.91,2.62,12.14,2.77,18.43,1.75a33.76,33.76,0,0,0,20.16-11.38c.71-.8,1-.81,1.45.19a31.49,31.49,0,0,0,5.38,8.43c1.76,1.86,3.44,2.1,5.58.73,1.79-1.14,3.55-2.34,5.32-3.53C540.74,304.06,541.06,302.77,539.7,300.08Zm-19.76-15.64c-1,5.75-4.56,9.61-9.52,12.19a25.64,25.64,0,0,1-15.56,2.72c-6-.8-9.79-5.2-10.09-11.52a19.53,19.53,0,0,1,.32-5.29c1.39-6,5.61-8.91,11.31-10.11a38.29,38.29,0,0,1,7.4-.59,76.11,76.11,0,0,1,15.56,1.83c.9.19,1.18.55,1.17,1.48A54.45,54.45,0,0,1,519.94,284.44Z"/></g></svg>