<svg id="gris" xmlns="http://www.w3.org/2000/svg" viewBox="0 0 792 612"><defs><style>.cls-1{fill:#515151;}.cls-2{fill:#ececec;}</style></defs><title>Tema</title><path class="cls-1" d="M212.82,365.34V254.48h6v17.44a22.34,22.34,0,0,0,2-2.46A29.79,29.79,0,0,1,248,252.6c13.71-.41,24.85,4.66,31.39,16.86a54.18,54.18,0,0,1,1.31,49.7c-6.1,13.67-21.16,20.47-37.29,18a30.16,30.16,0,0,1-24.07-15.88v44.08Zm6-71.64,1.35,13c2.38,14.82,11.14,23.58,24.89,25.22a28.28,28.28,0,0,0,31.07-18,48.19,48.19,0,0,0-1.06-39.63,27.7,27.7,0,0,0-29.19-16.13,27,27,0,0,0-24.11,19.93,139.42,139.42,0,0,0-2.95,15.56Zm190,15.06a32.43,32.43,0,0,1-31.69,28.66c-25.21,1.27-37-15.48-38.93-34.8a55.82,55.82,0,0,1,4.91-30.71,34.25,34.25,0,0,1,35.66-19.11,32.74,32.74,0,0,1,29.06,24.93,168.94,168.94,0,0,1,2.83,18.42H344.45c-1.23,17.52,8.19,31.61,21.53,35,16.62,4.09,30.83-3.12,36-18.92,1.15-4.05,3.24-4.63,6.92-3.48ZM344.4,290.55h59.24c-.37-18.67-12-32.23-27.76-32.39C358.08,257.87,345.18,270.9,344.4,290.55Zm76.68,18.62h5.81a23.27,23.27,0,0,0,13.67,20.06,35.71,35.71,0,0,0,31-.82,13.93,13.93,0,0,0,8.19-13.71,12.64,12.64,0,0,0-8.52-12.65c-6.38-2.38-13.18-3.69-19.68-5.77A143.69,143.69,0,0,1,431.76,289c-10.49-5.12-11.14-25,.74-31.36a41.78,41.78,0,0,1,39.95-.62,21,21,0,0,1,10.65,21.46h-5c0-.25-.45-.46-.45-.7-.62-15.88-14-20.84-28.29-19.45a36,36,0,0,0-12.28,3.73,13.1,13.1,0,0,0,1.07,23.82c6.25,2.3,12.89,3.77,19.36,5.57l15.63,4.09a18.45,18.45,0,0,1,12.69,16.66,19.67,19.67,0,0,1-10.6,20.47c-13.67,7.74-36.19,5.69-46.22-4.09a27.28,27.28,0,0,1-7.93-19.44Zm138.45-30.66h-5.45a12.7,12.7,0,0,0-.37-2,17.8,17.8,0,0,0-14.49-17.11,35.75,35.75,0,0,0-23,1.11,14,14,0,0,0-10.11,13.31A12.85,12.85,0,0,0,516,286.74l24.89,6.39a68.52,68.52,0,0,1,7.94,2.41,20.46,20.46,0,0,1,1.06,38.12A45.57,45.57,0,0,1,513,334a25.56,25.56,0,0,1-15.4-24.81h5.32a29.84,29.84,0,0,0,45.44,19,14.62,14.62,0,0,0,7.86-13.67A12.63,12.63,0,0,0,547.59,302c-6.39-2.38-13.18-3.65-19.69-5.78A145.16,145.16,0,0,1,508,289c-10.24-5-11.06-24.81.61-31.11a41.23,41.23,0,0,1,40.61-.46,21.41,21.41,0,0,1,10.28,21Zm-356.6,56.91A9.38,9.38,0,0,1,191.3,331l-21.17-29.27-3.07-4.09L142.5,331a9,9,0,0,1-11.05,4.34l31.64-42.45-29.44-38.36a9.78,9.78,0,0,1,11.67,4.09l21.93,29.63,22.07-29.52a8.8,8.8,0,0,1,11-4.09l-11.43,15.16L173.39,290a4.09,4.09,0,0,0-.33,5.77,3.43,3.43,0,0,0,.33.33l29.47,39.34Zm134.35-81.26v5.77a29.63,29.63,0,0,0-31.6,30.66v45h-5.86V254.52h5.78v16.62c7.08-12.12,18-16.62,31.72-16.95ZM55.68,292.4l2.58-12.74c7.08-25.17,35.94-35.65,55.8-20.06,11.62,9.14,14.52,22.07,14,36.65H62.51c-1.06,26,17.73,41.75,41.76,33.73a25,25,0,0,0,15.84-17.65c1.27-4.09,3.37-4.79,7.2-3.61A33.22,33.22,0,0,1,111.43,333a38.48,38.48,0,0,1-44.83-5.73,40.32,40.32,0,0,1-10.07-23.66,16.49,16.49,0,0,0-.81-4.09c0-2.43,0-4.8,0-7.12Zm6.91-1.76h59.24c-.37-18.87-12.28-32.26-28.16-32.39C76,258,63.33,271.11,62.55,290.56Z"/><g id="_7X9Jbl" data-name="7X9Jbl"><path class="cls-2" d="M674.24,378.93a14.75,14.75,0,0,1-3-.93c-2.39-1.3-4.69-2.74-7-4.15l-10.47-6.41a8.22,8.22,0,0,1-1.25-.92c-.54-.5-.48-.88.2-1.18,1.1-.48,2.26-.85,3.34-1.38,1.5-.74,3-1.53,4.41-2.4a1.77,1.77,0,0,1,2,0l9.34,5.53c.83.49,1.68,1,2.5,1.49a1.79,1.79,0,0,0,2.1,0c5.46-3.26,10.94-6.49,16.41-9.74l19.39-11.54q6-3.56,12-7.09a2.17,2.17,0,0,0,1.17-2.09q0-28.72,0-57.45a2.17,2.17,0,0,0-1.15-2.08Q703.58,266,683,253.44c-2.22-1.36-4.45-2.71-6.66-4.08a1.71,1.71,0,0,0-2,0q-17.08,10.47-34.21,20.91c-4.54,2.78-9.07,5.55-13.63,8.3a2.09,2.09,0,0,0-1.11,2q0,28.8,0,57.6a2,2,0,0,0,1.06,1.92c4,2.36,7.91,4.76,11.89,7.1a11.39,11.39,0,0,0,6,1.75,5.94,5.94,0,0,0,6.06-6.17V285.89c0-1.41.47-1.88,1.86-1.88h6.49a1.48,1.48,0,0,1,1.64,1.61c0,19.37,0,38.73,0,58.1A15.57,15.57,0,0,1,657,353.8a13.19,13.19,0,0,1-7.64,4.57,20.18,20.18,0,0,1-14.72-2.29c-5-2.81-9.87-5.71-14.68-8.74a9.27,9.27,0,0,1-4.32-7.33c-.2-2.27-.16-4.56-.16-6.84,0-6.47,0-12.94,0-19.4s0-12.85,0-19.27c0-4.95,0-9.89,0-14.84a10.59,10.59,0,0,1,5.32-9.66q20.93-12.57,41.88-25.08c2.44-1.46,4.87-2.93,7.32-4.35a10.09,10.09,0,0,1,10.84,0c7.54,4.45,15,9,22.53,13.47q13.27,7.93,26.55,15.87a10.78,10.78,0,0,1,5.46,9.88q0,9.63,0,19.26c0,6.42,0,12.84,0,19.27,0,6.68,0,13.36,0,20.05a10.75,10.75,0,0,1-5.51,9.71q-20.39,12.19-40.8,24.37l-8.16,4.89a9.89,9.89,0,0,1-4.24,1.49.82.82,0,0,0-.25.12Z"/><path class="cls-2" d="M689.09,281.49a45.23,45.23,0,0,1,11.41,1.38,18.55,18.55,0,0,1,8.75,4.71,14.34,14.34,0,0,1,4,8.31,10.16,10.16,0,0,1,.14,1.56,1.37,1.37,0,0,1-1.52,1.54H706c-1.23,0-1.59-.25-1.92-1.44a7.56,7.56,0,0,0-4.22-5.24,18.58,18.58,0,0,0-4.31-1.28,40.36,40.36,0,0,0-11.92-.15,11.39,11.39,0,0,0-5.53,2,5.41,5.41,0,0,0-2.11,4,8.17,8.17,0,0,0,0,1.71,3.29,3.29,0,0,0,2.37,2.91,49.14,49.14,0,0,0,6.4,1.72c4.6.82,9.25,1.4,13.86,2.19a34,34,0,0,1,9.84,3,11.73,11.73,0,0,1,6.76,10,17.89,17.89,0,0,1-1.75,10.21c-2.11,4.08-5.59,6.59-9.77,8.22a32,32,0,0,1-8.1,1.88,48,48,0,0,1-11.8-.17,27.1,27.1,0,0,1-12.09-4.25,15.85,15.85,0,0,1-7.05-11.1,22.71,22.71,0,0,1-.25-2.47,1.52,1.52,0,0,1,1.7-1.72H672a1.41,1.41,0,0,1,1.64,1.31,12.37,12.37,0,0,0,1.67,4.71,10,10,0,0,0,6.08,4,38.16,38.16,0,0,0,11.72.9,23.28,23.28,0,0,0,6.21-1.05c2.86-1,5.15-2.59,5.74-5.77a11.81,11.81,0,0,0,.06-3.66,3.65,3.65,0,0,0-2.09-2.54,17.63,17.63,0,0,0-6.09-2c-3.19-.54-6.42-.9-9.63-1.32a53.61,53.61,0,0,1-11.83-2.44c-3.2-1.18-6-2.88-7.75-6a15.14,15.14,0,0,1-1.59-8.8,14.29,14.29,0,0,1,2-6.35,15.94,15.94,0,0,1,8.08-6.41,27.8,27.8,0,0,1,8.55-1.87C686.25,281.62,687.67,281.57,689.09,281.49Z"/></g></svg>