<svg id="gris" xmlns="http://www.w3.org/2000/svg" viewBox="0 0 792 612"><defs><style>.cls-1{fill:#595959;}</style></defs><title>Tema</title><path class="cls-1" d="M587.7,216.13c-.07-.38-.15-.75-.25-1.12a64.12,64.12,0,0,0-45-46c-30.08-7.34-136.82-7.55-148.9-7.55s-119,.23-149.51,8.39c-21.9,6.2-38.93,23.76-44.67,46.91a506,506,0,0,0-8,92,504.51,504.51,0,0,0,8.39,94.53,64,64,0,0,0,44.55,44c30.24,8.1,137.17,8.33,149.26,8.33s119-.23,149.48-8.4c21.9-6.17,38.93-23.72,44.71-46.93a509.4,509.4,0,0,0,8-91.34A510.74,510.74,0,0,0,587.7,216.13ZM578,309.54a550.54,550.54,0,0,1-7.86,94.66c-2.84,11.68-11.54,21-22.49,24.16-21.36,5.92-102.93,8.06-152.55,8.06s-131.19-2.14-152.48-8c-10.91-3.08-19.61-12-22.29-21.43a546.68,546.68,0,0,1-8.13-97.56,548,548,0,0,1,7.86-95.4,33.2,33.2,0,0,1,22.45-24.15c21.38-5.91,103-8.05,152.59-8.05,34.38,0,128.91,1.33,152.3,7.22A33.3,33.3,0,0,1,570,212.69,550.38,550.38,0,0,1,578,309.54Z"/><path class="cls-1" d="M460.81,294.28l-96.88-55.09a16.85,16.85,0,0,0-25.18,14.64V364a16.85,16.85,0,0,0,25.18,14.65l96.88-55.11a16.84,16.84,0,0,0,0-29.29ZM358,359.14V256l89.33,51.58Z"/></svg>