<svg id="gris" xmlns="http://www.w3.org/2000/svg" viewBox="0 0 792 612"><defs><style>.cls-1{fill:#ececec;}.cls-2{fill:#595959;}.cls-3{fill:#7e7e7e;}.cls-4{fill:#c6c6c6;}.cls-5{fill:#b2b2b2;}</style></defs><title>Tema</title><g id="TrWllN"><path class="cls-1" d="M602.37,296.31c0,11.67.24,23.35-.07,35-.3,11.38-5.82,19.72-15.88,25.2A27.59,27.59,0,0,1,562.14,358c-10.8-4.28-18-13.16-18.64-24.44-.83-15.93-.7-31.93-.46-47.9.1-7-6.35-14.54-14.14-14.81-7.57-.28-14.71,5.56-15.55,13.16a67.32,67.32,0,0,0-.3,7.24c0,13.56.31,27.13-.1,40.68-.34,11-5.89,19.12-15.58,24.45a27.91,27.91,0,0,1-24.29,1.7c-8.32-3.16-14.5-9.05-17.22-17.61A50.09,50.09,0,0,1,453.72,326c-.22-21.65-.1-43.3-.11-65,0-4.93,0-4.92,5.07-4.91,2.1,0,4.21.12,6.3,0,2.58-.2,3.52.74,3.5,3.41q-.14,33.74,0,67.48a26,26,0,0,0,1.51,9.21A14.49,14.49,0,0,0,484,345.41a15.8,15.8,0,0,0,13.83-10.75,15,15,0,0,0,.4-4.36q0-20.66,0-41.31c0-8.53,2-16.37,7.87-22.88,7.56-8.34,17.14-11.47,27.91-9.32s18.32,8.69,21.88,19.2a34.66,34.66,0,0,1,1.71,10.46c.19,13.87.08,27.75.07,41.63,0,7.46,2.69,13.24,10,16.29,8.84,3.7,19.82-3.36,19.85-13,.07-23.76,0-47.51,0-71.27,0-4,.07-4,4.05-4,2.52,0,5,.09,7.57-.05s3.27.94,3.26,3.37c-.09,12.29,0,24.59,0,36.89Z"/><path class="cls-1" d="M681,315.36c0,13.66,0,27.32,0,41,0,3-.8,4.24-4,3.85a34,34,0,0,0-7.55,0c-2.65.28-3.39-.91-3.31-3.23,0-1.47,0-3,0-4.42,0-25.95,0-51.91.06-77.86,0-2.85-.81-3.91-3.76-3.86-8.62.16-17.24,0-25.85.11-3,0-4.3-.88-4.1-4,.17-2.62.09-5.26,0-7.88-.07-2,.84-3,2.77-3s3.57,0,5.36,0l69,0c4.79,0,4.9.1,4.9,4.94,0,2-.12,4,0,6,.21,2.86-1,4-3.83,3.92-8.51-.1-17,0-25.54,0-4.32,0-4.31,0-4.31,4.43Q681,295.33,681,315.36Z"/><path class="cls-1" d="M408.85,296.54c0,11.88.35,23.77-.1,35.63-.41,10.84-5.8,19.09-15.52,24.09-3.29,1.69-7,2.49-10.59,3.67-2.56.86-3.53-.3-3.45-2.77a18.27,18.27,0,0,0,0-3.47c-.84-5.27.56-8.33,6.37-10.1,5.48-1.66,8.53-6.58,8.54-12.7q0-35.31,0-70.63c0-4.15,0-4.18,4.24-4.17,2.32,0,4.64.17,6.94,0,2.76-.23,3.68.77,3.65,3.57-.12,12.3-.05,24.6-.05,36.9Z"/><path class="cls-1" d="M167.12,260l16.45,21.85L200,260V206.8s0-4.07-4.78-4.07H172.64s-5.52-1.37-5.52,5.16Z"/><path class="cls-2" d="M225.34,279.33l-26.28,7.58V259.57l32-42.51s2.43-3.28,6.27-.39l18,13.57s5.23,2.23,1.31,7.44Z"/><path class="cls-3" d="M168.06,259.81l-1.48,27.32-25.82-9L111.13,234s-2.3-3.37,1.69-6.05l18.75-12.58s3.83-4.21,7.46,1.21Z"/><path class="cls-4" d="M130.49,308.31l26-8.34L141.3,277.26,91.07,259.77s-3.84-1.36-5.42,3.17l-7.42,21.33s-3.11,4.76,3.06,6.91Z"/><path class="cls-5" d="M236.13,308.94l-26-8.34,15.23-22.71,50.23-17.48s3.84-1.37,5.42,3.16l7.43,21.33s3.1,4.77-3.06,6.91Z"/><path class="cls-1" d="M167.12,356.36l16.45-21.85L200,356.36v53.19s0,4.07-4.78,4.07H172.64s-5.52,1.37-5.52-5.16Z"/><path class="cls-3" d="M225.34,337l-26.28-7.58v27.34l32,42.5s2.43,3.28,6.27.39l18-13.57s5.23-2.23,1.31-7.44Z"/><path class="cls-2" d="M168.06,356.54l-1.48-27.31-25.82,9-29.63,44.16s-2.3,3.37,1.69,6.05L131.57,401s3.83,4.21,7.46-1.21Z"/><path class="cls-5" d="M130.49,308l26,8.35-15.24,22.7L91.07,356.58s-3.84,1.36-5.42-3.17l-7.42-21.33s-3.11-4.76,3.06-6.91Z"/><path class="cls-4" d="M236.13,307.41l-26,8.35,15.23,22.7L275.55,356s3.84,1.36,5.42-3.17l7.43-21.33s3.1-4.76-3.06-6.91Z"/></g></svg>