<svg id="gris" xmlns="http://www.w3.org/2000/svg" viewBox="0 0 792 612"><defs><style>.cls-1{fill:#515151;}.cls-2{fill:#4b4b4b;}.cls-3{fill:#fbfbfb;}.cls-4{fill:#ececec;}.cls-5{fill:#fff;}</style></defs><title>Tema</title><g id="_9KTDrr" data-name="9KTDrr"><path class="cls-1" d="M458,158.11c-4,23.6,4.8,41.41,18.18,57.73,12.26,15,24.3,30.09,32.95,47.57,9.24,18.66,14.34,38.09,10.24,58.94-1.2,6.11-2,10.67,4.42,14.72,3,1.87,4.64,6.87,5.55,10.77,2.15,9.21,4.92,17.9,11.69,24.92a23,23,0,0,1,3.79,6.41c3.46,7.5,2.16,13.73-4.6,18.46a115.18,115.18,0,0,1-16.06,9.09c-10.33,5-19.52,11.19-27.19,19.94s-17.55,14.79-29.49,16.45c-14.1,1.95-25.89-4.45-31.47-17.49-1.2-2.79-2.44-3.56-5.35-3.71a203.94,203.94,0,0,1-22.36-2.07c-14.21-2.29-27.81,1.51-41.62,3.35-4.08.55-7,1.88-9.54,5.6-4.47,6.45-11.44,9.5-19.27,10.22-10.69,1-21.24-.4-30.6-5.45-13.33-7.2-27.73-8.93-42.28-10.66a60,60,0,0,1-8.82-1.71c-10.69-3-15.62-10-12.75-20.62a70.88,70.88,0,0,0,1.72-28.95c-1.85-13.47,3-20.1,15.94-24.38a31.48,31.48,0,0,0,15.59-10.93c4.76-6.08,7.21-11.72,6.94-20-.5-15.49,4.89-30.1,11.6-44,8.72-18.13,20.14-34.49,32.74-50.1a80.29,80.29,0,0,0,18.26-53.72c-.27-12-1.15-24-1-36,.11-10.18,1.87-20.2,6.34-29.58,6-12.54,15.71-20.46,29-24,12.42-3.34,25-4.1,37.57-1,22.07,5.37,32,21.78,35.87,42.28C456.47,133.06,456.85,146.48,458,158.11ZM345.9,381.78c5.83,5.88,10.28,12.61,16.52,16.28,24.56,14.43,53.95,7.62,75.27-7.26a5.22,5.22,0,0,0,1.75-2.82c1.39-5.12,3.07-10.23,3.81-15.46,1.31-9.39,1.71-18.91,3.09-28.3s4.81-18.05,14.28-22.67a4.93,4.93,0,0,0,1.95-2.64c3.67-10.15,7.71-13.12,18-10,11.48,3.52,24.81,5.82,26.85,22.64,1-1.39,2.11-2.3,2-2.91-.83-3.59-1.08-7.8-3.2-10.49a29.22,29.22,0,0,0-10.59-8.08c-5.82-2.67-8.09-5.45-7.58-12.72,1.6-23-9.06-41.41-24.32-57.6a14.92,14.92,0,0,0-2.44-1.74c15.95,19,26.64,39.22,19.27,65-8.2-.86-7.89-1-10-7.85-2.87-9.36-5.27-19.06-9.64-27.72C448,241.91,436.69,215.8,428.8,188.21c-3.15,2.34-5.86,4.84-9,6.6-7.1,4-14.26,7.91-21.67,11.24-10.44,4.69-20.38,3.83-29.3-4-3.43-3-7.17-5.68-11.38-9-1.56,16.87-6.46,31.65-12.67,46q-6.82,15.81-14.07,31.45c-6.87,14.76-10.39,30.36-11.72,47.87-6.54-10-8.66-19.57-7.55-30,1.32-12.35,6.26-23.38,12.09-34.13,1.07-2,1.86-4.12,2.78-6.19l-1.14-.47c-7.14,12.16-14.25,24.41-17.1,38.45a66.73,66.73,0,0,0-1.45,18.77c1.25,14.44,10.75,23.16,22.19,30.82,8,5.33,15,12.11,22.16,18.52,2.18,1.94,3.73,4.7,5.18,7.31C362.09,372.14,359.16,378.73,345.9,381.78ZM329,434.59c13.25-.62,21.55-2.71,26.22-11.44,4.79-9,2.7-17.41-2.75-25.34a147,147,0,0,0-8.75-12.16A155.47,155.47,0,0,1,322.69,353,84.76,84.76,0,0,0,309,332.86c-8.16-8.79-17.17-7.85-24.77,1.3a38,38,0,0,0-3.28,4.42c-4,6.6-9.9,10.53-17.13,13-13.07,4.44-15.71,9.31-13.35,23,1.12,6.56,1.89,13-.42,19.7-5.56,16.14-1.37,21.92,15.77,23.7,14.58,1.51,28.92,3.51,42.41,10.44C315.72,432.27,324.62,433.35,329,434.59ZM462,327l-1.58-.67c-2.29,3.33-5.25,6.39-6.71,10.06a48.17,48.17,0,0,0-3.39,14.46c-1,15.69-3,31.14-8.07,46.1a86,86,0,0,0-2.65,11.17c-4.26,21.71,13.43,35.85,33,28.64,6.83-2.51,14-6.47,18.77-11.76C502.11,413.15,515,405.2,529.2,398.6c14.87-6.91,16.16-13.39,5.56-26A37,37,0,0,1,526.14,355a47,47,0,0,0-3.64-11.39c-3.93-8.38-15.06-10.49-22.32-4.88a53.74,53.74,0,0,1-11.93,7.14c-11.7,4.88-20.62.47-24.44-11.67C463.08,331.81,462.62,329.37,462,327ZM385.54,155.39c-4.21,1.66-8.9,2.69-12.63,5.16-6.23,4.13-11.88,9.12-17.71,13.84-3.12,2.53-4.07,6-2,9.37a34.76,34.76,0,0,0,6.77,7.81c4,3.48,8.48,6.43,12.62,9.78,4.7,3.8,10.12,5.58,15.87,4.3,13-2.88,24.36-9.77,34.95-17.28,8.92-6.33,6.68-15.06-3.61-19.38-7-3-13.86-6.38-20.91-9.28C394.81,158,390.45,157,385.54,155.39Zm14.33,1c.69-3.27.63-6.59,2.1-9,1.67-2.69,4.48-6,7.2-6.42,3.93-.6,6.71,3.24,7,7,.44,5.22-.24,10.53-.46,16.38l7.56,2.79c6.36-10.08,7.17-20.13,1.85-30.46-4.64-9-14.67-12.5-22.15-7.86-6.06,3.76-9.13,9.43-10.38,16.28C391.07,153.63,391.37,154.14,399.87,156.39ZM466,324a33,33,0,0,0,.46,4.32c1.66,7.77,7.91,13.15,13.91,11a41,41,0,0,0,12.94-7.94c3.9-3.47,3.39-8.66-1-11.56a50.7,50.7,0,0,0-14.19-6.9C469.69,310.58,466,314,466,324ZM363.45,164.63c-3.94-5.45-5.59-10.9-3-16.79.7-1.62,2.66-3.77,4-3.74a6.63,6.63,0,0,1,4.91,3.24c1.43,3,1.88,6.43,3,10.68,2.4-2.08,6.27-3.8,6.47-5.87a22.44,22.44,0,0,0-6.64-18.61c-4.62-4.52-10-4.17-14.4.58-7.39,8.06-6.47,25.78,1.84,33.3Z"/><path class="cls-1" d="M375.72,537.89c-8.13,0-16.27.06-24.4-.09-1,0-1.93-1.2-2.9-1.84.94-.69,1.83-1.9,2.83-2,5.39-.49,6.77-3.61,6.67-8.54-.22-10.35-.07-20.7-.07-31.05,0-4.32-.72-8-6.29-8.14-.82,0-1.62-1.14-2.42-1.74.93-.76,1.77-2,2.82-2.2,5-1.15,10.06-2,15.79-3.14-.17,3.63-.33,7.17-.56,12,1.88-1.81,2.82-3.14,4.09-3.86,4.84-2.75,9.52-6.31,14.76-7.69,9.07-2.38,16.24,2.67,17,12,1,11.27.95,22.64.94,34,0,4.71,1,7.77,6.25,8.27,1,.09,2,1.57,2.92,2.41-1.18.52-2.34,1.47-3.53,1.5-7,.16-14,.2-21,0-1.15,0-2.26-1.18-3.39-1.81.9-.75,1.73-2,2.73-2.17,5.12-.79,6.27-4,6.09-8.59-.42-10.82-.27-21.67-.94-32.48-.33-5.46-2.94-7.09-8.4-6.94-9.86.28-16.86,7.47-16.86,17.33,0,8,.07,16,0,24,0,3.54,1.19,5.59,4.9,6.31,1.4.28,2.56,1.86,3.83,2.85Z"/><path class="cls-1" d="M462.25,539.38v-8.57c-5.22,2.54-10.19,6-15.7,7.43-10.93,2.75-18.87-3.41-19.45-14.68-.53-10.48-.36-21-.33-31.5,0-4.16-.88-7.13-5.79-7.59-1.15-.11-2.16-1.78-3.23-2.73l.81-1.27H436.8c0,7.41-.06,14.52,0,21.62s-.09,14,.52,21c.75,8.6,8,12.15,15.61,8,6-3.29,10.06-7.5,9.33-15.35-.71-7.61-.24-15.33-.21-23,0-4.4-.88-7.93-6.22-8.49-.87-.09-1.61-1.47-2.41-2.25,1-.59,1.94-1.66,2.94-1.69,5.13-.18,10.27-.08,15.73-.08,0,9.44,0,18.39,0,27.33,0,5.67.24,11.35,0,17-.14,3.88,1.47,5.37,5.2,5.6,1.46.09,2.85,1.26,4.28,2a28.16,28.16,0,0,1-4.18,2.32C472.64,536.12,467.76,537.61,462.25,539.38Z"/><path class="cls-1" d="M243.35,452.06h33.36l.7,1.49c-1.42.79-2.78,2.08-4.28,2.27-6.95.91-7.67,1.53-7.68,8.34q0,29.54,0,59.07c0,7.67,1.37,9,9.06,8.95,3.51,0,7-.22,10.51,0,8.2.59,13.22-3.4,16.12-10.68a25.72,25.72,0,0,1,1.68-4.15,11.19,11.19,0,0,1,2.63-2.19c.5,1,1.56,2.12,1.43,3.06-.87,6.43-2,12.82-3,19.23-14.38,0-28.65,0-42.93,0-5,0-10,.33-15,.29-1,0-2.08-1-3.11-1.5.94-.81,1.79-2.14,2.86-2.34,8.91-1.73,8.93-1.66,8.94-10.67q0-29.26,0-58.53c0-7.33-.74-8-8.17-9-1.43-.18-2.73-1.32-4.09-2Z"/><path class="cls-1" d="M526.65,532.27,514,514.2l-11.87,17.28,5.78,4.93-.89,1.45c-6.3,0-12.6,0-18.9-.07a1.86,1.86,0,0,1-.65-3.66c11.58-2.79,15.07-14,22.08-21.42.72-.76.51-3.26-.2-4.35-4.09-6.28-8.2-12.58-12.84-18.45-1.93-2.45-5.22-3.81-7.82-5.77a18.32,18.32,0,0,1-2.28-2.44c1-.49,2.07-1.39,3.11-1.41,6.16-.13,12.33-.15,18.49,0,1.42,0,2.82.9,4.22,1.38-1.23,1-2.42,2-3.71,2.95a22.41,22.41,0,0,1-3.12,1.36c3.94,5.91,7.64,11.48,11.84,17.8l12.81-17.87a30.42,30.42,0,0,1-4.57-1.76,9.13,9.13,0,0,1-1.92-2.23c.83-.57,1.66-1.61,2.51-1.63,6.3-.14,12.6-.07,20.48-.07-1.59,2-2.27,3.72-3.22,3.88-5.64.91-9,4.7-12.17,8.9-1.9,2.53-3.85,5-5.8,7.52-5.26,6.73-5.27,6.73-.45,13.48,3,4.21,5.64,8.75,9.15,12.48,2.81,3,6.7,5,10.07,7.5a24.46,24.46,0,0,1,2.37,2.3c-.87.54-1.72,1.52-2.59,1.53q-10.24.2-20.48,0c-.93,0-1.85-.93-2.78-1.42a12,12,0,0,1,1.9-2.55C523.29,533.27,524.36,533.12,526.65,532.27Z"/><path class="cls-1" d="M333.84,479.18c0,15.5.14,30.65-.08,45.81-.07,5,.72,8.5,6.61,8.91,1.1.08,2.1,1.66,3.15,2.55l-.83,1.43c-8.63,0-17.26,0-25.89-.06-.78,0-1.55-.86-2.33-1.32.61-.86,1.2-2.46,1.82-2.47,8.91-.11,7.62-6.5,7.63-12.11q0-13.75,0-27.5c0-4.34-.72-8-6.31-8.18-.85,0-1.69-1.07-2.53-1.64.92-.73,1.75-1.86,2.79-2.11C323,481.29,328.24,480.31,333.84,479.18Z"/><path class="cls-2" d="M334.3,461.47c-.31,4.14-2.12,6.54-6.16,6.6s-6.21-2.16-6.27-6.07,2.19-6.33,6.05-6.4S333.87,457.94,334.3,461.47Z"/><path class="cls-3" d="M345.9,381.78c13.26-3,16.19-9.64,10.25-20.31-1.45-2.61-3-5.37-5.18-7.31-7.18-6.41-14.2-13.19-22.16-18.52-11.44-7.66-20.94-16.38-22.19-30.82a66.73,66.73,0,0,1,1.45-18.77c2.85-14,10-26.29,17.1-38.45l1.14.47c-.92,2.07-1.71,4.21-2.78,6.19C317.7,265,312.76,276,311.44,288.39c-1.11,10.43,1,20,7.55,30,1.33-17.51,4.85-33.11,11.72-47.87q7.28-15.61,14.07-31.45c6.21-14.38,11.11-29.16,12.67-46,4.21,3.3,7.95,6,11.38,9,8.92,7.86,18.86,8.72,29.3,4,7.41-3.33,14.57-7.27,21.67-11.24,3.14-1.76,5.85-4.26,9-6.6,7.89,27.59,19.24,53.7,32.12,79.26,4.37,8.66,6.77,18.36,9.64,27.72,2.11,6.9,1.8,7,10,7.85,7.37-25.77-3.32-46-19.27-65a14.92,14.92,0,0,1,2.44,1.74c15.26,16.19,25.92,34.63,24.32,57.6-.51,7.27,1.76,10.05,7.58,12.72a29.22,29.22,0,0,1,10.59,8.08c2.12,2.69,2.37,6.9,3.2,10.49.14.61-1,1.52-2,2.91-2-16.82-15.37-19.12-26.85-22.64-10.32-3.16-14.36-.19-18,10a4.93,4.93,0,0,1-1.95,2.64c-9.47,4.62-12.89,13.17-14.28,22.67s-1.78,18.91-3.09,28.3c-.74,5.23-2.42,10.34-3.81,15.46a5.22,5.22,0,0,1-1.75,2.82c-21.32,14.88-50.71,21.69-75.27,7.26C356.18,394.39,351.73,387.66,345.9,381.78Z"/><path class="cls-4" d="M329,434.59c-4.42-1.24-13.32-2.32-20.81-6.16-13.49-6.93-27.83-8.93-42.41-10.44-17.14-1.78-21.33-7.56-15.77-23.7,2.31-6.71,1.54-13.14.42-19.7-2.36-13.71.28-18.58,13.35-23,7.23-2.46,13.12-6.39,17.13-13a38,38,0,0,1,3.28-4.42c7.6-9.15,16.61-10.09,24.77-1.3A84.76,84.76,0,0,1,322.69,353a155.47,155.47,0,0,0,21.07,32.67,147,147,0,0,1,8.75,12.16c5.45,7.93,7.54,16.37,2.75,25.34C350.59,431.88,342.29,434,329,434.59Z"/><path class="cls-4" d="M462,327c.59,2.4,1.05,4.84,1.78,7.19,3.82,12.14,12.74,16.55,24.44,11.67a53.74,53.74,0,0,0,11.93-7.14c7.26-5.61,18.39-3.5,22.32,4.88A47,47,0,0,1,526.14,355a37,37,0,0,0,8.62,17.69c10.6,12.56,9.31,19-5.56,26-14.2,6.6-27.09,14.55-37.82,26.37-4.8,5.29-11.94,9.25-18.77,11.76-19.55,7.21-37.24-6.93-33-28.64a86,86,0,0,1,2.65-11.17c5.07-15,7.08-30.41,8.07-46.1a48.17,48.17,0,0,1,3.39-14.46c1.46-3.67,4.42-6.73,6.71-10.06Z"/><path class="cls-4" d="M385.54,155.39c4.91,1.56,9.27,2.63,13.37,4.32,7,2.9,13.88,6.32,20.91,9.28,10.29,4.32,12.53,13,3.61,19.38-10.59,7.51-21.95,14.4-34.95,17.28-5.75,1.28-11.17-.5-15.87-4.3-4.14-3.35-8.61-6.3-12.62-9.78a34.76,34.76,0,0,1-6.77-7.81c-2.09-3.4-1.14-6.84,2-9.37,5.83-4.72,11.48-9.71,17.71-13.84C376.64,158.08,381.33,157.05,385.54,155.39ZM357.12,178l-1.7,1.63c2.45,2.38,4.78,4.9,7.38,7.12,8,6.8,17.2,11.38,27.56,7.54s20.38-9.54,30.48-14.52c.37-.18.25-1.36.55-3.23-3.65,1.78-6.47,3-9.18,4.49-4.83,2.6-9.51,5.51-14.43,8-12.49,6.21-23.83,4.14-34-5.18C361.59,181.83,359.33,179.94,357.12,178Z"/><path class="cls-3" d="M399.87,156.39c-8.5-2.25-8.8-2.76-7.26-11.23,1.25-6.85,4.32-12.52,10.38-16.28,7.48-4.64,17.51-1.17,22.15,7.86,5.32,10.33,4.51,20.38-1.85,30.46l-7.56-2.79c.22-5.85.9-11.16.46-16.38-.31-3.78-3.09-7.62-7-7-2.72.41-5.53,3.73-7.2,6.42C400.5,149.8,400.56,153.12,399.87,156.39Z"/><path class="cls-5" d="M466,324c0-10,3.7-13.41,12.14-11.09a50.7,50.7,0,0,1,14.19,6.9c4.37,2.9,4.88,8.09,1,11.56a41,41,0,0,1-12.94,7.94c-6,2.16-12.25-3.22-13.91-11A33,33,0,0,1,466,324Z"/><path class="cls-3" d="M363.45,164.63l-3.86,2.79c-8.31-7.52-9.23-25.24-1.84-33.3,4.36-4.75,9.78-5.1,14.4-.58a22.44,22.44,0,0,1,6.64,18.61c-.2,2.07-4.07,3.79-6.47,5.87-1.12-4.25-1.57-7.7-3-10.68a6.63,6.63,0,0,0-4.91-3.24c-1.34,0-3.3,2.12-4,3.74C357.86,153.73,359.51,159.18,363.45,164.63Z"/><path class="cls-2" d="M357.12,178c2.21,1.93,4.47,3.82,6.64,5.8,10.19,9.32,21.53,11.39,34,5.18,4.92-2.44,9.6-5.35,14.43-8,2.71-1.45,5.53-2.71,9.18-4.49-.3,1.87-.18,3-.55,3.23-10.1,5-20,10.63-30.48,14.52s-19.56-.74-27.56-7.54c-2.6-2.22-4.93-4.74-7.38-7.12Z"/></g></svg>