<svg id="gris" xmlns="http://www.w3.org/2000/svg" viewBox="0 0 792 612"><defs><style>.cls-1{fill:#515151;}.cls-2{fill:#6d6d6d;}.cls-3{fill:#ececec;}</style></defs><title>Tema</title><g id="_9crNfA.tif" data-name="9crNfA.tif"><path class="cls-1" d="M545,303c-.53-3.43.9-5.34,3.9-5.74a20.39,20.39,0,0,0,2.55-.57,4.61,4.61,0,0,0,3.66-4.58c.18-2.78.39-5.56.41-8.33q.12-22,.13-44.05c0-2.16-.11-4.32-.21-6.48-.15-3.06-1.47-4.81-4.44-5.54-2.29-.56-4.65-.87-7-1.29-.49-.09-1-.16-1.86-.3.92-1.71,1.67-3.2,2.53-4.62.16-.26.8-.34,1.22-.33,6,.08,11.94.29,17.91.27,6.85,0,13.69-.33,20.54-.39,8.64-.07,17.1,1,24.74,5.4,10.48,6.06,16.32,15.32,18,27.19a45.39,45.39,0,0,1-2.62,23.68c-4.7,11.48-13.5,18.56-24.9,22.67-8.42,3.05-17.22,3.33-26.06,3.18q-7.89-.13-15.76-.17C553.47,302.94,549.25,303,545,303Zm68.63-41.34c-.08-1.12-.14-3.19-.4-5.23-1.07-8.46-4.31-15.85-11-21.43-9.08-7.6-19.82-8.63-31-7.59-1.74.16-2.53,1.29-2.56,3.11-.1,5.2-.25,10.4-.24,15.6q.06,20.53.24,41.09c.05,4.46,1.86,6.84,6.09,8.24a33.54,33.54,0,0,0,11.88,1.36c9.21-.35,16.18-4.61,21.23-12.14C612.31,278,613.48,270.4,613.61,261.63Z"/><path class="cls-1" d="M633.8,226.35c.87-1.77,1.55-3.27,2.34-4.71.13-.24.71-.32,1.08-.32q18.3,0,36.6.12A35.47,35.47,0,0,1,687.23,224a17.11,17.11,0,0,1,3.29,29.89c-1.57,1.12-3.3,2-4.94,3,2.37.92,4.77,1.69,7,2.77,15.57,7.42,13.67,25.9,4.06,34.14a39.23,39.23,0,0,1-20.47,9c-8.31,1.2-16.65.57-25,.45-5.05-.06-10.09-.14-15.14-.21h-1.77a6.47,6.47,0,0,1,1.49-4.93c.23-.32.91-.37,1.4-.46,1.71-.33,3.43-.63,5.15-.94a3.85,3.85,0,0,0,3.33-3.87c.2-2.51.39-5,.42-7.55.1-7.26.13-14.52.15-21.79q0-15,0-30c0-4.13-1.41-5.59-5.53-6.16Zm25,49.53H659c0,4.12-.16,8.24,0,12.35.23,4.6,2.41,8.1,8,8.46,1.74.11,3.48.31,5.23.36,9.35.26,16.82-4.43,17.88-14.58.81-7.78-2-14.73-10.2-18.15-6.37-2.65-13.07-2.47-19.76-2.29-1,0-1.35.65-1.34,1.65C658.85,267.75,658.82,271.82,658.82,275.88Zm.31-33h-.3c0,3.8,0,7.61,0,11.42,0,.89.23,1.6,1.23,1.59,5.08,0,10.17,0,15.23-.27a9.19,9.19,0,0,0,7.37-4.77A15,15,0,0,0,674,228.58a37.56,37.56,0,0,0-12.09-1c-2.12.11-2.7.57-2.73,2.66C659.08,234.47,659.13,238.68,659.13,242.9Z"/><path class="cls-1" d="M232.89,303a36.18,36.18,0,0,1,.05-3.64c0-.33.59-.74,1-.87,1.22-.39,2.5-.61,3.72-1a3.41,3.41,0,0,0,2.68-3.21c.14-2.26.28-4.52.27-6.79,0-6.38.12-12.79-.29-19.15-.54-8.31-7.2-13-15.27-10.9-2.77.74-5.34,2.31-7.92,3.68a2.64,2.64,0,0,0-.93,2c.05,6.33.22,12.65.33,19,.07,4.07,0,8.14.15,12.2.05,1.7,1.12,2.71,3.06,3.2a38.39,38.39,0,0,0,4.07.89,1.22,1.22,0,0,1,1.23,1.41V300c0,2.7-.35,3.05-3,3.05l-22.55,0h-1.83a17.38,17.38,0,0,1-.29-2c-.07-2.21.07-2.37,2.26-2.78.81-.15,1.63-.27,2.43-.43,2.74-.54,3.82-1.56,3.85-4.38.11-8.49.32-17,0-25.47-.21-4.83-2.35-9-7.4-10.79a12.55,12.55,0,0,0-8.79.23,60.72,60.72,0,0,0-6.46,3.22,3.33,3.33,0,0,0-1.76,3.21c0,9.79,0,19.58.11,29.37,0,3,1,4.09,4.06,4.66a18.5,18.5,0,0,0,2.74.48c1.26.05,1.58.69,1.44,1.79,0,.25,0,.52,0,.77-.19,2.17-.19,2.12-2.41,2.12-7.77,0-15.55,0-23.32,0-1.21,0-1.92-.15-2-1.57-.12-2.3.09-2.78,1.68-3.09,1.31-.26,2.61-.56,3.91-.88a3.68,3.68,0,0,0,3.09-3.56c.18-2.88.36-5.76.38-8.64,0-7.57,0-15.14,0-22.71a3.44,3.44,0,0,0-2.06-3.49c-1.87-.84-3.76-1.66-5.66-2.42-1-.38-2.21-.51-2.09-1.84s1.35-1.53,2.41-1.77c4.61-1.06,9.22-2.1,13.81-3.21,1.24-.3,2.42-.83,3.9-1.34a11.57,11.57,0,0,1,.31,2.11c0,1.39-.24,2.77-.25,4.16a7.61,7.61,0,0,0,.41,1.84,10.16,10.16,0,0,0,1.91-.72,75.27,75.27,0,0,1,7.09-4.35,30.1,30.1,0,0,1,8.43-2.81c6-.85,10.66,1.87,14.06,6.8,1.4,2,1.3,1.85,3.41.59,3.69-2.22,7.34-4.66,11.31-6.24,9.82-3.92,19.24.86,21.91,11.1a51.61,51.61,0,0,1,1.27,11.6c.16,6.85,0,13.7-.06,20.56,0,2.25.7,3.33,2.85,4a38.92,38.92,0,0,0,5.1,1.2c1,.16,1.15.59,1.08,1.44-.25,3.14-.44,3.2-3.56,3.17-7.31-.08-14.62,0-21.93,0Z"/><path class="cls-1" d="M421.17,304.11c-.83-.45-1.44-.79-2.06-1.1a11.18,11.18,0,0,1-6-6.17c-.7-1.93-.5-2.52,1.2-3.59,2.22-1.4,4.48-2.73,6.69-4.15a7.17,7.17,0,0,0,1.29-1.44,6.9,6.9,0,0,0-1.5-1.12C412,283.07,409.1,275.3,409.93,267c.69-7,4.73-11.77,10.94-14.83,8.19-4,16.53-4.67,25.07-1.13a21.65,21.65,0,0,0,10.88,1.53,10.14,10.14,0,0,0,5.9-2.78c1.38,2.55.18,6.9-1.49,8.27-2.57,2.11-5.51,1.5-8.64,1,.25,1.44.51,2.67.67,3.91,1.26,10.2-3.15,17.88-12.7,22.18a30.14,30.14,0,0,1-10.62,2.45,7,7,0,0,0-1.37.18,4,4,0,0,0-3.09,3.28,3.42,3.42,0,0,0,2.79,3.46c3.11.61,6.3.83,9.46,1.19,4.5.52,9,.81,13.48,1.59,7.83,1.36,12.29,8.07,10.93,15.92a22.73,22.73,0,0,1-8.95,14.33c-10,7.83-21.25,10.12-33.44,6.42a16.66,16.66,0,0,1-11.66-11.41c-1.2-3.84-.5-7.32,2.53-10,2.84-2.53,5.93-4.77,8.91-7.14Zm14.9,24.82a19.87,19.87,0,0,0,10.23-2.32c4.22-2.37,6.69-5.87,6.48-10.9-.19-4.29-2.62-7.15-7.35-8.62s-9.52-1.54-14.35-1.8a12.86,12.86,0,0,0-9.44,3.45c-5.44,4.71-5.41,11.49.17,16.05C425.82,328.06,430.55,329,436.07,328.93Zm-15.8-62.62h.13c0,.26,0,.52,0,.77.25,4.77,1.41,9.18,5.13,12.49,6,5.36,14.51,2.92,16.71-4.8a18.33,18.33,0,0,0,.75-4.08c.23-5.11-.35-10.05-4.27-13.84a11.09,11.09,0,0,0-11.16-2.7c-4,1.07-5.91,4.07-6.75,7.88A42.93,42.93,0,0,0,420.27,266.31Z"/><path class="cls-1" d="M372.46,303.69c-.15-.65-.29-1.1-.36-1.55-.45-3-.09-3.53,2.89-4,4.36-.68,5.1-1.5,5.06-5.93-.05-7.57-.21-15.14-.24-22.71,0-9.15-7.26-13.67-16.1-11.46a11.71,11.71,0,0,0-1.9.62c-6.16,2.67-6.22,3.92-6.17,8.95q.14,12.66.25,25.34c0,3.5.76,4.34,4.15,5a16.88,16.88,0,0,0,2.9.41c1.27,0,1.53.74,1.49,1.78,0,.1,0,.2,0,.31-.13,3.13-.38,3.28-3.49,3.26-7.61-.05-15.23,0-22.85,0H336a42.55,42.55,0,0,1,.06-4.39c0-.38.79-.84,1.3-1,1.23-.34,2.52-.48,3.77-.76a3.19,3.19,0,0,0,2.77-3.08c.18-2.77.37-5.55.39-8.32,0-7.73,0-15.45,0-23.18a3,3,0,0,0-1.77-3c-1.92-.85-3.87-1.65-5.81-2.45-1.06-.43-2.29-.75-2.21-2.19s1.25-2,2.46-2.16a87.54,87.54,0,0,0,17.31-4.39,1.34,1.34,0,0,1,1.21.58,8.84,8.84,0,0,1,.24,2.57c0,1.67-.16,3.34-.28,5.48.86-.65,1.33-1,1.79-1.35a39.14,39.14,0,0,1,11-6.47c9.35-3.46,18.64,1.08,21.65,10.58a39.92,39.92,0,0,1,1.5,11.9c.07,7,.06,13.91.12,20.87,0,3,.39,3.51,3.27,4.38a33.22,33.22,0,0,0,4.21.92c.93.15,1.41.58,1.36,1.49s-.16,1.85-.29,2.76-.63,1.28-1.59,1.22c-2.52-.16-5-.32-7.56-.31-5.36,0-10.71.18-16.07.28Z"/><path class="cls-1" d="M299.86,248.3c14.42.38,24.55,10,25.55,24.89.67,10.19-2.23,19.29-11,25.28-9.89,6.77-20.58,8-31.54,2.4a20.54,20.54,0,0,1-9-9.29A31.88,31.88,0,0,1,271.38,268c2.73-9.82,9.87-15.25,19.27-18C293.64,249.17,296.79,248.87,299.86,248.3Zm14.06,32.3c-.28-3.19-.34-5.35-.67-7.48-.85-5.51-2.78-10.54-6.93-14.48-6.89-6.53-20.37-7.08-23.56,6.49a33.84,33.84,0,0,0,2.51,23c2.34,4.82,5.89,8.4,11.24,9.86,7.38,2,13.67-1.24,15.84-8.56A71.44,71.44,0,0,0,313.92,280.6Z"/><path class="cls-1" d="M472.34,276.14c.12-13.39,8-23.06,21.59-26.47a29.24,29.24,0,0,1,17,.42c7.54,2.62,12.76,7.76,15.08,15.39,3.05,10.06,2.26,19.82-4.48,28.23-6.42,8-15.28,11-25.38,10.41a24.45,24.45,0,0,1-14-5.09c-5.53-4.35-8.22-10.29-9.31-17C472.56,280.05,472.51,278.09,472.34,276.14Zm43.76,4c-.35-3.1-.48-5.68-1-8.19-1-5.54-3.2-10.56-7.76-14.17-7.1-5.63-19.15-5.47-22.36,6.77a33.66,33.66,0,0,0,2.62,24.17,17.4,17.4,0,0,0,9.06,8.67c6.88,2.79,15.54,1,18-8.47C515.43,285.87,515.69,282.73,516.1,280.11Z"/><path class="cls-1" d="M724,303.08a10.27,10.27,0,1,1,10.31-10.45A10.13,10.13,0,0,1,724,303.08Zm9.24-10.34a9,9,0,0,0-9.35-9.18,9.29,9.29,0,0,0-9.25,9.24,9.45,9.45,0,0,0,9.37,9.35A9.28,9.28,0,0,0,733.28,292.74Z"/><path class="cls-1" d="M721.79,293.79v5.44H720.3V286.17c1.89.12,3.74.11,5.54.38a2.76,2.76,0,0,1,2.24,2.63,3.65,3.65,0,0,1-1.28,3.73,9.13,9.13,0,0,1-1.13.67c.87,1.9,1.71,3.74,2.55,5.6-1.2.39-1.85.07-2.25-1s-1-2-1.39-3.08C724.12,293.79,723.4,293.19,721.79,293.79Zm0-1.47a16.24,16.24,0,0,0,3.41-.34,2.09,2.09,0,0,0,1.18-1.51c0-.77-.24-2.05-.72-2.24a7,7,0,0,0-3.44-.24c-.24,0-.33,1.41-.42,2.18A21.24,21.24,0,0,0,721.78,292.32Z"/></g><path class="cls-2" d="M54.36,251.8c0-1.68,0-3.35,0-5,.72-21,6.31-40.4,18.38-57.75a88.91,88.91,0,0,1,14.92-16.66c3.19-2.75,6.09-5.56,6-10.19a1.09,1.09,0,0,1,.85.84c2.74,7.07,7.42,12.72,12.68,18.06,12.63,12.8,20.4,28.37,24.77,45.64,7.24,28.65,1.84,54.8-16.34,78.17a59.84,59.84,0,0,1-14.24,13.39,1.41,1.41,0,0,1-1.54-.4,9.76,9.76,0,0,1-2.56-3.44,28.66,28.66,0,0,1-2.22-12.92c0-.83-.11-1.64,0-2.25a54.65,54.65,0,0,1-2.16,18.5c-.22.79-.2,1.82-1.37,2A62.5,62.5,0,0,1,79.9,309.68a95.76,95.76,0,0,1-21.12-33.79,77.89,77.89,0,0,1-3.71-15.05A58.29,58.29,0,0,1,54.36,251.8Z"/><path class="cls-3" d="M91.69,319.4c2.38-7.42,3.07-15.11,3.7-22.83.5,4,.62,8,1.51,11.91.81,3.6,1.88,7.09,5.13,9.37-.91,5-1.86,10-2.73,15.07-.43,2.48-.8,5-1,7.5-.15,1.68-1.17,1.58-2.36,1.61s-1.83-.59-1.92-1.82c-.46-6.16-1.31-12.28-2-18.42C91.88,321,91.78,320.2,91.69,319.4Z"/><path class="cls-1" d="M95.6,165.45c2.8,6,7,10.91,11.64,15.62,12.63,12.8,20.4,28.37,24.77,45.64,7.24,28.65,1.84,54.8-16.34,78.17a59.84,59.84,0,0,1-14.24,13.39,1.41,1.41,0,0,1-1.54-.4,9.76,9.76,0,0,1-2.56-3.44,28.66,28.66,0,0,1-2.22-12.92"/><g id="dXAnBi"><path class="cls-1" d="M454.39,422.9a72.17,72.17,0,0,1-4.68,7.49c-3.37,4.2-8,6.33-13.25,7.42a24.82,24.82,0,0,1-11.25-.28c-7.78-2-13.2-6.8-15.54-14.53-2.47-8.19-2.37-16.42,1.14-24.35,2.54-5.72,7.12-9.26,13-11.17a25.24,25.24,0,0,1,14.4-.44,21.57,21.57,0,0,1,15.29,13.67c.1.25.19.51.3.75,0,.07.13.11.46.39,3.71-10.33,11.36-15.41,22-15.55s18.39,4.86,22.71,15a14.2,14.2,0,0,0,.26-1.45,14.27,14.27,0,0,1,10.39-12.33,29,29,0,0,1,14.82-.55c6.73,1.56,11.19,4.16,12.85,11.92.2.94,0,1.48-1,1.63-2,.29-4,.63-6,.86a1.23,1.23,0,0,1-.93-.72c-1.49-5.6-5.3-7.2-10.42-7.44-2.87-.13-5.79,0-8.41,1.49-2.07,1.15-3.47,2.83-3.3,5.31s1.94,4.08,4.17,4.82c3.28,1.1,6.68,1.82,10,2.85,3.94,1.23,7.89,2.47,11.7,4,1.65.67,3,2.12,4.69,3.4v-2.51c.05-4.92.68-9.75,3-14.17a21.3,21.3,0,0,1,15.92-11.69,23.53,23.53,0,0,1,16.19,2.5,20.72,20.72,0,0,1,10.35,14.52c.59,2.89.62,5.9.92,8.85.13,1.28-.34,1.72-1.67,1.71-11.32,0-22.65,0-34,0-2.2,0-2.21,0-1.93,2.2.68,5.22,2.63,9.74,7.28,12.68a14.81,14.81,0,0,0,10,2c5.44-.62,8.77-3.83,10.82-8.61.52-1.2,1.05-1.64,2.43-1.31a43.31,43.31,0,0,0,5.22.67c1.21.14,1.47.73,1.06,1.86-2.83,7.76-8.14,12.49-16.37,14a28.74,28.74,0,0,1-11.94-.26,20.8,20.8,0,0,1-14.43-11.24c-.17-.32-.34-.64-.53-.94a7.82,7.82,0,0,0-.54-.67c-.18.54-.33.93-.44,1.34-1.72,5.85-5.83,9.22-11.47,11a30.58,30.58,0,0,1-15.63.56c-6.16-1.28-10.62-4.71-12.94-10.69-.22-.57-.5-1.12-.88-2-4.82,9.63-12.81,13.67-22.91,13.29S457.84,432.66,454.39,422.9Zm6.94-10.6c.35,2.49.58,5,1.09,7.47a14.41,14.41,0,0,0,12,11.42c6.52.87,12.84-2.34,15.32-8.49a28.25,28.25,0,0,0,.86-18.44c-1.69-6.07-5.58-9.92-12-10.89A14.08,14.08,0,0,0,464.3,400C462,403.79,461.61,408,461.33,412.3Zm-14.49-.88c-.17-1.45-.3-3.48-.66-5.47-1.14-6.35-5.7-11.66-12.35-12.59A14.18,14.18,0,0,0,418.9,401c-2.85,6-2.83,12.27-1.42,18.53,1.46,6.47,5.38,10.6,12.2,11.68a14.28,14.28,0,0,0,14.62-7.26C446.28,420.18,446.61,416.1,446.84,411.42ZM499.54,422c1.44-.18,3-.33,4.53-.58,1.88-.32,1.87-.36,2.33,1.45a10.49,10.49,0,0,0,9.38,8.1,51.94,51.94,0,0,0,7.38,0,8.91,8.91,0,0,0,6.12-3.07c3-3.27,2.15-7.7-1.77-9.41a34.09,34.09,0,0,0-4.2-1.44c-4.92-1.4-9.89-2.66-14.77-4.18a12.68,12.68,0,0,1-7.55-5.77,11.81,11.81,0,0,0-.76-1.08C500,411.33,499.77,416.64,499.54,422Zm61.51-14.71h12.71c.86,0,1.65,0,1.53-1.28-1-10.49-10-14.63-18.41-12.19-5.63,1.63-8.87,5.76-9.81,11.59-.26,1.64-.06,1.88,1.67,1.88Z"/><path class="cls-1" d="M204.57,412.29V389c0-2.13,0-2.13,2.19-2.13,1.27,0,2.53.05,3.79,0,1-.05,1.49.32,1.45,1.4-.06,1.39,0,2.79,0,4.19a3.68,3.68,0,0,0,.37,1.07,3.43,3.43,0,0,0,.93-.62,17.23,17.23,0,0,1,7.45-5.41,19,19,0,0,1,11-.77,13.33,13.33,0,0,1,7.75,4.55,16.14,16.14,0,0,1,1.44,2.27c.72,1.26,1,1.31,1.87.15a18.21,18.21,0,0,1,6.9-5.72A16.54,16.54,0,0,1,261,386.67a23.35,23.35,0,0,1,5.52,2,11.69,11.69,0,0,1,5.79,9.45c.43,4.29.42,8.64.45,13,.05,8.26,0,16.51,0,24.77,0,1.78,0,1.79-1.82,1.79-1.58,0-3.16,0-4.73,0-1.22.06-1.64-.36-1.64-1.62.05-10.06.07-20.12,0-30.18a33.49,33.49,0,0,0-.7-6.7c-.66-3.05-3.74-5.34-6.88-5.61-8.24-.7-13.42,4.24-14,12.09-.06.77-.07,1.53-.07,2.3,0,9.34,0,18.67,0,28,0,1.29-.37,1.79-1.69,1.72a43.9,43.9,0,0,0-5,0c-1.34.07-1.68-.48-1.67-1.74q.06-15.15,0-30.31a18.52,18.52,0,0,0-1.27-7.82,6.78,6.78,0,0,0-5.21-4.1c-4.91-.8-9.61.46-12.65,4.8a15.31,15.31,0,0,0-2.38,7.39,48.79,48.79,0,0,0-.23,5.13c0,8.3,0,16.6,0,24.9,0,1.4-.46,1.82-1.79,1.75a44,44,0,0,0-4.87,0c-1.3.07-1.72-.4-1.71-1.7C204.6,428.08,204.57,420.19,204.57,412.29Z"/><path class="cls-1" d="M399.76,392.88v-4c0-2,0-2,2-2,1.35,0,2.71.06,4.06,0,1.17-.06,1.57.36,1.57,1.55,0,6.63.07,13.27,0,19.9,0,9.24-.1,18.49-.3,27.73A26,26,0,0,1,405,447c-2.41,5-6.51,7.92-11.71,9.46a29.18,29.18,0,0,1-11.63,1.11c-4.9-.57-9.59-1.74-13.22-5.41a12.9,12.9,0,0,1-3.6-9.08c0-1.06.36-1.3,1.39-1.09,1.85.39,3.74.56,5.59,1a1.87,1.87,0,0,1,1.18,1.13c1,3.71,3.7,5.54,7.78,6.32a22.43,22.43,0,0,0,8.33-.06c4.13-.76,8-3.24,9.12-8.47.66-3.13.49-6.44.68-9.68a3.19,3.19,0,0,0-.27-.81L397,432.75a18.23,18.23,0,0,1-16.26,4.49c-9.43-1.67-14-8.07-16.58-16.53a44.83,44.83,0,0,1-1.07-6.25,11.91,11.91,0,0,1-.33-3.28c.89-6.56,2-13.05,6.65-18.24a19.3,19.3,0,0,1,10.81-6.17,18.63,18.63,0,0,1,18.42,5.72,4.67,4.67,0,0,0,.6.48Zm-.1,19.28.38-.08c-.62-3.16-.88-6.45-1.92-9.47-1.93-5.58-6-9-12-9.39a12.71,12.71,0,0,0-12.69,8.12c-2.62,6.23-2.47,12.71-.76,19.11,1.48,5.56,5,9.08,10.91,10.06a13.2,13.2,0,0,0,13.29-6.1C399.12,420.62,399.52,416.42,399.66,412.16Z"/><path class="cls-1" d="M320.62,412c-.17,4.64-.52,9.31-2.53,13.67a20.65,20.65,0,0,1-11.46,10.69,25.19,25.19,0,0,1-16,1.16c-7.56-1.9-12.89-6.5-15.41-14a61.32,61.32,0,0,1-1.65-7.91,11.72,11.72,0,0,1-.51-3.57c.86-6.45,1.43-13.05,6.12-18.23A22.73,22.73,0,0,1,292,386.75a25.83,25.83,0,0,1,11.38.26,21.2,21.2,0,0,1,14.56,11.7C320,402.89,320.56,407.39,320.62,412Zm-8.55-.36c-.06-.84-.12-2.51-.31-4.17-.84-7.26-5.55-13.32-12.93-14.19a14.23,14.23,0,0,0-14.94,8.3c-2.16,4.95-2.26,10.15-1.63,15.41.86,7.17,5.2,13.32,13,14.22a14.1,14.1,0,0,0,14-6.77C311.5,420.81,311.94,416.68,312.07,411.68Z"/><path class="cls-1" d="M329.29,394.2l1.2-1.34c5-5.69,11.23-7.43,18.52-6.21a18.26,18.26,0,0,1,7,2.59c3.92,2.52,5.66,6.39,6,10.82.33,3.91.32,7.84.34,11.76,0,8-.05,16.06,0,24.09,0,1.36-.39,1.86-1.77,1.77a49.24,49.24,0,0,0-5,0c-1.2.06-1.53-.42-1.52-1.58q0-14.68,0-29.36a34.5,34.5,0,0,0-.51-5.65c-.78-4.61-3.91-6.68-7.61-7.37a14.42,14.42,0,0,0-9.69,1.51c-4,2.15-5.57,5.73-6.14,9.93a32.84,32.84,0,0,0-.25,4.32c0,8.79,0,17.59,0,26.39,0,1.78,0,1.79-1.82,1.79s-3.52,0-5.28,0c-.84,0-1.26-.33-1.21-1.21,0-.31,0-.63,0-.94q0-23.28,0-46.55c0-2.06,0-2.07,2.11-2.07,1.18,0,2.36.08,3.52,0,1.34-.1,1.91.33,1.8,1.74s0,2.61,0,3.92A15.19,15.19,0,0,0,329.29,394.2Z"/></g></svg>