<svg id="gris" xmlns="http://www.w3.org/2000/svg" viewBox="0 0 792 612"><defs><style>.cls-1{fill:#ececec;}.cls-2{fill:#515151;}</style></defs><title>Tema</title><polygon class="cls-1" points="251.95 278.64 198.12 309.72 198.12 371.88 251.95 402.96 305.78 371.88 305.78 309.72 251.95 278.64"/><path class="cls-2" d="M163.26,384.69V372l.19-.11V309.72l-53.83-31.08L55.78,309.72v62.16l.14.08v12.73s-2.64,9.87,9,2.39l8.56-5,13.28-7.71s4.68-1.14,4.57-9.26V335.7s-1.22-5.14,4.74-8l9.46-5.56s2.32-1.45,3.58-1.45h.92c1.26,0,3.58,1.45,3.58,1.45l9.46,5.56c6,2.85,4.74,8,4.74,8v29.43c-.11,8.12,4.57,9.26,4.57,9.26l13.31,7.73,8.53,5C165.9,394.56,163.26,384.69,163.26,384.69Z"/><path class="cls-2" d="M395.84,278.64,342,309.72v62.16L395.84,403l53.84-31.08V309.72Zm17.46,73.2L395,362.4l-18.29-10.56V330.72L395,320.16l18.29,10.56Z"/><path class="cls-2" d="M445.17,226.52l-24.9-14c-8-4.9-7,4-7,4v72.23l36.38,21L449,232.9C448.93,227.66,445.17,226.52,445.17,226.52Z"/><path class="cls-2" d="M573.67,382.74l-4.56-2.8c-.29-.17-.5-.27-.5-.27l-46.34-26.49c-3.07-.89-2.17-4.42-2.17-4.42V333.34c0-3,2.17-3.73,2.17-3.73L535.52,322a3.37,3.37,0,0,1,4.92,0l13,7.31c3.45,1.51,2.46,4.55,2.46,4.55v11.5c.47,6.2,5.76,2.49,5.76,2.49l25.55-14.54a10.57,10.57,0,0,0,5.27-8.23V309.72l-53.84-31.08-53.83,31.08v62.16l41.37,23.88-10.1-5.83,18.21,10.46c.17.13.34.24.51.35l3.84,2.22,37.9-21.88Z"/><polygon class="cls-1" points="538.26 329.03 527.75 335.09 527.75 347.23 538.26 353.29 548.77 347.23 548.77 335.09 538.26 329.03"/><g id="_7X9Jbl" data-name="7X9Jbl"><path class="cls-1" d="M680.77,402.37a14.14,14.14,0,0,1-2.68-.83c-2.13-1.16-4.19-2.45-6.26-3.71q-4.68-2.85-9.35-5.73a6.44,6.44,0,0,1-1.12-.82c-.49-.45-.43-.79.18-1,1-.43,2-.76,3-1.23,1.34-.66,2.66-1.37,3.94-2.14a1.58,1.58,0,0,1,1.82,0q4.17,2.49,8.34,4.94c.75.45,1.51.86,2.23,1.33a1.61,1.61,0,0,0,1.88,0q7.32-4.37,14.65-8.7,8.67-5.14,17.32-10.31l10.68-6.33a1.93,1.93,0,0,0,1-1.86q0-25.66,0-51.31a1.94,1.94,0,0,0-1-1.86Q707,301.52,688.6,290.29c-2-1.21-4-2.41-6-3.63a1.52,1.52,0,0,0-1.76,0q-15.27,9.35-30.56,18.67-6.08,3.72-12.17,7.42a1.84,1.84,0,0,0-1,1.75q0,25.73,0,51.44a1.81,1.81,0,0,0,1,1.72c3.54,2.11,7.06,4.25,10.61,6.34a10.22,10.22,0,0,0,5.34,1.56,5.3,5.3,0,0,0,5.42-5.5v-50.8c0-1.26.41-1.69,1.65-1.69h5.8a1.32,1.32,0,0,1,1.47,1.44c0,17.29,0,34.58,0,51.88a14,14,0,0,1-3,9,11.77,11.77,0,0,1-6.83,4.08,18,18,0,0,1-13.15-2c-4.42-2.51-8.81-5.1-13.11-7.8a8.31,8.31,0,0,1-3.85-6.55c-.18-2-.14-4.07-.15-6.11,0-5.78,0-11.55,0-17.33s0-11.47,0-17.21c0-4.41,0-8.83,0-13.25a9.46,9.46,0,0,1,4.74-8.63q18.69-11.22,37.41-22.4c2.17-1.3,4.35-2.61,6.54-3.88a9,9,0,0,1,9.68,0c6.73,4,13.41,8,20.12,12q11.85,7.1,23.71,14.18a9.61,9.61,0,0,1,4.87,8.81q0,8.61,0,17.21t0,17.21c0,6,0,11.93,0,17.9a9.61,9.61,0,0,1-4.92,8.68Q712.21,385.69,694,396.56l-7.28,4.37a9,9,0,0,1-3.79,1.33c-.08,0-.15.07-.22.11Z"/><path class="cls-1" d="M694,315.35a40.21,40.21,0,0,1,10.19,1.23,16.59,16.59,0,0,1,7.81,4.21,12.83,12.83,0,0,1,3.53,7.42,10.73,10.73,0,0,1,.13,1.38,1.24,1.24,0,0,1-1.36,1.39h-5.23c-1.1,0-1.41-.23-1.71-1.29a6.73,6.73,0,0,0-3.77-4.68,16.23,16.23,0,0,0-3.85-1.14,36.2,36.2,0,0,0-10.65-.14,10.12,10.12,0,0,0-4.93,1.8,4.75,4.75,0,0,0-1.89,3.59,8.58,8.58,0,0,0,0,1.52,2.94,2.94,0,0,0,2.13,2.6,41.81,41.81,0,0,0,5.71,1.53c4.11.74,8.26,1.26,12.37,2a30.87,30.87,0,0,1,8.8,2.66,10.53,10.53,0,0,1,6,8.9,16,16,0,0,1-1.56,9.12,15.7,15.7,0,0,1-8.73,7.34,28.38,28.38,0,0,1-7.23,1.68,43.14,43.14,0,0,1-10.53-.15,24.16,24.16,0,0,1-10.8-3.8,14.11,14.11,0,0,1-6.3-9.91,18.17,18.17,0,0,1-.22-2.21,1.35,1.35,0,0,1,1.51-1.53h5.29a1.25,1.25,0,0,1,1.46,1.17,11.18,11.18,0,0,0,1.49,4.2,8.92,8.92,0,0,0,5.44,3.55,34.08,34.08,0,0,0,10.46.8,20.89,20.89,0,0,0,5.55-.94c2.55-.86,4.6-2.31,5.13-5.15a10.48,10.48,0,0,0,0-3.26,3.24,3.24,0,0,0-1.87-2.28,15.86,15.86,0,0,0-5.44-1.76c-2.85-.48-5.73-.8-8.6-1.18a47.73,47.73,0,0,1-10.57-2.17c-2.85-1.06-5.38-2.57-6.91-5.34a13.46,13.46,0,0,1-1.42-7.86,12.65,12.65,0,0,1,1.8-5.67,14.2,14.2,0,0,1,7.22-5.73,24.94,24.94,0,0,1,7.63-1.66C691.5,315.46,692.77,315.41,694,315.35Z"/></g></svg>