<svg id="gris" xmlns="http://www.w3.org/2000/svg" viewBox="0 0 792 612"><defs><style>.cls-1{fill:#515151;}.cls-2{fill:#ececec;}</style></defs><title>Tema</title><g id="JoNLIJ"><path class="cls-1" d="M720.52,308.6c-10.24,4.18-12.2,11.3-12,19.39.1,3.67.84,7.31,1.11,11,1.07,14.7,1,14.7-11.33,20.33v9.9c20.58,3,28.69-4,28.22-24a91.15,91.15,0,0,0-.84-10.16c-2-14.35-1.51-15.36,10.66-22V304c-11.15-4.52-12.58-7.19-11-19.42a128.47,128.47,0,0,0,1.19-14.38c.21-17.67-10.83-25.87-28.65-21.11,0,1.6,0,3.29,0,5,.06,1.91.23,3.83.34,5.58,10.91,2.71,12.31,4.52,11.64,15.31-.27,4.51-1.1,9-1.29,13.52C708.24,296.77,709.52,304.43,720.52,308.6Zm-663.85,5c11.11,4.58,12.49,7.13,11.06,18.86a140.86,140.86,0,0,0-1.23,15.21c-.22,17.65,11.25,26.05,28.32,21v-10c-11.57-3.68-12.33-4.82-11.59-17.14a69,69,0,0,1,.57-7.63c1.81-10.38.7-19.64-9.93-25.34,8.85-5.61,11.36-10.51,10.59-20.14-.32-3.95-.94-7.87-1.19-11.82-.83-12.72-.45-13.25,11.41-17.4V248.48C74.39,245.6,65.89,253,66.52,272.74c.14,4.23.73,8.45,1.23,12.67,1.38,11.77,0,14.15-11.08,18.52ZM463.08,291c0-8.33-5.49-14.17-13.43-14.22s-13.69,5.89-13.79,14,5.61,14.08,13.55,14.08C457.62,304.85,463.06,299.32,463.08,291ZM463,341.74c.43-8.52-4.45-14.46-12.43-15.12-7.77-.64-14.17,5-14.7,13-.55,8.24,4.65,14.42,12.58,14.94C456.7,355.13,462.59,349.93,463,341.74Z"/><path class="cls-1" d="M720.52,308.6c-11-4.17-12.28-11.83-11.94-20.16.19-4.52,1-9,1.29-13.52.67-10.79-.73-12.6-11.64-15.31-.11-1.75-.28-3.67-.34-5.58-.06-1.69,0-3.38,0-5,17.82-4.76,28.86,3.44,28.65,21.11a128.47,128.47,0,0,1-1.19,14.38c-1.56,12.23-.13,14.9,11,19.42v9.11c-12.17,6.64-12.62,7.65-10.66,22a91.15,91.15,0,0,1,.84,10.16c.47,20-7.64,27-28.22,24v-9.9c12.37-5.63,12.4-5.63,11.33-20.33-.27-3.67-1-7.31-1.11-11C708.32,319.9,710.28,312.78,720.52,308.6Z"/><path class="cls-1" d="M56.67,313.61v-9.68c11.08-4.37,12.46-6.75,11.08-18.52-.5-4.22-1.09-8.44-1.23-12.67-.63-19.73,7.87-27.14,28.16-24.26V259.2c-11.86,4.15-12.24,4.68-11.41,17.4.25,3.95.87,7.87,1.19,11.82.77,9.63-1.74,14.53-10.59,20.14,10.63,5.7,11.74,15,9.93,25.34a69,69,0,0,0-.57,7.63c-.74,12.32,0,13.46,11.59,17.14v10c-17.07,5.09-28.54-3.31-28.32-21a140.86,140.86,0,0,1,1.23-15.21C69.16,320.74,67.78,318.19,56.67,313.61Z"/><path class="cls-1" d="M463.08,291c0,8.34-5.46,13.87-13.67,13.87-7.94,0-13.65-5.94-13.55-14.08s5.93-14,13.79-14S463.11,282.65,463.08,291Z"/><path class="cls-1" d="M463,341.74c-.41,8.19-6.3,13.39-14.55,12.84-7.93-.52-13.13-6.7-12.58-14.94.53-8,6.93-13.66,14.7-13C458.55,327.28,463.43,333.22,463,341.74Z"/></g><path class="cls-2" d="M108.62,256.42a175.27,175.27,0,0,1,29.46-2.29c15.24,0,25.64,2.57,32.8,8.57,5.86,4.87,9.17,12.24,9.17,21.36,0,13.7-9.31,23-19.35,26.57v.46c7.71,2.91,12.2,10.24,14.83,20.58,3.39,13.31,6.29,25.51,8.41,29.64H164c-1.65-3.07-4.19-11.86-7.16-25.09-3-13.86-8.1-18.36-19.14-18.61H127.9v43.7H108.62Zm19.28,46.94h11.49c13.18,0,21.3-6.95,21.3-17.52,0-11.57-8.16-17-20.72-17a54.79,54.79,0,0,0-12.07,1Z"/><path class="cls-2" d="M257.85,314.13H217.77v31.2h44.81v16H198.33V255h61.91v16H217.77v27.34h40.08Z"/><path class="cls-2" d="M279.21,340.13a53.87,53.87,0,0,0,25.7,6.78c12.4,0,19.34-5.83,19.34-14.53,0-8-5.39-12.76-18.85-17.64-17.57-6.24-28.79-15.66-28.79-30.9,0-17.43,14.57-30.54,37.64-30.54,11.53,0,20,2.45,25.5,5.26l-4.65,15.67a46.11,46.11,0,0,0-21.25-5.05c-12.33,0-17.57,6.56-17.57,12.82,0,8.16,6.16,12,20.35,17.41,18.48,7,27.36,16.32,27.36,31.61,0,17.11-12.88,32-40.33,32-11.26,0-22.93-3.2-28.75-6.76Z"/><path class="cls-2" d="M381.88,271.28H351.51V255H432v16.32H401.31v90H381.88Z"/><path class="cls-2" d="M498.17,331.25l-9.08,30.06H469L503.14,255h24.74l34.56,106.35H541.58L532,331.25Zm30.57-14.68-8.38-26.21c-2-6.59-3.8-13.82-5.4-20h-.35c-1.55,6.23-3.18,13.6-5.05,19.92l-8.22,26.28Z"/><path class="cls-2" d="M577.26,256.32A175.29,175.29,0,0,1,607,254.13c14.18,0,24.54,3,31.31,8.7,6.34,5.2,10.42,13.55,10.42,23.55s-3.15,18.38-9.07,24.09c-7.81,7.74-19.84,11.45-33.62,11.45a47.42,47.42,0,0,1-9.51-.75v40.14H577.26Zm19.28,49.57a38.45,38.45,0,0,0,9.52.89c14.52,0,23.38-7.23,23.38-19.7,0-11.72-8.2-18-21.65-18a55.68,55.68,0,0,0-11.25.93Z"/><path class="cls-2" d="M684.88,255V361.31H665.44V255Z"/></svg>